<?xml version="1.0" encoding="UTF-8"?>
<svg id="Layer_1" data-name="Layer 1" xmlns="http://www.w3.org/2000/svg" viewBox="0 0 70.37 46.8">
  <defs>
    <style>
      .cls-1 {
        fill: #ffe109;
      }

      .cls-2 {
        fill: #ffed6b;
        stroke: #ffed6b;
        stroke-miterlimit: 10;
      }

      .cls-3 {
        fill: #b6784e;
      }
    </style>
  </defs>
  <g>
    <path class="cls-3" d="m2.38.12c-.48.26-.97.48-1.48.67C.45.95.18,1.4.23,1.88c.02.18.04.36.06.54,0,0,2.75-.08,3.52-1.82C3.54.07,2.9-.16,2.38.12Z"/>
    <path class="cls-1" d="m68.09,29.13c.07.12.12.25.13.39l.38,2.9c.02.16,0,.32-.05.47-.07.2-.19.37-.36.5-.23.18-.46.35-.69.51-.88.62-1.81,1.2-2.61,1.89-.81.69-1.5,1.49-2.22,2.26-3.42,3.6-7.87,6.62-12.63,8.13-4.66,1.47-11.19.02-15.84-1.2-11.09-2.9-20.91-9.9-27.33-19.4-2.13-3.16-3.89-6.58-5.2-10.16C1.04,13.72.17,11.71,0,9.89c-.07-.79.3-1.7.37-2.51.09-.91.09-1.82.06-2.73-.03-.74-.09-1.49-.16-2.23,0,0,2.75-.08,3.52-1.82.6,1.28,1.8,2.2,2.85,3.62.48.66.82.63,1.79,1.39.61.48.85,1.27,1.36,1.86,1.09,1.24,2.35,2.32,3.65,3.32,2.67,2.05,5.59,3.77,8.18,5.93,9.09,7.62,16.94,11.62,28.14,11.78,3.37.05,6.78-.14,10.2-.53,2.19-.24,4.53-.24,6.63.36.33.09.65.2.96.32.23.1.42.26.54.47Z"/>
  </g>
  <path class="cls-2" d="m6.85,7.52s23.31,20.37,25.58,19.16c0,0,19.26,7.34,26.67,3.47l8.9-1.16.53,4.08-28,1.59c-1.98.11-3.96-.24-5.79-1.04-7.22-3.15-25.73-12.17-29.01-23.02l1.11-3.07Z"/>
  <path class="cls-3" d="m70.22,31.18c.1-.18.19-.39.14-.6-.04-.18-.19-.32-.32-.43-.58-.5-1.21-.9-1.89-1.22,0,0-.94,2.96.53,4.08.61-.53,1.15-1.12,1.54-1.83Z"/>
</svg>