<?xml version="1.0" encoding="UTF-8"?>
<svg id="Layer_1" data-name="Layer 1" xmlns="http://www.w3.org/2000/svg" viewBox="0 0 36.26 22.03">
  <defs>
    <style>
      .cls-1 {
        fill: #fc932b;
      }

      .cls-2 {
        fill: #fdb556;
      }

      .cls-3 {
        fill: #ffc988;
      }
    </style>
  </defs>
  <path class="cls-1" d="m33.46,21.01c-3.29,1.67-7.18-1.9-10.26-4.23-.85-.64-1.67-1.38-2.63-1.75-1.92-.76-4.06.05-5.85,1.28s-3.39,2.86-5.23,3.94c-2.48,1.46-5.8,2.66-8,.94-3.27-2.55-.41-12.47,1.69-14.93C8.85-.41,14.36-.17,20.46.1c5.73.25,22.36,16.15,13,20.91Z"/>
  <path class="cls-2" d="m30.22,17.93c-2.58,1.31-5.61-1.49-8.03-3.31-.67-.5-1.31-1.08-2.06-1.37-1.51-.59-3.18.04-4.58,1s-2.65,2.24-4.1,3.08c-1.94,1.14-4.54,2.08-6.26.73-2.56-2-.32-9.76,1.32-11.68C10.97,1.17,15.28,1.36,20.04,1.57c4.48.2,17.5,12.64,10.17,16.36Z"/>
  <path class="cls-3" d="m25.44,15.64c-1.45.65-3.16-.76-4.53-1.68-.38-.25-.74-.54-1.16-.69-.85-.3-1.79.01-2.57.49s-1.49,1.11-2.3,1.53c-1.09.57-2.55,1.03-3.52.35-1.45-1.01-.21-4.88.71-5.84,2.49-2.59,4.91-2.49,7.6-2.37,2.52.11,9.88,6.37,5.77,8.21Z"/>
</svg>