<?xml version="1.0" encoding="UTF-8"?>
<svg id="Layer_1" data-name="Layer 1" xmlns="http://www.w3.org/2000/svg" viewBox="0 0 32.5 34.87">
  <defs>
    <style>
      .cls-1 {
        fill: #d85d86;
      }

      .cls-2 {
        fill: #f2688f;
      }

      .cls-3 {
        fill: #32a000;
      }

      .cls-4 {
        fill: #bc557d;
      }

      .cls-5 {
        fill: #63c244;
        stroke: #63c244;
        stroke-miterlimit: 10;
      }
    </style>
  </defs>
  <path class="cls-1" d="m29.2,25.21l-7.4,7.4c-3.05,3.05-8.04,3.01-11.15-.1l-7.15-7.15c-.66-.66-1.21-1.43-1.6-2.27-2.88-6.31-.46-13.91,7.78-13.49,1.18.06,2.47.28,3.89.7,1.52.45,3.14.47,4.64,0,9.53-3.07,18.83,3.76,11.86,13.88-.26.38-.55.72-.88,1.05Z"/>
  <path class="cls-2" d="m28.46,24.37l-7.4,7.4c-3.05,3.05-8.04,3.01-11.15-.1l-7.15-7.15c-.66-.66-1.21-1.43-1.6-2.27-2.88-6.31-.46-13.91,7.78-13.49,1.18.06,2.47.28,3.89.7,1.52.45,3.14.47,4.64,0,9.53-3.07,18.83,3.76,11.86,13.88-.26.38-.55.72-.88,1.05Z"/>
  <path class="cls-3" d="m24.63,8.53c-1.14-1.81-7.85-1.22-7.24.24.03.07.04.12.04.18-1.74-2.22-.54-5.83.16-7.49-1.11-.13-2.22-.29-3.33-.42-1.7,2.39-1.24,6.7-.93,8.59-.98-.06-5.35.63-6.73,2.1s-2.65,1.63-2.65,1.63c0,0,5.01,2.57,6.9.61,1.89-1.97,3.31-1.68,3.31-1.68,0,0-.41,2.76,1.47,3.55,1.88.78,2.25,2.02,2.25,2.02,0,0,2.59-3.41,1.36-5.52-1.24-2.11,6.16-.77,6.01-.04-.14.73.55-1.91-.62-3.77Z"/>
  <path class="cls-5" d="m24.23,8.03c-1.14-1.81-7.85-1.22-7.24.24.03.07.04.12.04.18-1.74-2.22-.54-5.83.16-7.49-1.11-.13-2.22-.29-3.33-.42-1.7,2.39-1.24,6.7-.93,8.59-.98-.06-5.35.63-6.73,2.1s-2.65,1.63-2.65,1.63c0,0,5.01,2.57,6.9.61,1.89-1.97,3.31-1.68,3.31-1.68,0,0-.41,2.76,1.47,3.55,1.88.78,2.25,2.02,2.25,2.02,0,0,2.59-3.41,1.36-5.52-1.24-2.11,6.16-.77,6.01-.04-.14.73.55-1.91-.62-3.77Z"/>
  <g>
    <ellipse class="cls-4" cx="3.54" cy="17.75" rx=".74" ry="1.27"/>
    <ellipse class="cls-1" cx="3.3" cy="17.61" rx=".74" ry="1.27"/>
  </g>
  <g>
    <ellipse class="cls-4" cx="4.16" cy="22.89" rx=".74" ry="1.27"/>
    <ellipse class="cls-1" cx="3.91" cy="22.76" rx=".74" ry="1.27"/>
  </g>
  <g>
    <ellipse class="cls-4" cx="8.87" cy="22.51" rx=".74" ry="1.27"/>
    <ellipse class="cls-1" cx="8.63" cy="22.37" rx=".74" ry="1.27"/>
  </g>
  <g>
    <ellipse class="cls-4" cx="12.53" cy="24.15" rx=".74" ry="1.27"/>
    <ellipse class="cls-1" cx="12.28" cy="24.02" rx=".74" ry="1.27"/>
  </g>
  <g>
    <ellipse class="cls-4" cx="10.35" cy="28.34" rx=".74" ry="1.27"/>
    <ellipse class="cls-1" cx="10.11" cy="28.21" rx=".74" ry="1.27"/>
  </g>
  <g>
    <ellipse class="cls-4" cx="8.37" cy="17.61" rx=".74" ry="1.27"/>
    <ellipse class="cls-1" cx="8.13" cy="17.48" rx=".74" ry="1.27"/>
  </g>
  <g>
    <ellipse class="cls-4" cx="13.71" cy="17.68" rx=".74" ry="1.27"/>
    <ellipse class="cls-1" cx="13.46" cy="17.54" rx=".74" ry="1.27"/>
  </g>
  <g>
    <ellipse class="cls-4" cx="14.35" cy="31.41" rx=".74" ry="1.27"/>
    <ellipse class="cls-1" cx="14.11" cy="31.28" rx=".74" ry="1.27"/>
  </g>
  <g>
    <ellipse class="cls-4" cx="26.12" cy="22.44" rx=".74" ry="1.27"/>
    <ellipse class="cls-1" cx="25.88" cy="22.3" rx=".74" ry="1.27"/>
  </g>
  <g>
    <ellipse class="cls-4" cx="20.85" cy="21.42" rx=".74" ry="1.27"/>
    <ellipse class="cls-1" cx="20.61" cy="21.28" rx=".74" ry="1.27"/>
  </g>
  <g>
    <ellipse class="cls-4" cx="18.94" cy="31.28" rx=".74" ry="1.27"/>
    <ellipse class="cls-1" cx="18.7" cy="31.14" rx=".74" ry="1.27"/>
  </g>
  <g>
    <ellipse class="cls-4" cx="16.8" cy="21.69" rx=".74" ry="1.27"/>
    <ellipse class="cls-1" cx="16.56" cy="21.56" rx=".74" ry="1.27"/>
  </g>
  <g>
    <ellipse class="cls-4" cx="16.74" cy="27.14" rx=".74" ry="1.27"/>
    <ellipse class="cls-1" cx="16.5" cy="27.01" rx=".74" ry="1.27"/>
  </g>
  <ellipse class="cls-4" cx="22.84" cy="26.12" rx=".74" ry="1.27"/>
  <g>
    <ellipse class="cls-4" cx="28.47" cy="18.81" rx=".74" ry="1.27"/>
    <ellipse class="cls-1" cx="28.23" cy="18.68" rx=".74" ry="1.27"/>
  </g>
  <g>
    <ellipse class="cls-4" cx="27.59" cy="13.36" rx=".74" ry="1.27"/>
    <ellipse class="cls-1" cx="27.35" cy="13.22" rx=".74" ry="1.27"/>
  </g>
  <g>
    <ellipse class="cls-4" cx="23.29" cy="16.79" rx=".74" ry="1.27"/>
    <ellipse class="cls-1" cx="23.04" cy="16.65" rx=".74" ry="1.27"/>
  </g>
</svg>