<svg xmlns="http://www.w3.org/2000/svg" width="110.87" height="73.721" viewBox="0 0 110.87 73.721">
  <g id="banana.svg" transform="translate(0.009 0)">
    <g id="Group_39" data-name="Group 39" transform="translate(-0.009 0)">
      <path id="Path_369" data-name="Path 369" d="M3.62.189A18.223,18.223,0,0,1,1.289,1.244,1.623,1.623,0,0,0,.233,2.961l.095.851S4.66,3.686,5.873.945A1.66,1.66,0,0,0,3.62.189Z" transform="translate(0.143 0)" fill="#b6784e"/>
      <path id="Path_370" data-name="Path 370" d="M107.263,45.542a1.422,1.422,0,0,1,.2.614l.6,4.568a1.675,1.675,0,0,1-.646,1.528q-.543.425-1.087.8c-1.386.977-2.851,1.89-4.111,2.977a43.853,43.853,0,0,0-3.5,3.56A48.45,48.45,0,0,1,78.83,72.4c-7.341,2.316-17.627.032-24.952-1.89a75.339,75.339,0,0,1-43.051-30.56,74.515,74.515,0,0,1-8.191-16C1.643,21.267.273,18.1.005,15.234c-.11-1.244.473-2.678.583-3.954a32.67,32.67,0,0,0,.095-4.3C.635,5.814.541,4.633.43,3.467c0,0,4.332-.126,5.545-2.867.945,2.016,2.835,3.466,4.489,5.7.756,1.04,1.292.992,2.82,2.19.961.756,1.339,2,2.142,2.93a40.186,40.186,0,0,0,5.75,5.23c4.206,3.229,8.806,5.939,12.885,9.341C48.381,38,60.746,44.3,78.389,44.549a125.526,125.526,0,0,0,16.067-.835,27.688,27.688,0,0,1,10.444.567,15.468,15.468,0,0,1,1.512.5,1.78,1.78,0,0,1,.851.74Z" transform="translate(0.009 0.345)" fill="#ffe109"/>
    </g>
    <path id="Path_371" data-name="Path 371" d="M7.494,7.52S44.213,39.608,47.789,37.7c0,0,30.339,11.562,42.012,5.466l14.02-1.827.835,6.427-44.107,2.5a19.976,19.976,0,0,1-9.121-1.638C40.054,43.672,10.9,29.463,5.73,12.372L7.479,7.536Z" transform="translate(3.301 4.326)" fill="#ffed6b"/>
    <path id="Path_371_-_Outline" data-name="Path 371 - Outline" d="M7.471,6.836l.352.307c.087.076,8.759,7.648,17.962,15.122C41.877,35.332,46.234,37.283,47.4,37.283a.355.355,0,0,0,.155-.023l.2-.107.213.081c.047.018,4.81,1.825,11.181,3.609,5.865,1.642,14.331,3.6,21.355,3.6a19.9,19.9,0,0,0,9.066-1.718l.079-.041,14.6-1.9.969,7.456L60.577,50.771c-.381.021-.767.032-1.148.032a20.352,20.352,0,0,1-8.2-1.711A166.549,166.549,0,0,1,25.972,35.466C14.485,27.721,7.514,20,5.251,12.516L5.2,12.358l1.843-5.1ZM47.4,38.283c-.847,0-2.675-.5-8.75-4.821-3.537-2.516-8.078-6.023-13.5-10.422-7.9-6.412-15.4-12.9-17.444-14.67L6.257,12.385C8.5,19.593,15.322,27.079,26.531,34.637a165.522,165.522,0,0,0,25.1,13.539,19.358,19.358,0,0,0,7.8,1.628c.362,0,.73-.01,1.092-.03L104.09,47.3l-.7-5.4L89.952,43.652a21,21,0,0,1-9.45,1.791c-7.14,0-15.706-1.979-21.634-3.639-5.721-1.6-10.158-3.225-11.081-3.568A1.5,1.5,0,0,1,47.4,38.283Z" transform="translate(3.301 4.326)" fill="#ffed6b"/>
    <path id="Path_372" data-name="Path 372" d="M71.581,32.474a1.078,1.078,0,0,0-.284-1.622A12.993,12.993,0,0,0,68.32,28.93s-1.481,4.663.835,6.427A10.652,10.652,0,0,0,71.581,32.474Z" transform="translate(39.037 16.642)" fill="#b6784e"/>
  </g>
</svg>
