<svg xmlns="http://www.w3.org/2000/svg" width="76.459" height="104.486" viewBox="0 0 76.459 104.486">
  <g id="grape.svg" transform="translate(-0.005 0.009)">
    <g id="Group_40" data-name="Group 40" transform="translate(47.386 61.508)">
      <circle id="Ellipse_74" data-name="Ellipse 74" cx="11.278" cy="11.278" r="11.278" fill="#c67fff"/>
      <path id="Path_373" data-name="Path 373" d="M42.105,29.963A11.27,11.27,0,0,1,20.42,31.893,11.262,11.262,0,1,0,42.129,29.68a.6.6,0,0,1-.047.283Z" transform="translate(-20.067 -22.051)" fill="#d7fbff" opacity="0.33"/>
    </g>
    <path id="Path_374" data-name="Path 374" d="M33.745,11.829A11.26,11.26,0,0,0,23.432,9.475a11.264,11.264,0,0,0,.494,22.015c-.071-.071-.165-.118-.235-.188h0A11.261,11.261,0,0,0,33.745,11.853Z" transform="translate(19.857 11.56)" fill="#c67fff"/>
    <g id="Group_41" data-name="Group 41" transform="translate(52.26 47.311)">
      <circle id="Ellipse_75" data-name="Ellipse 75" cx="11.278" cy="11.278" r="11.278" transform="translate(0 0.188)" fill="#c67fff"/>
      <path id="Path_375" data-name="Path 375" d="M25.8,21.14a11.272,11.272,0,0,1,2,21.685A11.267,11.267,0,1,0,25.49,21.116a1.146,1.146,0,0,1,.283.024Z" transform="translate(-17.908 -20.41)" fill="#d7fbff" opacity="0.33"/>
    </g>
    <g id="Group_42" data-name="Group 42" transform="translate(9.926 40.294)">
      <circle id="Ellipse_76" data-name="Ellipse 76" cx="11.278" cy="11.278" r="11.278" fill="#c67fff"/>
      <path id="Path_376" data-name="Path 376" d="M22.085,18.723A11.26,11.26,0,0,1,4.85,32,11.265,11.265,0,1,0,21.967,18.44a1.262,1.262,0,0,1,.118.259Z" transform="translate(-3.531 -16.062)" fill="#d7fbff" opacity="0.33"/>
    </g>
    <g id="Group_43" data-name="Group 43" transform="translate(7.924 42.366)">
      <circle id="Ellipse_77" data-name="Ellipse 77" cx="11.278" cy="11.278" r="11.278" fill="#c67fff"/>
      <path id="Path_377" data-name="Path 377" d="M24.445,20.976A11.27,11.27,0,0,1,3.56,27.121,11.266,11.266,0,1,0,24.421,20.67v.283Z" transform="translate(-3.277 -15.113)" fill="#d7fbff" opacity="0.33"/>
    </g>
    <path id="Path_378" data-name="Path 378" d="M36.575,19.029a11.26,11.26,0,0,0-10.313-2.355,11.264,11.264,0,0,0,.494,22.015c-.071-.071-.165-.118-.235-.188h0A11.261,11.261,0,0,0,36.575,19.053Z" transform="translate(23.691 21.312)" fill="#c67fff"/>
    <path id="Path_378_-_Outline" data-name="Path 378 - Outline" d="M29.206,16.034h0a11.525,11.525,0,0,1,7.531,2.806l.087.075v.024A11.508,11.508,0,0,1,29.2,39.071a11.645,11.645,0,0,1-1.861-.15l.171.171-.8-.158a11.587,11.587,0,0,1,2.5-22.9Zm7.118,3.11a11.024,11.024,0,0,0-7.118-2.61h0a11.039,11.039,0,0,0-2.879.382l-.007,0a11.012,11.012,0,0,0-.429,21.307l-.177-.177.865.21a11.139,11.139,0,0,0,2.623.313,11.009,11.009,0,0,0,7.208-19.33l-.086-.075Z" transform="translate(23.691 21.312)" fill="#ae76e5"/>
    <path id="Path_379" data-name="Path 379" d="M38.515,14.669A11.26,11.26,0,0,0,28.2,12.315,11.264,11.264,0,0,0,28.7,34.329c-.071-.071-.165-.118-.235-.188h0A11.261,11.261,0,0,0,38.515,14.693Z" transform="translate(26.318 15.407)" fill="#c67fff"/>
    <path id="Path_380" data-name="Path 380" d="M24.575,25.609a11.26,11.26,0,0,0-10.313-2.355,11.264,11.264,0,0,0,.494,22.015c-.071-.071-.165-.118-.235-.188h0A11.261,11.261,0,0,0,24.575,25.633Z" transform="translate(7.436 30.225)" fill="#c67fff"/>
    <path id="Path_381" data-name="Path 381" d="M33.635,31.019a11.26,11.26,0,0,0-10.313-2.355,11.264,11.264,0,0,0,.494,22.015c-.071-.071-.165-.118-.235-.188h0A11.261,11.261,0,0,0,33.635,31.043Z" transform="translate(19.708 37.553)" fill="#c67fff"/>
    <path id="Path_381_-_Outline" data-name="Path 381 - Outline" d="M26.266,27.774h0a11.775,11.775,0,0,1,7.695,2.867l.173.15v.027a11.758,11.758,0,0,1-7.872,20.494q-.583,0-1.165-.057l.231.231L23.72,51.17A11.764,11.764,0,0,1,23.2,28.18,11.789,11.789,0,0,1,26.266,27.774Zm6.868,3.477a10.774,10.774,0,0,0-6.868-2.477h0a10.789,10.789,0,0,0-2.814.373l-.014,0a10.76,10.76,0,0,0-1.421,20.484l-.049-.049,1.731.42a10.888,10.888,0,0,0,2.564.306,10.758,10.758,0,0,0,7.045-18.891l-.173-.15Z" transform="translate(19.708 37.553)" fill="#ae76e5"/>
    <g id="Group_44" data-name="Group 44" transform="translate(53.908 17.814)">
      <circle id="Ellipse_78" data-name="Ellipse 78" cx="11.278" cy="11.278" r="11.278" transform="translate(0 0.301)" fill="#c67fff"/>
      <path id="Path_382" data-name="Path 382" d="M23.185,17.06a11.269,11.269,0,0,1,19.8,9.041A11.262,11.262,0,1,0,23.02,17.295a1.429,1.429,0,0,0,.165-.235Z" transform="translate(-22.902 -7.882)" fill="#d7fbff" opacity="0.33"/>
    </g>
    <g id="Group_45" data-name="Group 45" transform="translate(30.083 28.2)">
      <circle id="Ellipse_79" data-name="Ellipse 79" cx="11.278" cy="11.278" r="11.278" transform="translate(0.162 0.274)" fill="#c67fff"/>
      <path id="Path_383" data-name="Path 383" d="M13.084,25.047a11.265,11.265,0,0,1,21.638,2.307A11.263,11.263,0,1,0,12.99,25.306a1.328,1.328,0,0,1,.094-.283Z" transform="translate(-12.851 -12.294)" fill="#d7fbff" opacity="0.33"/>
    </g>
    <path id="Path_384" data-name="Path 384" d="M34.465,37.809a11.26,11.26,0,0,0-10.313-2.355,11.264,11.264,0,0,0,.494,22.015c-.071-.071-.165-.118-.235-.188h0A11.261,11.261,0,0,0,34.465,37.833Z" transform="translate(20.833 46.75)" fill="#c67fff"/>
    <path id="Path_384_-_Outline" data-name="Path 384 - Outline" d="M27.1,34.939h0a11.4,11.4,0,0,1,7.45,2.775l.043.037v.024a11.383,11.383,0,0,1-7.5,19.951,11.521,11.521,0,0,1-2.231-.218l.163.163-.4-.079a11.389,11.389,0,0,1-.5-22.259A11.406,11.406,0,0,1,27.1,34.939Zm7.243,2.927A11.149,11.149,0,0,0,27.1,35.189h0a11.165,11.165,0,0,0-2.912.386A11.138,11.138,0,0,0,24.2,57.243l-.189-.189.433.1a11.264,11.264,0,0,0,2.653.317,11.134,11.134,0,0,0,7.29-19.549l-.043-.037Z" transform="translate(20.833 46.75)" fill="#ae76e5"/>
    <g id="Group_46" data-name="Group 46" transform="translate(25.136 65.582)">
      <circle id="Ellipse_80" data-name="Ellipse 80" cx="11.278" cy="11.278" r="11.278" fill="#c67fff"/>
      <path id="Path_385" data-name="Path 385" d="M28.545,29.463A11.26,11.26,0,0,1,11.31,42.742,11.265,11.265,0,1,0,28.427,29.18a1.262,1.262,0,0,1,.118.259Z" transform="translate(-9.991 -26.802)" fill="#d7fbff" opacity="0.33"/>
    </g>
    <path id="Path_386" data-name="Path 386" d="M29.685,18.939a11.26,11.26,0,0,0-10.313-2.355A11.264,11.264,0,0,0,19.866,38.6c-.071-.071-.165-.118-.235-.188h0A11.261,11.261,0,0,0,29.685,18.963Z" transform="translate(14.358 21.19)" fill="#c67fff"/>
    <path id="Path_386_-_Outline" data-name="Path 386 - Outline" d="M22.316,15.944h0a11.525,11.525,0,0,1,7.531,2.806l.087.075v.024a11.508,11.508,0,0,1-7.622,20.132,11.648,11.648,0,0,1-1.861-.15l.171.171-.8-.158a11.514,11.514,0,0,1-.508-22.5A11.54,11.54,0,0,1,22.316,15.944Zm7.118,3.11a11.024,11.024,0,0,0-7.118-2.61h0a11.039,11.039,0,0,0-2.879.382l-.007,0A11.012,11.012,0,0,0,19,38.135l-.177-.177.865.21a11.139,11.139,0,0,0,2.623.313,11.008,11.008,0,0,0,7.208-19.33l-.086-.075Z" transform="translate(14.358 21.19)" fill="#ae76e5"/>
    <path id="Path_387" data-name="Path 387" d="M26.675,23.679a11.26,11.26,0,0,0-10.313-2.355,11.264,11.264,0,0,0,.494,22.015c-.071-.071-.165-.118-.235-.188h0A11.261,11.261,0,0,0,26.675,23.7Z" transform="translate(10.281 27.611)" fill="#c67fff"/>
    <path id="Path_387_-_Outline" data-name="Path 387 - Outline" d="M19.306,20.809h0a11.4,11.4,0,0,1,7.45,2.775l.043.037v.024A11.383,11.383,0,0,1,19.3,43.6a11.521,11.521,0,0,1-2.231-.218l.163.163-.4-.079a11.389,11.389,0,0,1-.5-22.259A11.405,11.405,0,0,1,19.306,20.809Zm7.243,2.927a11.149,11.149,0,0,0-7.243-2.677h0a11.164,11.164,0,0,0-2.912.386,11.138,11.138,0,0,0,.012,21.668l-.189-.189.433.1a11.264,11.264,0,0,0,2.653.317A11.134,11.134,0,0,0,26.593,23.8l-.043-.037Z" transform="translate(10.281 27.611)" fill="#ae76e5"/>
    <path id="Path_388" data-name="Path 388" d="M25.425,13.039a11.26,11.26,0,0,0-10.313-2.355A11.264,11.264,0,0,0,15.606,32.7c-.071-.071-.165-.118-.235-.188h0A11.261,11.261,0,0,0,25.425,13.063Z" transform="translate(8.588 13.199)" fill="#c67fff"/>
    <path id="Path_388_-_Outline" data-name="Path 388 - Outline" d="M18.057,10.169h0a11.4,11.4,0,0,1,7.45,2.775l.043.037v.024a11.383,11.383,0,0,1-7.5,19.951,11.521,11.521,0,0,1-2.231-.218l.163.163-.4-.079a11.389,11.389,0,0,1-.5-22.259A11.406,11.406,0,0,1,18.057,10.169ZM25.3,13.1a11.149,11.149,0,0,0-7.243-2.677h0a11.164,11.164,0,0,0-2.912.386,11.138,11.138,0,0,0,.012,21.668l-.189-.189.433.1a11.264,11.264,0,0,0,2.653.317,11.134,11.134,0,0,0,7.29-19.549L25.3,13.12Z" transform="translate(8.588 13.199)" fill="#ae76e5"/>
    <path id="Path_389" data-name="Path 389" d="M33.885,23.509a11.26,11.26,0,0,0-10.313-2.355,11.264,11.264,0,0,0,.494,22.015c-.071-.071-.165-.118-.235-.188h0A11.261,11.261,0,0,0,33.885,23.533Z" transform="translate(20.047 27.38)" fill="#c67fff"/>
    <path id="Path_389_-_Outline" data-name="Path 389 - Outline" d="M26.516,20.639h0a11.4,11.4,0,0,1,7.45,2.775l.043.037v.024a11.383,11.383,0,0,1-7.5,19.951,11.521,11.521,0,0,1-2.231-.218l.163.163-.4-.079a11.389,11.389,0,0,1-.5-22.259A11.405,11.405,0,0,1,26.516,20.639Zm7.243,2.927a11.149,11.149,0,0,0-7.243-2.677h0a11.164,11.164,0,0,0-2.912.386,11.138,11.138,0,0,0,.012,21.668l-.189-.189.433.1a11.264,11.264,0,0,0,2.653.317A11.133,11.133,0,0,0,33.8,23.627l-.043-.037Z" transform="translate(20.047 27.38)" fill="#ae76e5"/>
    <path id="Path_390" data-name="Path 390" d="M7.982,22.033c2.048-4.615,17.941-5.533,17-1.907a.649.649,0,0,0,0,.424c3.32-5.769-.706-13.821-2.9-17.471C24.652,2.4,27.171,1.643,29.738.96c4.78,5.015,5.18,15.234,5.086,19.778,2.26-.471,12.714-.353,16.458,2.637s6.734,2.92,6.734,2.92-10.854,7.723-15.94,3.767-8.311-2.8-8.311-2.8,1.884,6.334-2.237,8.782c-4.12,2.472-4.591,5.486-4.591,5.486s-7.228-7.087-5.062-12.455S7.2,29.355,7.793,31.027s-1.931-4.285.165-9.041Z" transform="translate(9.455 0.555)" fill="#569e3b"/>
    <path id="Path_391" data-name="Path 391" d="M6.952,21.623c2.048-4.615,17.941-5.533,17-1.907a.649.649,0,0,0,0,.424c3.32-5.769-.706-13.821-2.9-17.471,2.566-.683,5.086-1.436,7.652-2.119,4.78,5.015,5.18,15.234,5.086,19.778,2.26-.471,12.714-.353,16.458,2.637s6.734,2.92,6.734,2.92-10.854,7.723-15.94,3.767-8.311-2.8-8.311-2.8,1.884,6.334-2.237,8.782c-4.12,2.472-4.591,5.486-4.591,5.486s-7.228-7.087-5.062-12.455-14.669.283-14.08,1.954-1.931-4.285.165-9.041Z" transform="translate(8.06)" fill="#63c244"/>
    <path id="Path_391_-_Outline" data-name="Path 391 - Outline" d="M26.25,42.156l-.694-.68a26.106,26.106,0,0,1-3.417-4.305A15.269,15.269,0,0,1,20.237,33a7.094,7.094,0,0,1,.143-4.525,1.135,1.135,0,0,0,.055-1.04c-.233-.346-.921-.536-1.938-.536a23.337,23.337,0,0,0-6.987,1.485c-2.841,1-4.047,1.846-4.246,2.149.1.293.142.457,0,.658l-.148.211-.53,0-.15-.229a13.255,13.255,0,0,1-.752-3.359,12.8,12.8,0,0,1,.787-6.445L6.9,20.4l.1.2a9.487,9.487,0,0,1,4.382-2.538,25,25,0,0,1,7.234-1.078c1.644,0,4.549.191,5.539,1.471l.01.013a13,13,0,0,0-.08-7.733,32.269,32.269,0,0,0-3.46-7.814l-.342-.57.642-.171c1.28-.34,2.57-.7,3.819-1.058S27.292.409,28.579.067l.286-.076.2.214c4.767,5,5.276,14.915,5.233,19.539a25.113,25.113,0,0,1,2.727-.124,42.844,42.844,0,0,1,7.2.605,14.428,14.428,0,0,1,6.337,2.349c3.479,2.778,6.286,2.81,6.4,2.81h.008l1.61-.026-1.31.933A36.8,36.8,0,0,1,53.1,28.777a19.22,19.22,0,0,1-8.367,2.5,6.341,6.341,0,0,1-4-1.233c-3.032-2.358-5.349-2.853-6.759-2.853a4.936,4.936,0,0,0-.634.039,13.234,13.234,0,0,1,.315,3.1c-.062,2.653-1.068,4.634-2.908,5.728C26.879,38.386,26.4,41.168,26.4,41.2ZM18.5,25.9c1.4,0,2.33.329,2.767.977a2.035,2.035,0,0,1,.043,1.973c-1.665,4.127,2.741,9.508,4.371,11.3A10.39,10.39,0,0,1,30.24,35.2c3.744-2.225,2.033-8.151,2.015-8.211l-.135-.454.446-.16a4.471,4.471,0,0,1,1.414-.186c1.567,0,4.117.532,7.373,3.064a5.372,5.372,0,0,0,3.382,1.022c3.9,0,8.718-2.729,10.853-4.073a13.915,13.915,0,0,1-5.648-2.851c-2.528-2.019-8.535-2.736-12.91-2.736a18.489,18.489,0,0,0-3.134.2l-.615.128.013-.628c.086-4.128-.213-14.171-4.748-19.207-1.184.318-2.374.654-3.528.98-1.046.3-2.122.6-3.2.891a32.559,32.559,0,0,1,3.233,7.5c1.07,3.947.846,7.281-.667,9.91l-.515.894-.383-.958a1.133,1.133,0,0,1-.019-.74.551.551,0,0,0-.1-.514c-.4-.524-1.865-1.083-4.748-1.083-4.572,0-10.157,1.467-11.209,3.837l-.311.7a13.568,13.568,0,0,0-.126,6.92,19.147,19.147,0,0,1,4.464-2.094A24.065,24.065,0,0,1,18.5,25.9Z" transform="translate(8.06)" fill="#63c244"/>
    <path id="Path_392" data-name="Path 392" d="M19.085,16.969A11.26,11.26,0,0,0,8.772,14.615a11.264,11.264,0,0,0,.494,22.015c-.071-.071-.165-.118-.235-.188h0A11.261,11.261,0,0,0,19.085,16.993Z" transform="translate(0 18.522)" fill="#c67fff"/>
    <path id="Path_392_-_Outline" data-name="Path 392 - Outline" d="M11.716,14.1h0a11.4,11.4,0,0,1,7.45,2.775l.043.037v.024a11.383,11.383,0,0,1-7.5,19.951,11.52,11.52,0,0,1-2.231-.218l.163.163-.4-.079a11.389,11.389,0,0,1-.5-22.259A11.405,11.405,0,0,1,11.716,14.1Zm7.243,2.927a11.149,11.149,0,0,0-7.243-2.677h0a11.164,11.164,0,0,0-2.912.386A11.138,11.138,0,0,0,8.816,36.4l-.189-.189.433.1a11.264,11.264,0,0,0,2.653.317A11.133,11.133,0,0,0,19,17.087l-.043-.037Z" transform="translate(0 18.522)" fill="#ae76e5"/>
    <path id="Path_393" data-name="Path 393" d="M37.065,31.779a11.26,11.26,0,0,0-10.313-2.355,11.264,11.264,0,0,0,.494,22.015c-.071-.071-.165-.118-.235-.188h0A11.261,11.261,0,0,0,37.065,31.8Z" transform="translate(24.354 38.582)" fill="#c67fff"/>
    <path id="Path_393_-_Outline" data-name="Path 393 - Outline" d="M29.7,28.909h0a11.4,11.4,0,0,1,7.45,2.775l.043.037v.024a11.383,11.383,0,0,1-7.5,19.951,11.521,11.521,0,0,1-2.231-.218l.163.163-.4-.079A11.462,11.462,0,0,1,29.7,28.909Zm7.243,2.927A11.149,11.149,0,0,0,29.7,29.159h0a11.164,11.164,0,0,0-2.912.386A11.138,11.138,0,0,0,26.8,51.213l-.189-.189.433.1a11.264,11.264,0,0,0,2.653.317A11.133,11.133,0,0,0,36.983,31.9l-.043-.037Z" transform="translate(24.354 38.582)" fill="#ae76e5"/>
    <path id="Path_394" data-name="Path 394" d="M40.925,18.339A11.386,11.386,0,1,0,31.106,38c-.071-.071-.165-.118-.235-.188h0A11.261,11.261,0,0,0,40.925,18.363Z" transform="translate(29.583 20.378)" fill="#c67fff"/>
    <path id="Path_394_-_Outline" data-name="Path 394 - Outline" d="M33.557,15.469h0a11.4,11.4,0,0,1,7.45,2.775l.043.037v.024a11.383,11.383,0,0,1-7.5,19.951,11.521,11.521,0,0,1-2.231-.218l.163.163-.4-.079a11.462,11.462,0,0,1,2.474-22.653ZM40.8,18.4a11.149,11.149,0,0,0-7.243-2.677h0a11.164,11.164,0,0,0-2.912.386,11.138,11.138,0,0,0,.012,21.668l-.189-.189.433.1a11.264,11.264,0,0,0,2.653.317,11.133,11.133,0,0,0,7.29-19.549L40.8,18.42Z" transform="translate(29.583 20.378)" fill="#ae76e5"/>
  </g>
</svg>
