<svg xmlns="http://www.w3.org/2000/svg" width="370" height="82.496" viewBox="0 0 370 82.496">
  <g id="official_squeezit_rebrand_logo" transform="translate(0 0.012)">
    <path id="Path_114" data-name="Path 114" d="M307.872,21.714a3.452,3.452,0,0,1,.179.369,6.412,6.412,0,0,0,3.254-2.718v-.1a.867.867,0,0,0-.87-.87H305.81c1.216,1.18,2.157,2.6,2.05,3.314Z" transform="translate(58.695 3.534)" fill="#f4a8d1"/>
    <path id="Path_115" data-name="Path 115" d="M307.96,41.49s-.1.024-.155.036a5.034,5.034,0,0,1-5.125,3.421,5.072,5.072,0,0,0,5.268-3.457Z" transform="translate(58.094 7.966)" fill="#f4a8d1"/>
    <path id="Path_116" data-name="Path 116" d="M307.96,41.49s-.1.024-.155.036a5.034,5.034,0,0,1-5.125,3.421,5.072,5.072,0,0,0,5.268-3.457Z" transform="translate(58.094 7.966)" fill="#d7fbff" opacity="0.33"/>
    <path id="Path_117" data-name="Path 117" d="M307.327,21.575a1.016,1.016,0,0,0-.167.107,5.41,5.41,0,0,0,.632-.143,3.451,3.451,0,0,0-.179-.369.454.454,0,0,1-.286.393Z" transform="translate(58.954 4.066)" fill="#569e3b"/>
    <path id="Path_118" data-name="Path 118" d="M309.51,24.662a.841.841,0,0,0,1.085-.811V23.78c-.405.346-.775.632-1.085.87Z" transform="translate(59.405 4.566)" fill="#569e3b"/>
    <path id="Path_119" data-name="Path 119" d="M307.188,42.279s.1-.024.155-.036a5.1,5.1,0,0,0,3.707-2.92c-.191-1.585-.918-2.443-2.753-1.085a5.234,5.234,0,0,0-1.693,2.145c-.262.62-.417,1.287-.644,1.931.06,0,.119.024.179.024a4.562,4.562,0,0,0,1.073-.06Z" transform="translate(58.724 7.212)" fill="#c67fff"/>
    <path id="Path_120" data-name="Path 120" d="M197.058,33.344a34.8,34.8,0,0,0-.524,4.625c-.012.393-.024.775-.024,1.132a2.46,2.46,0,0,0,2.563,2.479,45.167,45.167,0,0,0,5.721-.572,17.174,17.174,0,0,0,1.871-.465,11.766,11.766,0,0,0,1.347-.513c.131-.06.274-.119.405-.191a6.529,6.529,0,0,0,3.337-4.064,20.921,20.921,0,0,0,.691-5.185,22.777,22.777,0,0,0-.143-3.612c-.012-.107-.012-.215-.024-.322,0-.048-.024-.083-.024-.131a11.921,11.921,0,0,0-.93-3.325,6.6,6.6,0,0,0-1.788-2.36,1.072,1.072,0,0,0-.119-.107,4.914,4.914,0,0,0-3.111-.954A5.749,5.749,0,0,0,202.756,21c-.191.155-.381.322-.572.489-.06.06-.131.107-.191.167a11.409,11.409,0,0,0-1.919,2.491,20.726,20.726,0,0,0-1.764,4.1c-.024.1-.072.179-.1.274a42.572,42.572,0,0,0-1.168,4.839Z" transform="translate(37.717 3.799)" fill="none"/>
    <path id="Path_121" data-name="Path 121" d="M71.884,34.991a.811.811,0,0,0-.024-.238c-.012-.083-.036-.167-.048-.25a9.416,9.416,0,0,0-1.24-3.5c-.072-.1-.131-.2-.2-.3a4.028,4.028,0,0,0-1.526-1.144,4.758,4.758,0,0,0-.572-.226c-2-.572-4.911-.453-6.329,1.287a4.8,4.8,0,0,0-.822,1.657,12,12,0,0,0-.417,2.145,36.406,36.406,0,0,0-.143,4.1,14.216,14.216,0,0,0,1.252,6.556,7.436,7.436,0,0,0,.477.8c.107.155.215.286.322.417a4.564,4.564,0,0,0,3.564,2,4.755,4.755,0,0,0,3.457-1.728A9.971,9.971,0,0,0,71.86,41.32a1.461,1.461,0,0,0,.024-.226V35.015Z" transform="translate(11.623 5.573)" fill="none"/>
    <path id="Path_122" data-name="Path 122" d="M154.456,24.792c-.238.417-.441.87-.656,1.323a21.975,21.975,0,0,0-1.2,3.051,41.967,41.967,0,0,0-1.168,4.839c-.072.381-.107.751-.167,1.12a33.922,33.922,0,0,0-.358,3.5c-.012.393-.024.775-.024,1.132a2.46,2.46,0,0,0,2.563,2.479,45.167,45.167,0,0,0,5.721-.572,12.607,12.607,0,0,0,3.647-1.18,6.224,6.224,0,0,0,1.061-.679,6.541,6.541,0,0,0,2.253-3.373,17.235,17.235,0,0,0,.536-2.968c.072-.691.131-1.43.155-2.229.024-.441,0-.882,0-1.323a21.343,21.343,0,0,0-.179-2.61,11.741,11.741,0,0,0-.954-3.457,6.489,6.489,0,0,0-1.907-2.467,4.914,4.914,0,0,0-3.111-.954,5.749,5.749,0,0,0-3.552,1.216,10.211,10.211,0,0,0-2.1,2.241c-.2.286-.393.6-.584.906Z" transform="translate(28.959 3.923)" fill="none"/>
    <g id="Group_11" data-name="Group 11" transform="translate(0 2.47)">
      <path id="Path_123" data-name="Path 123" d="M1.492,53.69A2.508,2.508,0,0,0,1.23,54.7C1.313,54.357,1.4,54.024,1.492,53.69Z" transform="translate(0.236 7.838)" fill="#fc932b"/>
      <path id="Path_124" data-name="Path 124" d="M14.911,33.284a94.214,94.214,0,0,0,9.583,2.694,21.108,21.108,0,0,1,7.318,2.873A9.245,9.245,0,0,1,35.2,42.51a3.365,3.365,0,0,1-.2,3.361,5.358,5.358,0,0,1-3.457,2.062,22.7,22.7,0,0,1-4.732.453c-.179,0-.381,0-.572-.012,5.447,1.216,14.851,8.141,20.036,15.388a12.521,12.521,0,0,0,1.74-2.6,16,16,0,0,0,1.454-7.175A13.238,13.238,0,0,0,47.427,46.5a18.975,18.975,0,0,0-5.507-5.376A35.17,35.17,0,0,0,34.042,37.4a92.8,92.8,0,0,0-9.249-2.551,22.843,22.843,0,0,1-7.64-2.968,8.1,8.1,0,0,1-3.29-3.612,3.3,3.3,0,0,1,.489-3.314,6,6,0,0,1,3.6-2.062,22.7,22.7,0,0,1,4.732-.453,38.063,38.063,0,0,1,3.862.226L22.42,18.54a9.629,9.629,0,0,1-.858-.989l-.1-.1A10.21,10.21,0,0,1,19.4,14.523c-1.919-4.2-2-8.82-.2-12.253H18.046A35.435,35.435,0,0,0,11,2.9,15.173,15.173,0,0,0,5.316,5.19a11.668,11.668,0,0,0-3.85,4.47A16.047,16.047,0,0,0,0,16.847a13.654,13.654,0,0,0,1.907,7.438,17.442,17.442,0,0,0,5.221,5.268A33.5,33.5,0,0,0,14.911,33.284Z" transform="translate(0 -2.032)" fill="#f4a8d1"/>
      <path id="Path_125" data-name="Path 125" d="M22.1,41.054c-.667-.072-1.347-.143-2.05-.238-3.945-.548-7.6-2.086-11.609-1.192a5.322,5.322,0,0,0-2.11.87,2.4,2.4,0,0,0-.965,1.657v.322a3.6,3.6,0,0,0,.8,1.645C11.27,41.328,16.538,41.066,22.1,41.054Z" transform="translate(1.031 5.085)" fill="#f4a8d1"/>
      <path id="Path_126" data-name="Path 126" d="M25.065,40.973c-.965-.024-2-.083-3.1-.2-5.566.024-10.835.274-15.936,3.063.107.143.2.286.3.429a5.915,5.915,0,0,1,.894,2.5C12.24,43.035,17.413,43.023,23,43.023c4.7,0,15.877,8.487,18.952,15.817a9.751,9.751,0,0,0,1.025-.62,11.2,11.2,0,0,0,2.11-1.871C39.9,49.1,30.5,42.165,25.053,40.961Z" transform="translate(1.158 5.358)" fill="#fc932b"/>
      <path id="Path_127" data-name="Path 127" d="M18.44,57.885H21.5c-.167-.072-.346-.143-.524-.2a3.745,3.745,0,0,0-2.539.2Z" transform="translate(3.539 8.577)" fill="#fc932b"/>
      <path id="Path_128" data-name="Path 128" d="M23.939,42.67c-5.59,0-10.775.012-15.781,3.743A6.1,6.1,0,0,1,6.93,50.966C5.488,52.766,2.7,53.6,1.566,55.614a1.2,1.2,0,0,0-.083.179c-.1.334-.179.667-.262,1.013-.107,2.062,2.324,3.838,4.458,3.85l4.9.024a10.735,10.735,0,0,1,1.752-4.923c3.623-4.124,7.33-4.124,11.431-4.124,2.908,0,10.251,5.149,11.049,9.011a33.783,33.783,0,0,0,3.421-.477,16.122,16.122,0,0,0,4.66-1.669C39.8,51.168,28.623,42.682,23.939,42.682Z" transform="translate(0.234 5.723)" fill="#fdb556"/>
      <path id="Path_129" data-name="Path 129" d="M22.263,50.19c-4.1,0-7.819,0-11.431,4.124A10.735,10.735,0,0,0,9.08,59.237l11.168.06a3.892,3.892,0,0,1,2.539-.2,4.032,4.032,0,0,1,.524.215l6.377.036c1.252,0,2.455-.048,3.623-.143C32.513,55.339,25.171,50.19,22.263,50.19Z" transform="translate(1.743 7.166)" fill="#ffc988"/>
      <path id="Path_130" data-name="Path 130" d="M18.08,15.11a11.344,11.344,0,0,0,.858.989l4.124,4.124a.813.813,0,0,1,.143.012L18.08,15.11Z" transform="translate(3.47 0.433)" fill="#d85d86"/>
      <path id="Path_131" data-name="Path 131" d="M16.507,14.578a10.117,10.117,0,0,0,2.062,2.932l.1.1L23.79,22.73c.56.06,1.132.131,1.728.215.56.083,1.168.191,1.788.322a2.48,2.48,0,0,1-.191-.989c0-.906.429-1.645.954-1.645a.61.61,0,0,1,.441.2c.465.107.822.787.822,1.621a2.333,2.333,0,0,1-.3,1.18c3.421.739,7.223,1.466,9.917-.513a10.011,10.011,0,0,0,1.406-1.347c1.764-1.919,3.969-3.325,2.086-6.019a6.167,6.167,0,0,0-.5-.608h0a.61.61,0,0,1-.441-.2c-.369-.083-.656-.524-.775-1.12a2.9,2.9,0,0,1-.238-.3,2.411,2.411,0,0,1-.262-2.753A5.056,5.056,0,0,1,41.5,9.834,4.186,4.186,0,0,0,43.254,5.8a4.01,4.01,0,0,0-3.063-3.123c.584,2.694-2.1,6.222-2.1,6.222a3.134,3.134,0,0,0-.429-.763.764.764,0,0,1-.083.107,2.822,2.822,0,0,0-.262-.524,6.154,6.154,0,0,0-2.134-1.442,2.738,2.738,0,0,1-1.347-1.2,4.274,4.274,0,0,1-1.1-2.968c-.548.024-1.073.06-1.585.1a8.278,8.278,0,0,0-2.145,1.669C26.567,6.413,20.1,3.087,20.1,3.087a2.92,2.92,0,0,0,.584-.155c-.667-.274-1.085-.5-1.085-.5a2.564,2.564,0,0,0,.453-.119c-1.24,0-2.479-.012-3.719-.024-1.8,3.445-1.716,8.069.2,12.253Zm3.862,2.479a.61.61,0,0,1-.441-.2c-.465-.107-.822-.787-.822-1.621,0-.906.429-1.645.954-1.645a.61.61,0,0,1,.441.2c.465.107.822.787.822,1.621C21.323,16.318,20.894,17.057,20.369,17.057Zm4.184-8.642c0-.906.429-1.645.954-1.645a.61.61,0,0,1,.441.2c.465.107.822.787.822,1.621,0,.906-.429,1.645-.954,1.645a.61.61,0,0,1-.441-.2C24.91,9.929,24.553,9.25,24.553,8.415ZM31.18,18.678a.61.61,0,0,1-.441-.2c-.465-.107-.822-.787-.822-1.621,0-.906.429-1.645.954-1.645a.61.61,0,0,1,.441.2c.465.107.822.787.822,1.621C32.134,17.939,31.7,18.678,31.18,18.678Zm5.447,3.862a.61.61,0,0,1-.441-.2c-.465-.107-.822-.787-.822-1.621,0-.906.429-1.645.954-1.645a.61.61,0,0,1,.441.2c.465.107.822.787.822,1.621C37.581,21.8,37.152,22.54,36.627,22.54ZM36.7,15.5a.61.61,0,0,1-.441-.2c-.465-.107-.822-.787-.822-1.621,0-.906.429-1.645.954-1.645a.61.61,0,0,1,.441.2c.465.107.822.787.822,1.621C37.652,14.756,37.223,15.5,36.7,15.5ZM32.4,6.854a.61.61,0,0,1,.441.2c.465.107.822.787.822,1.621,0,.906-.429,1.645-.954,1.645a.61.61,0,0,1-.441-.2c-.465-.107-.822-.787-.822-1.621,0-.906.429-1.645.954-1.645Zm-5.936,9.69a.61.61,0,0,1-.441-.2c-.465-.107-.822-.787-.822-1.621,0-.906.429-1.645.954-1.645a.61.61,0,0,1,.441.2c.465.107.822.787.822,1.621C27.414,15.805,26.984,16.544,26.46,16.544Zm-7.2-9.6a.61.61,0,0,1,.441.2c.465.107.822.787.822,1.621,0,.906-.429,1.645-.954,1.645a.61.61,0,0,1-.441-.2c-.465-.107-.822-.787-.822-1.621,0-.906.429-1.645.954-1.645Z" transform="translate(2.886 -2.062)" fill="#f2688f"/>
      <path id="Path_132" data-name="Path 132" d="M34.01,8.068a3.134,3.134,0,0,1,.429.763s2.682-3.528,2.1-6.222c-.143-.048-.286-.083-.441-.119.155,2.324-1.681,5.03-2.086,5.59Z" transform="translate(6.528 -1.989)" fill="#32a000"/>
      <path id="Path_133" data-name="Path 133" d="M31.634,5.168A2.818,2.818,0,0,1,30.8,4.62a2.79,2.79,0,0,0,1.347,1.2A6,6,0,0,1,34.28,7.266,5.433,5.433,0,0,0,31.634,5.18Z" transform="translate(5.912 -1.581)" fill="#32a000"/>
      <path id="Path_134" data-name="Path 134" d="M19.844,2.927a4.055,4.055,0,0,1-.584.155s6.472,3.325,8.916.787A8.844,8.844,0,0,1,30.321,2.2c-.6.036-1.156.072-1.657.107a9.55,9.55,0,0,0-1,.906c-1.824,1.9-5.876.524-7.831-.286Z" transform="translate(3.697 -2.045)" fill="#32a000"/>
      <path id="Path_135" data-name="Path 135" d="M19.925,2.91c1.955.822,6.007,2.181,7.831.286a9.55,9.55,0,0,1,1-.906c-.513.024-.989.048-1.383.048L19.293,2.3c-.274.083-.453.119-.453.119s.417.215,1.085.5Z" transform="translate(3.616 -2.028)" fill="#63c244"/>
      <path id="Path_136" data-name="Path 136" d="M31.813,5.658a5.433,5.433,0,0,1,2.646,2.086,2.822,2.822,0,0,1,.262.524s.036-.048.083-.107c.405-.56,2.241-3.254,2.086-5.59a23.375,23.375,0,0,0-7.02-.429,4.367,4.367,0,0,0,1.1,2.968,2.421,2.421,0,0,0,.834.548Z" transform="translate(5.733 -2.07)" fill="#63c244"/>
      <path id="Path_137" data-name="Path 137" d="M19.555,7.772c0,.906-.429,1.645-.954,1.645a.507.507,0,0,1-.131-.024.685.685,0,0,0,.441.2c.524,0,.954-.739.954-1.645,0-.822-.358-1.5-.822-1.621a2,2,0,0,1,.5,1.442Z" transform="translate(3.545 -1.252)" fill="#bc557d"/>
      <path id="Path_138" data-name="Path 138" d="M18.6,9.426a.648.648,0,0,0,.131.024c.524,0,.954-.739.954-1.645a2,2,0,0,0-.5-1.442.685.685,0,0,0-.441-.2c-.524,0-.954.739-.954,1.645,0,.822.358,1.5.822,1.621Z" transform="translate(3.415 -1.285)" fill="#d85d86"/>
      <path id="Path_139" data-name="Path 139" d="M19.714,11.91a2,2,0,0,1,.5,1.442c0,.906-.429,1.645-.954,1.645a.507.507,0,0,1-.131-.024.685.685,0,0,0,.441.2c.524,0,.954-.739.954-1.645,0-.822-.358-1.5-.822-1.621Z" transform="translate(3.672 -0.181)" fill="#bc557d"/>
      <path id="Path_140" data-name="Path 140" d="M20.345,13.385a2,2,0,0,0-.5-1.442.685.685,0,0,0-.441-.2c-.524,0-.954.739-.954,1.645,0,.822.358,1.5.822,1.621.048,0,.083.024.131.024.524,0,.954-.739.954-1.645Z" transform="translate(3.541 -0.214)" fill="#d85d86"/>
      <path id="Path_141" data-name="Path 141" d="M24.824,11.49a2,2,0,0,1,.5,1.442c0,.906-.429,1.645-.954,1.645a.507.507,0,0,1-.131-.024.685.685,0,0,0,.441.2c.524,0,.954-.739.954-1.645,0-.822-.358-1.5-.822-1.621Z" transform="translate(4.653 -0.262)" fill="#bc557d"/>
      <path id="Path_142" data-name="Path 142" d="M25.455,12.965a2,2,0,0,0-.5-1.442.685.685,0,0,0-.441-.2c-.524,0-.954.739-.954,1.645,0,.822.358,1.5.822,1.621.048,0,.083.024.131.024.524,0,.954-.739.954-1.645Z" transform="translate(4.522 -0.295)" fill="#d85d86"/>
      <path id="Path_143" data-name="Path 143" d="M28.784,13.27a2,2,0,0,1,.5,1.442c0,.906-.429,1.645-.954,1.645a.507.507,0,0,1-.131-.024.685.685,0,0,0,.441.2c.524,0,.954-.739.954-1.645,0-.822-.358-1.5-.822-1.621Z" transform="translate(5.413 0.08)" fill="#bc557d"/>
      <path id="Path_144" data-name="Path 144" d="M29.415,14.745a2,2,0,0,0-.5-1.442.685.685,0,0,0-.441-.2c-.524,0-.954.739-.954,1.645,0,.822.358,1.5.822,1.621.048,0,.083.024.131.024.524,0,.954-.739.954-1.645Z" transform="translate(5.282 0.047)" fill="#d85d86"/>
      <path id="Path_145" data-name="Path 145" d="M26.33,17.82a2,2,0,0,1,.5,1.442,2.217,2.217,0,0,1-.358,1.275c.131.024.25.06.381.083a2.333,2.333,0,0,0,.3-1.18c0-.822-.358-1.5-.822-1.621Z" transform="translate(5.054 0.953)" fill="#bc557d"/>
      <path id="Path_146" data-name="Path 146" d="M26.555,17.853a.685.685,0,0,0-.441-.2c-.524,0-.954.739-.954,1.645a2.523,2.523,0,0,0,.191.989c.441.1.882.191,1.347.286a2.246,2.246,0,0,0,.358-1.275,2,2,0,0,0-.5-1.442Z" transform="translate(4.829 0.92)" fill="#d85d86"/>
      <path id="Path_147" data-name="Path 147" d="M24.795,7.622c0,.906-.429,1.645-.954,1.645a.507.507,0,0,1-.131-.024.685.685,0,0,0,.441.2c.524,0,.954-.739.954-1.645,0-.822-.358-1.5-.822-1.621a2,2,0,0,1,.5,1.442Z" transform="translate(4.551 -1.281)" fill="#bc557d"/>
      <path id="Path_148" data-name="Path 148" d="M23.972,9.3c.524,0,.954-.739.954-1.645a2,2,0,0,0-.5-1.442.685.685,0,0,0-.441-.2c-.524,0-.954.739-.954,1.645,0,.822.358,1.5.822,1.621.048,0,.083.024.131.024Z" transform="translate(4.42 -1.314)" fill="#d85d86"/>
      <path id="Path_149" data-name="Path 149" d="M30.565,7.7c0,.906-.429,1.645-.954,1.645a.507.507,0,0,1-.131-.024.685.685,0,0,0,.441.2c.524,0,.954-.739.954-1.645,0-.822-.358-1.5-.822-1.621a2,2,0,0,1,.5,1.442Z" transform="translate(5.658 -1.266)" fill="#bc557d"/>
      <path id="Path_150" data-name="Path 150" d="M29.611,9.346a.648.648,0,0,0,.131.024c.524,0,.954-.739.954-1.645a2,2,0,0,0-.5-1.442.685.685,0,0,0-.441-.2c-.524,0-.954.739-.954,1.645,0,.822.358,1.5.822,1.621Z" transform="translate(5.528 -1.3)" fill="#d85d86"/>
      <path id="Path_151" data-name="Path 151" d="M37.232,12.88a.685.685,0,0,0,.441.2h0c-.06-.072-.131-.131-.191-.2-.048,0-.083.024-.131.024a.507.507,0,0,1-.131-.024Z" transform="translate(7.144 0.005)" fill="#bc557d"/>
      <path id="Path_152" data-name="Path 152" d="M37.355,13.06a.647.647,0,0,0,.131.024.507.507,0,0,0,.131-.024c-.346-.37-.715-.727-1.037-1.12a1.325,1.325,0,0,0,.775,1.12Z" transform="translate(7.021 -0.176)" fill="#d85d86"/>
      <path id="Path_153" data-name="Path 153" d="M33.414,10.61a2,2,0,0,1,.5,1.442c0,.906-.429,1.645-.954,1.645a.507.507,0,0,1-.131-.024.685.685,0,0,0,.441.2c.524,0,.954-.739.954-1.645,0-.822-.358-1.5-.822-1.621Z" transform="translate(6.301 -0.431)" fill="#bc557d"/>
      <path id="Path_154" data-name="Path 154" d="M34.055,12.085a2,2,0,0,0-.5-1.442.685.685,0,0,0-.441-.2c-.524,0-.954.739-.954,1.645,0,.822.358,1.5.822,1.621.048,0,.083.024.131.024.524,0,.954-.739.954-1.645Z" transform="translate(6.173 -0.463)" fill="#d85d86"/>
      <path id="Path_155" data-name="Path 155" d="M33.354,16.51a2,2,0,0,1,.5,1.442c0,.906-.429,1.645-.954,1.645a.507.507,0,0,1-.131-.024.685.685,0,0,0,.441.2c.524,0,.954-.739.954-1.645,0-.822-.358-1.5-.822-1.621Z" transform="translate(6.29 0.702)" fill="#bc557d"/>
      <path id="Path_156" data-name="Path 156" d="M33.985,17.985a2,2,0,0,0-.5-1.442.685.685,0,0,0-.441-.2c-.524,0-.954.739-.954,1.645,0,.822.358,1.5.822,1.621.048,0,.083.024.131.024.524,0,.954-.739.954-1.645Z" transform="translate(6.159 0.669)" fill="#d85d86"/>
    </g>
    <path id="Path_157" data-name="Path 157" d="M76.081,80.278H86.725a7.13,7.13,0,0,0,6.806-5.006,5.165,5.165,0,0,1-2-.608,5.067,5.067,0,0,1-4.589,2.408,5.125,5.125,0,0,1-4.4-3.016h0v.131a5.084,5.084,0,0,1,3.516-7.318,5.01,5.01,0,0,1-.727-1.1,3.285,3.285,0,0,1-.215-.465l-.072-.143a.281.281,0,0,0-.024-.1,5.02,5.02,0,0,1,2.122-6.115,5.237,5.237,0,0,1-.822-1.263h0v.131a5.1,5.1,0,0,1,.858-5.864,5.184,5.184,0,0,1,1.037-.811v-.322c0-.06-.012-.107-.012-.167a.262.262,0,0,1,.012-.1,5.03,5.03,0,0,1,1.561-3.576,5.065,5.065,0,0,1,4.064-6.842v-19.2c0-2.443-.417-6-2.718-7.664C89.109,11.814,86.487,11.5,84,11.48a3.22,3.22,0,0,0-1.776.346c-1.049.679-.977,2.205-1.5,3.337a3.29,3.29,0,0,1-2.777,1.883,6.768,6.768,0,0,0-1.7.072,2.286,2.286,0,0,0-1.43,1.907,25.943,25.943,0,0,0-.1,4.637c.226.25.453.5.656.763,3.457,3.337,4.231,8.832-.286,15.4a4.359,4.359,0,0,1-.286.369v4.2a.734.734,0,0,1-.024.226,9.971,9.971,0,0,1-2.229,5.245,4.775,4.775,0,0,1-3.457,1.728,4.564,4.564,0,0,1-3.564-2l-1.132,1.132a10.174,10.174,0,0,1-14.4-.131l-4.72-4.72a38.293,38.293,0,0,0,.632,4.124,27.494,27.494,0,0,0,1.514,4.887,16.974,16.974,0,0,0,2.634,4.41,12.971,12.971,0,0,0,4.064,3.242,12.478,12.478,0,0,0,5.793,1.252,11.535,11.535,0,0,0,4.8-1.037A14.708,14.708,0,0,0,68.954,59.8a21.058,21.058,0,0,0,3.457-4.458l.036-.048a1.261,1.261,0,0,1,2.348.644V78.955a1.251,1.251,0,0,0,1.252,1.252Z" transform="translate(8.689 2.206)" fill="#f4a8d1"/>
    <path id="Path_158" data-name="Path 158" d="M56.109,17.76s-.072.012-.119.024a2.292,2.292,0,0,0,.143.3A.6.6,0,0,1,56.109,17.76Z" transform="translate(10.746 3.411)" fill="#f4a8d1"/>
    <path id="Path_159" data-name="Path 159" d="M70,35.767c.012.083.036.167.048.25a1.615,1.615,0,0,1,.024.238v1.883c.1-.119.191-.238.286-.37,4.517-6.568,3.743-12.05.286-15.4,2.467,3.206,2.789,7.891-.644,13.4Z" transform="translate(13.435 4.296)" fill="#d85d86"/>
    <path id="Path_160" data-name="Path 160" d="M64.411,45.244l1.132-1.132c-.107-.131-.215-.274-.322-.417a5.889,5.889,0,0,1-.477-.8l-1.275,1.275a10.174,10.174,0,0,1-14.4-.131l-3.79-3.79a.813.813,0,0,0,.012.143l4.72,4.72a10.2,10.2,0,0,0,14.4.131Z" transform="translate(8.691 7.728)" fill="#d85d86"/>
    <path id="Path_161" data-name="Path 161" d="M63.492,47.882l1.275-1.275a14.216,14.216,0,0,1-1.252-6.556,36.493,36.493,0,0,1,.143-4.1.646.646,0,0,1-.441.191.61.61,0,0,1-.441-.2c-.465-.107-.822-.787-.822-1.621,0-.906.429-1.645.954-1.645a.61.61,0,0,1,.441.2,1.2,1.2,0,0,1,.727.918,5.258,5.258,0,0,1,.822-1.657c1.418-1.74,4.327-1.859,6.329-1.287a3.576,3.576,0,0,1,.572.226v-.131c0-.906.429-1.645.954-1.645a.61.61,0,0,1,.441.2c.465.107.822.787.822,1.621a2.013,2.013,0,0,1-.477,1.406,9.416,9.416,0,0,1,1.24,3.5c3.421-5.507,3.1-10.191.644-13.4a7.912,7.912,0,0,0-.656-.763c.036.977.083,1.943.083,2.861a1.266,1.266,0,0,1-2.348.656h0a.75.75,0,0,1-.572.334.61.61,0,0,1-.441-.2c-.465-.107-.822-.787-.822-1.621a2.369,2.369,0,0,1,.179-.942,18.39,18.39,0,0,0-1.824-2l-.036-.036a6.623,6.623,0,0,1-.083,1.788c.191-.942-9.369-2.682-7.771.048s-1.752,7.128-1.752,7.128a3.134,3.134,0,0,0-.429-.763.764.764,0,0,1-.083.107A2.822,2.822,0,0,0,58.6,28.7a6.154,6.154,0,0,0-2.134-1.442,2.738,2.738,0,0,1-1.347-1.2,4.646,4.646,0,0,1-1.108-3.385,6.226,6.226,0,0,0-3.731,2.169,3.581,3.581,0,0,1-2.539.954c-.1.215-.191.417-.274.632-.179.453-.31.906-.453,1.347a.7.7,0,0,1,.226.155c.465.107.822.787.822,1.621,0,.906-.429,1.645-.954,1.645a.61.61,0,0,1-.441-.2.86.86,0,0,1-.465-.346c-.072.31-.167.632-.238.942a40.183,40.183,0,0,0-.691,4.8c-.119,1.5-.179,2.706-.179,3.635s.06,2.11.179,3.552c0,.119.036.25.048.369l3.79,3.79a10.2,10.2,0,0,0,14.4.131Zm-11.025-8.2a.61.61,0,0,1-.441-.2c-.465-.107-.822-.787-.822-1.621,0-.906.429-1.645.954-1.645a.61.61,0,0,1,.441.2c.465.107.822.787.822,1.621C53.42,38.942,52.991,39.681,52.466,39.681Zm2.36,9.381a.61.61,0,0,1-.441-.2c-.465-.107-.822-.787-.822-1.621,0-.906.429-1.645.954-1.645a.61.61,0,0,1,.441.2c.465.107.822.787.822,1.621C55.78,48.323,55.351,49.062,54.826,49.062ZM57.6,40.086a.61.61,0,0,1,.441.2c.465.107.822.787.822,1.621,0,.906-.429,1.645-.954,1.645a.61.61,0,0,1-.441-.2c-.465-.107-.822-.787-.822-1.621C56.65,40.825,57.079,40.086,57.6,40.086Zm3.159,8.8a.61.61,0,0,1-.441-.2c-.465-.107-.822-.787-.822-1.621,0-.906.429-1.645.954-1.645a.61.61,0,0,1,.441.2c.465.107.822.787.822,1.621C61.716,48.144,61.286,48.883,60.762,48.883Zm5.614-18.713a.61.61,0,0,1-.441-.2c-.465-.107-.822-.787-.822-1.621,0-.906.429-1.645.954-1.645a.61.61,0,0,1,.441.2c.465.107.822.787.822,1.621C67.33,29.43,66.9,30.169,66.376,30.169Zm-8.689,2.873a.61.61,0,0,1,.441.2c.465.107.822.787.822,1.621,0,.906-.429,1.645-.954,1.645a.61.61,0,0,1-.441-.2c-.465-.107-.822-.787-.822-1.621,0-.906.429-1.645.954-1.645Zm-2.73-3.361c0,.906-.429,1.645-.954,1.645a.61.61,0,0,1-.441-.2c-.465-.107-.822-.787-.822-1.621,0-.906.429-1.645.954-1.645a.61.61,0,0,1,.441.2C54.6,28.167,54.957,28.846,54.957,29.681Zm-7.2,7.879a.61.61,0,0,1-.441-.2c-.465-.107-.822-.787-.822-1.621,0-.906.429-1.645.954-1.645a.61.61,0,0,1,.441.2c.465.107.822.787.822,1.621,0,.906-.429,1.645-.954,1.645Zm.644,5.721c0-.906.429-1.645.954-1.645a.61.61,0,0,1,.441.2c.465.107.822.787.822,1.621,0,.906-.429,1.645-.954,1.645a.61.61,0,0,1-.441-.2C48.759,44.794,48.4,44.115,48.4,43.281Z" transform="translate(8.656 4.018)" fill="#f2688f"/>
    <path id="Path_162" data-name="Path 162" d="M56.172,18.126v-.048c-.048-.1-.1-.2-.143-.3a.95.95,0,0,0-.179.036,5.519,5.519,0,0,0,.369.548.45.45,0,0,0-.048-.238Z" transform="translate(10.719 3.415)" fill="#32a000"/>
    <path id="Path_163" data-name="Path 163" d="M54.334,25.818a2.818,2.818,0,0,1-.834-.548,2.79,2.79,0,0,0,1.347,1.2,6,6,0,0,1,2.134,1.442,5.433,5.433,0,0,0-2.646-2.086Z" transform="translate(10.268 4.852)" fill="#32a000"/>
    <path id="Path_164" data-name="Path 164" d="M66.15,22.153c.191-.942-9.369-2.682-7.771.048,1.454,2.491-1.192,6.341-1.669,7.02a3.134,3.134,0,0,1,.429.763s3.349-4.4,1.752-7.128,7.95-1,7.771-.048a6.621,6.621,0,0,0,.083-1.788c-.167-.155-.334-.3-.5-.441a6.732,6.732,0,0,1-.1,1.585Z" transform="translate(10.885 3.952)" fill="#32a000"/>
    <path id="Path_165" data-name="Path 165" d="M49.857,24.706a6.2,6.2,0,0,1,3.731-2.169,3.794,3.794,0,0,1,.048-.644s-1.836-.381-4.279,2.169a3.208,3.208,0,0,1-1.7.87c-.119.238-.215.489-.322.739a3.5,3.5,0,0,0,2.539-.954Z" transform="translate(9.084 4.2)" fill="#32a000"/>
    <path id="Path_166" data-name="Path 166" d="M53.574,22.7s-.036.262-.048.644a4.609,4.609,0,0,0,1.108,3.385,2.421,2.421,0,0,0,.834.548,5.433,5.433,0,0,1,2.646,2.086,2.822,2.822,0,0,1,.262.524s.036-.048.083-.107c.489-.679,3.123-4.529,1.669-7.02-1.6-2.73,7.95-1,7.771-.048a6.051,6.051,0,0,0,.1-1.585,14.844,14.844,0,0,0-3.695-2.42,11.535,11.535,0,0,0-4.8-1.037,13.888,13.888,0,0,0-1.764.107.6.6,0,0,0,.024.322v.048a.568.568,0,0,1,.048.238,4.019,4.019,0,0,1-.369-.548,10.878,10.878,0,0,0-3.731,1.18,13.352,13.352,0,0,0-4.064,3.421,17.613,17.613,0,0,0-2.05,3.3,3.087,3.087,0,0,0,1.7-.87c2.443-2.539,4.279-2.169,4.279-2.169Z" transform="translate(9.134 3.394)" fill="#63c244"/>
    <path id="Path_167" data-name="Path 167" d="M47.524,32.14a2,2,0,0,1,.5,1.442c0,.906-.429,1.645-.954,1.645a.507.507,0,0,1-.131-.024.685.685,0,0,0,.441.2c.524,0,.954-.739.954-1.645,0-.822-.358-1.5-.822-1.621Z" transform="translate(9.009 6.171)" fill="#bc557d"/>
    <path id="Path_168" data-name="Path 168" d="M48.155,33.615a2,2,0,0,0-.5-1.442.685.685,0,0,0-.441-.2c-.524,0-.954.739-.954,1.645,0,.822.358,1.5.822,1.621.048,0,.083.024.131.024.524,0,.954-.739.954-1.645Z" transform="translate(8.879 6.138)" fill="#d85d86"/>
    <path id="Path_169" data-name="Path 169" d="M51.484,33.93a2,2,0,0,1,.5,1.442c0,.906-.429,1.645-.954,1.645a.507.507,0,0,1-.131-.024.685.685,0,0,0,.441.2c.524,0,.954-.739.954-1.645,0-.822-.358-1.5-.822-1.621Z" transform="translate(9.769 6.515)" fill="#bc557d"/>
    <path id="Path_170" data-name="Path 170" d="M52.125,35.395a2,2,0,0,0-.5-1.442.685.685,0,0,0-.441-.2c-.524,0-.954.739-.954,1.645,0,.822.358,1.5.822,1.621.048,0,.083.024.131.024.524,0,.954-.739.954-1.645Z" transform="translate(9.641 6.48)" fill="#d85d86"/>
    <path id="Path_171" data-name="Path 171" d="M49.635,39.912c0,.906-.429,1.645-.954,1.645a.507.507,0,0,1-.131-.024.685.685,0,0,0,.441.2c.524,0,.954-.739.954-1.645,0-.822-.358-1.5-.822-1.621a2,2,0,0,1,.5,1.442Z" transform="translate(9.318 7.386)" fill="#bc557d"/>
    <path id="Path_172" data-name="Path 172" d="M48.812,41.58c.524,0,.954-.739.954-1.645a2,2,0,0,0-.5-1.442.685.685,0,0,0-.441-.2c-.524,0-.954.739-.954,1.645,0,.822.358,1.5.822,1.621.048,0,.083.024.131.024Z" transform="translate(9.188 7.351)" fill="#d85d86"/>
    <path id="Path_173" data-name="Path 173" d="M47.495,28.282c0,.906-.429,1.645-.954,1.645a.507.507,0,0,1-.131-.024.685.685,0,0,0,.441.2c.524,0,.954-.739.954-1.645,0-.822-.358-1.5-.822-1.621a2,2,0,0,1,.5,1.442Z" transform="translate(8.908 5.154)" fill="#bc557d"/>
    <path id="Path_174" data-name="Path 174" d="M46.485,29.918a.648.648,0,0,0,.131.024c.524,0,.954-.739.954-1.645a2,2,0,0,0-.5-1.442.955.955,0,0,0-.226-.155q-.483,1.43-.822,2.861a.805.805,0,0,0,.465.346Z" transform="translate(8.833 5.127)" fill="#d85d86"/>
    <path id="Path_175" data-name="Path 175" d="M53.265,28.352c0,.906-.429,1.645-.954,1.645a.507.507,0,0,1-.131-.024.685.685,0,0,0,.441.2c.524,0,.954-.739.954-1.645,0-.822-.358-1.5-.822-1.621a2,2,0,0,1,.5,1.442Z" transform="translate(10.015 5.167)" fill="#bc557d"/>
    <path id="Path_176" data-name="Path 176" d="M53.4,28.385a2,2,0,0,0-.5-1.442.685.685,0,0,0-.441-.2c-.524,0-.954.739-.954,1.645,0,.822.358,1.5.822,1.621.048,0,.083.024.131.024.524,0,.954-.739.954-1.645Z" transform="translate(9.885 5.135)" fill="#d85d86"/>
    <path id="Path_177" data-name="Path 177" d="M54.286,43.411c0-.822-.358-1.5-.822-1.621a2,2,0,0,1,.5,1.442c0,.906-.429,1.645-.954,1.645a.507.507,0,0,1-.131-.024.685.685,0,0,0,.441.2c.524,0,.954-.739.954-1.645Z" transform="translate(10.149 8.023)" fill="#bc557d"/>
    <path id="Path_178" data-name="Path 178" d="M54.1,43.265a2,2,0,0,0-.5-1.442.685.685,0,0,0-.441-.2c-.524,0-.954.739-.954,1.645,0,.822.358,1.5.822,1.621.048,0,.083.024.131.024.524,0,.954-.739.954-1.645Z" transform="translate(10.019 7.991)" fill="#d85d86"/>
    <path id="Path_179" data-name="Path 179" d="M61.231,31.888a1.178,1.178,0,0,0-.727-.918,2,2,0,0,1,.5,1.442c0,.906-.429,1.645-.954,1.645a.507.507,0,0,1-.131-.024.685.685,0,0,0,.441.2.669.669,0,0,0,.441-.191,12,12,0,0,1,.417-2.145Z" transform="translate(11.501 5.946)" fill="#bc557d"/>
    <path id="Path_180" data-name="Path 180" d="M61.145,32.435a2,2,0,0,0-.5-1.442.685.685,0,0,0-.441-.2c-.524,0-.954.739-.954,1.645,0,.822.358,1.5.822,1.621.048,0,.083.024.131.024.524,0,.954-.739.954-1.645Z" transform="translate(11.372 5.912)" fill="#d85d86"/>
    <path id="Path_181" data-name="Path 181" d="M58.444,41.65a2,2,0,0,1,.5,1.442c0,.906-.429,1.645-.954,1.645a.507.507,0,0,1-.131-.024.685.685,0,0,0,.441.2c.524,0,.954-.739.954-1.645,0-.822-.358-1.5-.822-1.621Z" transform="translate(11.105 7.996)" fill="#bc557d"/>
    <path id="Path_182" data-name="Path 182" d="M59.075,43.115a2,2,0,0,0-.5-1.442.685.685,0,0,0-.441-.2c-.524,0-.954.739-.954,1.645,0,.822.358,1.5.822,1.621.048,0,.083.024.131.024.524,0,.954-.739.954-1.645Z" transform="translate(10.975 7.962)" fill="#d85d86"/>
    <path id="Path_183" data-name="Path 183" d="M56.625,32.7c0,.906-.429,1.645-.954,1.645a.507.507,0,0,1-.131-.024.685.685,0,0,0,.441.2c.524,0,.954-.739.954-1.645,0-.822-.358-1.5-.822-1.621a2,2,0,0,1,.5,1.442Z" transform="translate(10.66 6.002)" fill="#bc557d"/>
    <path id="Path_184" data-name="Path 184" d="M55.671,34.356a.648.648,0,0,0,.131.024c.524,0,.954-.739.954-1.645a2,2,0,0,0-.5-1.442.685.685,0,0,0-.441-.2c-.524,0-.954.739-.954,1.645,0,.822.358,1.5.822,1.621Z" transform="translate(10.529 5.969)" fill="#d85d86"/>
    <path id="Path_185" data-name="Path 185" d="M56.555,38.6c0,.906-.429,1.645-.954,1.645a.507.507,0,0,1-.131-.024.685.685,0,0,0,.441.2c.524,0,.954-.739.954-1.645,0-.822-.358-1.5-.822-1.621a2,2,0,0,1,.5,1.442Z" transform="translate(10.647 7.135)" fill="#bc557d"/>
    <path id="Path_186" data-name="Path 186" d="M55.6,40.256a.648.648,0,0,0,.131.024c.524,0,.954-.739.954-1.645a2,2,0,0,0-.5-1.442.685.685,0,0,0-.441-.2c-.524,0-.954.739-.954,1.645,0,.822.358,1.5.822,1.621Z" transform="translate(10.516 7.102)" fill="#d85d86"/>
    <path id="Path_187" data-name="Path 187" d="M69.173,29.582A2.2,2.2,0,0,1,68.8,30.87c.072.1.143.2.2.3a2.035,2.035,0,0,0,.477-1.406c0-.822-.358-1.5-.822-1.621a2,2,0,0,1,.5,1.442Z" transform="translate(13.178 5.403)" fill="#bc557d"/>
    <path id="Path_188" data-name="Path 188" d="M69.036,30.892a2.171,2.171,0,0,0,.369-1.287,2,2,0,0,0-.5-1.442.685.685,0,0,0-.441-.2c-.524,0-.954.739-.954,1.645v.131a3.937,3.937,0,0,1,1.526,1.144Z" transform="translate(12.957 5.369)" fill="#d85d86"/>
    <path id="Path_189" data-name="Path 189" d="M67.371,24.9s-.083-.012-.131-.024a.685.685,0,0,0,.441.2.732.732,0,0,0,.572-.346l-.036-.048c-.06-.1-.119-.179-.179-.274a.835.835,0,0,1-.679.489Z" transform="translate(12.906 4.687)" fill="#bc557d"/>
    <path id="Path_190" data-name="Path 190" d="M66.55,23.59c0,.822.358,1.5.822,1.621.048,0,.083.024.131.024a.851.851,0,0,0,.679-.489,22.324,22.324,0,0,0-1.454-2.086,2.5,2.5,0,0,0-.179.942Z" transform="translate(12.773 4.352)" fill="#d85d86"/>
    <path id="Path_191" data-name="Path 191" d="M63.966,27.571c0-.822-.358-1.5-.822-1.621a2,2,0,0,1,.5,1.442c0,.906-.429,1.645-.954,1.645a.507.507,0,0,1-.131-.024.685.685,0,0,0,.441.2c.524,0,.954-.739.954-1.645Z" transform="translate(12.007 4.983)" fill="#bc557d"/>
    <path id="Path_192" data-name="Path 192" d="M63.785,27.425a2,2,0,0,0-.5-1.442.685.685,0,0,0-.441-.2c-.524,0-.954.739-.954,1.645,0,.822.358,1.5.822,1.621.048,0,.083.024.131.024.524,0,.954-.739.954-1.645Z" transform="translate(11.879 4.95)" fill="#d85d86"/>
    <path id="Path_193" data-name="Path 193" d="M81.3,44.4a1.133,1.133,0,0,0,.012.167V44.3C81.312,44.336,81.3,44.36,81.3,44.4Z" transform="translate(15.604 8.505)" fill="#f4a8d1"/>
    <path id="Path_194" data-name="Path 194" d="M81.3,44.4a1.133,1.133,0,0,0,.012.167V44.3C81.312,44.336,81.3,44.36,81.3,44.4Z" transform="translate(15.604 8.505)" fill="#d7fbff" opacity="0.33"/>
    <path id="Path_195" data-name="Path 195" d="M81.334,45.431a5.083,5.083,0,0,1,1.728-.656,5.119,5.119,0,0,1-.083-3.242c-.024-.048-.036-.1-.06-.143a5.135,5.135,0,0,0-1.609,3.469v.262a2.714,2.714,0,0,0,.024.31Z" transform="translate(15.606 7.946)" fill="#c67fff"/>
    <path id="Path_196" data-name="Path 196" d="M81.334,45.431a5.083,5.083,0,0,1,1.728-.656,5.119,5.119,0,0,1-.083-3.242c-.024-.048-.036-.1-.06-.143a5.135,5.135,0,0,0-1.609,3.469v.262a2.714,2.714,0,0,0,.024.31Z" transform="translate(15.606 7.946)" fill="#d7fbff" opacity="0.33"/>
    <path id="Path_197" data-name="Path 197" d="M78.925,57.115a3.285,3.285,0,0,1-.215-.465Z" transform="translate(15.107 10.875)" fill="#c67fff"/>
    <path id="Path_198" data-name="Path 198" d="M78.644,56.545l.072.143c-.036-.083-.06-.155-.1-.238a.143.143,0,0,0,.024.1Z" transform="translate(15.09 10.837)" fill="#f4a8d1"/>
    <path id="Path_199" data-name="Path 199" d="M78.644,56.545l.072.143c-.036-.083-.06-.155-.1-.238a.143.143,0,0,0,.024.1Z" transform="translate(15.09 10.837)" fill="#d7fbff" opacity="0.33"/>
    <path id="Path_200" data-name="Path 200" d="M78.892,57.04a5.311,5.311,0,0,0,.727,1.1.151.151,0,0,0,.072-.012,5.048,5.048,0,0,1-.811-1.085Z" transform="translate(15.14 10.95)" fill="#f4a8d1"/>
    <path id="Path_201" data-name="Path 201" d="M78.892,57.04a5.311,5.311,0,0,0,.727,1.1.151.151,0,0,0,.072-.012,5.048,5.048,0,0,1-.811-1.085Z" transform="translate(15.14 10.95)" fill="#d7fbff" opacity="0.33"/>
    <path id="Path_202" data-name="Path 202" d="M82.69,60.494a4.936,4.936,0,0,1,1.156-1.919,6.2,6.2,0,0,1,.524-.453,5.048,5.048,0,0,1-2.777-.644,5.12,5.12,0,0,1-2.6-4.4,5.123,5.123,0,0,0-.322,4.029c.036.083.06.167.1.238.06.155.143.31.215.465a5.048,5.048,0,0,0,.811,1.085.151.151,0,0,0-.072.012,5.072,5.072,0,0,0,2.98,1.6Z" transform="translate(15.048 10.19)" fill="#c67fff"/>
    <path id="Path_203" data-name="Path 203" d="M82.69,60.494a4.936,4.936,0,0,1,1.156-1.919,6.2,6.2,0,0,1,.524-.453,5.048,5.048,0,0,1-2.777-.644,5.12,5.12,0,0,1-2.6-4.4,5.123,5.123,0,0,0-.322,4.029c.036.083.06.167.1.238.06.155.143.31.215.465a5.048,5.048,0,0,0,.811,1.085.151.151,0,0,0-.072.012,5.072,5.072,0,0,0,2.98,1.6Z" transform="translate(15.048 10.19)" fill="#d7fbff" opacity="0.33"/>
    <path id="Path_204" data-name="Path 204" d="M86.063,56.411V56.22c-.072.06-.131.131-.2.191Z" transform="translate(16.479 10.793)" fill="#c67fff"/>
    <path id="Path_205" data-name="Path 205" d="M86.063,56.411V56.22c-.072.06-.131.131-.2.191Z" transform="translate(16.479 10.793)" fill="#d7fbff" opacity="0.33"/>
    <path id="Path_206" data-name="Path 206" d="M84.96,37.056a5.113,5.113,0,0,0-1.085,5.34,5.051,5.051,0,0,0-1.561,3.576A4.986,4.986,0,0,1,83.923,42.5c.024.048.036.1.06.143a5.119,5.119,0,0,0,.083,3.242,4.934,4.934,0,0,0-1.728.656c0-.107-.024-.2-.024-.31v.322a5.025,5.025,0,0,0-1.9,6.675V53.1h0a4.9,4.9,0,0,0,.822,1.263,5.019,5.019,0,0,0-1.8,1.836,5.107,5.107,0,0,0-.322,4.279,5.123,5.123,0,0,1,.322-4.029,5.12,5.12,0,0,0,2.6,4.4,5.049,5.049,0,0,0,2.777.644,6.2,6.2,0,0,0-.524.453,5.241,5.241,0,0,0-1.156,1.919,5.174,5.174,0,0,1-2.98-1.6,5.084,5.084,0,0,0-3.516,7.318v-.131h0a5.1,5.1,0,0,0,8.987.608,4.914,4.914,0,0,0,2,.608,7.311,7.311,0,0,0,.322-2.122V60.406h-.2c.072-.06.131-.131.2-.191V35.59a5.08,5.08,0,0,0-2.98,1.5Z" transform="translate(14.602 6.833)" fill="#c67fff"/>
    <path id="Path_207" data-name="Path 207" d="M129.939,25.708c-.25-.012-.489-.036-.739-.048,0,0-.536,3.695,1.609,5.137a1.436,1.436,0,0,0,.918-.822V28.783a15.042,15.042,0,0,1-.477-1.919,1.421,1.421,0,0,0-1.311-1.156Z" transform="translate(24.786 4.927)" fill="#b6784e"/>
    <path id="Path_208" data-name="Path 208" d="M130.278,50.563c-5.03-.25-8.355,1.812-10.108,4.911h4.255a7.67,7.67,0,0,0,2.277-1.716c1.275-1.371,4.541-2.205,6.746-2.539V51a19.951,19.951,0,0,0-3.182-.441Z" transform="translate(23.065 9.703)" fill="#f2688f"/>
    <path id="Path_209" data-name="Path 209" d="M126.017,53.649a7.67,7.67,0,0,1-2.277,1.716h7.521a1.5,1.5,0,0,0,1.5-1.5V51.11c-2.217.334-5.471,1.18-6.746,2.539Z" transform="translate(23.75 9.812)" fill="#63c244"/>
    <g id="Group_12" data-name="Group 12" transform="translate(107.487 19.586)">
      <path id="Path_210" data-name="Path 210" d="M134.373,24.513V20.9a1.5,1.5,0,0,0-1.5-1.5h-16.02a1.5,1.5,0,0,0-1.5,1.5v3.612h19.035Z" transform="translate(-85.348 -15.86)" fill="#f4a8d1"/>
      <path id="Path_211" data-name="Path 211" d="M107.874,16.585a3.627,3.627,0,0,0-.644-.155A3.9,3.9,0,0,0,107.874,16.585Z" transform="translate(-86.906 -16.43)" fill="#fdb556"/>
      <path id="Path_212" data-name="Path 212" d="M135.939,30.092c-1.847.5-3.361,1.9-5.507,2.968-.989.489-1.037.954-2.289,2.062-.775.7-1.907.834-2.813,1.383a34.117,34.117,0,0,0-5.3,4.112c-3.373,3.1-6.353,6.6-9.857,9.559a102.647,102.647,0,0,0-7.759,7.187c5.268-.072,9.667-1.216,12.658-6.067a1.493,1.493,0,0,1,2.765.787v5.972a1.5,1.5,0,0,0,1.5,1.5h4.243c1.74-3.1,5.078-5.161,10.108-4.911a20.328,20.328,0,0,1,3.182.441V29.27a1.436,1.436,0,0,1-.918.822Z" transform="translate(-87.831 -13.966)" fill="#f4a8d1"/>
      <path id="Path_213" data-name="Path 213" d="M104.114,30.427c3.278-1.466,9.953-1.514,9.7-7.152-.191-4.267-8.451-4.7-11.431-4.792a15.561,15.561,0,0,0-6.711.906c-3.874,1.669-5.256,7.1-5.256,11.013,0,2.753-.215,5.674-.238,8.558a64.362,64.362,0,0,1,13.934-8.534Z" transform="translate(-90.178 -16.04)" fill="#f4a8d1"/>
      <path id="Path_214" data-name="Path 214" d="M121.908,23.928a21.977,21.977,0,0,1,3.278,1.085,26.849,26.849,0,0,0,3.635.715c1,.131,2.014.226,3.027.3.25.012.489.036.739.048A1.421,1.421,0,0,1,133.9,27.23a18.044,18.044,0,0,0,.477,1.919V23.63H115.34v.977a25.4,25.4,0,0,1,6.568-.691Z" transform="translate(-85.349 -15.048)" fill="#f4a8d1"/>
      <path id="Path_215" data-name="Path 215" d="M98.964,57.831a2.973,2.973,0,0,0,.417.25,4.808,4.808,0,0,0,1.931.322q.894.018,1.752,0a102.294,102.294,0,0,1,7.759-7.187c3.5-2.956,6.484-6.472,9.857-9.559a33.407,33.407,0,0,1,5.3-4.112c.906-.548,2.026-.679,2.813-1.383,1.252-1.12,1.287-1.573,2.289-2.062,2.145-1.073,3.659-2.467,5.507-2.968-2.145-1.43-1.609-5.137-1.609-5.137-1.013-.072-2.014-.167-3.028-.3a26.849,26.849,0,0,1-3.635-.715,19.542,19.542,0,0,0-3.278-1.085,25,25,0,0,0-6.568.691v7.843a20.112,20.112,0,0,1,4.279-1.025l3.862,2.205s-3.492,2.825-8.153,6.734c-.215,1.18-.93,2.1-3.087,2.777a2.18,2.18,0,0,1-.3.072c-5.65,4.815-12.086,10.477-16.139,14.649Z" transform="translate(-88.497 -15.005)" fill="#ffe109"/>
      <path id="Path_216" data-name="Path 216" d="M104.114,28.968A64.362,64.362,0,0,0,90.18,37.5,25.792,25.792,0,0,0,91.6,47.229c.369.942.846,2.014,1.824,2.265a8.5,8.5,0,0,0,1.824-.024,3.074,3.074,0,0,1,2.026.965,90.731,90.731,0,0,1,12.015-12,21.537,21.537,0,0,1,.608-6.15,42.625,42.625,0,0,1,2.134-6.222s-5.34,1.764-7.9,2.908Z" transform="translate(-90.179 -14.582)" fill="#ffe109"/>
      <path id="Path_217" data-name="Path 217" d="M119.623,30.18a20.111,20.111,0,0,0-4.279,1.025v4.637a21.087,21.087,0,0,1-.024,3.278c4.66-3.91,8.153-6.734,8.153-6.734l-3.862-2.205Z" transform="translate(-85.353 -13.791)" fill="#ffed6b"/>
      <path id="Path_218" data-name="Path 218" d="M96.13,48.443a4.3,4.3,0,0,1,.6.727,10.137,10.137,0,0,1,1.12,3.039A5.562,5.562,0,0,0,99.5,55.427c4.041-4.16,10.477-9.833,16.139-14.649a7.143,7.143,0,0,1-3.647.083,4.735,4.735,0,0,1-3.85-4.422A90.731,90.731,0,0,0,96.13,48.443Z" transform="translate(-89.036 -12.589)" fill="#ffed6b"/>
    </g>
    <path id="Path_219" data-name="Path 219" d="M148.994,44.758c-2.014,1.514-5.233,3.623-6.7,5.65-1.144,1.6-3.85-1.514.167,2.718a15.517,15.517,0,0,0,3,2.289c4.434,2.718,9.845,3.623,14.983,3.814,7.986.3,16.437-1,22.718-5.96a4.769,4.769,0,0,0,1.609-1.871c.787-1.955-.811-5.6-2.98-5.983a7.112,7.112,0,0,1-3.9,5.256c-4.219,2.384-9.345-1.1-13.791-4.255a18.3,18.3,0,0,1-3.337,1.693,5.313,5.313,0,0,1-5.733-2.122,10.074,10.074,0,0,1-1.383-3.635,14.16,14.16,0,0,0-4.672,2.4Z" transform="translate(26.936 8.131)" fill="#f4a8d1"/>
    <path id="Path_220" data-name="Path 220" d="M170.661,18.624a31.286,31.286,0,0,0-7.485-.954,43.584,43.584,0,0,0-12.372,1.6,25.53,25.53,0,0,0-9,4.589,19.726,19.726,0,0,0-4.374,4.994c6.281-4.458,12.766-4.458,19.762-4.458.131,0,.274.024.417.036a10.5,10.5,0,0,1,2.1-2.241,5.6,5.6,0,0,1,3.552-1.216,4.777,4.777,0,0,1,3.111.954,6.489,6.489,0,0,1,1.907,2.467,12.226,12.226,0,0,1,.954,3.457,23.6,23.6,0,0,1,.179,2.61,44.987,44.987,0,0,1,10.739,11.621,9.963,9.963,0,0,0,1.8-1.168,8.03,8.03,0,0,0,2.384-3.111,9.526,9.526,0,0,0,.739-3.671,12.925,12.925,0,0,0-2.074-7.4,17.825,17.825,0,0,0-5.28-5.1,23.458,23.458,0,0,0-7.044-2.98Z" transform="translate(26.377 3.394)" fill="#f4a8d1"/>
    <path id="Path_221" data-name="Path 221" d="M174.081,50.194a7.121,7.121,0,0,0,3.9-5.256,2.487,2.487,0,0,0-1.406.131c-2.563,1.013-3.7,3.016-6.937,2.289a14.585,14.585,0,0,1-2.813-1.049,8.644,8.644,0,0,1-4.219-1.1,3.35,3.35,0,0,0-.346.012,6.093,6.093,0,0,0-1.967.715c4.446,3.159,9.583,6.639,13.791,4.255Z" transform="translate(30.765 8.618)" fill="#fc932b"/>
    <path id="Path_222" data-name="Path 222" d="M156.85,25.565c.215-.453.417-.906.656-1.323a9.829,9.829,0,0,1,.584-.906c-.143,0-.286-.036-.417-.036-6.985,0-13.481,0-19.762,4.458a16.98,16.98,0,0,0-1.12,2.11,21.622,21.622,0,0,0-1.8,7.879,14.182,14.182,0,0,1,1.836-3.933c6.341-8.141,12.849-8.26,20.024-8.26Z" transform="translate(25.909 4.474)" fill="#fc932b"/>
    <path id="Path_223" data-name="Path 223" d="M164.285,28.38c0,.441.024.882,0,1.323-.024.8-.083,1.526-.155,2.229,3.111,2.944,5.757,6.353,6.746,9.488a16.212,16.212,0,0,0,1.7-.417,16.393,16.393,0,0,0,2.432-.989,44.987,44.987,0,0,0-10.739-11.621Z" transform="translate(31.502 5.449)" fill="#fc932b"/>
    <path id="Path_224" data-name="Path 224" d="M149.477,43.576a10.523,10.523,0,0,1-2.038.918,25.262,25.262,0,0,1-3.051,2.432,14.51,14.51,0,0,1-5.638,2.348,20.711,20.711,0,0,0,2.42,2.491c.131-.083.274-.167.393-.25,2.741-1.776,5.078-4.374,7.724-6.365a14.045,14.045,0,0,1,4.672-2.4,3.183,3.183,0,0,1,.429-2.443,7.565,7.565,0,0,0-1.514.775c-1.168.775-2.193,1.8-3.4,2.491Z" transform="translate(26.631 7.739)" fill="#fc932b"/>
    <path id="Path_225" data-name="Path 225" d="M148.182,47.394a3.97,3.97,0,0,1-3.325-.143c-2.277-1.442-.644-7.438.691-8.963a11.292,11.292,0,0,1,8.773-4.076c.06-.37.1-.739.167-1.12a41.979,41.979,0,0,1,1.168-4.839,21.977,21.977,0,0,1,1.2-3.051c-7.175,0-13.671.107-20.024,8.26A14.015,14.015,0,0,0,135,37.393c-.024.441-.06.87-.06,1.323a22.142,22.142,0,0,0,1.859,9.166,19.572,19.572,0,0,0,2.682,4.3,14.692,14.692,0,0,0,5.638-2.348,25.5,25.5,0,0,0,3.051-2.432Z" transform="translate(25.899 4.839)" fill="#fdb556"/>
    <path id="Path_226" data-name="Path 226" d="M166.449,46.259a8.946,8.946,0,0,0-4.219-1.1A8.644,8.644,0,0,0,166.449,46.259Z" transform="translate(31.137 8.668)" fill="#fdb556"/>
    <path id="Path_227" data-name="Path 227" d="M164.75,31.36a18.466,18.466,0,0,1-.536,2.968,6.541,6.541,0,0,1-2.253,3.373,7.71,7.71,0,0,1-1.061.679,9.522,9.522,0,0,1,1.919,2.873h4.064a24.418,24.418,0,0,0,4.613-.405C170.5,37.725,167.849,34.3,164.75,31.36Z" transform="translate(30.882 6.021)" fill="#fdb556"/>
    <path id="Path_228" data-name="Path 228" d="M160.819,39.294a41.145,41.145,0,0,1-5.721.572,2.453,2.453,0,0,1-2.563-2.479c0-.358.012-.739.024-1.132a33.918,33.918,0,0,1,.358-3.5,11.292,11.292,0,0,0-8.773,4.076c-1.335,1.526-2.968,7.521-.691,8.963a3.926,3.926,0,0,0,3.325.143,10.523,10.523,0,0,0,2.038-.918c1.2-.691,2.241-1.716,3.4-2.491a7.259,7.259,0,0,1,1.514-.775,2.343,2.343,0,0,1,1.955-.775h10.727A9.75,9.75,0,0,0,164.49,38.1a12.371,12.371,0,0,1-3.647,1.18Z" transform="translate(27.315 6.288)" fill="#ffc988"/>
    <path id="Path_229" data-name="Path 229" d="M231.3,55.718c-.131.679-.238,1.359-.346,2.038h29.357a4.131,4.131,0,0,0,4.136-4.136V42.785a4.121,4.121,0,0,0-5.221-3.981h-.06c-1.907.536-3.826.965-5.757,1.311s-3.838.608-5.709.775-3.588.262-5.149.262a24.238,24.238,0,0,1-4.243-.3,2.911,2.911,0,0,1-1.609-.632,52.26,52.26,0,0,0-5.423,15.507Z" transform="translate(44.327 7.421)" fill="#f4a8d1"/>
    <path id="Path_230" data-name="Path 230" d="M260.449,21.23A17.332,17.332,0,0,0,256.3,20.8c-1.18,1.18-2.384,2.336-3.659,3.409a95.885,95.885,0,0,0-9.643,9.2,36.764,36.764,0,0,1,5.2-.441,13.038,13.038,0,0,1,4.065.477c.918.322,1.252.739.989,1.252s-1.18,1.12-2.765,1.812a40.323,40.323,0,0,1-7.307,2.074,54.18,54.18,0,0,0-5.3,1.395q-.822,1.252-1.573,2.539a7.724,7.724,0,0,1,.906-.477,34.385,34.385,0,0,1,5.972-1.728q4.148-.948,7.962-2.205a35.743,35.743,0,0,0,6.663-2.9,16.567,16.567,0,0,0,4.541-3.671,7.077,7.077,0,0,0,1.693-4.625c0-3.612.334-4.792-3.576-5.7Z" transform="translate(45.354 3.994)" fill="#f4a8d1"/>
    <path id="Path_231" data-name="Path 231" d="M240.321,22.585c-.751-.393-1.5-.775-2.277-1.1-2.443-1.013-6.734-1.883-9.237-.572-1.907.989-1.526,1.228-1.609,3.278-.107,2.8,0,5.614,0,8.415a4.14,4.14,0,0,0,2.527,3.814,151.757,151.757,0,0,1,10.6-13.85Z" transform="translate(43.598 3.89)" fill="#ffe109"/>
    <path id="Path_232" data-name="Path 232" d="M252.428,24.219c1.275-1.073,2.479-2.241,3.659-3.409a16.5,16.5,0,0,0-6.281,1.347c-5.447,4.827-10.453,9.571-12.4,12.277.2-.048.417-.107.62-.143,1.728-.369,3.29-.644,4.756-.858a93.35,93.35,0,0,1,9.643-9.2Z" transform="translate(45.567 3.996)" fill="#ffe109"/>
    <path id="Path_233" data-name="Path 233" d="M235.608,38.328c-2.467,4.732-5.924,12.074-7.628,18.821a4.082,4.082,0,0,0,2.6.942h.942c.119-.679.226-1.359.346-2.038a51.927,51.927,0,0,1,5.423-15.507.5.5,0,0,1-.119-.238c-.036-.25.226-.548.739-.858.5-.858,1.013-1.716,1.573-2.539-1.383.441-2.67.906-3.862,1.418Z" transform="translate(43.757 7.087)" fill="#ffe109"/>
    <path id="Path_234" data-name="Path 234" d="M251.361,21.94a1.188,1.188,0,0,1-.131.048c-1.776.8-3.492,1.919-5.435,2.074-2.086.155-3.981-.822-5.888-1.8a148.026,148.026,0,0,0-10.6,13.85,3.983,3.983,0,0,0,2.992.083,55.264,55.264,0,0,1,6.651-1.979c1.943-2.706,6.949-7.45,12.4-12.277Z" transform="translate(44.012 4.213)" fill="#ffed6b"/>
    <path id="Path_235" data-name="Path 235" d="M235.858,38.1a27.221,27.221,0,0,0-4.243,2.253q-4.935,3.236-4.935,8.439v4.947a4.1,4.1,0,0,0,1.538,3.194c1.7-6.746,5.161-14.089,7.628-18.821Z" transform="translate(43.507 7.315)" fill="#ffed6b"/>
    <path id="Path_236" data-name="Path 236" d="M269.258,24.045l-2.205-2.205a9.493,9.493,0,0,0-1.693,5.411v17.8c4.9,1.752,11.884,6.9,16.711,12.634a9.462,9.462,0,0,0,2.312-6.21V27.251a9.7,9.7,0,0,0-.572-3.242l-.155.155a10.174,10.174,0,0,1-14.4-.131Z" transform="translate(50.931 4.194)" fill="#f4a8d1"/>
    <path id="Path_237" data-name="Path 237" d="M265.35,41.312v2.61a37.376,37.376,0,0,1,13.981,12.205,9.594,9.594,0,0,0,2.741-2.193C277.245,48.2,270.249,43.052,265.362,41.3Z" transform="translate(50.929 7.929)" fill="#fc932b"/>
    <path id="Path_238" data-name="Path 238" d="M265.352,43.51v3.8a9.513,9.513,0,0,0,13.969,8.4A37.286,37.286,0,0,0,265.34,43.51Z" transform="translate(50.928 8.353)" fill="#fdb556"/>
    <path id="Path_239" data-name="Path 239" d="M282.43,23.1a10.173,10.173,0,0,1-14.4-.131l-1.2-1.2a.707.707,0,0,0-.048.072l2.205,2.205a10.2,10.2,0,0,0,14.4.131l.155-.155a9.225,9.225,0,0,0-.632-1.395Z" transform="translate(51.204 4.181)" fill="#d85d86"/>
    <path id="Path_240" data-name="Path 240" d="M268.02,23.621a10.2,10.2,0,0,0,14.4.131l.477-.477a9.533,9.533,0,0,0-5.352-4.41.875.875,0,0,1-.7.548.61.61,0,0,1-.441-.2,1.077,1.077,0,0,1-.667-.739A8.886,8.886,0,0,0,274.6,18.4a9.532,9.532,0,0,0-5.125,1.5c-.131.62-.477,1.061-.882,1.061a.636.636,0,0,1-.346-.119,9.366,9.366,0,0,0-1.406,1.585l1.2,1.2Zm11.347-2.336a.61.61,0,0,1,.441.2c.465.107.822.787.822,1.621,0,.906-.429,1.645-.954,1.645a.61.61,0,0,1-.441-.2c-.465-.107-.822-.787-.822-1.621C278.414,22.023,278.843,21.284,279.367,21.284Zm-5.936.179a.61.61,0,0,1,.441.2c.465.107.822.787.822,1.621,0,.906-.429,1.645-.954,1.645a.61.61,0,0,1-.441-.2c-.465-.107-.822-.787-.822-1.621C272.478,22.2,272.907,21.463,273.431,21.463Z" transform="translate(51.215 3.534)" fill="#f2688f"/>
    <path id="Path_241" data-name="Path 241" d="M269.238,19.66c-.167.107-.334.226-.5.346a.852.852,0,0,1-.656.524l-.072.072a.636.636,0,0,0,.346.119c.405,0,.751-.441.882-1.061Z" transform="translate(51.44 3.776)" fill="#bc557d"/>
    <path id="Path_242" data-name="Path 242" d="M268.726,19.95c-.226.167-.453.346-.656.524A.877.877,0,0,0,268.726,19.95Z" transform="translate(51.451 3.831)" fill="#d85d86"/>
    <path id="Path_243" data-name="Path 243" d="M273.345,22.582c0,.906-.429,1.645-.954,1.645a.506.506,0,0,1-.131-.024.685.685,0,0,0,.441.2c.524,0,.954-.739.954-1.645,0-.822-.358-1.5-.822-1.621a2,2,0,0,1,.5,1.442Z" transform="translate(52.256 4.06)" fill="#bc557d"/>
    <path id="Path_244" data-name="Path 244" d="M271.57,22.615c0,.822.358,1.5.822,1.621.048,0,.083.024.131.024.524,0,.954-.739.954-1.645a2,2,0,0,0-.5-1.442.685.685,0,0,0-.441-.2c-.524,0-.954.739-.954,1.645Z" transform="translate(52.123 4.027)" fill="#d85d86"/>
    <path id="Path_245" data-name="Path 245" d="M278.315,22.432c0,.906-.429,1.645-.954,1.645a.507.507,0,0,1-.131-.024.685.685,0,0,0,.441.2c.524,0,.954-.739.954-1.645,0-.822-.358-1.5-.822-1.621a2,2,0,0,1,.5,1.442Z" transform="translate(53.21 4.031)" fill="#bc557d"/>
    <path id="Path_246" data-name="Path 246" d="M277.361,24.086a.648.648,0,0,0,.131.024c.524,0,.954-.739.954-1.645a2,2,0,0,0-.5-1.442.685.685,0,0,0-.441-.2c-.524,0-.954.739-.954,1.645,0,.822.358,1.5.822,1.621Z" transform="translate(53.079 3.998)" fill="#d85d86"/>
    <path id="Path_247" data-name="Path 247" d="M274.981,19.177s-.083-.012-.131-.024a.685.685,0,0,0,.441.2.875.875,0,0,0,.7-.548c-.119-.036-.238-.072-.346-.107a.813.813,0,0,1-.667.465Z" transform="translate(52.753 3.591)" fill="#bc557d"/>
    <path id="Path_248" data-name="Path 248" d="M274.958,19.2a.648.648,0,0,0,.131.024.829.829,0,0,0,.667-.465,9.983,9.983,0,0,0-1.466-.3,1.1,1.1,0,0,0,.667.739Z" transform="translate(52.645 3.545)" fill="#d85d86"/>
    <path id="Path_249" data-name="Path 249" d="M280.321,1.911c1.6,2.73-1.752,7.128-1.752,7.128a3.134,3.134,0,0,0-.429-.763.763.763,0,0,1-.083.107,2.821,2.821,0,0,0-.262-.524,6.154,6.154,0,0,0-2.134-1.442,2.738,2.738,0,0,1-1.347-1.2,4.646,4.646,0,0,1-1.108-3.385,4.754,4.754,0,0,0-2.014.751,2.721,2.721,0,0,0,.083.822c.238.894.906,1.752.644,2.634a2.4,2.4,0,0,1-1.466,1.335,12.263,12.263,0,0,1-2.026.679c-.453.1-.846.191-1.192.286.012.119.024.238.024.358,0,.906-.429,1.645-.954,1.645a.61.61,0,0,1-.441-.2.8.8,0,0,1-.358-.215,4.021,4.021,0,0,0-.1.918,9.933,9.933,0,0,0,.584,2.789.768.768,0,0,1,.632-.417.61.61,0,0,1,.441.2c.465.107.822.787.822,1.621A2.445,2.445,0,0,1,267.7,16a1.238,1.238,0,0,0,1.12-.191,5.38,5.38,0,0,1,2.992-1.1c2.634.048,4.672,3.254,7.259,2.706a6.093,6.093,0,0,0,3.635-2.229.654.654,0,0,1-.286.083.61.61,0,0,1-.441-.2c-.465-.107-.822-.787-.822-1.621,0-.906.429-1.645.954-1.645a.61.61,0,0,1,.441.2c.465.107.822.787.822,1.621a2.383,2.383,0,0,1-.107.727,9.933,9.933,0,0,0,1.108-4.815,9.388,9.388,0,0,0-2.6-6.925,8.409,8.409,0,0,0-1.633-1.2,1.074,1.074,0,0,0,.167.5Zm-7.14,8.534a.61.61,0,0,1-.441-.2c-.465-.107-.822-.787-.822-1.621,0-.906.429-1.645.954-1.645a.61.61,0,0,1,.441.2c.465.107.822.787.822,1.621C274.135,9.706,273.706,10.445,273.181,10.445Zm3.993,5.185a.61.61,0,0,1-.441-.2c-.465-.107-.822-.787-.822-1.621,0-.906.429-1.645.954-1.645a.61.61,0,0,1,.441.2c.465.107.822.787.822,1.621C278.128,14.891,277.7,15.63,277.174,15.63Z" transform="translate(50.941 0.273)" fill="#f2688f"/>
    <path id="Path_250" data-name="Path 250" d="M274.217,5.812a6,6,0,0,1,2.134,1.442A5.433,5.433,0,0,0,273.7,5.168a2.818,2.818,0,0,1-.834-.548,2.79,2.79,0,0,0,1.347,1.2Z" transform="translate(52.373 0.889)" fill="#32a000"/>
    <path id="Path_251" data-name="Path 251" d="M272.274,1.887a3.8,3.8,0,0,1,.048-.644,3.242,3.242,0,0,0-1.8.346,2.955,2.955,0,0,0-.262,1.061,4.754,4.754,0,0,1,2.014-.751Z" transform="translate(51.872 0.237)" fill="#32a000"/>
    <path id="Path_252" data-name="Path 252" d="M276.09,8.31a3.134,3.134,0,0,1,.429.763s3.349-4.4,1.752-7.128a1.178,1.178,0,0,1-.167-.5c-.119-.072-.238-.143-.37-.215a.066.066,0,0,0,.024.06c1.454,2.491-1.192,6.341-1.669,7.02Z" transform="translate(52.991 0.238)" fill="#32a000"/>
    <path id="Path_253" data-name="Path 253" d="M271.076.908a2.722,2.722,0,0,0-.6.906,3.393,3.393,0,0,1,1.8-.346s-.036.262-.048.644A4.609,4.609,0,0,0,273.341,5.5a2.421,2.421,0,0,0,.834.548,5.433,5.433,0,0,1,2.646,2.086,2.821,2.821,0,0,1,.262.524s.036-.048.083-.107c.489-.679,3.123-4.529,1.669-7.02-.012-.024,0-.036-.024-.06C276.344.121,272.792-.772,271.064.9Z" transform="translate(51.914 0)" fill="#63c244"/>
    <path id="Path_254" data-name="Path 254" d="M266.8,11.49a2,2,0,0,1,.5,1.442,2.462,2.462,0,0,1-.191.977,2.073,2.073,0,0,0,.322.167,2.445,2.445,0,0,0,.191-.965C267.622,12.289,267.265,11.609,266.8,11.49Z" transform="translate(51.208 2.208)" fill="#bc557d"/>
    <path id="Path_255" data-name="Path 255" d="M266.973,11.523a.685.685,0,0,0-.441-.2.812.812,0,0,0-.632.417,4.582,4.582,0,0,0,1.395,2.205,2.462,2.462,0,0,0,.191-.977,2,2,0,0,0-.5-1.442Z" transform="translate(51.035 2.175)" fill="#d85d86"/>
    <path id="Path_256" data-name="Path 256" d="M265.911,9.064s-.083-.012-.131-.024a.685.685,0,0,0,.441.2c.524,0,.954-.739.954-1.645a1.807,1.807,0,0,0-.024-.358c-.1.024-.2.06-.3.083v.1c0,.906-.429,1.645-.954,1.645Z" transform="translate(51.012 1.392)" fill="#bc557d"/>
    <path id="Path_257" data-name="Path 257" d="M265.836,9.026a.648.648,0,0,0,.131.024c.524,0,.954-.739.954-1.645v-.1a1.887,1.887,0,0,0-1.359,1.168,2.547,2.547,0,0,0-.072.322.8.8,0,0,0,.358.215Z" transform="translate(50.956 1.405)" fill="#d85d86"/>
    <path id="Path_258" data-name="Path 258" d="M272.134,6.26a2,2,0,0,1,.5,1.442c0,.906-.429,1.645-.954,1.645a.507.507,0,0,1-.131-.024.685.685,0,0,0,.441.2c.524,0,.954-.739.954-1.645,0-.822-.358-1.5-.822-1.621Z" transform="translate(52.119 1.204)" fill="#bc557d"/>
    <path id="Path_259" data-name="Path 259" d="M272.775,7.735a2,2,0,0,0-.5-1.442.685.685,0,0,0-.441-.2c-.524,0-.954.739-.954,1.645,0,.822.358,1.5.822,1.621.048,0,.083.024.131.024.524,0,.954-.739.954-1.645Z" transform="translate(51.991 1.171)" fill="#d85d86"/>
    <path id="Path_260" data-name="Path 260" d="M279.884,10.31a2,2,0,0,1,.5,1.442c0,.906-.429,1.645-.954,1.645a.506.506,0,0,1-.131-.024.685.685,0,0,0,.441.2.654.654,0,0,0,.286-.083,5.664,5.664,0,0,0,.56-.834,2.739,2.739,0,0,0,.107-.727c0-.822-.358-1.5-.822-1.621Z" transform="translate(53.607 1.981)" fill="#bc557d"/>
    <path id="Path_261" data-name="Path 261" d="M280.515,11.785a2,2,0,0,0-.5-1.442.685.685,0,0,0-.441-.2c-.524,0-.954.739-.954,1.645,0,.822.358,1.5.822,1.621.048,0,.083.024.131.024.524,0,.954-.739.954-1.645Z" transform="translate(53.476 1.949)" fill="#d85d86"/>
    <path id="Path_262" data-name="Path 262" d="M275.494,10.61a2,2,0,0,1,.5,1.442c0,.906-.429,1.645-.954,1.645a.507.507,0,0,1-.131-.024.685.685,0,0,0,.441.2c.524,0,.954-.739.954-1.645,0-.822-.358-1.5-.822-1.621Z" transform="translate(52.764 2.039)" fill="#bc557d"/>
    <path id="Path_263" data-name="Path 263" d="M276.125,12.085a2,2,0,0,0-.5-1.442.685.685,0,0,0-.441-.2c-.524,0-.954.739-.954,1.645,0,.822.358,1.5.822,1.621.048,0,.083.024.131.024.524,0,.954-.739.954-1.645Z" transform="translate(52.634 2.006)" fill="#d85d86"/>
    <path id="Path_264" data-name="Path 264" d="M304.784,12.155a5.731,5.731,0,0,0-4.684-.167c-2.134.846-3.516,2.777-5.364,4.053a9.276,9.276,0,0,1-4.792,1.693c-4.351.226-4.994,2.491-4.994,6.353a.8.8,0,0,0,.751.822.738.738,0,0,1,.727.727l.2,19.738a5.137,5.137,0,0,1,1.991-.882,5.011,5.011,0,0,1-.727-1.1,3.279,3.279,0,0,1-.215-.465l-.072-.143a.282.282,0,0,0-.024-.1,5.02,5.02,0,0,1,2.122-6.115,5.237,5.237,0,0,1-.822-1.263h0v.131a5.1,5.1,0,0,1,.858-5.864,5.184,5.184,0,0,1,1.037-.811v-.322c0-.06-.012-.107-.012-.167a.262.262,0,0,1,.012-.1,5.03,5.03,0,0,1,1.561-3.576,5.1,5.1,0,0,1,7.962-5.793,5.222,5.222,0,0,1,1.74,2.36,5.028,5.028,0,0,1,1.907-.644c-.548-.262-.954-.369-1.049-.215a6.561,6.561,0,0,1,3.278-2.455,2.162,2.162,0,0,1,1.192.143c.191-1.192.381-2.348.6-3.469a.144.144,0,0,0-.036-.119,11.8,11.8,0,0,0-3.135-2.277Z" transform="translate(54.691 2.222)" fill="#f4a8d1"/>
    <path id="Path_265" data-name="Path 265" d="M311.033,41.958a5.076,5.076,0,0,1-5.268,3.457,3.583,3.583,0,0,1-.5-.06.406.406,0,0,1-.167-.024c-.036,0-.06-.024-.1-.036a4.455,4.455,0,0,1-.882-.274c-.072.131-.167.25-.25.381a.059.059,0,0,0,.036-.012,1.045,1.045,0,0,1,.119-.072,5.1,5.1,0,0,1-5.471,2.277,7.19,7.19,0,0,1-.715-.238,5.125,5.125,0,0,1-1.871.262,5.209,5.209,0,0,1-2.193-.632,5.066,5.066,0,0,1-4.589,2.408,5.164,5.164,0,0,1-2.515-.822c.083.524.179,1.037.3,1.538a11.642,11.642,0,0,0,2.074,4.458,9.46,9.46,0,0,0,3.981,2.944,16.626,16.626,0,0,0,6.317,1.037,13.032,13.032,0,0,0,6.532-1.6,15.252,15.252,0,0,0,4.935-4.362,20.237,20.237,0,0,0,3.111-6.532,23.585,23.585,0,0,0,.834-7.009,5.105,5.105,0,0,1-3.707,2.92Z" transform="translate(55.021 7.497)" fill="#f4a8d1"/>
    <path id="Path_266" data-name="Path 266" d="M302.216,44.31s-.072.048-.119.072a.059.059,0,0,0-.036.012,5.038,5.038,0,0,1-1.764,1.585,5.116,5.116,0,0,1-4.064.31c-.072.024-.131.048-.2.072a4.576,4.576,0,0,0,.715.238,5.116,5.116,0,0,0,5.471-2.277Z" transform="translate(56.818 8.507)" fill="#f4a8d1"/>
    <path id="Path_267" data-name="Path 267" d="M302.216,44.31s-.072.048-.119.072a.059.059,0,0,0-.036.012,5.038,5.038,0,0,1-1.764,1.585,5.116,5.116,0,0,1-4.064.31c-.072.024-.131.048-.2.072a4.576,4.576,0,0,0,.715.238,5.116,5.116,0,0,0,5.471-2.277Z" transform="translate(56.818 8.507)" fill="#d7fbff" opacity="0.33"/>
    <path id="Path_268" data-name="Path 268" d="M300.264,45.965a5.049,5.049,0,0,0,1.764-1.585,5.117,5.117,0,0,1-3.731.393,5.087,5.087,0,0,1-2.1,1.5A5.071,5.071,0,0,0,300.264,45.965Z" transform="translate(56.851 8.52)" fill="#c67fff"/>
    <path id="Path_269" data-name="Path 269" d="M300.264,45.965a5.049,5.049,0,0,0,1.764-1.585,5.117,5.117,0,0,1-3.731.393,5.087,5.087,0,0,1-2.1,1.5A5.071,5.071,0,0,0,300.264,45.965Z" transform="translate(56.851 8.52)" fill="#d7fbff" opacity="0.33"/>
    <path id="Path_270" data-name="Path 270" d="M302.26,44.34c.167.024.334.048.5.06A3.584,3.584,0,0,1,302.26,44.34Z" transform="translate(58.014 8.513)" fill="#c67fff"/>
    <path id="Path_271" data-name="Path 271" d="M302.3,44.348c-.083-.012-.167-.036-.25-.048.036,0,.06.024.1.036a.805.805,0,0,1,.167.024Z" transform="translate(57.973 8.505)" fill="#f4a8d1"/>
    <path id="Path_272" data-name="Path 272" d="M302.3,44.348c-.083-.012-.167-.036-.25-.048.036,0,.06.024.1.036a.805.805,0,0,1,.167.024Z" transform="translate(57.973 8.505)" fill="#d7fbff" opacity="0.33"/>
    <path id="Path_273" data-name="Path 273" d="M299.34,42.4a5.111,5.111,0,0,0,3.23,2.432,1.851,1.851,0,0,0,.25.048,3.583,3.583,0,0,0,.5.06,5.034,5.034,0,0,0,5.125-3.421,4.561,4.561,0,0,1-1.073.06.92.92,0,0,1-.179-.024,4.439,4.439,0,0,1-.56,1.144,2.475,2.475,0,0,1-.727.763,1.794,1.794,0,0,1-2.515-.477,5.121,5.121,0,0,1-4.053-.572Z" transform="translate(57.453 7.971)" fill="#c67fff"/>
    <path id="Path_274" data-name="Path 274" d="M299.34,42.4a5.111,5.111,0,0,0,3.23,2.432,1.851,1.851,0,0,0,.25.048,3.583,3.583,0,0,0,.5.06,5.034,5.034,0,0,0,5.125-3.421,4.561,4.561,0,0,1-1.073.06.92.92,0,0,1-.179-.024,4.439,4.439,0,0,1-.56,1.144,2.475,2.475,0,0,1-.727.763,1.794,1.794,0,0,1-2.515-.477,5.121,5.121,0,0,1-4.053-.572Z" transform="translate(57.453 7.971)" fill="#d7fbff" opacity="0.33"/>
    <path id="Path_275" data-name="Path 275" d="M289.83,25.625a1.135,1.135,0,0,0,.012.167V25.53C289.842,25.566,289.83,25.59,289.83,25.625Z" transform="translate(55.628 4.902)" fill="#f4a8d1"/>
    <path id="Path_276" data-name="Path 276" d="M289.83,25.625a1.135,1.135,0,0,0,.012.167V25.53C289.842,25.566,289.83,25.59,289.83,25.625Z" transform="translate(55.628 4.902)" fill="#d7fbff" opacity="0.33"/>
    <path id="Path_277" data-name="Path 277" d="M291.592,26.005a5.119,5.119,0,0,1-.083-3.242c-.024-.048-.036-.1-.06-.143a5.135,5.135,0,0,0-1.609,3.469v.262a2.716,2.716,0,0,0,.024.31A5.083,5.083,0,0,1,291.592,26.005Z" transform="translate(55.63 4.344)" fill="#c67fff"/>
    <path id="Path_278" data-name="Path 278" d="M291.592,26.005a5.119,5.119,0,0,1-.083-3.242c-.024-.048-.036-.1-.06-.143a5.135,5.135,0,0,0-1.609,3.469v.262a2.716,2.716,0,0,0,.024.31A5.083,5.083,0,0,1,291.592,26.005Z" transform="translate(55.63 4.344)" fill="#d7fbff" opacity="0.33"/>
    <path id="Path_279" data-name="Path 279" d="M287.455,38.345c-.072-.155-.155-.3-.215-.465C287.312,38.035,287.371,38.19,287.455,38.345Z" transform="translate(55.131 7.273)" fill="#c67fff"/>
    <path id="Path_280" data-name="Path 280" d="M287.422,38.27a5.312,5.312,0,0,0,.727,1.1.151.151,0,0,0,.072-.012,5.048,5.048,0,0,1-.81-1.085Z" transform="translate(55.163 7.348)" fill="#f4a8d1"/>
    <path id="Path_281" data-name="Path 281" d="M287.422,38.27a5.312,5.312,0,0,0,.727,1.1.151.151,0,0,0,.072-.012,5.048,5.048,0,0,1-.81-1.085Z" transform="translate(55.163 7.348)" fill="#d7fbff" opacity="0.33"/>
    <path id="Path_282" data-name="Path 282" d="M287.184,37.775l.072.143c-.036-.083-.06-.167-.1-.238A.143.143,0,0,0,287.184,37.775Z" transform="translate(55.115 7.234)" fill="#f4a8d1"/>
    <path id="Path_283" data-name="Path 283" d="M287.184,37.775l.072.143c-.036-.083-.06-.167-.1-.238A.143.143,0,0,0,287.184,37.775Z" transform="translate(55.115 7.234)" fill="#d7fbff" opacity="0.33"/>
    <path id="Path_284" data-name="Path 284" d="M291.22,41.724a4.936,4.936,0,0,1,1.156-1.919,6.2,6.2,0,0,1,.524-.453,5.048,5.048,0,0,1-2.777-.644,5.12,5.12,0,0,1-2.6-4.4,5.123,5.123,0,0,0-.322,4.029c.036.083.06.167.1.238.06.155.143.31.215.465a5.048,5.048,0,0,0,.81,1.085.151.151,0,0,0-.072.012,5.072,5.072,0,0,0,2.98,1.6Z" transform="translate(55.072 6.588)" fill="#c67fff"/>
    <path id="Path_285" data-name="Path 285" d="M291.22,41.724a4.936,4.936,0,0,1,1.156-1.919,6.2,6.2,0,0,1,.524-.453,5.048,5.048,0,0,1-2.777-.644,5.12,5.12,0,0,1-2.6-4.4,5.123,5.123,0,0,0-.322,4.029c.036.083.06.167.1.238.06.155.143.31.215.465a5.048,5.048,0,0,0,.81,1.085.151.151,0,0,0-.072.012,5.072,5.072,0,0,0,2.98,1.6Z" transform="translate(55.072 6.588)" fill="#d7fbff" opacity="0.33"/>
    <path id="Path_286" data-name="Path 286" d="M304.775,28.915a2.813,2.813,0,0,0-.584.191s.524-4.565,3.051-5.28a.75.75,0,0,0,.477-.334c-1.168-1.5-4.482-3.492-4.78-3.028a3.961,3.961,0,0,1,.763-.906.037.037,0,0,1-.024-.012,5.028,5.028,0,0,0-1.907.644,5.056,5.056,0,0,0-1.74-2.36,5.1,5.1,0,0,0-7.962,5.793,5.051,5.051,0,0,0-1.561,3.576,4.986,4.986,0,0,1,1.609-3.469c.024.048.036.1.06.143a5.119,5.119,0,0,0,.083,3.242,4.934,4.934,0,0,0-1.728.656c0-.107-.024-.2-.024-.31v.322a5.025,5.025,0,0,0-1.9,6.675v-.131h0a4.9,4.9,0,0,0,.822,1.263,5.019,5.019,0,0,0-1.8,1.836,5.107,5.107,0,0,0-.322,4.279,5.123,5.123,0,0,1,.322-4.029,5.12,5.12,0,0,0,2.6,4.4,5.049,5.049,0,0,0,2.777.644,6.2,6.2,0,0,0-.524.453,5.241,5.241,0,0,0-1.156,1.919,5.174,5.174,0,0,1-2.98-1.6,4.9,4.9,0,0,0-1.991.882l.048,4.446a25.613,25.613,0,0,0,.31,4.041,5.044,5.044,0,0,0,2.515.822,5.1,5.1,0,0,0,4.589-2.408,5.042,5.042,0,0,0,2.193.632,5.125,5.125,0,0,0,1.871-.262,1.372,1.372,0,0,0,.2-.072,5.087,5.087,0,0,0,2.1-1.5,5.058,5.058,0,0,0,3.731-.393,4.2,4.2,0,0,0,.25-.381,4.716,4.716,0,0,0,.882.274,5.111,5.111,0,0,1-3.23-2.432,5.121,5.121,0,0,0,4.053.572,4.306,4.306,0,0,1-.7-2.372c-.06-1.609-.06-3.552,0-5.793s.179-4.7.346-7.354c.048-.739.107-1.49.167-2.229a3.038,3.038,0,0,0-1.18.262,12.669,12.669,0,0,1,.262-1.323Z" transform="translate(54.962 3.21)" fill="#c67fff"/>
    <path id="Path_287" data-name="Path 287" d="M300.282,20.016c.3-.465,3.612,1.526,4.78,3.028.548-.93-2.348-3.135-4.017-3.933A6.271,6.271,0,0,0,300.282,20.016Z" transform="translate(57.62 3.67)" fill="#569e3b"/>
    <path id="Path_288" data-name="Path 288" d="M301.852,26.963a12.675,12.675,0,0,0-.262,1.323,3.038,3.038,0,0,1,1.18-.262c.024-.381.048-.751.083-1.132A3.537,3.537,0,0,0,301.852,26.963Z" transform="translate(57.885 5.162)" fill="#569e3b"/>
    <path id="Path_289" data-name="Path 289" d="M303.29,16.858a6.561,6.561,0,0,0-3.278,2.455c.1-.155.513-.036,1.049.215a.037.037,0,0,1,.024.012c1.669.8,4.577,3,4.017,3.933a.75.75,0,0,1-.477.334c-2.527.715-3.051,5.28-3.051,5.28a2.508,2.508,0,0,1,.584-.191,4.042,4.042,0,0,1,1-.072c.107-1.275.226-2.575.358-3.886a.861.861,0,0,1,.977-.775,33.573,33.573,0,0,1,3.79.787,21.909,21.909,0,0,1,2.956,1.013c.036.012.072,0,.107.012.31-.238.679-.536,1.085-.87V19.635a6.509,6.509,0,0,1-3.254,2.718,3.491,3.491,0,0,1-.632.143.4.4,0,0,1,.167-.107A.454.454,0,0,0,309,22c.107-.715-.822-2.134-2.05-3.314h-1.728a.869.869,0,0,1-.858-.989c.036-.238.072-.465.107-.7a2.049,2.049,0,0,0-1.192-.143Z" transform="translate(57.568 3.228)" fill="#63c244"/>
    <path id="Path_290" data-name="Path 290" d="M221.733,61.275a18.925,18.925,0,0,0,5.388-2.229c1.776-1.144,4.029-3.314,4.2-5.578s-1.812-4.935-4.255-3.969c-2.563,1.013-3.695,3.016-6.937,2.289a33.918,33.918,0,0,1-4.267-1.657L211.792,54.2a10.174,10.174,0,0,1-14.4-.131l-9.237-9.237a9.63,9.63,0,0,1-.858-.989l-.1-.1a10.05,10.05,0,0,1-2.062-2.932c-3.731-8.141-.6-17.962,10.048-17.426a20.823,20.823,0,0,1,3.767.572,9.87,9.87,0,0,1,1.359-.1,26.761,26.761,0,0,1-.322-6.15c-1.073.215-2.11.453-3.1.751a25.53,25.53,0,0,0-9,4.589,19.524,19.524,0,0,0-5.495,7.092,22.13,22.13,0,0,0-1.859,9.214c0,11.2,6.687,19.8,17.533,22.742,7.1,1.931,14.673,1.252,21.848-.393.6-.131,1.18-.274,1.776-.441Z" transform="translate(34.652 3.401)" fill="#f4a8d1"/>
    <path id="Path_291" data-name="Path 291" d="M201.32,21.994a7.3,7.3,0,0,1,.572-.489,5.6,5.6,0,0,1,3.552-1.216,4.777,4.777,0,0,1,3.111.954,1.074,1.074,0,0,0,.119.107,3.6,3.6,0,0,1,2.336,1.228c.048.072.083.155.131.226a1.783,1.783,0,0,1,.381.417,4.373,4.373,0,0,1,.322.62,12,12,0,0,1,7.009,4.172c3.314,3.206,4.148,8.379.238,14.577.274-.072.548-.131.8-.215a12.767,12.767,0,0,0,4.243-2.157,8.029,8.029,0,0,0,2.384-3.111,9.526,9.526,0,0,0,.739-3.671,12.925,12.925,0,0,0-2.074-7.4,17.825,17.825,0,0,0-5.28-5.1,23.458,23.458,0,0,0-7.044-2.98A31.286,31.286,0,0,0,205.372,17c-1.371,0-2.67.06-3.945.155a9.787,9.787,0,0,0-.083,4.839Z" transform="translate(38.593 3.265)" fill="#f4a8d1"/>
    <path id="Path_292" data-name="Path 292" d="M209.773,48.905a10.174,10.174,0,0,1-14.4-.131L186.22,39.62a11.343,11.343,0,0,0,.858.989l9.237,9.237a10.2,10.2,0,0,0,14.4.131l4.064-4.064a7.669,7.669,0,0,0-1.585-.441l-3.433,3.433Z" transform="translate(35.742 7.607)" fill="#d85d86"/>
    <path id="Path_293" data-name="Path 293" d="M216.26,26.25c2.6,3.385,2.825,8.415-1.24,14.315-.155.226-.322.441-.5.656a15.7,15.7,0,0,0,1.979-.393c3.91-6.2,3.063-11.383-.238-14.577Z" transform="translate(41.173 5.041)" fill="#d85d86"/>
    <path id="Path_294" data-name="Path 294" d="M222.277,26.985a11.868,11.868,0,0,0-7.009-4.172,8.251,8.251,0,0,1,.477,4.255c.036-.191-.322-.405-.882-.62a21.445,21.445,0,0,1,.143,3.612,20.92,20.92,0,0,1-.691,5.185,6.541,6.541,0,0,1-2.253,3.373,8.049,8.049,0,0,1-1.085.691c-.119.667-.477,1.156-.906,1.156a.61.61,0,0,1-.441-.2.7.7,0,0,1-.393-.262,15.335,15.335,0,0,1-1.871.465,41.144,41.144,0,0,1-5.721.572,2.453,2.453,0,0,1-2.563-2.479c0-.358.012-.739.024-1.132a32.73,32.73,0,0,1,.524-4.625,41.979,41.979,0,0,1,1.168-4.839c.024-.1.072-.179.1-.274a6.492,6.492,0,0,1-.012-.667,6.226,6.226,0,0,0-3.731,2.169c-2.443,2.539-8.916-.787-8.916-.787a2.921,2.921,0,0,0,.584-.155c-.667-.274-1.085-.5-1.085-.5a6.32,6.32,0,0,0,3.421-2.11c1.406-1.49,5.173-2.36,7.342-2.622a20.98,20.98,0,0,0-3.767-.572c-10.656-.536-13.779,9.285-10.048,17.426a10.117,10.117,0,0,0,2.062,2.932l.1.1,9.154,9.154a10.2,10.2,0,0,0,14.4.131l3.433-3.433a4.742,4.742,0,0,0-1.538-.036,12.807,12.807,0,0,0-3.886,1.812,2.438,2.438,0,0,1,.215,1.013c0,.906-.429,1.645-.954,1.645a.61.61,0,0,1-.441-.2c-.465-.107-.822-.787-.822-1.621v-.131A5.329,5.329,0,0,1,201.251,49c-.787-1.192-1.788-3.731-1.311-5.364a.749.749,0,0,1-.572.334.61.61,0,0,1-.441-.2c-.465-.107-.822-.787-.822-1.621,0-.906.429-1.645.954-1.645a.61.61,0,0,1,.441.2c.465.107.822.787.822,1.621a2.817,2.817,0,0,1-.083.656,2.275,2.275,0,0,1,2.014-.846h14.792a25.021,25.021,0,0,0,3.54-.226c.179-.215.346-.429.5-.656,4.064-5.9,3.838-10.93,1.24-14.315Zm-35.829,6.937c0-.906.429-1.645.954-1.645a.61.61,0,0,1,.441.2c.465.107.822.787.822,1.621,0,.906-.429,1.645-.954,1.645a.61.61,0,0,1-.441-.2c-.465-.107-.822-.787-.822-1.621Zm2.062,8.463a.61.61,0,0,1-.441-.2c-.465-.107-.822-.787-.822-1.621,0-.906.429-1.645.954-1.645a.61.61,0,0,1,.441.2c.465.107.822.787.822,1.621C189.463,41.645,189.034,42.384,188.509,42.384Zm12.849,7.545a.61.61,0,0,1,.441.2c.465.107.822.787.822,1.621,0,.906-.429,1.645-.954,1.645a.61.61,0,0,1-.441-.2c-.465-.107-.822-.787-.822-1.621C200.4,50.668,200.834,49.929,201.358,49.929Zm-8.665-16.186c0-.906.429-1.645.954-1.645a.61.61,0,0,1,.441.2c.465.107.822.787.822,1.621,0,.906-.429,1.645-.954,1.645a.61.61,0,0,1-.441-.2c-.465-.107-.822-.787-.822-1.621Zm1.907,8.141a.61.61,0,0,1-.441-.2c-.465-.107-.822-.787-.822-1.621,0-.906.429-1.645.954-1.645a.61.61,0,0,1,.441.2c.465.107.822.787.822,1.621C195.554,41.145,195.124,41.884,194.6,41.884Zm1.907,7.533a.61.61,0,0,1-.441-.2c-.465-.107-.822-.787-.822-1.621,0-.906.429-1.645.954-1.645a.61.61,0,0,1,.441.2c.465.107.822.787.822,1.621C197.461,48.678,197.032,49.417,196.507,49.417Zm21.014-21.169c0-.906.429-1.645.954-1.645a.61.61,0,0,1,.441.2c.465.107.822.787.822,1.621,0,.906-.429,1.645-.954,1.645a.61.61,0,0,1-.441-.2C217.878,29.762,217.521,29.082,217.521,28.248Zm-.644,13.54a.61.61,0,0,1-.441-.2c-.465-.107-.822-.787-.822-1.621,0-.906.429-1.645.954-1.645a.61.61,0,0,1,.441.2c.465.107.822.787.822,1.621C217.831,41.049,217.4,41.788,216.877,41.788Zm2.718-8.141a.61.61,0,0,1,.441.2c.465.107.822.787.822,1.621,0,.906-.429,1.645-.954,1.645a.61.61,0,0,1-.441-.2c-.465-.107-.822-.787-.822-1.621,0-.906.429-1.645.954-1.645Z" transform="translate(35.157 4.306)" fill="#f2688f"/>
    <path id="Path_295" data-name="Path 295" d="M210.189,26.517c.024-.131-.143-.274-.429-.417,0,.048.024.083.024.131.012.107.012.215.024.322.56.215.918.429.882.62a8.251,8.251,0,0,0-.477-4.255,6.1,6.1,0,0,0-.322-.62,1.576,1.576,0,0,0-.381-.417,7.984,7.984,0,0,1,.667,4.649Z" transform="translate(40.212 4.202)" fill="#32a000"/>
    <path id="Path_296" data-name="Path 296" d="M201.213,22.146c.06-.06.131-.107.191-.167a9.787,9.787,0,0,1,.083-4.839c-.226.012-.441.048-.656.06a8.318,8.318,0,0,0,.381,4.947Z" transform="translate(38.508 3.292)" fill="#32a000"/>
    <path id="Path_297" data-name="Path 297" d="M196.326,28.576a6.2,6.2,0,0,1,3.731-2.169,3.8,3.8,0,0,1,.048-.644s-1.836-.381-4.279,2.169c-1.824,1.9-5.876.524-7.831-.286a4.055,4.055,0,0,1-.584.155s6.472,3.325,8.916.787Z" transform="translate(35.97 4.943)" fill="#32a000"/>
    <path id="Path_298" data-name="Path 298" d="M209.236,23.01a12.341,12.341,0,0,1,.93,3.325c.286.143.453.286.429.417a8.123,8.123,0,0,0-.667-4.649c-.048-.072-.083-.155-.131-.226a3.544,3.544,0,0,0-2.336-1.228,6.6,6.6,0,0,1,1.788,2.36Z" transform="translate(39.818 3.966)" fill="#63c244"/>
    <path id="Path_299" data-name="Path 299" d="M199.1,23.962a8.332,8.332,0,0,0-1.359.1c-2.169.274-5.948,1.132-7.342,2.622a6.32,6.32,0,0,1-3.421,2.11s.417.215,1.085.5c1.955.822,6.007,2.181,7.831.286,2.443-2.539,4.279-2.169,4.279-2.169s-.036.262-.048.644c0,.191,0,.417.012.667a21.035,21.035,0,0,1,1.764-4.1,11.409,11.409,0,0,1,1.919-2.491,8.226,8.226,0,0,1-.381-4.947,45.612,45.612,0,0,0-4.672.632,26.76,26.76,0,0,0,.322,6.15Z" transform="translate(35.888 3.3)" fill="#63c244"/>
    <path id="Path_300" data-name="Path 300" d="M187.695,32.3c0,.906-.429,1.645-.954,1.645a.507.507,0,0,1-.131-.024.685.685,0,0,0,.441.2c.524,0,.954-.739.954-1.645,0-.822-.358-1.5-.822-1.621a2,2,0,0,1,.5,1.442Z" transform="translate(35.817 5.925)" fill="#bc557d"/>
    <path id="Path_301" data-name="Path 301" d="M186.882,33.98c.524,0,.954-.739.954-1.645a2,2,0,0,0-.5-1.442.685.685,0,0,0-.441-.2c-.524,0-.954.739-.954,1.645,0,.822.358,1.5.822,1.621.048,0,.083.024.131.024Z" transform="translate(35.688 5.893)" fill="#d85d86"/>
    <path id="Path_302" data-name="Path 302" d="M187.864,36.44a2,2,0,0,1,.5,1.442c0,.906-.429,1.645-.954,1.645a.507.507,0,0,1-.131-.024.685.685,0,0,0,.441.2c.524,0,.954-.739.954-1.645,0-.822-.358-1.5-.822-1.621Z" transform="translate(35.945 6.996)" fill="#bc557d"/>
    <path id="Path_303" data-name="Path 303" d="M188.5,37.915a2,2,0,0,0-.5-1.442.685.685,0,0,0-.441-.2c-.524,0-.954.739-.954,1.645,0,.822.358,1.5.822,1.621.048,0,.083.024.131.024.524,0,.954-.739.954-1.645Z" transform="translate(35.815 6.964)" fill="#d85d86"/>
    <path id="Path_304" data-name="Path 304" d="M193.786,37.631c0-.822-.358-1.5-.822-1.621a2,2,0,0,1,.5,1.442c0,.906-.429,1.645-.954,1.645a.507.507,0,0,1-.131-.024.685.685,0,0,0,.441.2c.524,0,.954-.739.954-1.645Z" transform="translate(36.924 6.914)" fill="#bc557d"/>
    <path id="Path_305" data-name="Path 305" d="M193.605,37.495a2,2,0,0,0-.5-1.442.685.685,0,0,0-.441-.2c-.524,0-.954.739-.954,1.645,0,.822.358,1.5.822,1.621.048,0,.083.024.131.024.524,0,.954-.739.954-1.645Z" transform="translate(36.796 6.883)" fill="#d85d86"/>
    <path id="Path_306" data-name="Path 306" d="M196.934,37.8a2,2,0,0,1,.5,1.442c0,.906-.429,1.645-.954,1.645a.507.507,0,0,1-.131-.024.685.685,0,0,0,.441.2.75.75,0,0,0,.572-.334,2.276,2.276,0,0,1,.3-.644,2.9,2.9,0,0,0,.083-.656c0-.822-.358-1.5-.822-1.621Z" transform="translate(37.686 7.257)" fill="#bc557d"/>
    <path id="Path_307" data-name="Path 307" d="M196.612,40.91c.524,0,.954-.739.954-1.645a2,2,0,0,0-.5-1.442.685.685,0,0,0-.441-.2c-.524,0-.954.739-.954,1.645,0,.822.358,1.5.822,1.621.048,0,.083.024.131.024Z" transform="translate(37.556 7.223)" fill="#d85d86"/>
    <path id="Path_308" data-name="Path 308" d="M194.574,42.34a2,2,0,0,1,.5,1.442c0,.906-.429,1.645-.954,1.645a.507.507,0,0,1-.131-.024.685.685,0,0,0,.441.2c.524,0,.954-.739.954-1.645,0-.822-.358-1.5-.822-1.621Z" transform="translate(37.233 8.129)" fill="#bc557d"/>
    <path id="Path_309" data-name="Path 309" d="M195.205,43.815a2,2,0,0,0-.5-1.442.685.685,0,0,0-.441-.2c-.524,0-.954.739-.954,1.645,0,.822.358,1.5.822,1.621.048,0,.083.024.131.024.524,0,.954-.739.954-1.645Z" transform="translate(37.103 8.096)" fill="#d85d86"/>
    <path id="Path_310" data-name="Path 310" d="M192.935,32.152c0,.906-.429,1.645-.954,1.645a.507.507,0,0,1-.131-.024.685.685,0,0,0,.441.2c.524,0,.954-.739.954-1.645,0-.822-.358-1.5-.822-1.621a2,2,0,0,1,.5,1.442Z" transform="translate(36.822 5.897)" fill="#bc557d"/>
    <path id="Path_311" data-name="Path 311" d="M192.122,33.83c.524,0,.954-.739.954-1.645a2,2,0,0,0-.5-1.442.685.685,0,0,0-.441-.2c-.524,0-.954.739-.954,1.645,0,.822.358,1.5.822,1.621.048,0,.083.024.131.024Z" transform="translate(36.694 5.864)" fill="#d85d86"/>
    <path id="Path_312" data-name="Path 312" d="M199.415,47.112c0,.906-.429,1.645-.954,1.645a.507.507,0,0,1-.131-.024.685.685,0,0,0,.441.2c.524,0,.954-.739.954-1.645,0-.822-.358-1.5-.822-1.621a2,2,0,0,1,.5,1.442Z" transform="translate(38.066 8.768)" fill="#bc557d"/>
    <path id="Path_313" data-name="Path 313" d="M198.461,48.756a.648.648,0,0,0,.131.024c.524,0,.954-.739.954-1.645a2,2,0,0,0-.5-1.442.685.685,0,0,0-.441-.2c-.524,0-.954.739-.954,1.645,0,.822.358,1.5.822,1.621Z" transform="translate(37.936 8.733)" fill="#d85d86"/>
    <path id="Path_314" data-name="Path 314" d="M211.664,35.94a2,2,0,0,1,.5,1.442c0,.906-.429,1.645-.954,1.645A.507.507,0,0,1,211.08,39a.685.685,0,0,0,.441.2c.524,0,.954-.739.954-1.645,0-.822-.358-1.5-.822-1.621Z" transform="translate(40.513 6.9)" fill="#bc557d"/>
    <path id="Path_315" data-name="Path 315" d="M212.3,37.415a2,2,0,0,0-.5-1.442.685.685,0,0,0-.441-.2c-.524,0-.954.739-.954,1.645,0,.822.358,1.5.822,1.621.048,0,.083.024.131.024.524,0,.954-.739.954-1.645Z" transform="translate(40.383 6.868)" fill="#d85d86"/>
    <path id="Path_316" data-name="Path 316" d="M205.511,37.577s-.083-.012-.131-.024a.685.685,0,0,0,.441.2c.429,0,.787-.489.906-1.156-.131.072-.274.131-.405.191-.167.477-.465.8-.811.8Z" transform="translate(39.419 7.027)" fill="#bc557d"/>
    <path id="Path_317" data-name="Path 317" d="M206.387,36.76a10.972,10.972,0,0,1-1.347.513.82.82,0,0,0,.393.262c.048,0,.083.024.131.024.346,0,.644-.322.811-.8Z" transform="translate(39.354 7.058)" fill="#d85d86"/>
    <path id="Path_318" data-name="Path 318" d="M203.441,48.5s-.083-.012-.131-.024a.685.685,0,0,0,.441.2c.524,0,.954-.739.954-1.645a2.4,2.4,0,0,0-.215-1.013c-.072.036-.143.072-.2.107a2.832,2.832,0,0,1,.107.739c0,.906-.429,1.645-.954,1.645Z" transform="translate(39.022 8.835)" fill="#bc557d"/>
    <path id="Path_319" data-name="Path 319" d="M203.442,48.46a.648.648,0,0,0,.131.024c.524,0,.954-.739.954-1.645a2.461,2.461,0,0,0-.107-.739,7.239,7.239,0,0,1-1.216.5,3.156,3.156,0,0,1-.584.107v.131C202.62,47.661,202.978,48.341,203.442,48.46Z" transform="translate(38.889 8.85)" fill="#d85d86"/>
    <path id="Path_320" data-name="Path 320" d="M214.715,33.452c0,.906-.429,1.645-.954,1.645a.507.507,0,0,1-.131-.024.685.685,0,0,0,.441.2c.524,0,.954-.739.954-1.645,0-.822-.358-1.5-.822-1.621a2,2,0,0,1,.5,1.442Z" transform="translate(41.003 6.146)" fill="#bc557d"/>
    <path id="Path_321" data-name="Path 321" d="M213.761,35.106a.648.648,0,0,0,.131.024c.524,0,.954-.739.954-1.645a2,2,0,0,0-.5-1.442.685.685,0,0,0-.441-.2c-.524,0-.954.739-.954,1.645,0,.822.358,1.5.822,1.621Z" transform="translate(40.872 6.113)" fill="#d85d86"/>
    <path id="Path_322" data-name="Path 322" d="M213.765,27.552c0,.906-.429,1.645-.954,1.645a.507.507,0,0,1-.131-.024.685.685,0,0,0,.441.2c.524,0,.954-.739.954-1.645,0-.822-.358-1.5-.822-1.621a2,2,0,0,1,.5,1.442Z" transform="translate(40.82 5.014)" fill="#bc557d"/>
    <path id="Path_323" data-name="Path 323" d="M212.942,29.22c.524,0,.954-.739.954-1.645a2,2,0,0,0-.5-1.442.685.685,0,0,0-.441-.2c-.524,0-.954.739-.954,1.645,0,.822.358,1.5.822,1.621.048,0,.083.024.131.024Z" transform="translate(40.69 4.979)" fill="#d85d86"/>
  </g>
</svg>
