<svg xmlns="http://www.w3.org/2000/svg" width="263.95" height="171.634" viewBox="0 0 263.95 171.634">
  <g id="orange.svg" transform="translate(10.756 0.003) rotate(4)">
    <path id="Path_362" data-name="Path 362" d="M234.208,147.113c-23.033,11.692-50.267-13.3-71.83-29.614-5.951-4.481-11.692-9.661-18.413-12.252-13.442-5.321-28.424.35-40.956,8.961s-23.733,20.023-36.615,27.584c-17.363,10.221-40.606,18.623-56.008,6.581-22.893-17.853-2.87-87.3,11.832-104.525C61.913-2.849,100.489-1.169,143.195.721,183.311,2.471,299.738,113.788,234.208,147.113Z" transform="translate(0 0)" fill="#fc932b"/>
    <path id="Path_363" data-name="Path 363" d="M187.389,116.591c-18.063,9.171-39.276-10.432-56.218-23.173-4.691-3.5-9.171-7.561-14.422-9.591-10.572-4.131-22.263.28-32.065,7s-18.553,15.682-28.7,21.563C42.4,120.371,24.2,126.952,12.154,117.5c-17.923-14-2.24-68.33,9.241-81.772C52.619-.746,82.794.584,116.119,2.054c31.365,1.4,122.518,88.493,71.2,114.537Z" transform="translate(24.136 8.959)" fill="#fdb556"/>
    <path id="Path_364" data-name="Path 364" d="M113.924,65.2C103.773,69.749,91.8,59.877,82.21,53.436c-2.66-1.75-5.181-3.781-8.121-4.831-5.951-2.1-12.532.07-17.993,3.431s-10.432,7.771-16.1,10.712c-7.631,3.991-17.853,7.211-24.644,2.45C5.2,58.127,13.88,31.033,20.321,24.312,37.753,6.179,54.7,6.88,73.528,7.72,91.171,8.49,142.7,52.316,113.924,65.2Z" transform="translate(64.136 44.319)" fill="#ffc988"/>
  </g>
</svg>
