<svg xmlns="http://www.w3.org/2000/svg" width="98.275" height="104.333" viewBox="0 0 98.275 104.333">
  <g id="strawberry.svg" transform="translate(0.004 -0.009)">
    <path id="Path_398" data-name="Path 398" d="M86.8,56.881,64.424,79.256a23.836,23.836,0,0,1-33.713-.3L9.092,57.335a24.148,24.148,0,0,1-4.838-6.864C-4.454,31.392,2.864,8.413,27.778,9.683A50.511,50.511,0,0,1,39.54,11.8a24.107,24.107,0,0,0,14.03,0C82.385,2.517,110.5,23.168,89.43,53.767a22.1,22.1,0,0,1-2.661,3.175Z" transform="translate(1.497 18.251)" fill="#d85d86"/>
    <path id="Path_399" data-name="Path 399" d="M86.059,56.041,63.684,78.416a23.836,23.836,0,0,1-33.713-.3L8.352,56.495a24.147,24.147,0,0,1-4.838-6.864C-5.194,30.552,2.124,7.573,27.038,8.843A50.511,50.511,0,0,1,38.8,10.959a24.107,24.107,0,0,0,14.03,0c28.815-9.282,56.935,11.369,35.86,41.968A22.1,22.1,0,0,1,86.029,56.1Z" transform="translate(0 16.552)" fill="#f2688f"/>
    <path id="Path_400" data-name="Path 400" d="M66.478,23.687c-3.447-5.473-23.735-3.689-21.891.726a1.274,1.274,0,0,1,.121.544c-5.261-6.712-1.633-17.628.484-22.647-3.356-.393-6.712-.877-10.069-1.27-5.14,7.226-3.749,20.258-2.812,25.973-2.963-.181-16.176,1.9-20.349,6.35S3.95,38.291,3.95,38.291,19.1,46.062,24.813,40.135c5.715-5.957,10.008-5.08,10.008-5.08s-1.24,8.345,4.445,10.734c5.684,2.358,6.8,6.108,6.8,6.108s7.831-10.311,4.112-16.69c-3.749-6.38,18.625-2.328,18.172-.121-.423,2.207,1.663-5.775-1.875-11.4Z" transform="translate(8 1.012)" fill="#32a000"/>
    <path id="Path_401" data-name="Path 401" d="M66.078,23.187c-3.447-5.473-23.735-3.689-21.891.726a1.274,1.274,0,0,1,.121.544c-5.261-6.712-1.633-17.628.484-22.647C41.436,1.417,38.08.933,34.723.54c-5.14,7.226-3.749,20.258-2.812,25.973-2.963-.181-16.176,1.9-20.349,6.35S3.55,37.791,3.55,37.791,18.7,45.562,24.413,39.635c5.715-5.957,10.008-5.08,10.008-5.08s-1.24,8.345,4.445,10.734c5.684,2.358,6.8,6.108,6.8,6.108s7.831-10.311,4.112-16.69c-3.749-6.38,18.625-2.328,18.172-.121-.423,2.207,1.663-5.775-1.875-11.4Z" transform="translate(7.191 0)" fill="#63c244"/>
    <path id="Path_401_-_Outline" data-name="Path 401 - Outline" d="M34.488.009l.294.034c1.681.2,3.389.42,5.041.636s3.353.438,5.028.634l.661.077L45.253,2A41.147,41.147,0,0,0,42.28,12.559c-.5,4.063-.016,7.447,1.434,10.09a2.142,2.142,0,0,1,.194-.358c1.376-2.066,6.777-3.007,11.213-3.007h0a25.8,25.8,0,0,1,6.81.821c2.255.633,3.793,1.58,4.571,2.816a16.17,16.17,0,0,1,2.172,7.938,22.228,22.228,0,0,1-.1,2.955,6.838,6.838,0,0,1-.239,1.388l-.143.258-.532,0-.15-.182c-.155-.188-.132-.345-.055-.744-.147-.228-1.2-.948-4.489-1.724a38.444,38.444,0,0,0-8.279-1.04c-2.562,0-4.28.436-4.715,1.2-.206.361-.125.86.242,1.485a8.925,8.925,0,0,1,.992,5.609,19.435,19.435,0,0,1-1.627,5.584,33.336,33.336,0,0,1-3.51,6.053l-.6.784-.282-.944a6.909,6.909,0,0,0-1.218-2.046,13.225,13.225,0,0,0-5.3-3.743c-2.492-1.047-4.1-3.344-4.655-6.642a16.7,16.7,0,0,1-.151-4.1c-1.21-.02-4.7.388-9.094,4.971-1.524,1.581-3.789,2.382-6.733,2.382A29.78,29.78,0,0,1,8.168,40.3a46.057,46.057,0,0,1-4.846-2.061L1.882,37.5l1.606-.2a9.181,9.181,0,0,0,2.343-.778,17.567,17.567,0,0,0,5.367-4c2.272-2.42,6.889-4.012,10.363-4.922A48.118,48.118,0,0,1,31.324,26a64.489,64.489,0,0,1-.785-11.928C30.756,8.12,32.027,3.469,34.316.25Zm9.59,2.22c-1.468-.177-2.948-.37-4.385-.558-1.551-.2-3.151-.412-4.73-.6-4.878,7.192-3.421,20.1-2.558,25.36l.1.618-.625-.038c-.108-.007-.233-.01-.373-.01a46.574,46.574,0,0,0-9.694,1.564c-3.346.876-7.778,2.392-9.887,4.639a17.356,17.356,0,0,1-6.919,4.724c2.463,1.114,8.18,3.435,13.033,3.435,2.662,0,4.685-.7,6.012-2.075a19.078,19.078,0,0,1,5.98-4.4,9.465,9.465,0,0,1,3.755-.879,3.942,3.942,0,0,1,.733.055l.464.095-.07.469a15.618,15.618,0,0,0,.093,4.339c.5,2.971,1.868,4.943,4.051,5.86,4.228,1.754,6.025,4.254,6.713,5.56a33.365,33.365,0,0,0,2.9-5.164c1.31-2.968,2.492-7.158.679-10.267a2.4,2.4,0,0,1-.247-2.486c.645-1.128,2.524-1.7,5.583-1.7h0a39.548,39.548,0,0,1,8.186.992,18.11,18.11,0,0,1,4.736,1.623,21.347,21.347,0,0,0,.058-2.673,15.076,15.076,0,0,0-2.012-7.261c-1.231-1.955-5.268-3.171-10.535-3.17a28.787,28.787,0,0,0-6.67.735c-1.9.469-3.25,1.135-3.71,1.826a.863.863,0,0,0-.091.875,1.752,1.752,0,0,1,.16.737v1.448l-.894-1.14c-2.375-3.03-3.259-7.177-2.627-12.328A41.45,41.45,0,0,1,44.078,2.229Z" transform="translate(7.191 0)" fill="#63c244"/>
    <g id="Group_47" data-name="Group 47" transform="translate(7.748 48.313)">
      <ellipse id="Ellipse_81" data-name="Ellipse 81" cx="2.237" cy="3.84" rx="2.237" ry="3.84" transform="translate(0.726 0.423)" fill="#bc557d"/>
      <ellipse id="Ellipse_82" data-name="Ellipse 82" cx="2.237" cy="3.84" rx="2.237" ry="3.84" fill="#d85d86"/>
    </g>
    <g id="Group_48" data-name="Group 48" transform="translate(9.592 63.885)">
      <ellipse id="Ellipse_83" data-name="Ellipse 83" cx="2.237" cy="3.84" rx="2.237" ry="3.84" transform="translate(0.756 0.393)" fill="#bc557d"/>
      <ellipse id="Ellipse_84" data-name="Ellipse 84" cx="2.237" cy="3.84" rx="2.237" ry="3.84" fill="#d85d86"/>
    </g>
    <g id="Group_49" data-name="Group 49" transform="translate(23.863 62.705)">
      <ellipse id="Ellipse_85" data-name="Ellipse 85" cx="2.237" cy="3.84" rx="2.237" ry="3.84" transform="translate(0.726 0.423)" fill="#bc557d"/>
      <ellipse id="Ellipse_86" data-name="Ellipse 86" cx="2.237" cy="3.84" rx="2.237" ry="3.84" fill="#d85d86"/>
    </g>
    <g id="Group_50" data-name="Group 50" transform="translate(34.9 67.694)">
      <ellipse id="Ellipse_87" data-name="Ellipse 87" cx="2.237" cy="3.84" rx="2.237" ry="3.84" transform="translate(0.756 0.393)" fill="#bc557d"/>
      <ellipse id="Ellipse_88" data-name="Ellipse 88" cx="2.237" cy="3.84" rx="2.237" ry="3.84" fill="#d85d86"/>
    </g>
    <g id="Group_51" data-name="Group 51" transform="translate(28.338 80.363)">
      <ellipse id="Ellipse_89" data-name="Ellipse 89" cx="2.237" cy="3.84" rx="2.237" ry="3.84" transform="translate(0.726 0.393)" fill="#bc557d"/>
      <ellipse id="Ellipse_90" data-name="Ellipse 90" cx="2.237" cy="3.84" rx="2.237" ry="3.84" fill="#d85d86"/>
    </g>
    <g id="Group_52" data-name="Group 52" transform="translate(22.352 47.92)">
      <ellipse id="Ellipse_91" data-name="Ellipse 91" cx="2.237" cy="3.84" rx="2.237" ry="3.84" transform="translate(0.726 0.393)" fill="#bc557d"/>
      <ellipse id="Ellipse_92" data-name="Ellipse 92" cx="2.237" cy="3.84" rx="2.237" ry="3.84" fill="#d85d86"/>
    </g>
    <g id="Group_53" data-name="Group 53" transform="translate(38.467 48.101)">
      <ellipse id="Ellipse_93" data-name="Ellipse 93" cx="2.237" cy="3.84" rx="2.237" ry="3.84" transform="translate(0.756 0.423)" fill="#bc557d"/>
      <ellipse id="Ellipse_94" data-name="Ellipse 94" cx="2.237" cy="3.84" rx="2.237" ry="3.84" fill="#d85d86"/>
    </g>
    <g id="Group_54" data-name="Group 54" transform="translate(40.433 89.646)">
      <ellipse id="Ellipse_95" data-name="Ellipse 95" cx="2.237" cy="3.84" rx="2.237" ry="3.84" transform="translate(0.726 0.393)" fill="#bc557d"/>
      <ellipse id="Ellipse_96" data-name="Ellipse 96" cx="2.237" cy="3.84" rx="2.237" ry="3.84" fill="#d85d86"/>
    </g>
    <g id="Group_55" data-name="Group 55" transform="translate(76.021 62.494)">
      <ellipse id="Ellipse_97" data-name="Ellipse 97" cx="2.237" cy="3.84" rx="2.237" ry="3.84" transform="translate(0.726 0.423)" fill="#bc557d"/>
      <ellipse id="Ellipse_98" data-name="Ellipse 98" cx="2.237" cy="3.84" rx="2.237" ry="3.84" fill="#d85d86"/>
    </g>
    <g id="Group_56" data-name="Group 56" transform="translate(60.086 59.41)">
      <ellipse id="Ellipse_99" data-name="Ellipse 99" cx="2.237" cy="3.84" rx="2.237" ry="3.84" transform="translate(0.726 0.423)" fill="#bc557d"/>
      <ellipse id="Ellipse_100" data-name="Ellipse 100" cx="2.237" cy="3.84" rx="2.237" ry="3.84" fill="#d85d86"/>
    </g>
    <g id="Group_57" data-name="Group 57" transform="translate(54.311 89.223)">
      <ellipse id="Ellipse_101" data-name="Ellipse 101" cx="2.237" cy="3.84" rx="2.237" ry="3.84" transform="translate(0.726 0.423)" fill="#bc557d"/>
      <ellipse id="Ellipse_102" data-name="Ellipse 102" cx="2.237" cy="3.84" rx="2.237" ry="3.84" fill="#d85d86"/>
    </g>
    <g id="Group_58" data-name="Group 58" transform="translate(47.841 60.256)">
      <ellipse id="Ellipse_103" data-name="Ellipse 103" cx="2.237" cy="3.84" rx="2.237" ry="3.84" transform="translate(0.726 0.393)" fill="#bc557d"/>
      <ellipse id="Ellipse_104" data-name="Ellipse 104" cx="2.237" cy="3.84" rx="2.237" ry="3.84" fill="#d85d86"/>
    </g>
    <g id="Group_59" data-name="Group 59" transform="translate(47.659 76.735)">
      <ellipse id="Ellipse_105" data-name="Ellipse 105" cx="2.237" cy="3.84" rx="2.237" ry="3.84" transform="translate(0.726 0.393)" fill="#bc557d"/>
      <ellipse id="Ellipse_106" data-name="Ellipse 106" cx="2.237" cy="3.84" rx="2.237" ry="3.84" fill="#d85d86"/>
    </g>
    <ellipse id="Ellipse_107" data-name="Ellipse 107" cx="2.237" cy="3.84" rx="2.237" ry="3.84" transform="translate(66.829 74.044)" fill="#bc557d"/>
    <g id="Group_60" data-name="Group 60" transform="translate(83.126 51.548)">
      <ellipse id="Ellipse_108" data-name="Ellipse 108" cx="2.237" cy="3.84" rx="2.237" ry="3.84" transform="translate(0.726 0.393)" fill="#bc557d"/>
      <ellipse id="Ellipse_109" data-name="Ellipse 109" cx="2.237" cy="3.84" rx="2.237" ry="3.84" fill="#d85d86"/>
    </g>
    <g id="Group_61" data-name="Group 61" transform="translate(80.465 35.039)">
      <ellipse id="Ellipse_110" data-name="Ellipse 110" cx="2.237" cy="3.84" rx="2.237" ry="3.84" transform="translate(0.726 0.423)" fill="#bc557d"/>
      <ellipse id="Ellipse_111" data-name="Ellipse 111" cx="2.237" cy="3.84" rx="2.237" ry="3.84" fill="#d85d86"/>
    </g>
    <g id="Group_62" data-name="Group 62" transform="translate(67.434 45.41)">
      <ellipse id="Ellipse_112" data-name="Ellipse 112" cx="2.237" cy="3.84" rx="2.237" ry="3.84" transform="translate(0.756 0.423)" fill="#bc557d"/>
      <ellipse id="Ellipse_113" data-name="Ellipse 113" cx="2.237" cy="3.84" rx="2.237" ry="3.84" fill="#d85d86"/>
    </g>
  </g>
</svg>
