<?xml version="1.0" encoding="UTF-8"?>
<svg id="logo" xmlns="http://www.w3.org/2000/svg" viewBox="0 0 1234.63 1113.98">
  <defs>
    <style>
      .cls-1, .cls-2, .cls-3, .cls-4 {
        fill: #fff;
      }

      .cls-2 {
        opacity: .26;
      }

      .cls-5 {
        fill: #3faf3f;
      }

      .cls-6 {
        fill: #ed2e72;
      }

      .cls-7 {
        fill: #ed8cb3;
        opacity: .25;
      }

      .cls-8, .cls-9 {
        fill: #f9d2e4;
      }

      .cls-8, .cls-3 {
        opacity: .13;
      }

      .cls-10 {
        fill: #b52025;
      }

      .cls-11 {
        fill: #f4607c;
      }

      .cls-9 {
        opacity: .41;
      }

      .cls-4 {
        opacity: .28;
      }

      .cls-12 {
        fill: #f772b2;
      }

      .cls-13 {
        fill: #e82147;
      }
    </style>
  </defs>
  <g id="chucklin_cherry.svg">
    <g>
      <path class="cls-13" d="m557.12,223.63S-96.52,119.54,16.03,695.97c0,0,100.19,292.77,472.34,398.82,372.14,106.05,618.72-343.52,618.72-343.52,0,0,269.35-476.24-228.36-583.59,0,0-191.71-35.78-321.61,55.95Z"/>
      <path class="cls-10" d="m601.77,1113.94c-38.03,0-76.17-5.42-114.22-16.26-85.2-24.28-163.14-60.44-231.68-107.47-54.84-37.64-103.81-82.28-145.54-132.68-71.09-85.88-96.89-159.85-97.14-160.58l-.11-.4c-31.1-159.28-6.57-281.77,72.9-364.07,35.76-37.04,82.86-65.95,139.99-85.95,45.59-15.96,97.63-26.3,154.68-30.75,90.5-7.05,165.38,3.19,175.72,4.71,29.72-20.79,65.05-36.67,105.03-47.2,32.27-8.5,67.64-13.56,105.11-15.03,63.77-2.51,112.28,6.38,112.76,6.47,141.72,30.57,235.05,93.99,277.47,188.52,18.09,40.32,26.86,86.44,26.06,137.1-.64,40.42-7.34,83.81-19.92,128.95-21.4,76.79-52.87,132.89-53.19,133.45-.6,1.09-63.1,113.93-170.39,212.26-63.09,57.83-129.12,99.44-196.25,123.67-46.64,16.83-93.88,25.26-141.29,25.26ZM18.93,695.18c1.47,4.16,27.46,75.76,96.2,158.73,65.02,78.47,182.69,183.46,374.06,237.99,190.85,54.39,347.85-41.33,445.95-131.21,106.6-97.66,168.71-209.74,169.32-210.86.33-.59,31.5-56.16,52.69-132.29,19.5-70.04,34.3-172.33-5.89-261.86-41.6-92.68-133.51-154.94-273.17-185.07-.4-.07-48.36-8.85-111.49-6.35-58.1,2.3-141.3,14.89-207.76,61.82l-1,.7-1.21-.19c-.78-.12-79.29-12.35-175.66-4.82-88.69,6.93-211.12,32.48-290.69,114.89C12.3,417.43-11.71,538.05,18.93,695.18Z"/>
    </g>
    <path class="cls-7" d="m1082.79,357.8l-263.01-141.59c-18.4-9.9-7.71-37.97,12.6-33.08,85,20.49,200.64,62.65,272.54,147.48,12.72,15.01-4.82,36.52-22.14,27.19Z"/>
    <path class="cls-7" d="m972.04,856.29c-52.63,69.82-137.33,159.13-243.77,191.32"/>
    <g>
      <line class="cls-6" x1="576.82" y1="239.85" x2="596.8" y2="274.68"/>
      <rect x="584.81" y="237.18" width="4" height="40.16" transform="translate(-50.2 326.16) rotate(-29.85)"/>
    </g>
    <g>
      <line class="cls-6" x1="225.34" y1="301.87" x2="205.04" y2="337.43"/>
      <rect x="194.72" y="317.65" width="40.94" height="4" transform="translate(-169.1 348.04) rotate(-60.28)"/>
    </g>
    <path class="cls-8" d="m557.12,223.63c-41.58,136.55-83.49,273.83-100.05,415.91-13.63,121.65-5.76,247.35,62.96,352.39,1.89,2.78,4.41,6.48,6.17,9.09,0,0,2.05,3.06,2.05,3.06,0,0,1.03,1.53,1.03,1.53l1.1,1.47c4.27,5.55,8.91,12.31,13.46,17.67,0,0,9.46,11.58,9.46,11.58,5.05,5.49,9.93,11.4,15.15,16.79,5.06,5.06,10.76,11.43,16.07,16.29,3.7,3.53,7.43,7.06,11.13,10.68,5.66,5.17,11.78,10.37,17.42,15.58,4.31,3.58,7.98,6.6,12.07,10.09,2,1.74,4.03,3.44,6.03,5.22-40.72-11.69-79.9-31.16-114.74-58.01-6.41-4.57-13-10.74-19.13-15.8-1.71-1.38-4.43-4.11-6.08-5.65-2.94-2.89-7.68-7.32-10.5-10.13-4.28-4.58-8.53-9.17-12.76-13.83-3.1-3.39-7.71-9.3-10.72-12.91-5.2-6.15-10.26-13.75-15.06-20.29-2.62-3.96-6.54-10.08-9.16-14.18-1.18-1.78-3.32-5.38-4.34-7.25-2.52-4.45-5.93-10.33-8.26-14.77-1.46-3.09-8.18-16.18-9.3-19-31.84-69.93-42.34-148.31-38.64-224.58,7.68-161.98,81.32-346.38,184.63-470.97h0Z"/>
    <g>
      <path class="cls-1" d="m275.39,737.87c87.11,24.36,183.46,54.75,325.06-52.3,0,0,99.16-52.25,89.43,47.05-13.25,135.15-352.61,191.26-448.06,88.29-1.04-1.12-2.53-1.68-3.76-2.51-42.22-28.43-11.69-94.23,37.32-80.52Z"/>
      <g>
        <line class="cls-13" x1="261.04" y1="728.07" x2="224.79" y2="817.76"/>
        <rect class="cls-10" x="194.55" y="769.92" width="96.74" height="6" transform="translate(-564.71 708.49) rotate(-67.99)"/>
      </g>
      <g>
        <line class="cls-13" x1="357.33" y1="750.47" x2="317.22" y2="865.5"/>
        <rect class="cls-10" x="276.36" y="804.99" width="121.83" height="6" transform="translate(-536.71 860.39) rotate(-70.77)"/>
      </g>
      <g>
        <line class="cls-13" x1="558.54" y1="709.29" x2="602.74" y2="836.54"/>
        <rect class="cls-10" x="577.64" y="705.56" width="6" height="134.71" transform="translate(-221.48 233.34) rotate(-19.16)"/>
      </g>
      <g>
        <line class="cls-13" x1="612.17" y1="671.58" x2="693.01" y2="765.93"/>
        <rect class="cls-10" x="649.59" y="656.63" width="6" height="124.25" transform="translate(-310.63 597.53) rotate(-40.59)"/>
      </g>
      <g>
        <line class="cls-13" x1="413.82" y1="753.08" x2="404.78" y2="875.12"/>
        <rect class="cls-10" x="348.12" y="811.1" width="122.37" height="6" transform="translate(-432.82 1162.13) rotate(-85.76)"/>
      </g>
      <g>
        <line class="cls-13" x1="469.07" y1="744.77" x2="511.29" y2="864.35"/>
        <rect class="cls-10" x="487.18" y="741.15" width="6" height="126.81" transform="translate(-239.87 209.07) rotate(-19.44)"/>
      </g>
      <path class="cls-13" d="m406.78,881.62c-10.98,0-21.83-.37-32.47-1.13-69.19-4.91-123.98-25.62-154.29-58.31-.1-.08-.65-.39-1.05-.61-.56-.32-1.21-.67-1.88-1.13-26.76-18.02-28.87-47.44-19.1-68.61,9.8-21.22,33.64-38.74,64.8-30.03l6.32,1.77c90.08,25.27,192.17,53.91,339.13-57.19l.42-.32.47-.25c2.23-1.18,55.09-28.6,86.06-7.78,16.44,11.05,23.18,32.91,20.04,64.98-2.84,28.98-18.49,55.75-46.51,79.56-24.74,21.02-59.19,39.33-99.63,52.95-50.28,16.94-107.89,26.08-162.33,26.08Zm-159.75-149.03c-17.73,0-31.08,11.4-37.23,24.7-7.46,16.16-5.86,38.62,14.56,52.37.23.15.58.35.96.56,1.18.66,2.8,1.57,4.24,3.12,62.32,67.24,222.62,67.86,335.4,29.88,82.44-27.77,132.5-72.04,137.35-121.46,2.64-26.93-2.18-44.73-14.34-52.91-23.28-15.67-67.44,5.79-72.33,8.26-151.87,114.6-257.14,85.06-350.03,59l-6.31-1.77c-4.28-1.2-8.38-1.75-12.27-1.75Z"/>
    </g>
    <g>
      <path class="cls-1" d="m704.44,408.13c0,29.6-5.8,57.01-15.68,79.48,0,0-13.76-8.55-38.93-6.58,4.16-45.24-31.27-72.9-31.27-72.9,53.78-48.58,0-137.92,0-137.92,47.43,0,85.88,61.75,85.88,137.92Z"/>
      <path d="m689.44,489.8l-1.47-.91c-.13-.08-13.71-8.26-38.02-6.36l-1.77.14.16-1.77c4.04-43.92-30.35-71.31-30.7-71.58l-1.41-1.1,1.33-1.2c21.85-19.74,28.49-48.56,19.73-85.65-6.58-27.87-19.88-50.16-20.01-50.38l-1.37-2.27h2.65c48.18,0,87.38,62.54,87.38,139.42,0,28.87-5.47,56.57-15.81,80.08l-.7,1.58Zm-32.1-10.56c16.51,0,26.98,4.39,30.7,6.27,9.75-22.81,14.9-49.53,14.9-77.38,0-73.81-36.44-134.11-81.76-136.36,3.59,6.49,13.56,25.78,19.01,48.83,8.76,37.02,2.06,67.22-19.36,87.47,6.4,5.63,33.42,31.87,30.64,71.33,2.03-.12,3.99-.18,5.87-.18Z"/>
    </g>
    <g>
      <path d="m649.83,481.03c-35.08-.67-65.32,13-88.85,29.44-17.38-25.24-28.3-61.74-28.3-102.34,0-76.17,38.45-137.92,85.88-137.92,0,0,53.78,89.34,0,137.92,0,0,35.43,27.66,31.27,72.9Z"/>
      <path d="m560.86,511.17l-.29-.41c-18.04-26.2-28.39-63.6-28.39-102.62,0-76.33,38.75-138.42,86.38-138.42h.28l.15.24c.13.22,13.56,22.73,20.23,50.89,6.13,25.92,7.63,62.03-19.89,87.27,4.15,3.48,34.88,30.78,31,72.97l-.04.46h-.47c-30.06-.58-59.86,9.29-88.55,29.34l-.41.29Zm57.42-240.46c-46.95.25-85.09,61.8-85.09,137.42,0,38.61,10.17,75.62,27.93,101.64,28.6-19.88,58.31-29.72,88.27-29.25,3.8-44.18-30.77-71.72-31.12-72l-.47-.37.44-.4c27.59-24.93,26.12-60.89,20.02-86.67-6.25-26.44-18.51-47.88-19.97-50.38Z"/>
    </g>
    <g>
      <path class="cls-1" d="m268.28,470.49c0,29.6-5.8,57.01-15.68,79.48,0,0-13.76-8.55-38.93-6.58,4.16-45.24-31.27-72.9-31.27-72.9,53.78-48.58,0-137.92,0-137.92,47.43,0,85.88,61.75,85.88,137.92Z"/>
      <path d="m253.27,552.16l-1.47-.91c-.13-.08-13.72-8.26-38.02-6.36l-1.77.14.16-1.77c4.03-43.86-30.35-71.31-30.7-71.58l-1.4-1.1,1.32-1.2c21.87-19.75,28.5-48.59,19.71-85.72-6.59-27.86-19.86-50.09-19.99-50.31l-1.37-2.27h2.65c48.18,0,87.38,62.54,87.38,139.42,0,28.87-5.47,56.56-15.81,80.08l-.7,1.58Zm-32.1-10.56c16.51,0,26.98,4.39,30.7,6.27,9.75-22.82,14.9-49.53,14.9-77.38,0-73.81-36.44-134.11-81.76-136.36,3.59,6.49,13.56,25.78,19.01,48.83,8.76,37.02,2.06,67.22-19.36,87.47,6.4,5.63,33.42,31.87,30.64,71.33,2.03-.12,3.99-.18,5.87-.18Z"/>
    </g>
    <g>
      <path d="m213.67,543.39c-35.08-.67-65.32,13-88.85,29.44-17.38-25.24-28.3-61.74-28.3-102.34,0-76.17,38.45-137.92,85.88-137.92,0,0,53.78,89.34,0,137.92,0,0,35.43,27.66,31.27,72.9Z"/>
      <path d="m124.69,573.53l-.29-.41c-18.04-26.2-28.39-63.61-28.39-102.62,0-76.33,38.75-138.42,86.38-138.42h.28l.15.24c.14.22,13.56,22.73,20.23,50.89,6.13,25.92,7.63,62.03-19.89,87.27,4.15,3.48,34.88,30.78,31,72.97l-.04.46h-.46c-30.06-.58-59.86,9.29-88.55,29.34l-.41.29Zm57.42-240.46c-46.95.25-85.1,61.8-85.1,137.42,0,38.61,10.17,75.62,27.93,101.64,28.6-19.88,58.27-29.72,88.27-29.25,3.8-44.17-30.77-71.72-31.12-72l-.47-.37.44-.4c27.6-24.93,26.12-60.9,20.02-86.69-6.26-26.44-18.5-47.85-19.97-50.36Z"/>
    </g>
    <g>
      <circle class="cls-12" cx="119.46" cy="660.68" r="41.21"/>
      <path class="cls-11" d="m119.46,703.39c-11.41,0-22.13-4.44-30.2-12.51-16.65-16.65-16.65-43.74,0-60.4,8.07-8.07,18.79-12.51,30.2-12.51s22.13,4.44,30.2,12.51c8.07,8.07,12.51,18.79,12.51,30.2s-4.44,22.13-12.51,30.2h0s0,0,0,0c-8.07,8.07-18.79,12.51-30.2,12.51Zm0-82.41c-10.61,0-20.58,4.13-28.08,11.63-15.48,15.48-15.48,40.67,0,56.15,7.5,7.5,17.47,11.63,28.08,11.63s20.58-4.13,28.08-11.63h0c7.5-7.5,11.63-17.47,11.63-28.08s-4.13-20.58-11.63-28.08-17.47-11.63-28.08-11.63Z"/>
    </g>
    <g>
      <circle class="cls-12" cx="749.58" cy="622.88" r="41.21"/>
      <path class="cls-11" d="m749.6,665.61c-5.07,0-10.14-.91-15.03-2.75-10.68-4.01-19.16-11.94-23.88-22.32-4.72-10.39-5.11-21.99-1.1-32.67,4.01-10.68,11.94-19.16,22.32-23.88,21.44-9.74,46.8-.22,56.54,21.22,9.74,21.44.21,46.81-21.23,56.54-5.64,2.56-11.63,3.84-17.64,3.84Zm-.08-82.43c-5.48,0-11.05,1.14-16.36,3.55-9.66,4.39-17.03,12.27-20.75,22.2-3.73,9.93-3.36,20.72,1.02,30.37,4.39,9.66,12.27,17.03,22.2,20.75s20.72,3.36,30.37-1.02l.62,1.37-.62-1.37c19.93-9.05,28.79-32.64,19.73-52.57-6.64-14.62-21.11-23.29-36.21-23.29Z"/>
    </g>
    <rect x="646.61" y="262.26" width="54.9" height="4" transform="translate(130.8 742.86) rotate(-62.79)"/>
    <rect x="629.17" y="230.98" width="4" height="40.23"/>
    <path class="cls-3" d="m107.65,619.88c-10.3,14.91-19.91,31.07-18.55,49.63.36,5.91,1.88,11.85,3.75,18.14-2.35-2.27-4.45-4.86-6.09-7.76-12.69-21.24-.02-49.54,20.89-60.01h0Z"/>
    <path class="cls-3" d="m736.06,586c-10.3,14.91-19.91,31.07-18.55,49.63.36,5.91,1.88,11.85,3.75,18.14-2.35-2.27-4.45-4.86-6.09-7.76-12.69-21.24-.02-49.54,20.89-60.01h0Z"/>
    <path class="cls-9" d="m749.58,197.56c84.8-7.88,181.83,14.07,251.63,63.83,46.07,32.67,81.12,79.27,97.24,133.6,6.44,21.04,10.06,43.12,11.12,65.06.64,10.9.35,21.81-.29,32.7-2.23-13.23-4.73-26.65-7.83-39.7-4.45-17.88-10-36-17.23-52.95-19.88-48.18-53.78-90.01-96.39-120-68.81-48.79-155.34-71.76-238.25-82.53h0Z"/>
    <g>
      <path class="cls-5" d="m1214.22,94.63c-29.2-48.93-132.05,0-132.05,0-47.13-46.29-163.77-110.35-264.09-87.27-116.26,26.74-202.1-7.07-279.12,190.92-2.79,7.17,3.54,14.57,11.06,12.93,2.52-.55,4.72-2.08,6.1-4.26,13.38-21.07,85.95-133.12,117.93-136.26,35.3-3.47,135.04-69.12,318.68,12.14,0,0,35.4,14.16,51.41,27.54,4.66,3.9,4.62,11.08-.09,14.91l-13.48,10.98c-1.7,1.39-14.2,6.44-15.86,7.87-19.37,16.67-13.74,63.54,42.13,81.53,4.6,1.48,9.55-1.43,11.23-5.96,3.57-9.67,6.33-28.67-10.62-54.06-2.07-3.1-2.2-7.12-.29-10.33,2.79-4.68,7.33-11.84,13.22-19.48,117.56,128.78,157.73,35.76,157.73,35.76,0,0,15.33-28.05-13.88-76.97Zm-49.16,76.68c-15.32-4.62-43.23-10.41-64.12-52.91-1.24-2.53-2.92-5.26-5-8.13,14.38-10.16,31.18-14.83,48.31-4.02,46.26,29.21,36.14,69.69,20.81,65.06Z"/>
      <path class="cls-5" d="m1059.29,228.54c-1.08,0-2.16-.16-3.22-.5-41.37-13.32-50.88-39.67-53.04-50.38-2.85-14.07,1-27.64,10.04-35.42,1.02-.88,3.45-2.03,8.77-4.45,2.57-1.17,6.45-2.94,7.15-3.47l13.47-10.97c1.67-1.36,2.63-3.36,2.64-5.51.01-2.15-.92-4.17-2.57-5.55-15.52-12.97-50.38-27-50.73-27.14-147.59-65.31-239.83-35.49-289.39-19.48-11.77,3.81-21.08,6.81-28.12,7.5-23.82,2.34-77.41,74.25-116.06,135.12-1.75,2.76-4.48,4.66-7.68,5.36-4.45.97-8.88-.52-11.84-3.99-2.96-3.46-3.74-8.06-2.09-12.29,28.67-73.69,60.33-120.29,99.64-146.65,35.75-23.97,75.11-29.3,116.78-34.94,20.61-2.79,41.92-5.67,64.48-10.86,56.99-13.11,114.91,2.41,153.47,17.73,50.36,20.02,90.43,48.51,111.69,68.99,6.09-2.75,28.87-12.57,54.05-17.81,39.56-8.24,67.09-1.49,79.63,19.51,29,48.56,15.18,77.07,13.98,79.34-.94,2.13-13.05,28.18-42.43,33.11-3.18.53-6.43.8-9.74.8-30.43,0-66.57-22.44-107.62-66.86-4.94,6.64-8.8,12.74-11.25,16.86-1.4,2.35-1.32,5.36.22,7.66,17.76,26.59,14.45,46.69,10.89,56.31-1.79,4.85-6.4,7.98-11.12,7.98Zm-240.28-188.68c54.96,0,113.68,13.67,174.73,40.68,1.38.55,35.87,14.43,52,27.91,2.8,2.34,4.39,5.77,4.37,9.42-.02,3.64-1.66,7.05-4.49,9.36l-13.48,10.98c-.98.8-3.26,1.87-8.23,4.14-2.73,1.24-6.86,3.12-7.6,3.7-7.65,6.59-10.87,18.33-8.39,30.63,1.99,9.85,10.82,34.1,49.67,46.61,3.13,1.01,6.85-1.03,8.12-4.45,3.22-8.72,6.17-27.05-10.36-51.8-2.6-3.89-2.74-8.99-.36-12.99,2.81-4.73,7.42-11.98,13.38-19.72l1.82-2.36,2.01,2.2c24.75,27.11,47.91,46.32,68.85,57.09,16.85,8.67,32.32,11.91,45.96,9.64,27.29-4.54,38.67-30.02,38.78-30.27l.1-.2c.14-.26,14.18-27.58-13.83-74.49h0c-27.71-46.44-127.82.5-128.83.98l-1.58.75-1.25-1.22c-50.3-49.4-164.77-108.94-261.78-86.62-22.78,5.24-44.21,8.14-64.93,10.94-84.34,11.42-150.96,20.43-212.43,178.44-.97,2.49-.51,5.19,1.23,7.23,1.75,2.04,4.35,2.92,6.97,2.35,1.88-.41,3.49-1.53,4.52-3.15,19.96-31.44,87.6-134.25,119.79-137.41,6.51-.64,15.58-3.57,27.07-7.29,24.12-7.8,60.56-19.58,109.01-20.93,3.03-.08,6.07-.13,9.12-.13Zm348.49,134.32c-1.03,0-2.09-.16-3.16-.48-.92-.28-1.89-.56-2.9-.85-15.95-4.65-42.63-12.43-62.74-53.35-1.18-2.4-2.78-5.01-4.78-7.77l-1.48-2.05,2.07-1.46c18.02-12.73,35.21-14.11,51.09-4.09,34.46,21.76,38.31,49.56,32.65,61.98-2.37,5.18-6.31,8.07-10.73,8.07Zm-68.06-63.27c1.5,2.23,2.76,4.37,3.75,6.39,19.14,38.93,44.5,46.33,59.65,50.75,1.03.3,2.01.59,2.94.87h0c4.5,1.36,7.02-2.96,7.9-4.88,4.97-10.88,1-35.61-30.77-55.67-13.41-8.46-28.02-7.6-43.48,2.55Z"/>
    </g>
    <path class="cls-2" d="m547.48,199.28c-2.39-13.38,6.43-32.93,12.06-45.07,16.74-33.95,48.15-78.82,80.52-98.9,3.43-1.91,7.16-3.76,11.12-4.05-6.89,3.34-11.81,9.48-16.87,15.03-24.33,29.16-45.82,60.71-66.54,92.49-4.08,6.41-8.05,12.89-11.72,19.52-3.53,6.68-7.44,13.41-8.56,20.99h0Z"/>
    <path class="cls-4" d="m121.92,442.53c-2.41,25.24-1.54,50.65,7.81,74.31,2.99,7.79,6.94,15.25,11.27,22.96-3.56-2.61-6.89-5.6-9.8-8.97-20.6-23.36-24.05-61.12-9.29-88.3h0Z"/>
    <path class="cls-4" d="m547.11,390.34c-2.41,25.24-1.54,50.65,7.81,74.31,2.99,7.79,6.94,15.25,11.27,22.96-3.56-2.61-6.89-5.6-9.8-8.97-20.6-23.36-24.05-61.12-9.29-88.3h0Z"/>
    <g>
      <line class="cls-6" x1="126.19" y1="311.52" x2="146.18" y2="346.36"/>
      <rect x="134.19" y="308.86" width="4" height="40.16" transform="translate(-145.64 111.4) rotate(-29.85)"/>
    </g>
    <rect x="178.19" y="293.52" width="4" height="40.23"/>
  </g>
</svg>