<svg xmlns="http://www.w3.org/2000/svg" width="387.116" height="232.806" viewBox="0 0 387.116 232.806">
  <g id="chucklin_cherry_cropped" transform="translate(-0.024 0.005)">
    <g id="Group_130" data-name="Group 130" transform="translate(0.024 48.607)">
      <path id="Path_497" data-name="Path 497" d="M177.718,155.9c-2.594,1.831-17.511-1.766-20.729-1.93a252.525,252.525,0,0,0-49.377,2.065c-40.476,5.91-80.452,24.807-95.934,65.181-6.734,17.566-17.467,71.247,4.235,77.807,10.083,3.05,29.579-2.769,40.217-3.765,13.458-1.259,40.206,22.556,53.664,21.3,26.916-2.517,41.665-13.9,68.581-16.417,12.838-1.2,22.206-6.512,33.333,0,39.268,22.983,77.395-8.292,104.839-1.353,3.717.941,7.53,1.97,10.6,4.265,4.141,3.09,6.388,8.088,10.007,11.772,21.7,22.089,35.719-69.529,35.3-81.378-1.893-54.258-44.474-84.333-94.139-95.048,0,0-59.971-11.192-100.607,17.5Z" transform="translate(-1.914 -135.154)" fill="#e82147"/>
      <path id="Path_498" data-name="Path 498" d="M341.938,317.442c-2.5,0-4.991-1.255-7.446-3.758a43.831,43.831,0,0,1-4.137-5.162,28.414,28.414,0,0,0-5.746-6.5c-2.809-2.094-6.289-3.086-10.215-4.079-10.543-2.663-23.052.544-36.295,3.94-20.926,5.37-44.645,11.451-68.829-2.7-7.621-4.462-14.465-3.1-22.388-1.518a98.113,98.113,0,0,1-10.291,1.66c-13.334,1.248-23.862,4.761-34.044,8.157-10.3,3.437-20.951,6.99-34.533,8.259q-.58.055-1.182.055c-6.972,0-16.369-5.272-26.288-10.839-9.737-5.461-19.806-11.112-26.193-10.514-3.232.3-7.369,1.069-11.747,1.882-10.153,1.886-21.662,4.024-28.889,1.839-4.239-1.281-7.552-4.3-9.843-8.978C-.97,279.3-.368,263.862.993,252.651c1.645-13.578,5.093-26.726,7.781-33.734,7.3-19.054,20.44-34.548,39.038-46.054,15.986-9.886,35.416-16.555,57.757-19.82a253.958,253.958,0,0,1,49.592-2.076c1.018.051,2.966.4,5.432.832,4.268.755,13.151,2.324,14.611,1.3,21.21-14.979,47.67-18.988,66.133-19.711a177.052,177.052,0,0,1,35.31,2.028c26.668,5.749,49.315,16.628,65.524,31.461,18.682,17.1,28.608,38.838,29.51,64.623.317,9.062-9.237,77.825-26.551,85.26a7.98,7.98,0,0,1-3.181.682ZM305.8,294.761a37.1,37.1,0,0,1,9.124,1.058c4.159,1.051,7.858,2.112,10.988,4.447a30.637,30.637,0,0,1,6.213,6.975,42.454,42.454,0,0,0,3.922,4.91c2.845,2.9,5.53,3.747,8.2,2.6,6.464-2.776,13.046-17.055,18.532-40.206,4.688-19.784,6.851-38.488,6.694-42.964-1.653-47.32-35.649-81.586-93.275-94.015a175.015,175.015,0,0,0-34.843-1.985c-18.149.719-44.142,4.651-64.9,19.309h0c-2.036,1.437-8.289.478-16.252-.93-2.295-.4-4.279-.755-5.162-.8a251.834,251.834,0,0,0-49.162,2.054C78.052,159.275,28.7,173.057,10.814,219.7c-4.98,12.991-13.487,51.157-4.98,68.522,2.014,4.108,4.878,6.749,8.511,7.847,6.716,2.028,17.949-.055,27.857-1.9,4.429-.821,8.61-1.6,11.94-1.912,7.059-.66,16.978,4.9,27.47,10.784,9.737,5.461,19.809,11.108,26.193,10.514,13.334-1.248,23.862-4.761,34.044-8.157,10.3-3.437,20.951-6.99,34.533-8.259a97.294,97.294,0,0,0,10.069-1.627c8.015-1.6,15.581-3.108,23.921,1.773,23.406,13.7,46.663,7.734,67.18,2.47C287.5,297.209,297.04,294.761,305.8,294.761Z" transform="translate(-0.024 -133.248)" fill="#b52025"/>
    </g>
    <path id="Path_499" data-name="Path 499" d="M784.28,209.723,702,165.431c-5.753-3.1-2.411-11.878,3.94-10.35,26.591,6.41,62.766,19.6,85.26,46.134C795.184,205.911,789.7,212.638,784.28,209.723Z" transform="translate(-444.009 -98.397)" fill="#ed8cb3" opacity="0.25"/>
    <g id="Group_131" data-name="Group 131" transform="translate(181.356 74.052)">
      <line id="Line_22" data-name="Line 22" x2="6.253" y2="10.901" transform="translate(0.634 0.373)" fill="#ed2e72"/>
      <rect id="Rectangle_58" data-name="Rectangle 58" width="1.459" height="12.564" transform="translate(0 0.726) rotate(-29.85)"/>
    </g>
    <g id="Group_132" data-name="Group 132" transform="translate(65.055 93.459)">
      <line id="Line_23" data-name="Line 23" x1="6.351" y2="11.123" transform="translate(0.634 0.371)" fill="#ed2e72"/>
      <rect id="Rectangle_59" data-name="Rectangle 59" width="12.808" height="1.459" transform="translate(0 11.125) rotate(-60.29)"/>
    </g>
    <path id="Path_500" data-name="Path 500" d="M353.987,190.12c-1.069,28.211-7.482,55.852-7.628,83.983-.051,17.3,3.013,32.621,12.415,47.382,1.985,3.25,4.148,6.162,6.483,9.591-15-.711-29.1-10.3-37.152-22.943-6.351-9.7-9.693-21.279-10.55-32.742-1.583-21.527,4.6-43.219,15.723-61.489,5.6-8.96,12.163-17.38,20.71-23.782Z" transform="translate(-201.535 -120.765)" fill="#f9d2e4" opacity="0.13"/>
    <g id="Group_133" data-name="Group 133" transform="translate(194.08 83.381)">
      <path id="Path_501" data-name="Path 501" d="M561.485,273.206a62.253,62.253,0,0,1-4.907,24.862s-4.3-2.674-12.177-2.058c1.3-14.151-9.781-22.8-9.781-22.8,16.825-15.2,0-43.146,0-43.146C549.457,230.06,561.485,249.377,561.485,273.206Z" transform="translate(-533.65 -229.516)" fill="#fff"/>
      <path id="Path_502" data-name="Path 502" d="M555.136,297.92l-.536-.332c-.04-.026-4.272-2.568-11.845-1.977l-.646.051.058-.646c1.259-13.695-9.467-22.239-9.573-22.323l-.514-.4.482-.438c6.818-6.158,8.883-15.154,6.143-26.741A61.9,61.9,0,0,0,532.46,229.4l-.5-.828h.967c15.114,0,27.412,19.6,27.412,43.693a62.818,62.818,0,0,1-4.951,25.084l-.255.576Zm-10.08-3.495a21.817,21.817,0,0,1,9.569,1.933,62.048,62.048,0,0,0,4.622-24.1c0-22.972-11.294-41.753-25.365-42.57a63.893,63.893,0,0,1,5.888,15.172c2.74,11.572.657,21.024-6.019,27.379,2.116,1.879,10.368,10.032,9.554,22.232.606-.036,1.189-.051,1.751-.051Z" transform="translate(-531.96 -228.57)"/>
    </g>
    <g id="Group_134" data-name="Group 134" transform="translate(168 83.743)">
      <path id="Path_503" data-name="Path 503" d="M497.619,296c-10.974-.208-20.433,4.068-27.795,9.208-5.436-7.894-8.854-19.313-8.854-32.016,0-23.829,12.028-43.146,26.865-43.146,0,0,16.825,27.948,0,43.146,0,0,11.083,8.653,9.781,22.8Z" transform="translate(-460.788 -229.871)"/>
      <path id="Path_504" data-name="Path 504" d="M469.463,305.156l-.106-.15c-5.647-8.2-8.887-19.908-8.887-32.118,0-23.891,12.134-43.329,27.047-43.329h.1l.055.088A62.815,62.815,0,0,1,494,245.572c1.919,8.106,2.386,19.4-6.209,27.306,1.386,1.167,10.893,9.7,9.686,22.83l-.015.168H497.3c-9.39-.182-18.715,2.9-27.685,9.175Zm17.956-75.231c-14.665.091-26.58,19.328-26.58,42.964,0,12.064,3.174,23.625,8.719,31.76,8.938-6.205,18.208-9.281,27.58-9.138,1.175-13.793-9.616-22.392-9.726-22.476l-.171-.135.161-.146c8.624-7.789,8.161-19.032,6.253-27.094a62.732,62.732,0,0,0-6.235-15.734Z" transform="translate(-460.47 -229.56)"/>
    </g>
    <g id="Group_135" data-name="Group 135" transform="translate(57.637 102.888)">
      <path id="Path_505" data-name="Path 505" d="M187.475,326.676a62.253,62.253,0,0,1-4.907,24.862s-4.3-2.674-12.177-2.058c1.3-14.151-9.781-22.8-9.781-22.8,16.825-15.2,0-43.146,0-43.146,14.837,0,26.865,19.317,26.865,43.146Z" transform="translate(-159.64 -282.986)" fill="#fff"/>
      <path id="Path_506" data-name="Path 506" d="M181.126,351.39l-.536-.332c-.04-.026-4.272-2.572-11.845-1.977l-.646.051.058-.646c1.259-13.7-9.467-22.239-9.573-22.323l-.514-.4.482-.438c6.818-6.158,8.883-15.154,6.143-26.741a61.9,61.9,0,0,0-6.246-15.716l-.5-.828h.967c15.114,0,27.412,19.6,27.412,43.693a62.82,62.82,0,0,1-4.95,25.084l-.255.576Zm-10.08-3.495a21.816,21.816,0,0,1,9.569,1.934,62.048,62.048,0,0,0,4.622-24.1c0-22.972-11.295-41.753-25.365-42.57a63.894,63.894,0,0,1,5.888,15.172c2.74,11.572.657,21.024-6.019,27.379,2.116,1.879,10.368,10.032,9.554,22.232.606-.036,1.189-.051,1.751-.051Z" transform="translate(-157.95 -282.04)"/>
    </g>
    <g id="Group_136" data-name="Group 136" transform="translate(31.553 103.253)">
      <path id="Path_507" data-name="Path 507" d="M123.609,349.474c-10.973-.208-20.433,4.068-27.795,9.208-5.436-7.895-8.854-19.313-8.854-32.016,0-23.829,12.028-43.146,26.865-43.146,0,0,16.825,27.948,0,43.146,0,0,11.083,8.653,9.781,22.8Z" transform="translate(-86.774 -283.345)"/>
      <path id="Path_508" data-name="Path 508" d="M95.443,358.636l-.106-.15c-5.647-8.2-8.887-19.908-8.887-32.118,0-23.891,12.134-43.329,27.047-43.329h.1l.055.088a62.813,62.813,0,0,1,6.329,15.924c1.919,8.106,2.386,19.4-6.209,27.306,1.386,1.167,10.893,9.7,9.686,22.83l-.015.168h-.168c-9.387-.182-18.715,2.9-27.685,9.175l-.15.106ZM113.4,283.4c-14.665.091-26.58,19.328-26.58,42.964,0,12.064,3.174,23.625,8.719,31.76,8.938-6.205,18.219-9.281,27.58-9.138,1.175-13.793-9.616-22.392-9.726-22.476l-.171-.135.161-.146c8.624-7.789,8.161-19.032,6.253-27.094A62.73,62.73,0,0,0,113.4,283.4Z" transform="translate(-86.45 -283.04)"/>
    </g>
    <g id="Group_137" data-name="Group 137" transform="translate(25.483 192.646)">
      <circle id="Ellipse_191" data-name="Ellipse 191" cx="12.889" cy="12.889" r="12.889" transform="translate(0.544 0.54)" fill="#f772b2"/>
      <path id="Path_509" data-name="Path 509" d="M83.242,554.941a13.421,13.421,0,1,1,9.5-3.925h0a13.393,13.393,0,0,1-9.5,3.929Zm0-25.767a12.3,12.3,0,0,0-8.726,3.608,12.089,12.089,0,0,0-3.615,8.726,12.343,12.343,0,0,0,21.071,8.726l.387.387-.387-.387a12.336,12.336,0,0,0-8.726-21.064Z" transform="translate(-69.81 -528.08)" fill="#f4607c"/>
    </g>
    <g id="Group_138" data-name="Group 138" transform="translate(222.598 180.806)">
      <circle id="Ellipse_192" data-name="Ellipse 192" cx="12.889" cy="12.889" r="12.889" transform="translate(0.546 0.556)" fill="#f772b2"/>
      <path id="Path_510" data-name="Path 510" d="M623.576,522.513a13.456,13.456,0,1,1,5.549-1.211A13.441,13.441,0,0,1,623.576,522.513Zm-.011-25.8a12.383,12.383,0,1,0,4.345.8,12.283,12.283,0,0,0-4.345-.8Z" transform="translate(-610.134 -495.625)" fill="#f4607c"/>
    </g>
    <rect id="Rectangle_60" data-name="Rectangle 60" width="17.175" height="1.459" transform="translate(207.844 89.376) rotate(-62.78)"/>
    <rect id="Rectangle_61" data-name="Rectangle 61" width="1.459" height="12.586" transform="translate(198.264 71.653)"/>
    <path id="Path_511" data-name="Path 511" d="M82.024,529.9c-4.644,7.263-7.183,12.52-4.629,21.2a10.364,10.364,0,0,1-2-2.389c-4.162-6.618-.12-15.756,6.632-18.81Z" transform="translate(-46.801 -336.59)" fill="#fff" opacity="0.13"/>
    <path id="Path_512" data-name="Path 512" d="M620.884,500.85c-4.644,7.263-7.183,12.52-4.63,21.2a10.364,10.364,0,0,1-2-2.389c-4.163-6.618-.12-15.756,6.632-18.81h0Z" transform="translate(-389.079 -318.138)" fill="#fff" opacity="0.13"/>
    <path id="Path_513" data-name="Path 513" d="M646.96,166.563c20.13-2.295,42.081,1.251,60.712,9.2,26.835,11.459,46.506,33.325,51.1,62.6.084.733.445,3.1.522,3.856.1.949.252,2.922.343,3.863l.109,2.576a82.144,82.144,0,0,1-.255,10.251c-.66-3.32-1.251-6.661-2.065-9.941a118.138,118.138,0,0,0-5.184-16.643A89.6,89.6,0,0,0,713,187.583c-20.178-11.685-43.051-17.62-66.034-21.02h0Z" transform="translate(-410.927 -105.366)" fill="#f9d2e4" opacity="0.41"/>
    <g id="Group_139" data-name="Group 139" transform="translate(169.75 -0.005)">
      <path id="Path_514" data-name="Path 514" d="M677.235,29.32c-9.135-15.307-41.307,0-41.307,0C621.185,14.841,584.7-5.2,553.312,2.021c-36.372,8.365-63.222-2.211-87.317,59.723a3.023,3.023,0,0,0,5.37,2.714c4.184-6.588,26.887-41.643,36.89-42.628C519.3,20.743,550.5.208,607.946,25.628c0,0,11.072,4.429,16.081,8.617A3.024,3.024,0,0,1,624,38.911l-4.217,3.433c-.533.434-4.44,2.014-4.961,2.462-6.059,5.217-4.3,19.875,13.181,25.5a2.917,2.917,0,0,0,3.513-1.864c1.116-3.024,1.981-8.971-3.323-16.909a3.028,3.028,0,0,1-.091-3.229,63.448,63.448,0,0,1,4.133-6.092C669.008,82.5,681.572,53.4,681.572,53.4s4.8-8.774-4.341-24.077ZM661.858,53.306c-4.793-1.445-13.523-3.258-20.057-16.551a17.3,17.3,0,0,0-1.565-2.543c4.5-3.177,9.755-4.64,15.114-1.259,14.472,9.139,11.306,21.8,6.508,20.353Z" transform="translate(-465.597 -0.316)" fill="#6ebe43"/>
      <path id="Path_515" data-name="Path 515" d="M628.445,70.292a2.7,2.7,0,0,1-.828-.128c-12.641-4.071-15.534-12.061-16.19-15.307-.846-4.188.281-8.216,2.944-10.507a19.11,19.11,0,0,1,2.6-1.3,21.057,21.057,0,0,0,2.364-1.164l4.217-3.433a2.841,2.841,0,0,0,.026-4.385c-4.929-4.119-15.92-8.54-16.034-8.584-46.36-20.513-75.355-11.141-90.933-6.107a48.125,48.125,0,0,1-8.672,2.32c-9.883.97-32.351,35.609-36.755,42.544a3.206,3.206,0,0,1-5.695-2.878C484.932,11.4,506.022,8.544,532.719,4.929c6.461-.876,13.141-1.78,20.221-3.407,17.679-4.068,35.671.759,47.655,5.52C616.5,13.363,629.105,22.4,635.632,28.78a87.194,87.194,0,0,1,17.153-5.7c12.1-2.521,20.5-.507,24.275,5.826h0c9.087,15.216,4.392,24.169,4.345,24.26-.029.069-3.768,8.5-12.83,10.021-10.025,1.682-22.359-5.388-36.66-21.009a63.79,63.79,0,0,0-3.991,5.9,2.866,2.866,0,0,0,.084,3.035c5.406,8.1,4.414,14.173,3.342,17.073a3.178,3.178,0,0,1-2.911,2.1Zm-75.1-57.855c14.556,0,32.534,3.05,54.346,12.7.106.04,11.152,4.487,16.125,8.642a3.2,3.2,0,0,1-.029,4.947l-4.217,3.433a20.019,20.019,0,0,1-2.444,1.215,20.516,20.516,0,0,0-2.514,1.248c-2.565,2.207-3.648,6.1-2.824,10.16.642,3.185,3.487,11.021,15.942,15.034a2.724,2.724,0,0,0,3.287-1.755c1.047-2.835,2.014-8.781-3.305-16.745a3.226,3.226,0,0,1-.095-3.426,63.056,63.056,0,0,1,4.148-6.111l.131-.171.146.161c14.271,15.636,26.544,22.72,36.474,21.057,8.865-1.485,12.531-9.737,12.568-9.821.055-.1,4.637-8.89-4.33-23.913h0c-8.945-14.99-40.753-.08-41.074.073l-.117.055-.091-.091C619.639,13.582,583.6-5.154,553.028,1.879c-7.1,1.634-13.79,2.539-20.258,3.415-26.58,3.6-47.571,6.439-66.932,56.2a2.843,2.843,0,0,0,3.254,3.8,2.829,2.829,0,0,0,1.795-1.251c4.418-6.961,26.974-41.723,37.028-42.712a48.156,48.156,0,0,0,8.595-2.306c8.292-2.681,20.378-6.585,36.842-6.585ZM662.27,53.281a2.789,2.789,0,0,1-.8-.12h0c-.288-.088-.595-.175-.912-.27-4.892-1.426-13.082-3.816-19.258-16.376A17.778,17.778,0,0,0,639.758,34l-.109-.15.15-.106c5.421-3.831,10.572-4.254,15.315-1.262,10.459,6.6,11.674,14.932,9.988,18.631a3.236,3.236,0,0,1-2.831,2.171ZM640.163,33.935a17.441,17.441,0,0,1,1.474,2.419c6.1,12.418,14.195,14.778,19.032,16.187.317.091.624.182.916.27h0c1.291.39,2.481-.3,3.188-1.853,1.638-3.586.412-11.692-9.85-18.171-4.56-2.878-9.525-2.492-14.76,1.146Z" transform="translate(-465.268 0.005)" fill="#0b3010"/>
    </g>
    <path id="Path_516" data-name="Path 516" d="M473.372,88.615c-.857-4.25,1.813-10.346,3.56-14.217,5.191-10.766,14.994-24.72,25.351-30.889a8.622,8.622,0,0,1,3.528-1.2c-2.123,1.105-3.619,3.05-5.173,4.812-7.449,9.222-14.144,19.072-20.707,28.94-1.3,1.988-2.557,3.995-3.739,6.045a21.647,21.647,0,0,0-2.816,6.5h0Z" transform="translate(-300.561 -26.878)" fill="#fff" opacity="0.26"/>
    <path id="Path_517" data-name="Path 517" d="M103.431,377.82c-.744,11.459.343,20.273,5.972,30.429-9.383-6.468-11.575-20.827-5.972-30.429Z" transform="translate(-63.746 -239.991)" fill="#fff" opacity="0.28"/>
    <path id="Path_518" data-name="Path 518" d="M468.041,333.08c-.744,11.459.343,20.273,5.972,30.429-9.383-6.468-11.575-20.827-5.972-30.429Z" transform="translate(-295.342 -211.572)" fill="#fff" opacity="0.28"/>
    <g id="Group_140" data-name="Group 140" transform="translate(40.395 96.478)">
      <line id="Line_24" data-name="Line 24" x2="6.253" y2="10.897" transform="translate(0.628 0.372)" fill="#ed2e72"/>
      <rect id="Rectangle_62" data-name="Rectangle 62" width="1.459" height="12.564" transform="translate(0 0.726) rotate(-29.85)"/>
    </g>
    <rect id="Rectangle_63" data-name="Rectangle 63" width="1.459" height="12.586" transform="translate(57.185 91.218)"/>
  </g>
</svg>
