<svg id="Twitter_Icon" data-name="Twitter Icon" xmlns="http://www.w3.org/2000/svg" width="34" height="31" viewBox="0 0 34 31">
  <path id="Facebook_Icon" data-name="Facebook Icon" d="M34.563,16.157c0-8.615-7.609-15.594-17-15.594s-17,6.98-17,15.594c0,7.783,6.217,14.235,14.344,15.406v-10.9H10.588V16.157h4.319V12.721c0-3.908,2.536-6.067,6.421-6.067a28.453,28.453,0,0,1,3.806.3v3.836H22.989c-2.111,0-2.77,1.2-2.77,2.435v2.927h4.715l-.754,4.508H20.219v10.9C28.346,30.392,34.563,23.94,34.563,16.157Z" transform="translate(-0.563 -0.562)" fill="#f4a8d1"/>
</svg>
