<?xml version="1.0" encoding="UTF-8"?>
<svg id="Layer_1" data-name="Layer 1" xmlns="http://www.w3.org/2000/svg" viewBox="0 0 32.55 44.79">
  <defs>
    <style>
      .cls-1 {
        fill: #569e3b;
      }

      .cls-2, .cls-3, .cls-4, .cls-5 {
        fill: #c67fff;
      }

      .cls-6 {
        fill: #d7fbff;
        opacity: .33;
      }

      .cls-3 {
        stroke-width: .5px;
      }

      .cls-3, .cls-4, .cls-5 {
        stroke: #ae76e5;
      }

      .cls-3, .cls-4, .cls-5, .cls-7 {
        stroke-miterlimit: 10;
      }

      .cls-5 {
        stroke-width: .25px;
      }

      .cls-7 {
        fill: #63c244;
        stroke: #63c244;
      }
    </style>
  </defs>
  <g>
    <circle class="cls-2" cx="24.99" cy="31.23" r="4.79"/>
    <path class="cls-6" d="m29.56,29.8c-.46,2.6-2.94,4.35-5.54,3.89-1.74-.31-3.1-1.52-3.67-3.07-.19,1.29.14,2.64,1.02,3.73,1.67,2.05,4.69,2.35,6.74.68,1.62-1.32,2.14-3.49,1.46-5.35,0,.04,0,.08-.02.12Z"/>
  </g>
  <path class="cls-2" d="m22.84,10.25c-1.25-1.08-2.9-1.4-4.38-1-2.38.57-3.98,2.87-3.62,5.34.3,2.07,1.89,3.63,3.83,4.01-.03-.03-.07-.05-.1-.08,0,0,0,0,0,0,1.69.41,3.54-.11,4.75-1.51,1.73-2,1.52-5.02-.48-6.75Z"/>
  <g>
    <circle class="cls-2" cx="27.06" cy="25.28" r="4.79"/>
    <path class="cls-6" d="m25.62,20.72c2.61.45,4.36,2.92,3.91,5.53-.3,1.75-1.51,3.1-3.06,3.68,1.29.19,2.64-.15,3.73-1.04,2.04-1.68,2.33-4.7.65-6.74-1.33-1.62-3.5-2.13-5.36-1.44.04,0,.08,0,.12.01Z"/>
  </g>
  <g>
    <circle class="cls-2" cx="9.08" cy="22.22" r="4.79"/>
    <path class="cls-6" d="m12.17,18.56c1.02,2.44-.14,5.24-2.58,6.26-1.63.68-3.43.38-4.74-.62.53,1.19,1.54,2.15,2.87,2.59,2.51.83,5.22-.54,6.04-3.05.65-1.99-.07-4.1-1.64-5.3.02.04.04.07.05.11Z"/>
  </g>
  <g>
    <circle class="cls-2" cx="8.23" cy="23.1" r="4.79"/>
    <path class="cls-6" d="m12.43,20.8c.07,2.64-2.02,4.84-4.67,4.9-1.77.04-3.34-.88-4.2-2.29.07,1.3.65,2.56,1.74,3.45,2.04,1.68,5.06,1.38,6.74-.66,1.33-1.62,1.42-3.84.38-5.53,0,.04,0,.08,0,.12Z"/>
  </g>
  <path class="cls-3" d="m25.67,17.45c-1.25-1.08-2.9-1.4-4.38-1-2.38.57-3.98,2.87-3.62,5.34.3,2.07,1.89,3.63,3.83,4.01-.03-.03-.07-.05-.1-.08,0,0,0,0,0,0,1.69.41,3.54-.11,4.75-1.51,1.73-2,1.52-5.02-.48-6.75Z"/>
  <path class="cls-2" d="m27.61,13.09c-1.25-1.08-2.9-1.4-4.38-1-2.38.57-3.98,2.87-3.62,5.34.3,2.07,1.89,3.63,3.83,4.01-.03-.03-.07-.05-.1-.08,0,0,0,0,0,0,1.69.41,3.54-.11,4.75-1.51,1.73-2,1.52-5.02-.48-6.75Z"/>
  <path class="cls-2" d="m13.67,24.03c-1.25-1.08-2.9-1.4-4.38-1-2.38.57-3.98,2.87-3.62,5.34.3,2.07,1.89,3.63,3.83,4.01-.03-.03-.07-.05-.1-.08,0,0,0,0,0,0,1.69.41,3.54-.11,4.75-1.51,1.73-2,1.52-5.02-.48-6.75Z"/>
  <path class="cls-4" d="m22.73,29.44c-1.25-1.08-2.9-1.4-4.38-1-2.38.57-3.98,2.87-3.62,5.34.3,2.07,1.89,3.63,3.83,4.01-.03-.03-.07-.05-.1-.08,0,0,0,0,0,0,1.69.41,3.54-.11,4.75-1.51,1.73-2,1.52-5.02-.48-6.75Z"/>
  <g>
    <circle class="cls-2" cx="27.76" cy="12.8" r="4.79"/>
    <path class="cls-6" d="m23.09,11.78c1.68-2.04,4.7-2.32,6.74-.64,1.36,1.13,1.94,2.85,1.67,4.48.8-1.02,1.19-2.36.96-3.75-.44-2.61-2.91-4.36-5.52-3.92-2.06.35-3.59,1.97-3.92,3.93.03-.03.05-.07.07-.1Z"/>
  </g>
  <g>
    <circle class="cls-2" cx="17.71" cy="17.2" r="4.79"/>
    <path class="cls-6" d="m12.95,17.71c.95-2.47,3.72-3.69,6.19-2.74,1.65.64,2.74,2.09,3,3.72.44-1.22.38-2.62-.28-3.86-1.24-2.33-4.14-3.22-6.48-1.97-1.85.98-2.78,3.01-2.47,4.96.01-.04.02-.08.04-.12Z"/>
  </g>
  <path class="cls-5" d="m23.56,36.23c-1.25-1.08-2.9-1.4-4.38-1-2.38.57-3.98,2.87-3.62,5.34.3,2.07,1.89,3.63,3.83,4.01-.03-.03-.07-.05-.1-.08,0,0,0,0,0,0,1.69.41,3.54-.11,4.75-1.51,1.73-2,1.52-5.02-.48-6.75Z"/>
  <g>
    <circle class="cls-2" cx="15.54" cy="32.96" r="4.79"/>
    <path class="cls-6" d="m18.63,29.3c1.02,2.44-.14,5.24-2.58,6.26-1.63.68-3.43.38-4.74-.62.53,1.19,1.54,2.15,2.87,2.59,2.51.83,5.22-.54,6.04-3.05.65-1.99-.07-4.1-1.64-5.3.02.04.04.07.05.11Z"/>
  </g>
  <path class="cls-3" d="m18.78,17.36c-1.25-1.08-2.9-1.4-4.38-1-2.38.57-3.98,2.87-3.62,5.34.3,2.07,1.89,3.63,3.83,4.01-.03-.03-.07-.05-.1-.08,0,0,0,0,0,0,1.69.41,3.54-.11,4.75-1.51,1.73-2,1.52-5.02-.48-6.75Z"/>
  <path class="cls-5" d="m15.77,22.1c-1.25-1.08-2.9-1.4-4.38-1-2.38.57-3.98,2.87-3.62,5.34.3,2.07,1.89,3.63,3.83,4.01-.03-.03-.07-.05-.1-.08,0,0,0,0,0,0,1.69.41,3.54-.11,4.75-1.51,1.73-2,1.52-5.02-.48-6.75Z"/>
  <path class="cls-5" d="m14.52,11.46c-1.25-1.08-2.9-1.4-4.38-1-2.38.57-3.98,2.87-3.62,5.34.3,2.07,1.89,3.63,3.83,4.01-.03-.03-.07-.05-.1-.08,0,0,0,0,0,0,1.69.41,3.54-.11,4.75-1.51,1.73-2,1.52-5.02-.48-6.75Z"/>
  <path class="cls-5" d="m22.98,21.93c-1.25-1.08-2.9-1.4-4.38-1-2.38.57-3.98,2.87-3.62,5.34.3,2.07,1.89,3.63,3.83,4.01-.03-.03-.07-.05-.1-.08,0,0,0,0,0,0,1.69.41,3.54-.11,4.75-1.51,1.73-2,1.52-5.02-.48-6.75Z"/>
  <path class="cls-1" d="m7.48,9.91c.87-1.96,7.62-2.35,7.22-.81-.02.07-.02.13,0,.18,1.41-2.45-.3-5.87-1.23-7.42,1.09-.29,2.16-.61,3.25-.9,2.03,2.13,2.2,6.47,2.16,8.4.96-.2,5.4-.15,6.99,1.12s2.86,1.24,2.86,1.24c0,0-4.61,3.28-6.77,1.6-2.16-1.68-3.53-1.19-3.53-1.19,0,0,.8,2.69-.95,3.73-1.75,1.05-1.95,2.33-1.95,2.33,0,0-3.07-3.01-2.15-5.29.92-2.28-6.23.12-5.98.83.25.71-.82-1.82.07-3.84Z"/>
  <path class="cls-7" d="m6.45,9.5c.87-1.96,7.62-2.35,7.22-.81-.02.07-.02.13,0,.18,1.41-2.45-.3-5.87-1.23-7.42,1.09-.29,2.16-.61,3.25-.9,2.03,2.13,2.2,6.47,2.16,8.4.96-.2,5.4-.15,6.99,1.12s2.86,1.24,2.86,1.24c0,0-4.61,3.28-6.77,1.6-2.16-1.68-3.53-1.19-3.53-1.19,0,0,.8,2.69-.95,3.73-1.75,1.05-1.95,2.33-1.95,2.33,0,0-3.07-3.01-2.15-5.29.92-2.28-6.23.12-5.98.83.25.71-.82-1.82.07-3.84Z"/>
  <path class="cls-5" d="m8.18,15.39c-1.25-1.08-2.9-1.4-4.38-1-2.38.57-3.98,2.87-3.62,5.34.3,2.07,1.89,3.63,3.83,4.01-.03-.03-.07-.05-.1-.08,0,0,0,0,0,0,1.69.41,3.54-.11,4.75-1.51,1.73-2,1.52-5.02-.48-6.75Z"/>
  <path class="cls-5" d="m26.16,30.2c-1.25-1.08-2.9-1.4-4.38-1-2.38.57-3.98,2.87-3.62,5.34.3,2.07,1.89,3.63,3.83,4.01-.03-.03-.07-.05-.1-.08,0,0,0,0,0,0,1.69.41,3.54-.11,4.75-1.51,1.73-2,1.52-5.02-.48-6.75Z"/>
  <path class="cls-5" d="m30.02,16.76c-1.25-1.08-2.9-1.4-4.38-1-2.38.57-3.98,2.87-3.62,5.34.3,2.07,1.89,3.63,3.83,4.01-.03-.03-.07-.05-.1-.08,0,0,0,0,0,0,1.69.41,3.54-.11,4.75-1.51,1.73-2,1.52-5.02-.48-6.75Z"/>
</svg>