<svg xmlns="http://www.w3.org/2000/svg" width="39.528" height="39.528" viewBox="0 0 39.528 39.528">
  <path id="grinning_heart_sign" data-name="grinning heart sign" d="M19.764.563A19.764,19.764,0,1,0,39.528,20.326,19.761,19.761,0,0,0,19.764.563ZM7.2,14.557a3.009,3.009,0,0,1,3.578-1.745l.566.151.159-.566a3.017,3.017,0,0,1,3.307-2.223,2.819,2.819,0,0,1,2.3,3.546L15.564,19.29a.685.685,0,0,1-.837.478l-5.594-1.45A2.828,2.828,0,0,1,7.2,14.557Zm12.56,19.8c-4.829,0-10.719-3.052-11.46-7.435a1.277,1.277,0,0,1,1.65-1.427,34.447,34.447,0,0,0,9.81,1.211,34.447,34.447,0,0,0,9.81-1.211,1.282,1.282,0,0,1,1.65,1.427C30.483,31.3,24.593,34.352,19.764,34.352ZM30.395,18.31,24.8,19.761a.692.692,0,0,1-.837-.478l-1.546-5.571a2.819,2.819,0,0,1,2.3-3.546,3.027,3.027,0,0,1,3.307,2.223l.159.566.566-.151a3.018,3.018,0,0,1,3.578,1.745,2.822,2.822,0,0,1-1.929,3.762Z" transform="translate(0 -0.563)" fill="#f25cad"/>
</svg>
