<?xml version="1.0" encoding="UTF-8"?>
<svg id="logo" xmlns="http://www.w3.org/2000/svg" viewBox="0 0 951.27 1087.07">
  <defs>
    <style>
      .cls-1, .cls-2, .cls-3, .cls-4, .cls-5, .cls-6, .cls-7 {
        fill: #fff;
      }

      .cls-2, .cls-8 {
        opacity: .12;
      }

      .cls-9, .cls-10, .cls-11, .cls-12, .cls-13 {
        fill: #392947;
      }

      .cls-10 {
        opacity: .29;
      }

      .cls-14 {
        fill: #3faf3f;
      }

      .cls-3 {
        opacity: .1;
      }

      .cls-15 {
        fill: #9d5dba;
      }

      .cls-16 {
        fill: #309930;
      }

      .cls-4 {
        opacity: .24;
      }

      .cls-17 {
        fill: #c284ff;
      }

      .cls-5, .cls-13 {
        opacity: .19;
      }

      .cls-11 {
        opacity: .25;
      }

      .cls-12 {
        opacity: .3;
      }

      .cls-6 {
        opacity: .08;
      }

      .cls-7 {
        opacity: .2;
      }

      .cls-18 {
        fill: #163816;
      }

      .cls-19 {
        opacity: .17;
      }

      .cls-20 {
        fill: #9d75cc;
      }
    </style>
  </defs>
  <g>
    <g>
      <path class="cls-16" d="m708.94,16.36c-.09-.27-.16-.41-.16-.41,0,0,.06.15.16.41Z"/>
      <path class="cls-16" d="m704.75,17.99l-.15-.38,8.16-3.77c.12.23.3.61.47,1.15l-7.97,2.82,1.32-.7-1.92.61c.04.12.08.21.11.26h-.01Z"/>
    </g>
    <g>
      <path class="cls-16" d="m708.94,16.36c.99,3.12,3.23,23.27-97.88,35.26-85.07,10.09-136.85,99.56-155.87,139.39C354.25,3.91,286.55,42.71,265.24,17.89c-21.23-24.72-78.2,32.7-82.82,37.44,2.43-2.19,19.85-12.57,72.58,74.54,57.28,94.62,212.11,83.99,212.11,83.99-.81-1.6-1.61-3.18-2.41-4.75,220.2-13.13,212.3-92.61,244.09-101.87,31.29-9.11,2.56-84.72.16-90.89Z"/>
      <path class="cls-16" d="m452.81,218.74c-15.5,0-41.75-1.1-71.16-6.98-27.08-5.41-51.13-13.79-71.5-24.9-25.67-14-45.52-32.39-59-54.66-38.46-63.53-56.78-72.77-62.88-73.8-2.07-.35-2.82.25-2.85.27l-6.23-6.49c7.47-7.65,46.06-45.8,72.92-44.93,6.77.22,12.33,2.81,16.54,7.71,4.56,5.31,12.35,7.29,23.14,10.02,16.79,4.26,39.78,10.1,68.18,32.7,32.09,25.55,63.22,66.02,95.01,123.56,21.54-42.45,73.3-124.34,155.55-134.09,73.75-8.75,89.74-21.61,93.19-26.73,1.18-1.75.94-2.67.93-2.71l8.48-2.99c3.88,9.97,22.63,60.9,10.76,84.97-2.99,6.07-7.66,10.07-13.86,11.87-6.72,1.96-11.74,8.24-18.7,16.93-11.03,13.78-26.13,32.66-59.58,49.36-38.22,19.09-90.6,30.66-159.96,35.31l2.38,4.71-6.76.46c-.58.04-5.9.39-14.6.39ZM193.71,50.61c15.9,5.9,37.78,31.73,65.14,76.93,28.7,47.42,83.47,67.15,124.36,75.35,33.61,6.74,63.65,7.03,76.7,6.74l-2.35-4.6,6.87-.41c162.21-9.67,198.32-54.79,219.89-81.75,7.69-9.61,13.76-17.2,23.21-19.95,3.73-1.09,6.44-3.44,8.3-7.21,7.18-14.56.03-45.41-7.25-67.12-11.95,12.04-44.52,21.27-96.98,27.5-83.21,9.87-134.26,99-152.34,136.86l-3.82,7.99-4.2-7.79C377.21,55.95,322.36,42.03,289.58,33.71c-11.93-3.03-21.35-5.42-27.76-12.88-2.53-2.95-5.8-4.44-10-4.58-16.27-.52-41.36,18.75-58.12,34.36Z"/>
    </g>
    <g>
      <path class="cls-16" d="m182.11,55.65s.11-.12.31-.32c-.21.19-.31.32-.31.32Z"/>
      <path class="cls-16" d="m185.35,58.77l-6.81-5.86c.16-.21.44-.53.86-.92l5.83,6.06-1.18-.9,1.38,1.53c.09-.08.16-.16.2-.21h.01s-.29.31-.29.31Z"/>
    </g>
  </g>
  <g>
    <g>
      <path class="cls-14" d="m820.21,9.12c-.09-.27-.16-.41-.16-.41,0,0,.06.15.16.41Z"/>
      <path class="cls-14" d="m816.02,10.75l-.15-.38,8.16-3.77c.12.23.3.61.47,1.15l-7.97,2.82,1.32-.7-1.92.61c.04.12.08.21.11.26h-.01Z"/>
    </g>
    <g>
      <path class="cls-14" d="m820.21,9.12c.99,3.12,3.23,23.27-97.88,35.26-85.07,10.09-136.85,99.56-155.87,139.39C465.52-3.33,397.82,35.47,376.51,10.65c-21.23-24.72-78.2,32.7-82.82,37.44,2.43-2.19,19.85-12.57,72.58,74.54,57.28,94.62,212.11,83.99,212.11,83.99-.81-1.6-1.61-3.18-2.41-4.75,220.2-13.13,212.3-92.61,244.09-101.87,31.29-9.11,2.56-84.72.16-90.89Z"/>
      <path class="cls-14" d="m564.08,211.5c-15.5,0-41.75-1.1-71.16-6.98-27.08-5.41-51.13-13.79-71.5-24.9-25.67-14-45.52-32.39-59-54.66-38.46-63.53-56.78-72.77-62.87-73.8-2.07-.35-2.82.25-2.85.27l-6.23-6.49C297.93,37.29,336.52-.84,363.38.01c6.77.22,12.33,2.81,16.54,7.71,4.56,5.31,12.35,7.29,23.15,10.02,16.79,4.26,39.78,10.1,68.18,32.7,32.09,25.55,63.22,66.02,95.01,123.56,21.54-42.45,73.29-124.34,155.55-134.09,73.75-8.75,89.74-21.61,93.19-26.73,1.18-1.75.94-2.67.93-2.71l8.48-2.99c3.88,9.97,22.63,60.9,10.76,84.97-2.99,6.07-7.66,10.07-13.86,11.87-6.72,1.96-11.74,8.24-18.7,16.93-11.03,13.78-26.13,32.66-59.58,49.36-38.22,19.09-90.6,30.66-159.96,35.31l2.38,4.71-6.76.46c-.58.04-5.9.39-14.6.39ZM304.98,43.37c15.9,5.91,37.78,31.74,65.14,76.93,28.74,47.48,83.6,67.21,124.56,75.4,33.57,6.71,63.48,6.99,76.49,6.7l-2.35-4.6,6.87-.41c162.21-9.67,198.32-54.79,219.89-81.75,7.69-9.61,13.76-17.2,23.21-19.95,3.73-1.09,6.44-3.44,8.3-7.21,7.18-14.56.03-45.41-7.25-67.12-11.95,12.04-44.52,21.27-96.98,27.5-83.21,9.87-134.26,99-152.34,136.86l-3.82,7.99-4.2-7.79C488.48,48.71,433.63,34.79,400.85,26.47c-11.93-3.03-21.35-5.42-27.76-12.88-2.53-2.95-5.8-4.44-10-4.58-16.19-.53-41.36,18.75-58.12,34.36Z"/>
    </g>
    <g>
      <path class="cls-14" d="m293.38,48.41s.11-.12.31-.32c-.21.19-.31.32-.31.32Z"/>
      <path class="cls-14" d="m296.62,51.53l-6.81-5.86c.16-.21.44-.53.86-.91l5.83,6.06-1.16-.9,1.37,1.51c.09-.08.15-.16.19-.21h.01s-.28.3-.28.3Z"/>
    </g>
  </g>
  <g class="cls-19">
    <path class="cls-14" d="m372.23,70.09s149.94,152.43,172.27,143.9"/>
    <path class="cls-18" d="m372.23,70.09c34.67,31.44,69.28,64.63,104.22,95.74,10.53,9.41,21.19,18.68,32.17,27.56,7.32,5.87,14.75,11.67,22.81,16.47,2.02,1.18,4.09,2.28,6.26,3.14,2.15.82,4.5,1.63,6.8.98-4.64,1.49-9.5-1.1-13.71-2.9-21.14-10.86-39.32-26.55-57.45-41.69-35.68-31-69.55-64.11-101.11-99.31h0Z"/>
  </g>
  <g>
    <path class="cls-17" d="m724.74,856.01c129.21-120.11,52.78-234.77,52.78-234.77,0,0,96.45-32.76,67.34-147.41,0,0,124.97-87.36,65.52-163.79s-109.19-41.86-109.19-41.86c0,0,1.21-64.91-76.44-76.44s-100.09,21.84-100.09,21.84c0,0-75.83-38.82-118.29-12.74,0,0-81.9-47.92-109.19,0l-8.04,2.6c-29.62,9.58-61.93,3.33-86.22-16.13-33.16-26.57-86.79-48.38-136.86,24.45,0,0-49.14-4.85-63.7,25.48,0,0-121.93,108.59,0,171.07,0,0-106.77,97.06,3.64,187.45,0,0-31.54,205.65,116.47,247.51,0,0,69.16,129.82,205.65,160.15,136.49,30.33,167.43-27.3,167.43-27.3,0,0,124.76,29.13,129.21-120.11,1.21-40.64-52.78-61.88-52.78-61.88"/>
    <path class="cls-20" d="m500.14,1015.17c-19.96,0-43.98-2.44-72.69-8.82-71.25-15.83-123.91-58.94-155.54-92.31-30.67-32.36-48.07-62.14-51.49-68.22-33.88-9.85-61.15-29.07-81.07-57.14-16.05-22.62-27.36-50.98-33.6-84.3-9.51-50.76-4.21-97.93-2.98-107.36-32.21-26.79-48.96-56.83-49.8-89.32-1.27-48.91,33.56-87.84,44.3-98.65-30.96-16.78-48.3-38.23-51.57-63.84-6.74-52.79,48.19-104.35,54.19-109.8,14.11-28.3,55.41-27.35,64.65-26.76,20.08-28.68,42.57-45.04,66.87-48.63,23.65-3.49,48.33,4.91,73.35,24.96,23.72,19.01,54.9,24.84,83.42,15.62l6.95-2.25c6.06-10.09,14.95-16.76,26.42-19.83,32.55-8.72,75.91,13.95,84.75,18.87,39.94-22.78,104.53,6.19,117.49,12.45,6.52-7.43,33.21-31.16,101.37-21.05,41.35,6.14,60.64,27.37,69.54,44.1,6.58,12.37,8.59,23.99,9.19,30.35,5.52-2.66,15.88-6.4,29.7-5.77,18.76.86,47.71,10.36,79.12,50.75,13.64,17.54,18.95,37.08,15.78,58.08-8.15,54.01-69.02,100.61-80.26,108.8,14.44,59.36-4.97,96.61-23.93,117.47-16.38,18.02-34.83,27.02-42.38,30.19,5.03,8.68,18.18,34.47,20.63,70.64,1.75,25.81-2.39,51.51-12.29,76.38-12.21,30.67-33.26,60.13-62.59,87.59-1.67,48.27-16.04,83.16-42.74,103.7-34.5,26.55-77.9,20.35-88.01,18.43-3.08,4.47-12.4,15.7-32.77,24.42-13.76,5.89-34.43,11.27-64.04,11.27ZM158.79,214.5c-13.63,0-43.44,2.56-53.75,24.04l-.26.54-.45.4c-.59.53-59.26,53.48-52.67,104.97,3.14,24.51,20.65,45.1,52.04,61.19l3.85,1.97-3.2,2.92c-.47.43-46.79,43.25-45.38,97.04.82,31.08,17.27,59.97,48.9,85.87l1.32,1.08-.26,1.69c-.08.51-7.69,51.69,2.74,107.2,13.89,73.87,51.43,119.96,111.58,136.97l1.23.35.6,1.13c.17.32,17.57,32.63,51.3,68.18,31.03,32.71,82.66,74.96,152.36,90.45,69.28,15.4,110.29,7.49,132.49-1.86,23.83-10.03,31.58-23.8,31.66-23.94l1.09-2,2.22.5c.49.11,48.94,10.94,85.13-16.94,25.41-19.57,39-53.33,40.4-100.34,1.14-38.04-50.36-58.79-50.88-59l2.2-5.58c2.16.85,50.17,20.17,54.4,57.95,61.52-59.53,71.66-117.05,69.15-155.21-2.8-42.46-21.4-70.9-21.59-71.18l-2.16-3.25,3.69-1.26c.23-.08,23.8-8.3,43.5-30.08,26.31-29.08,33.68-67.35,21.89-113.76l-.51-2.01,1.7-1.19c.71-.5,71.05-50.28,79.45-106,2.91-19.31-1.99-37.31-14.58-53.49-23.75-30.54-49.57-47.29-74.66-48.44-18.65-.85-30.34,7.12-30.45,7.2l-4.82,3.35.11-5.87c0-.15.14-15.87-8.88-32.67-12.04-22.42-33.91-36.13-65-40.74-39.04-5.8-63.42.14-77,6.14-14.58,6.45-20.12,14.34-20.18,14.42l-1.49,2.17-2.35-1.19c-.74-.38-74.83-37.75-115.36-12.85l-1.53.94-1.55-.91c-.48-.28-48.51-28.03-81.72-19.13-10.25,2.75-18.1,8.81-23.35,18.02l-.58,1.01-9.15,2.96c-30.44,9.85-63.72,3.63-89.02-16.64-23.67-18.97-46.8-26.94-68.73-23.71-22.98,3.39-44.45,19.38-63.79,47.52l-1,1.46-1.76-.17c-.11-.01-2.77-.25-6.95-.25Z"/>
  </g>
  <g>
    <ellipse class="cls-17" cx="170.83" cy="594.58" rx="109.09" ry="104.9"/>
    <path class="cls-20" d="m279.92,594.58c.58,42.72-28.31,82.51-67.69,98.06-70.32,28.94-153.26-19.99-153.49-98.06.22-78.09,83.16-127.03,153.5-98.07,39.38,15.55,68.27,55.34,67.69,98.07h0Zm0,0c.49-42.5-28.75-82.04-68.38-96.3-67.89-26.07-146.72,21.81-146.81,96.3-.54,57.2,49.86,103.32,106.1,103.4,57.62,1.34,109.39-44.65,109.09-103.4h0Z"/>
  </g>
  <g>
    <ellipse class="cls-17" cx="263.14" cy="846.33" rx="109.09" ry="104.9"/>
    <path class="cls-20" d="m372.23,846.33c.58,42.72-28.31,82.51-67.69,98.06-70.32,28.95-153.26-19.99-153.49-98.06.22-78.09,83.16-127.03,153.5-98.07,39.38,15.55,68.27,55.34,67.69,98.07h0Zm0,0c.49-42.5-28.75-82.04-68.38-96.3-67.89-26.07-146.72,21.81-146.81,96.3-.54,57.2,49.86,103.32,106.1,103.4,57.62,1.34,109.39-44.65,109.09-103.4h0Z"/>
  </g>
  <g>
    <ellipse class="cls-17" cx="162.44" cy="728.85" rx="109.09" ry="104.9"/>
    <path class="cls-20" d="m271.53,728.85c.58,42.72-28.31,82.51-67.69,98.06-70.32,28.95-153.26-19.99-153.49-98.06.22-78.09,83.16-127.03,153.5-98.07,39.38,15.55,68.27,55.34,67.69,98.07h0Zm0,0c.49-42.5-28.75-82.04-68.38-96.3-67.89-26.07-146.72,21.81-146.81,96.3-.54,57.2,49.86,103.32,106.1,103.4,57.62,1.34,109.39-44.65,109.09-103.4h0Z"/>
  </g>
  <g>
    <ellipse class="cls-17" cx="242.16" cy="475.96" rx="79.72" ry="76.66"/>
    <path class="cls-20" d="m321.88,475.96c.44,31.25-20.63,60.36-49.37,71.89-51.72,21.55-112.88-14.36-113.07-71.89.18-57.55,61.34-93.46,113.07-71.9,28.74,11.53,49.81,40.65,49.37,71.9h0Zm0,0c.34-31.03-21.07-59.89-50.06-70.14-49.28-18.67-106.34,16.18-106.38,70.14,0,53.93,57.08,88.84,106.39,70.15,28.99-10.25,50.4-39.11,50.06-70.15h0Z"/>
  </g>
  <g>
    <ellipse class="cls-17" cx="414.19" cy="833.74" rx="104.9" ry="109.09" transform="translate(-504.02 680.23) rotate(-54.09)"/>
    <path class="cls-20" d="m325.83,769.76c24.59-34.94,71.32-50.23,112.34-39.72,73.93,17.8,112.41,106.07,66.81,169.45-45.97,63.12-141.86,54.11-181.84-10.59-22.77-35.69-22.84-84.87,2.69-119.13h0Zm0,0c-25.32,34.14-24.83,83.31-1.1,118.1,39.7,60.93,131.63,68.39,175.39,8.1,33.99-46.01,20.21-112.93-25.29-145.98-45.89-34.88-114.79-28-149.01,19.77h0Z"/>
  </g>
  <g>
    <ellipse class="cls-17" cx="397.41" cy="980.6" rx="109.09" ry="104.9"/>
    <path class="cls-20" d="m506.5,980.6c.58,42.72-28.31,82.51-67.69,98.06-70.32,28.95-153.26-19.99-153.49-98.06.22-78.09,83.16-127.03,153.5-98.07,39.38,15.55,68.27,55.34,67.69,98.07h0Zm0,0c.49-42.5-28.75-82.04-68.38-96.3-67.89-26.07-146.72,21.81-146.81,96.3-.54,57.2,49.86,103.32,106.1,103.4,57.62,1.34,109.39-44.65,109.09-103.4h0Z"/>
  </g>
  <g>
    <ellipse class="cls-17" cx="112.09" cy="460.31" rx="109.09" ry="104.9"/>
    <path class="cls-20" d="m221.18,460.31c.58,42.72-28.31,82.51-67.69,98.06C83.17,587.31.23,538.38,0,460.31c.22-78.09,83.16-127.03,153.5-98.07,39.38,15.55,68.27,55.34,67.69,98.07h0Zm0,0c.49-42.5-28.75-82.04-68.38-96.3-67.89-26.07-146.72,21.81-146.81,96.3-.54,57.2,49.86,103.32,106.1,103.4,57.62,1.34,109.39-44.65,109.09-103.4h0Z"/>
  </g>
  <g>
    <ellipse class="cls-17" cx="126.2" cy="300.74" rx="109.09" ry="104.9"/>
    <path class="cls-20" d="m235.29,300.74c.58,42.72-28.31,82.51-67.69,98.06-70.32,28.95-153.26-19.99-153.49-98.06.22-78.09,83.16-127.03,153.5-98.07,39.38,15.55,68.27,55.34,67.69,98.07h0Zm0,0c.49-42.5-28.75-82.04-68.38-96.3-67.89-26.07-146.72,21.81-146.81,96.3-.54,57.2,49.86,103.32,106.1,103.4,57.62,1.34,109.39-44.65,109.09-103.4h0Z"/>
  </g>
  <g>
    <ellipse class="cls-17" cx="674.34" cy="837.94" rx="104.9" ry="109.09" transform="translate(-328.63 449.43) rotate(-30)"/>
    <path class="cls-20" d="m619.79,743.46c36.71-21.86,85.61-16.74,118.77,9.59,60.23,46.43,59.32,142.72-8.18,181.96-67.74,38.86-151.59-8.51-161.68-83.9-6.22-41.88,13.79-86.8,51.09-107.65h0Zm0,0c-37.05,20.83-56.67,65.92-49.21,107.37,11.37,71.83,92.25,116.16,156.81,78.99,49.81-28.13,64.55-94.84,36.5-143.58-27.65-50.57-93.36-72.41-144.1-42.77h0Z"/>
  </g>
  <g>
    <ellipse class="cls-17" cx="766.65" cy="661.71" rx="104.9" ry="109.09" transform="translate(-175.75 1032.52) rotate(-62.28)"/>
    <path class="cls-20" d="m670.08,610.96c19.36-38.09,63.44-59.87,105.54-55.31,75.72,7.09,126.37,88.99,90.25,158.21-36.52,69.02-132.71,73.76-181.5,15.4-27.62-32.08-34.69-80.75-14.29-118.3h0Zm0,0c-20.2,37.4-12.72,86,15.73,117.06,47.97,54.66,140.02,48.95,174.76-16.95,27.09-50.38,3.93-114.65-45.81-140.89-50.38-28-117.61-11.37-144.67,40.78h0Z"/>
  </g>
  <g>
    <ellipse class="cls-17" cx="775.05" cy="477.9" rx="109.09" ry="104.9"/>
    <path class="cls-20" d="m884.14,477.9c.58,42.72-28.31,82.51-67.69,98.06-70.32,28.95-153.26-19.99-153.49-98.06.22-78.09,83.16-127.03,153.5-98.07,39.38,15.55,68.27,55.34,67.69,98.07h0Zm0,0c.49-42.5-28.75-82.04-68.38-96.3-67.89-26.06-146.72,21.81-146.81,96.3-.54,57.2,49.86,103.32,106.1,103.4,57.62,1.34,109.39-44.65,109.09-103.4h0Z"/>
  </g>
  <g>
    <ellipse class="cls-17" cx="842.17" cy="334.43" rx="109.09" ry="104.9"/>
    <path class="cls-20" d="m951.27,334.43c.58,42.72-28.31,82.51-67.69,98.06-70.32,28.94-153.26-19.99-153.49-98.06.22-78.09,83.16-127.03,153.5-98.07,39.38,15.55,68.27,55.34,67.69,98.07h0Zm0,0c.49-42.5-28.75-82.04-68.38-96.3-67.89-26.07-146.72,21.81-146.81,96.3-.54,57.2,49.86,103.32,106.1,103.4,57.62,1.34,109.39-44.65,109.09-103.4h0Z"/>
  </g>
  <g>
    <ellipse class="cls-15" cx="665.95" cy="682.69" rx="56.73" ry="54.55"/>
    <path class="cls-15" d="m665.95,740.24c-32.93,0-59.73-25.82-59.73-57.55s26.79-57.55,59.73-57.55,59.73,25.82,59.73,57.55-26.79,57.55-59.73,57.55Zm0-109.09c-29.63,0-53.73,23.12-53.73,51.55s24.1,51.55,53.73,51.55,53.73-23.12,53.73-51.55-24.1-51.55-53.73-51.55Z"/>
  </g>
  <g>
    <ellipse class="cls-17" cx="481.33" cy="527.44" rx="109.09" ry="104.9"/>
    <path class="cls-20" d="m590.42,527.44c.58,42.72-28.31,82.51-67.69,98.06-70.32,28.95-153.26-19.99-153.49-98.06.22-78.09,83.16-127.03,153.5-98.07,39.38,15.55,68.27,55.34,67.69,98.07h0Zm0,0c.49-42.5-28.75-82.04-68.38-96.3-67.89-26.06-146.72,21.81-146.81,96.3-.54,57.2,49.86,103.32,106.1,103.4,57.62,1.34,109.39-44.65,109.09-103.4h0Z"/>
  </g>
  <g>
    <ellipse class="cls-15" cx="307.11" cy="685.76" rx="56.73" ry="54.55"/>
    <path class="cls-15" d="m307.11,743.3c-32.93,0-59.73-25.82-59.73-57.55s26.79-57.55,59.73-57.55,59.73,25.82,59.73,57.55-26.79,57.55-59.73,57.55Zm0-109.09c-29.63,0-53.73,23.12-53.73,51.55s24.1,51.55,53.73,51.55,53.73-23.12,53.73-51.55-24.1-51.55-53.73-51.55Z"/>
  </g>
  <g>
    <ellipse class="cls-17" cx="565.24" cy="947.03" rx="109.09" ry="104.9"/>
    <path class="cls-20" d="m456.15,947.09c-.6-42.72,28.27-82.53,67.64-98.09,70.31-28.98,153.27,19.91,153.54,97.98-.18,78.09-83.1,127.07-153.44,98.15-39.39-15.53-68.3-55.31-67.74-98.03h0Zm0,0c-.47,42.5,28.8,82.03,68.43,96.27,67.91,26.03,146.71-21.88,146.76-96.38.51-57.2-49.91-103.29-106.15-103.35-57.62-1.31-109.37,44.7-109.04,103.46h0Z"/>
  </g>
  <g>
    <ellipse class="cls-17" cx="279.92" cy="200.16" rx="109.09" ry="104.9"/>
    <path class="cls-20" d="m389.02,200.16c.58,42.72-28.31,82.51-67.69,98.06-70.32,28.94-153.26-19.99-153.49-98.06.22-78.09,83.16-127.03,153.5-98.07,39.38,15.55,68.27,55.34,67.69,98.07h0Zm0,0c.49-42.5-28.75-82.04-68.38-96.3-67.89-26.07-146.72,21.81-146.81,96.3-.54,57.2,49.86,103.32,106.1,103.4,57.62,1.34,109.39-44.65,109.09-103.4h0Z"/>
  </g>
  <g>
    <ellipse class="cls-17" cx="438.49" cy="258.35" rx="109.09" ry="104.9"/>
    <path class="cls-20" d="m547.58,258.35c.58,42.72-28.31,82.51-67.69,98.06-70.32,28.95-153.26-19.99-153.49-98.06.22-78.09,83.16-127.03,153.5-98.07,39.38,15.55,68.27,55.34,67.69,98.07h0Zm0,0c.49-42.5-28.75-82.04-68.38-96.3-67.89-26.07-146.72,21.81-146.81,96.3-.54,57.2,49.86,103.32,106.1,103.4,57.62,1.34,109.39-44.65,109.09-103.4h0Z"/>
  </g>
  <g>
    <ellipse class="cls-17" cx="707.9" cy="250.52" rx="109.09" ry="104.9"/>
    <path class="cls-20" d="m817,250.52c.58,42.72-28.31,82.51-67.69,98.06-70.32,28.95-153.26-19.99-153.49-98.06.22-78.09,83.16-127.03,153.5-98.07,39.38,15.55,68.27,55.34,67.69,98.07h0Zm0,0c.49-42.5-28.75-82.04-68.38-96.3-67.89-26.07-146.72,21.81-146.81,96.3-.54,57.2,49.86,103.32,106.1,103.4,57.62,1.34,109.39-44.65,109.09-103.4h0Z"/>
  </g>
  <g>
    <ellipse class="cls-17" cx="540.07" cy="292.47" rx="109.09" ry="104.9" transform="translate(-70.25 361.22) rotate(-34.86)"/>
    <path class="cls-20" d="m450.56,354.84c-24.9-34.72-23.94-83.89-.51-119.15,41.15-63.95,137.18-71.21,181.99-7.28,44.46,64.2,4.38,151.76-69.89,168.21-41.2,9.75-87.65-6.38-111.6-41.77h0Zm0,0c23.9,35.15,70.49,50.88,111.15,39.93,70.61-17.42,107.92-101.76,65.41-162.94-32.25-47.24-99.97-56.27-146.16-24.19-48.05,31.84-64.24,99.17-30.4,147.2h0Z"/>
  </g>
  <path class="cls-4" d="m766.65,833.74c2.01,35.87-19.67,86.4-58.65,93.16-5.74.82-11.51.59-16.87-.85,10.25-2.95,19.29-7.25,27.11-14.06,3.63-3.04,7.28-6.86,10.3-10.51,16.64-20.32,26.21-44.26,38.12-67.74h0Z"/>
  <path class="cls-4" d="m665.9,934.44c2.02,35.87-19.62,86.41-58.6,93.19-5.74.82-11.51.59-16.88-.84,10.25-2.95,19.28-7.26,27.1-14.08,3.63-3.04,7.28-6.86,10.29-10.51,16.63-20.32,26.18-44.27,38.08-67.76h0Z"/>
  <path class="cls-6" d="m480.52,1025.26c-17.62,31.31-63.09,62.22-99.58,46.93-5.28-2.4-10.01-5.7-13.76-9.8,10.23,3.04,20.16,4.27,30.42,2.74,4.7-.61,9.83-1.86,14.34-3.31,24.96-8.16,45.91-23.19,68.59-36.56h0Z"/>
  <path class="cls-2" d="m523.29,875.7c20.73-13.46,49.54-19.03,73.7-12.08,17.73,5.36,31.65,18.64,34.74,37.23.33,1.24.42,2.94.51,4.21.21,4.97.6,5.06-2.02.64-1.26-2.32-2.92-4.55-4.32-6.75,0,0-2.41-3.06-2.41-3.06-22.87-29.06-67.14-21.8-100.19-20.19h0Z"/>
  <path class="cls-3" d="m783.43,565.67c-35.58,4.98-87.73-12.42-97.71-50.71-1.3-5.65-1.54-11.42-.55-16.89,3.79,9.97,8.83,18.62,16.27,25.85,3.33,3.37,7.44,6.69,11.33,9.39,21.63,14.89,46.28,22.44,70.67,32.36h0Z"/>
  <path class="cls-7" d="m338.67,657.52c17.06,8.93,23.39,30.22,12.37,46.48-3.26,5-7.5,9.15-12.37,12.26,3.11-4.87,6.07-9.59,8.23-14.53,7.62-16.18,2.51-30.85-8.23-44.22h0Z"/>
  <path class="cls-7" d="m701.38,657.52c17.06,8.93,23.39,30.22,12.37,46.48-3.26,5-7.5,9.15-12.37,12.26,3.11-4.87,6.07-9.59,8.23-14.53,7.62-16.18,2.51-30.85-8.23-44.22h0Z"/>
  <g>
    <path class="cls-1" d="m559.22,526.62c2.46,26.73,8.72,51.11,17.37,70.78,0,0,8.73-8.59,26.18-8.4-6.62-40.59,15.4-67.81,15.4-67.81-40.96-40.47-11.47-124.54-11.47-124.54-32.56,3-53.82,61.19-47.48,129.97Z"/>
    <path d="m576.1,599.98l-.87-1.98c-9.05-20.56-15.1-45.2-17.5-71.25-3.08-33.48.2-65.55,9.24-90.31,9.18-25.12,23.24-39.79,39.6-41.3l2.33-.21-.77,2.2c-.29.83-28.7,83.65,11.11,122.98l.96.95-.85,1.06c-.22.27-21.52,27.21-15.09,66.62l.29,1.76-1.78-.02c-16.51-.17-25.03,7.89-25.11,7.98l-1.55,1.51Zm-15.38-73.5c2.3,24.96,7.98,48.59,16.46,68.49,3.21-2.41,11.13-7.18,23.85-7.46-5.11-35.37,11.28-60.75,15.18-66.18-16.42-16.93-23.55-43.76-20.62-77.71,1.82-21.02,7-38.97,8.95-45.16-14.17,2.54-26.44,16.28-34.75,39.03-8.89,24.34-12.12,55.95-9.07,89Z"/>
  </g>
  <g>
    <path d="m602.78,589c24.03-2.82,45.92,7.61,63.44,20.97,9.83-23.89,14.29-57.54,10.92-94.2-6.34-68.78-37.87-122.11-70.43-119.11,0,0-29.49,84.07,11.47,124.54,0,0-22.02,27.22-15.4,67.81Z"/>
    <path d="m666.43,610.75l-.52-.39c-21.33-16.26-42.55-23.28-63.08-20.87l-.47.06-.08-.47c-6.17-37.86,12.7-64.48,15.23-67.84-21-21.05-22.98-53.75-20.93-77.53,2.23-25.84,9.58-47.01,9.65-47.22l.11-.3.32-.03c32.78-3.02,64.62,50.62,70.97,119.56,3.24,35.22-.75,69.64-10.95,94.44l-.25.6Zm-55.67-22.73c18.1,0,36.64,7.09,55.24,21.14,9.96-24.6,13.84-58.58,10.63-93.36-6.28-68.17-37.43-121.28-69.56-118.69-.9,2.68-7.42,22.65-9.5,46.69-2.04,23.68-.07,56.26,20.95,77.03l.32.32-.28.35c-.22.27-21.63,27.31-15.37,66.94,2.51-.28,5.03-.42,7.56-.42Z"/>
  </g>
  <g>
    <path class="cls-1" d="m333.56,549.43c2.46,26.73,8.72,51.11,17.37,70.78,0,0,8.73-8.59,26.18-8.4-6.62-40.59,15.4-67.81,15.4-67.81-40.96-40.47-11.47-124.54-11.47-124.54-32.56,3-53.82,61.19-47.48,129.97Z"/>
    <path d="m350.43,622.79l-.87-1.98c-9.05-20.56-15.1-45.2-17.49-71.25-3.08-33.48.2-65.55,9.24-90.31,9.18-25.12,23.24-39.79,39.6-41.3l2.33-.21-.77,2.2c-.29.83-28.7,83.65,11.11,122.98l.96.95-.85,1.06c-.22.27-21.52,27.21-15.09,66.62l.29,1.76-1.78-.02c-16.57-.19-25.03,7.89-25.11,7.98l-1.55,1.51Zm-15.38-73.5c2.3,24.96,7.98,48.59,16.46,68.49,3.21-2.41,11.13-7.18,23.85-7.46-5.11-35.38,11.28-60.75,15.18-66.18-16.42-16.93-23.55-43.76-20.62-77.72,1.82-21.02,7-38.97,8.95-45.16-14.17,2.54-26.44,16.28-34.75,39.03-8.89,24.34-12.12,55.95-9.07,89Z"/>
  </g>
  <g>
    <path d="m377.11,611.8c24.03-2.82,45.92,7.61,63.44,20.97,9.83-23.89,14.29-57.54,10.92-94.2-6.34-68.78-37.87-122.11-70.43-119.11,0,0-29.49,84.07,11.47,124.54,0,0-22.02,27.22-15.4,67.81Z"/>
    <path d="m440.77,633.56l-.52-.39c-21.33-16.26-42.55-23.28-63.08-20.87l-.48.06-.08-.47c-6.17-37.86,12.7-64.48,15.23-67.84-21-21.05-22.98-53.75-20.93-77.53,2.23-25.84,9.58-47.01,9.65-47.22l.11-.3.32-.03c32.78-3.02,64.62,50.62,70.97,119.56,3.24,35.22-.75,69.64-10.95,94.44l-.25.6Zm-55.67-22.73c18.1,0,36.64,7.09,55.24,21.14,9.96-24.6,13.84-58.58,10.63-93.36-6.28-68.17-37.44-121.28-69.56-118.69-.9,2.68-7.42,22.65-9.5,46.69-2.04,23.68-.07,56.26,20.95,77.03l.32.32-.28.35c-.22.27-21.63,27.31-15.37,66.94,2.51-.28,5.03-.42,7.56-.42Z"/>
  </g>
  <g>
    <path id="eyelid" class="cls-15" d="m443.44,447.81c-47.18,44.61-89.14,13.8-111.96-11.85-7.85-8.82-.62-22.64,11.14-21.36l92.87,10.1c11.41,1.24,16.27,15.24,7.95,23.11Z"/>
    <path class="cls-15" d="m394.14,473.43c-.85,0-1.71-.02-2.57-.06-26.49-1.15-48.52-19.9-62.33-35.42-4.45-5.01-5.31-11.82-2.24-17.78,3.05-5.92,9.31-9.28,15.95-8.56l92.87,10.1c6.5.71,11.84,5,13.93,11.2,2.06,6.11.43,12.65-4.24,17.07-16.46,15.57-33.73,23.45-51.36,23.45Zm-53.04-55.92c-4.38,0-7.37,2.71-8.76,5.41-1.5,2.9-1.92,7.32,1.39,11.04,13.04,14.66,33.71,32.36,58.11,33.42,16.83.73,33.51-6.59,49.55-21.76l2.06,2.18-2.06-2.18c3-2.83,4-6.87,2.68-10.8-1.33-3.96-4.74-6.69-8.89-7.15l-92.87-10.1c-.41-.04-.81-.07-1.2-.07Z"/>
  </g>
  <g>
    <path id="eyelid-2" data-name="eyelid" class="cls-15" d="m663.31,397.3c-25.87,68.07-83.17,57.23-118.66,42.32-12.21-5.13-11.65-22.63.83-27.04l98.57-34.82c12.11-4.28,23.82,7.54,19.26,19.55Z"/>
    <path class="cls-15" d="m593.72,453.74c-18.35,0-36.36-5.53-50.24-11.36-6.8-2.86-10.9-9.22-10.68-16.61.22-7.42,4.69-13.56,11.68-16.03l98.57-34.82c6.75-2.39,14.07-.68,19.09,4.46,4.97,5.09,6.49,12.36,3.98,18.98-9.43,24.81-23.83,41.52-42.81,49.65-9.56,4.1-19.62,5.73-29.58,5.73Zm55.42-73.87c-1.37,0-2.75.23-4.1.71l-98.57,34.82c-5.49,1.94-7.57,6.72-7.68,10.54-.11,3.8,1.67,8.66,7.01,10.9,20.35,8.55,49.91,16.47,75.14,5.65,17.42-7.47,30.73-23.04,39.56-46.27h0c1.7-4.48.71-9.21-2.66-12.66-2.36-2.42-5.48-3.71-8.7-3.71Z"/>
  </g>
  <g id="mouth">
    <path class="cls-9" d="m446.83,725.68l-6.69-2.06c.85-2.77,21.31-67.9,61.42-74.16,22.54-3.52,46.26,12.34,70.49,47.14l-5.74,4c-22.57-32.41-43.99-47.29-63.65-44.22-35.8,5.58-55.62,68.67-55.82,69.31Z"/>
    <path class="cls-9" d="m470.58,729.15h-50.36c-2.49,0-4.5-2.01-4.5-4.5s2.01-4.5,4.5-4.5h50.36c2.49,0,4.5,2.01,4.5,4.5s-2.01,4.5-4.5,4.5Z"/>
    <path class="cls-9" d="m548.59,712.23c-1.71,0-3.34-.97-4.09-2.63-1.04-2.26-.04-4.93,2.22-5.97l41.83-19.17c2.26-1.03,4.93-.04,5.97,2.22,1.04,2.26.04,4.93-2.22,5.97l-41.83,19.17c-.61.28-1.24.41-1.87.41Z"/>
  </g>
  <path class="cls-10" d="m589.05,618.97c11.04-14.19,33.64-20.79,49.06-9.58,4.99,3.64,8.79,8.49,11.05,13.91-8.16-6.6-16.47-11.93-26.85-12.53-11.55-.7-22.54,3.56-33.26,8.21h0Z"/>
  <path class="cls-12" d="m506.5,581.99c18.92,8.75,36.26,32.26,23.8,52.85-3.86,6.24-9.32,11-15.41,14.29,4.54-5.23,8.63-10.61,11.22-16.45,8.58-19.28-6.68-37.37-19.61-50.68h0Z"/>
  <path class="cls-5" d="m422.58,498.07c19.33,24.6,23.25,64.67,8.39,92.31.69-8.06,1.35-15.81,1.49-23.55.53-23.4-3.44-46.21-9.89-68.76h0Z"/>
  <path class="cls-5" d="m646.59,481.29c19.33,24.6,23.25,64.67,8.39,92.31.69-8.06,1.35-15.81,1.49-23.55.53-23.4-3.44-46.21-9.89-68.76h0Z"/>
  <path class="cls-13" d="m36.56,405.76c1.02,33.24-4.27,77.36,14.68,105.6,2.88,4.19,6.41,8.04,10.5,11.89-5.47-1.11-10.74-3.61-15.42-7.08-30.67-23.93-26.85-79.4-9.76-110.41h0Z"/>
  <path class="cls-13" d="m78.52,682.69c1.02,33.24-4.27,77.36,14.68,105.6,2.88,4.19,6.41,8.04,10.5,11.89-5.47-1.11-10.74-3.61-15.42-7.08-30.67-23.93-26.85-79.41-9.76-110.41h0Z"/>
  <path class="cls-13" d="m54.47,237.17c-4.31,32.97-16.59,75.68-2.39,106.59,2.17,4.59,5.04,8.96,8.46,13.41-5.22-1.97-10.02-5.28-14.09-9.45-26.45-28.53-13.81-82.68,8.02-110.55h0Z"/>
  <path class="cls-11" d="m86.91,573.6c3.26,17.81.45,34.75,2,52.3.64,5.72,1.92,10.39,6.39,14.84-7.22,1.11-14.02-5.21-16.87-11.42-8.06-16.94-3.33-41.61,8.48-55.71h0Z"/>
  <path class="cls-13" d="m78.52,540.03c19.89,11.4,42.62,9.04,64.27,4.59,7.48-1.44,15.05-3.29,23.39-4.41-16.95,18.51-45.81,27.99-69.67,17.63-7.76-3.62-15.12-9.54-17.99-17.81h0Z"/>
  <path class="cls-13" d="m137.26,821.15c14.37.3,28.21-1.92,42.04-5.23,8.54-2.14,16.98-4.62,25.4-7.22,5.54-1.5,10.58-3.31,16.49-4.33-14,19.03-38.88,29.65-62.33,26.42-7.81-1.25-15.88-3.94-21.58-9.63h0Z"/>
  <path class="cls-13" d="m103.7,393.17c14.37.3,28.21-1.92,42.04-5.23,8.54-2.14,16.98-4.62,25.4-7.22,5.54-1.5,10.58-3.31,16.49-4.33-14,19.03-38.88,29.65-62.33,26.42-7.81-1.25-15.88-3.94-21.58-9.63h0Z"/>
  <path class="cls-13" d="m247.65,113.84c-18.67,27.52-48.83,60.15-50.04,94.14-.13,5.08.48,10.27,1.53,15.78-3.78-4.1-6.58-9.22-8.34-14.77-10.81-37.37,24.82-80.06,56.85-95.15h0Z"/>
  <path class="cls-13" d="m174.48,882.74c26.15,20.54,56.61,52.9,90.43,56.47,5.06.48,10.28.24,15.85-.43-4.36,3.48-9.65,5.92-15.32,7.29-38.04,8.18-78.14-30.34-90.96-63.33h0Z"/>
  <g class="cls-8">
    <path class="cls-14" d="m824.8,65.65s-149.94,152.43-172.27,143.9"/>
    <path class="cls-18" d="m824.8,65.65c-31.56,35.2-65.42,68.31-101.11,99.31-18.13,15.15-36.31,30.83-57.45,41.69-4.21,1.8-9.06,4.38-13.71,2.9,2.3.65,4.66-.16,6.8-.98,2.17-.86,4.24-1.96,6.26-3.14,8.06-4.8,15.5-10.61,22.81-16.47,10.98-8.88,21.64-18.14,32.17-27.56,34.95-31.12,69.55-64.3,104.22-95.74h0Z"/>
  </g>
</svg>