<svg xmlns="http://www.w3.org/2000/svg" width="39.171" height="39.171" viewBox="0 0 39.171 39.171">
  <path id="health_sign" data-name="health sign" d="M39.891,13.777a.818.818,0,0,0-.816-.816H28.466a.818.818,0,0,1-.816-.816V1.536A.818.818,0,0,0,26.834.72H13.777a.818.818,0,0,0-.816.816V12.145a.818.818,0,0,1-.816.816H1.536a.818.818,0,0,0-.816.816V26.834a.818.818,0,0,0,.816.816H12.145a.818.818,0,0,1,.816.816V39.075a.818.818,0,0,0,.816.816H26.834a.818.818,0,0,0,.816-.816V28.466a.818.818,0,0,1,.816-.816H39.075a.818.818,0,0,0,.816-.816Z" transform="translate(-0.72 -0.72)" fill="#f25cad"/>
</svg>
