<svg xmlns="http://www.w3.org/2000/svg" width="40.805" height="35.705" viewBox="0 0 40.805 35.705">
  <path id="heart_beat" data-name="heart beat" d="M25.518,19.129l-3.961,7.922a1.274,1.274,0,0,1-2.3-.048L14.719,16.938l-2.391,5.714H4.83L19.374,37.515a1.42,1.42,0,0,0,2.048,0L35.974,22.652H27.279ZM37.751,5.59l-.191-.2a10.44,10.44,0,0,0-14.935,0L20.4,7.67,18.178,5.4a10.426,10.426,0,0,0-14.935,0l-.191.191A10.942,10.942,0,0,0,2.471,20.1h8.161l2.861-6.87a1.278,1.278,0,0,1,2.343-.032l4.638,10.3,3.9-7.8a1.273,1.273,0,0,1,2.279,0l2.2,4.4h9.476A10.942,10.942,0,0,0,37.751,5.59Z" transform="translate(0.001 -2.246)" fill="#f25cad"/>
</svg>
