<svg id="Instagram_Hover" data-name="Instagram Hover" xmlns="http://www.w3.org/2000/svg" width="34" height="31" viewBox="0 0 34 31">
  <path id="Instagram_Icon" data-name="Instagram Icon" d="M17,9.79c-4.824,0-8.715,3.549-8.715,7.948S12.174,25.686,17,25.686s8.715-3.549,8.715-7.948S21.823,9.79,17,9.79ZM17,22.9a5.444,5.444,0,0,1-5.666-5.167A5.439,5.439,0,0,1,17,12.57a5.439,5.439,0,0,1,5.666,5.167A5.444,5.444,0,0,1,17,22.9ZM28.1,9.465a2.041,2.041,0,0,1-4.066,0,2.041,2.041,0,0,1,4.066,0Zm5.772,1.882a8.742,8.742,0,0,0-2.746-6.5c-1.987-1.812-4.4-2.38-7.122-2.5C21.2,2.2,12.789,2.2,9.982,2.347a10.676,10.676,0,0,0-7.122,2.5,8.771,8.771,0,0,0-2.746,6.5c-.159,2.559-.159,10.231,0,12.79a8.742,8.742,0,0,0,2.746,6.5c1.995,1.812,4.4,2.38,7.122,2.5,2.806.145,11.218.145,14.025,0,2.723-.118,5.135-.685,7.122-2.5a8.8,8.8,0,0,0,2.746-6.5c.159-2.559.159-10.224,0-12.783ZM30.25,26.875a5.509,5.509,0,0,1-3.231,2.947c-2.238.809-7.547.623-10.02.623s-7.79.18-10.02-.623a5.51,5.51,0,0,1-3.231-2.947c-.887-2.041-.683-6.883-.683-9.138s-.2-7.1.683-9.138A5.509,5.509,0,0,1,6.979,5.653c2.238-.809,7.547-.623,10.02-.623s7.79-.18,10.02.623A5.51,5.51,0,0,1,30.25,8.6c.887,2.041.683,6.883.683,9.138S31.137,24.842,30.25,26.875Z" transform="translate(0.005 -2.238)" fill="#f4a8d1"/>
</svg>
