<svg id="Twitter_Icon" data-name="Twitter Icon" xmlns="http://www.w3.org/2000/svg" width="34" height="31" viewBox="0 0 34 31">
  <path id="Linkedin_Icon" data-name="Linkedin Icon" d="M31.571,2.25H2.421A2.336,2.336,0,0,0,0,4.485v26.53A2.336,2.336,0,0,0,2.421,33.25h29.15A2.343,2.343,0,0,0,34,31.015V4.485A2.343,2.343,0,0,0,31.571,2.25Zm-21.3,26.571H5.237V14.027h5.047V28.821ZM7.756,12.007A2.8,2.8,0,0,1,4.834,9.343,2.8,2.8,0,0,1,7.756,6.679a2.808,2.808,0,0,1,2.922,2.664A2.8,2.8,0,0,1,7.756,12.007ZM29.166,28.821H24.126v-7.2c0-1.716-.038-3.923-2.618-3.923-2.626,0-3.028,1.868-3.028,3.8v7.321H13.441V14.027h4.834v2.021h.068a5.419,5.419,0,0,1,4.774-2.387c5.1,0,6.049,3.065,6.049,7.051Z" transform="translate(0 -2.25)" fill="#f4a8d1"/>
</svg>
