<?xml version="1.0" encoding="UTF-8"?>
<svg id="Squeezit_Logo_Pattern" data-name="Squeezit Logo Pattern" xmlns="http://www.w3.org/2000/svg" viewBox="0 0 310.42 69.2">
  <defs>
    <style>
      .cls-1 {
        fill: #fc932b;
      }

      .cls-2 {
        fill: #569e3b;
      }

      .cls-3 {
        fill: #ffed6b;
      }

      .cls-4 {
        fill: #d85d86;
      }

      .cls-5 {
        fill: #fdb556;
      }

      .cls-6 {
        fill: #f2688f;
      }

      .cls-7 {
        fill: #ffe109;
      }

      .cls-8 {
        fill: #32a000;
      }

      .cls-9 {
        fill: #c67fff;
      }

      .cls-10 {
        fill: #d7fbff;
        opacity: .33;
      }

      .cls-11 {
        fill: #bc557d;
      }

      .cls-12 {
        fill: #ffc988;
      }

      .cls-13 {
        fill: none;
      }

      .cls-14 {
        fill: #f4a8d1;
      }

      .cls-15 {
        fill: #63c244;
      }

      .cls-16 {
        fill: #b6784e;
      }
    </style>
  </defs>
  <path class="cls-14" d="m307.54,21.18c.06.11.11.21.15.31,1.15-.35,2.06-1.28,2.73-2.28v-.08c0-.4-.32-.73-.73-.73h-3.88c1.02.99,1.81,2.18,1.72,2.78Z"/>
  <path class="cls-14" d="m307.11,41.49s-.08.02-.13.03c-.34.98-1.02,1.85-2.01,2.38-.73.39-1.52.54-2.29.49,1.97.17,3.8-1.02,4.42-2.9Z"/>
  <path class="cls-10" d="m307.11,41.49s-.08.02-.13.03c-.34.98-1.02,1.85-2.01,2.38-.73.39-1.52.54-2.29.49,1.97.17,3.8-1.02,4.42-2.9Z"/>
  <path class="cls-2" d="m307.3,21.51c-.06.03-.1.06-.14.09.18-.03.36-.07.53-.12-.04-.1-.09-.2-.15-.31-.02.15-.09.27-.24.33Z"/>
  <path class="cls-2" d="m309.51,24.52c.45.13.91-.19.91-.68v-.06c-.34.29-.65.53-.91.73Z"/>
  <path class="cls-9" d="m306.99,41.52s.08-.02.13-.03c1.38-.26,2.54-1.18,3.11-2.45-.16-1.33-.77-2.05-2.31-.91-.62.46-1.12,1.09-1.42,1.8-.22.52-.35,1.08-.54,1.62.05,0,.1.02.15.02.31.02.61,0,.9-.05Z"/>
  <path class="cls-13" d="m196.97,31.16c-.24,1.36-.39,2.65-.44,3.88-.01.33-.02.65-.02.95-.01,1.18.97,2.13,2.15,2.08,1.92-.09,3.52-.25,4.8-.48.57-.11,1.09-.24,1.57-.39.41-.13.78-.27,1.13-.43.11-.05.23-.1.34-.16.33-.18.65-.36.91-.58.92-.73,1.55-1.67,1.89-2.83.34-1.16.53-2.61.58-4.35.04-1.02,0-2.03-.12-3.03-.01-.09-.01-.18-.02-.27,0-.04-.02-.07-.02-.11-.15-1.04-.4-1.97-.78-2.79-.37-.8-.87-1.46-1.5-1.98-.03-.03-.06-.06-.1-.09-.68-.53-1.55-.8-2.61-.8s-2.11.34-2.98,1.02c-.16.13-.32.27-.48.41-.05.05-.11.09-.16.14-.6.58-1.14,1.28-1.61,2.09-.59,1.02-1.08,2.18-1.48,3.44-.02.08-.06.15-.08.23-.41,1.36-.74,2.71-.98,4.06Z"/>
  <path class="cls-13" d="m70.06,34.03c0-.07,0-.13-.02-.2-.01-.07-.03-.14-.04-.21-.21-1.09-.49-2.13-1.04-2.94-.06-.08-.11-.17-.17-.25-.33-.4-.75-.73-1.28-.96-.16-.07-.31-.14-.48-.19-1.68-.48-4.12-.38-5.31,1.08-.3.37-.53.85-.69,1.39-.17.56-.28,1.17-.35,1.8-.14,1.24-.12,2.52-.12,3.44,0,2.34.35,4.17,1.05,5.5.12.24.26.46.4.67.09.13.18.24.27.35.9,1.12,1.89,1.68,2.99,1.68,1.02,0,1.98-.48,2.9-1.45.9-.95,1.53-2.42,1.87-4.4.01-.06.02-.13.02-.19v-5.1Z"/>
  <path class="cls-13" d="m153.88,24.09c-.2.35-.37.73-.55,1.11-.38.8-.73,1.64-1.01,2.56-.41,1.35-.74,2.71-.98,4.06-.06.32-.09.63-.14.94-.15,1.01-.26,2-.3,2.94-.01.33-.02.65-.02.95-.01,1.18.97,2.13,2.15,2.08,1.92-.09,3.52-.25,4.8-.48,1.23-.22,2.24-.56,3.06-.99.33-.17.63-.36.89-.57.92-.73,1.55-1.67,1.89-2.83.21-.72.35-1.55.45-2.49.06-.58.11-1.2.13-1.87.02-.37,0-.74,0-1.11-.01-.73-.05-1.46-.15-2.19-.14-1.09-.41-2.06-.8-2.9-.39-.85-.92-1.54-1.6-2.07-.68-.53-1.55-.8-2.61-.8s-2.11.34-2.98,1.02c-.66.51-1.24,1.14-1.76,1.88-.17.24-.33.5-.49.76Z"/>
  <g>
    <path class="cls-1" d="m1.45,53.69c-.14.29-.21.57-.22.85.07-.29.14-.57.22-.85Z"/>
    <path class="cls-14" d="m12.51,28.29c2.51.86,5.19,1.61,8.04,2.26,2.64.6,4.69,1.4,6.14,2.41,1.45,1.01,2.4,2.04,2.84,3.07.44,1.03.39,1.97-.17,2.82-.56.84-1.53,1.42-2.9,1.73-1.22.26-2.54.38-3.97.38-.15,0-.32,0-.48-.01,4.57,1.02,12.46,6.83,16.81,12.91.56-.64,1.05-1.37,1.46-2.18.8-1.58,1.21-3.59,1.22-6.02.01-2.43-.56-4.53-1.71-6.28-1.16-1.75-2.7-3.25-4.62-4.51-1.93-1.25-4.13-2.29-6.61-3.13-2.48-.83-5.07-1.54-7.76-2.14-2.8-.65-4.94-1.48-6.41-2.49-1.48-1.01-2.4-2.02-2.76-3.03-.37-1.01-.23-1.93.41-2.78.64-.84,1.65-1.42,3.02-1.73,1.22-.26,2.54-.38,3.97-.38.99,0,2.08.07,3.24.19l-3.46-3.46c-.26-.26-.5-.54-.72-.83l-.08-.08c-.72-.72-1.31-1.55-1.73-2.46-1.61-3.52-1.68-7.4-.17-10.28-.32,0-.64,0-.97,0-2.12-.01-4.09.17-5.91.53-1.83.36-3.42,1-4.77,1.92-1.35.92-2.43,2.17-3.23,3.75S.01,12.07,0,14.5c-.01,2.43.52,4.51,1.6,6.24,1.08,1.72,2.54,3.2,4.38,4.42,1.84,1.23,4.02,2.27,6.53,3.13Z"/>
    <path class="cls-14" d="m19.41,40.78c-.56-.06-1.13-.12-1.72-.2-3.31-.46-6.38-1.75-9.74-1-.63.14-1.26.34-1.77.73-.44.34-.77.85-.81,1.39,0,.09,0,.18,0,.27.05.52.37.95.67,1.38,4.28-2.34,8.7-2.56,13.37-2.57Z"/>
    <path class="cls-1" d="m22,40.94c-.81-.02-1.68-.07-2.6-.17-4.67.02-9.09.23-13.37,2.57.09.12.17.24.25.36.41.63.66,1.36.75,2.1,4.21-3.13,8.55-3.14,13.24-3.14,3.94,0,13.32,7.12,15.9,13.27.3-.16.59-.33.86-.52.65-.44,1.24-.97,1.77-1.57-4.35-6.08-12.24-11.9-16.81-12.91Z"/>
    <path class="cls-1" d="m18.44,57.83h2.57c-.14-.06-.29-.12-.44-.17-.7-.22-1.44-.11-2.13.17Z"/>
    <path class="cls-5" d="m20.28,42.67c-4.69,0-9.04.01-13.24,3.14.17,1.35-.18,2.76-1.03,3.82-1.21,1.51-3.55,2.21-4.5,3.9-.03.05-.05.1-.07.15-.08.28-.15.56-.22.85-.09,1.73,1.95,3.22,3.74,3.23l4.11.02c.2-1.68.87-3.44,1.47-4.13,3.04-3.46,6.15-3.46,9.59-3.46,2.44,0,8.6,4.32,9.27,7.56.99-.09,1.95-.22,2.87-.4,1.45-.29,2.75-.76,3.91-1.4-2.59-6.15-11.97-13.27-15.9-13.27Z"/>
    <path class="cls-12" d="m20.14,50.19c-3.44,0-6.56,0-9.59,3.46-.6.69-1.27,2.45-1.47,4.13l9.37.05c.69-.27,1.43-.38,2.13-.17.15.05.3.11.44.18l5.35.03c1.05,0,2.06-.04,3.04-.12-.67-3.24-6.83-7.56-9.27-7.56Z"/>
    <path class="cls-4" d="m18.08,15.11c.23.29.46.57.72.83l3.46,3.46s.08,0,.12.01l-4.3-4.3Z"/>
    <path class="cls-6" d="m16.27,12.57c.42.92,1.02,1.75,1.73,2.46l.08.08,4.3,4.3c.47.05.95.11,1.45.18.47.07.98.16,1.5.27-.1-.23-.16-.51-.16-.83,0-.76.36-1.38.8-1.38.14,0,.26.06.37.17.39.09.69.66.69,1.36,0,.39-.1.74-.25.99,2.87.62,6.06,1.23,8.32-.43.44-.32.81-.73,1.18-1.13,1.48-1.61,3.33-2.79,1.75-5.05-.13-.18-.27-.35-.42-.51,0,0,0,0,0,0-.14,0-.26-.06-.37-.17-.31-.07-.55-.44-.65-.94-.07-.08-.14-.16-.2-.25-.48-.67-.72-1.65-.22-2.31.27-.35.7-.54,1.07-.79,1.08-.73,1.67-2.1,1.47-3.38-.22-1.37-1.22-2.17-2.57-2.62.49,2.26-1.76,5.22-1.76,5.22,0,0-.09-.27-.36-.64-.04.06-.07.09-.07.09,0,0-.06-.18-.22-.44-.37-.4-.93-.84-1.79-1.21-.53-.22-.89-.59-1.13-1.01-.72-.69-.9-1.74-.92-2.49-.46.02-.9.05-1.33.08-.52.27-1.13.7-1.8,1.4-2.05,2.13-7.48-.66-7.48-.66,0,0,.18-.02.49-.13-.56-.23-.91-.42-.91-.42,0,0,.15-.02.38-.1-1.04,0-2.08-.01-3.12-.02-1.51,2.89-1.44,6.77.17,10.28Zm3.24,2.08c-.14,0-.26-.06-.37-.17-.39-.09-.69-.66-.69-1.36,0-.76.36-1.38.8-1.38.14,0,.26.06.37.17.39.09.69.66.69,1.36,0,.76-.36,1.38-.8,1.38Zm3.51-7.25c0-.76.36-1.38.8-1.38.14,0,.26.06.37.17.39.09.69.66.69,1.36,0,.76-.36,1.38-.8,1.38-.14,0-.26-.06-.37-.17-.39-.09-.69-.66-.69-1.36Zm5.56,8.61c-.14,0-.26-.06-.37-.17-.39-.09-.69-.66-.69-1.36,0-.76.36-1.38.8-1.38.14,0,.26.06.37.17.39.09.69.66.69,1.36,0,.76-.36,1.38-.8,1.38Zm4.57,3.24c-.14,0-.26-.06-.37-.17-.39-.09-.69-.66-.69-1.36,0-.76.36-1.38.8-1.38.14,0,.26.06.37.17.39.09.69.66.69,1.36,0,.76-.36,1.38-.8,1.38Zm.06-5.91c-.14,0-.26-.06-.37-.17-.39-.09-.69-.66-.69-1.36,0-.76.36-1.38.8-1.38.14,0,.26.06.37.17.39.09.69.66.69,1.36,0,.76-.36,1.38-.8,1.38Zm-3.61-7.25c.14,0,.26.06.37.17.39.09.69.66.69,1.36,0,.76-.36,1.38-.8,1.38-.14,0-.26-.06-.37-.17-.39-.09-.69-.66-.69-1.36,0-.76.36-1.38.8-1.38Zm-4.98,8.13c-.14,0-.26-.06-.37-.17-.39-.09-.69-.66-.69-1.36,0-.76.36-1.38.8-1.38.14,0,.26.06.37.17.39.09.69.66.69,1.36,0,.76-.36,1.38-.8,1.38Zm-6.04-8.05c.14,0,.26.06.37.17.39.09.69.66.69,1.36,0,.76-.36,1.38-.8,1.38-.14,0-.26-.06-.37-.17-.39-.09-.69-.66-.69-1.36,0-.76.36-1.38.8-1.38Z"/>
    <path class="cls-8" d="m34.01,7.17c.27.37.36.64.36.64,0,0,2.25-2.96,1.76-5.22-.12-.04-.24-.07-.37-.1.13,1.95-1.41,4.22-1.75,4.69Z"/>
    <path class="cls-8" d="m31.5,5.08c-.28-.12-.51-.28-.7-.46.25.42.6.79,1.13,1.01.86.36,1.42.81,1.79,1.21-.29-.47-.92-1.21-2.22-1.75Z"/>
    <path class="cls-8" d="m19.75,2.81c-.3.1-.49.13-.49.13,0,0,5.43,2.79,7.48.66.67-.69,1.28-1.12,1.8-1.4-.5.03-.97.06-1.39.09-.27.21-.55.46-.84.76-1.53,1.59-4.93.44-6.57-.24Z"/>
    <path class="cls-15" d="m19.75,2.81c1.64.69,5.04,1.83,6.57.24.29-.3.57-.55.84-.76-.43.02-.83.04-1.16.04-2.26-.01-4.52-.02-6.78-.03-.23.07-.38.1-.38.1,0,0,.35.18.91.42Z"/>
    <path class="cls-15" d="m31.5,5.08c1.3.54,1.93,1.28,2.22,1.75.16.26.22.44.22.44,0,0,.03-.04.07-.09.34-.47,1.88-2.73,1.75-4.69-1.72-.47-3.91-.47-5.89-.36.03.75.21,1.81.92,2.49.19.19.42.35.7.46Z"/>
    <path class="cls-11" d="m19.38,7.54c0,.76-.36,1.38-.8,1.38-.04,0-.07-.01-.11-.02.11.1.24.17.37.17.44,0,.8-.62.8-1.38,0-.69-.3-1.26-.69-1.36.25.23.42.68.42,1.21Z"/>
    <path class="cls-4" d="m18.47,8.9s.07.02.11.02c.44,0,.8-.62.8-1.38,0-.53-.17-.98-.42-1.21-.11-.1-.24-.17-.37-.17-.44,0-.8.62-.8,1.38,0,.69.3,1.26.69,1.36Z"/>
    <path class="cls-11" d="m19.62,11.91c.25.23.42.68.42,1.21,0,.76-.36,1.38-.8,1.38-.04,0-.07-.01-.11-.02.11.1.24.17.37.17.44,0,.8-.62.8-1.38,0-.69-.3-1.26-.69-1.36Z"/>
    <path class="cls-4" d="m20.04,13.12c0-.53-.17-.98-.42-1.21-.11-.1-.24-.17-.37-.17-.44,0-.8.62-.8,1.38,0,.69.3,1.26.69,1.36.04,0,.07.02.11.02.44,0,.8-.62.8-1.38Z"/>
    <path class="cls-11" d="m24.73,11.49c.25.23.42.68.42,1.21,0,.76-.36,1.38-.8,1.38-.04,0-.07-.01-.11-.02.11.1.24.17.37.17.44,0,.8-.62.8-1.38,0-.69-.3-1.26-.69-1.36Z"/>
    <path class="cls-4" d="m25.15,12.7c0-.53-.17-.98-.42-1.21-.11-.1-.24-.17-.37-.17-.44,0-.8.62-.8,1.38,0,.69.3,1.26.69,1.36.04,0,.07.02.11.02.44,0,.8-.62.8-1.38Z"/>
    <path class="cls-11" d="m28.69,13.27c.25.23.42.68.42,1.21,0,.76-.36,1.38-.8,1.38-.04,0-.07-.01-.11-.02.11.1.24.17.37.17.44,0,.8-.62.8-1.38,0-.69-.3-1.26-.69-1.36Z"/>
    <path class="cls-4" d="m29.11,14.48c0-.53-.17-.98-.42-1.21-.11-.1-.24-.17-.37-.17-.44,0-.8.62-.8,1.38,0,.69.3,1.26.69,1.36.04,0,.07.02.11.02.44,0,.8-.62.8-1.38Z"/>
    <path class="cls-11" d="m26.33,17.82c.25.23.42.68.42,1.21,0,.44-.12.82-.3,1.07.11.02.21.05.32.07.15-.25.25-.6.25-.99,0-.69-.3-1.26-.69-1.36Z"/>
    <path class="cls-4" d="m26.33,17.82c-.11-.1-.24-.17-.37-.17-.44,0-.8.62-.8,1.38,0,.31.06.6.16.83.37.08.74.16,1.13.24.18-.25.3-.64.3-1.07,0-.53-.17-.98-.42-1.21Z"/>
    <path class="cls-11" d="m24.62,7.39c0,.76-.36,1.38-.8,1.38-.04,0-.07-.01-.11-.02.11.1.24.17.37.17.44,0,.8-.62.8-1.38,0-.69-.3-1.26-.69-1.36.25.23.42.68.42,1.21Z"/>
    <path class="cls-4" d="m23.82,8.77c.44,0,.8-.62.8-1.38,0-.53-.17-.98-.42-1.21-.11-.1-.24-.17-.37-.17-.44,0-.8.62-.8,1.38,0,.69.3,1.26.69,1.36.04,0,.07.02.11.02Z"/>
    <path class="cls-11" d="m30.39,7.47c0,.76-.36,1.38-.8,1.38-.04,0-.07-.01-.11-.02.11.1.24.17.37.17.44,0,.8-.62.8-1.38,0-.69-.3-1.26-.69-1.36.25.23.42.68.42,1.21Z"/>
    <path class="cls-4" d="m29.48,8.82s.07.02.11.02c.44,0,.8-.62.8-1.38,0-.53-.17-.98-.42-1.21-.11-.1-.24-.17-.37-.17-.44,0-.8.62-.8,1.38,0,.69.3,1.26.69,1.36Z"/>
    <path class="cls-11" d="m37.23,12.88c.11.1.24.17.37.17,0,0,0,0,0,0-.05-.06-.11-.11-.16-.17-.04,0-.07.02-.11.02s-.07-.01-.11-.02Z"/>
    <path class="cls-4" d="m37.23,12.88s.07.02.11.02.07-.01.11-.02c-.29-.31-.6-.61-.87-.94.09.49.34.86.65.94Z"/>
    <path class="cls-11" d="m33.32,10.61c.25.23.42.68.42,1.21,0,.76-.36,1.38-.8,1.38-.04,0-.07-.01-.11-.02.11.1.24.17.37.17.44,0,.8-.62.8-1.38,0-.69-.3-1.26-.69-1.36Z"/>
    <path class="cls-4" d="m33.75,11.82c0-.53-.17-.98-.42-1.21-.11-.1-.24-.17-.37-.17-.44,0-.8.62-.8,1.38,0,.69.3,1.26.69,1.36.04,0,.07.02.11.02.44,0,.8-.62.8-1.38Z"/>
    <path class="cls-11" d="m33.26,16.51c.25.23.42.68.42,1.21,0,.76-.36,1.38-.8,1.38-.04,0-.07-.01-.11-.02.11.1.24.17.37.17.44,0,.8-.62.8-1.38,0-.69-.3-1.26-.69-1.36Z"/>
    <path class="cls-4" d="m33.68,17.72c0-.53-.17-.98-.42-1.21-.11-.1-.24-.17-.37-.17-.44,0-.8.62-.8,1.38,0,.69.3,1.26.69,1.36.04,0,.07.02.11.02.44,0,.8-.62.8-1.38Z"/>
  </g>
  <path class="cls-14" d="m71.12,69.2h8.93c2.68,0,4.96-1.77,5.71-4.2-.61-.06-1.17-.23-1.68-.51-.8,1.28-2.23,2.11-3.85,2.02-1.66-.09-3.05-1.11-3.69-2.53,0,0,0,0,0,0,0,.04,0,.07,0,.11-.81-1.58-.58-3.57.72-4.92.62-.65,1.41-1.05,2.23-1.22-.24-.27-.44-.58-.61-.92-.07-.13-.13-.25-.18-.39-.02-.04-.04-.08-.06-.12,0-.03-.01-.05-.02-.08-.42-1.14-.37-2.44.27-3.59.37-.66.91-1.17,1.51-1.54-.28-.32-.51-.67-.69-1.06,0,0,0,0,0,0,0,.04,0,.07,0,.11-.81-1.58-.58-3.57.72-4.92.26-.27.56-.49.87-.68,0-.09,0-.18,0-.27,0-.05-.01-.09-.01-.14,0-.03,0-.05.01-.08.02-1.11.46-2.19,1.31-3-.56-1.5-.28-3.25.91-4.48.69-.72,1.58-1.13,2.5-1.26v-16.11c0-2.05-.35-5.03-2.28-6.43-1.69-1.23-3.89-1.49-5.98-1.51-.51,0-1.06.01-1.49.29-.88.57-.82,1.85-1.26,2.8-.41.9-1.34,1.53-2.33,1.58-.48.02-.97-.08-1.43.06-.67.21-1.1.9-1.2,1.6-.18,1.22-.13,2.56-.08,3.89.19.21.38.42.55.64,2.9,2.8,3.55,7.41-.24,12.92-.07.11-.16.21-.24.31v3.52c0,.06,0,.13-.02.19-.34,1.98-.97,3.45-1.87,4.4-.92.97-1.89,1.45-2.9,1.45-1.1,0-2.09-.56-2.99-1.68l-.95.95c-3.31,3.31-8.71,3.26-12.08-.11l-3.96-3.96c.11,1.09.27,2.23.53,3.46.29,1.38.71,2.75,1.27,4.1.56,1.36,1.29,2.59,2.21,3.7.92,1.11,2.06,2.02,3.41,2.72,1.35.7,2.98,1.05,4.86,1.05,1.4,0,2.75-.29,4.03-.87,1.28-.58,2.47-1.4,3.56-2.47,1.09-1.06,2.06-2.31,2.9-3.74l.03-.04c.55-.93,1.97-.54,1.97.54v19.31c0,.58.47,1.05,1.05,1.05Z"/>
  <path class="cls-14" d="m56.09,17.76s-.06.01-.1.02c.03.09.08.17.12.25-.03-.09-.04-.18-.02-.27Z"/>
  <path class="cls-4" d="m70,33.61c.01.07.03.14.04.21.01.07.02.13.02.2v1.58c.08-.1.16-.2.24-.31,3.79-5.51,3.14-10.11.24-12.92,2.07,2.69,2.34,6.62-.54,11.24Z"/>
  <path class="cls-4" d="m61.33,44.44l.95-.95c-.09-.11-.18-.23-.27-.35-.15-.21-.28-.43-.4-.67l-1.07,1.07c-3.31,3.31-8.71,3.26-12.08-.11l-3.18-3.18s0,.08.01.12l3.96,3.96c3.36,3.36,8.77,3.41,12.08.11Z"/>
  <path class="cls-6" d="m60.53,43.54l1.07-1.07c-.7-1.33-1.05-3.16-1.05-5.5,0-.91-.02-2.2.12-3.44-.11.1-.23.16-.37.16s-.26-.06-.37-.17c-.39-.09-.69-.66-.69-1.36,0-.76.36-1.38.8-1.38.14,0,.26.06.37.17.27.07.5.36.61.77.17-.53.39-1.01.69-1.39,1.19-1.46,3.63-1.56,5.31-1.08.18.05.33.12.48.19,0-.04,0-.08,0-.11,0-.76.36-1.38.8-1.38.14,0,.26.06.37.17.39.09.69.66.69,1.36,0,.51-.16.94-.4,1.18.55.81.83,1.85,1.04,2.94,2.87-4.62,2.6-8.55.54-11.24-.17-.22-.35-.44-.55-.64.03.82.07,1.63.07,2.4,0,1.07-1.41,1.47-1.97.55h0c-.13.17-.3.28-.48.28-.14,0-.26-.06-.37-.17-.39-.09-.69-.66-.69-1.36,0-.29.05-.56.15-.79-.48-.61-.99-1.17-1.53-1.68-.01-.01-.02-.02-.03-.03.06,1.16-.16,1.97-.07,1.5.16-.79-7.86-2.25-6.52.04,1.34,2.29-1.47,5.98-1.47,5.98,0,0-.09-.27-.36-.64-.04.06-.07.09-.07.09,0,0-.06-.18-.22-.44-.37-.4-.93-.84-1.79-1.21-.53-.22-.89-.59-1.13-1.01-.84-.8-.94-2.1-.93-2.84-.61.06-1.75.39-3.13,1.82-.53.55-1.29.77-2.13.8-.08.18-.16.35-.23.53-.15.38-.26.76-.38,1.13.07.03.13.07.19.13.39.09.69.66.69,1.36,0,.76-.36,1.38-.8,1.38-.14,0-.26-.06-.37-.17-.15-.04-.28-.14-.39-.29-.06.26-.14.53-.2.79-.29,1.43-.48,2.77-.58,4.03-.1,1.26-.15,2.27-.15,3.05s.05,1.77.15,2.98c0,.1.03.21.04.31l3.18,3.18c3.36,3.36,8.77,3.41,12.08.11Zm-9.25-6.88c-.14,0-.26-.06-.37-.17-.39-.09-.69-.66-.69-1.36,0-.76.36-1.38.8-1.38.14,0,.26.06.37.17.39.09.69.66.69,1.36,0,.76-.36,1.38-.8,1.38Zm1.98,7.87c-.14,0-.26-.06-.37-.17-.39-.09-.69-.66-.69-1.36,0-.76.36-1.38.8-1.38.14,0,.26.06.37.17.39.09.69.66.69,1.36,0,.76-.36,1.38-.8,1.38Zm2.33-7.53c.14,0,.26.06.37.17.39.09.69.66.69,1.36,0,.76-.36,1.38-.8,1.38-.14,0-.26-.06-.37-.17-.39-.09-.69-.66-.69-1.36,0-.76.36-1.38.8-1.38Zm2.65,7.38c-.14,0-.26-.06-.37-.17-.39-.09-.69-.66-.69-1.36,0-.76.36-1.38.8-1.38.14,0,.26.06.37.17.39.09.69.66.69,1.36,0,.76-.36,1.38-.8,1.38Zm4.71-15.7c-.14,0-.26-.06-.37-.17-.39-.09-.69-.66-.69-1.36,0-.76.36-1.38.8-1.38.14,0,.26.06.37.17.39.09.69.66.69,1.36,0,.76-.36,1.38-.8,1.38Zm-7.29,2.41c.14,0,.26.06.37.17.39.09.69.66.69,1.36,0,.76-.36,1.38-.8,1.38-.14,0-.26-.06-.37-.17-.39-.09-.69-.66-.69-1.36,0-.76.36-1.38.8-1.38Zm-2.29-2.82c0,.76-.36,1.38-.8,1.38-.14,0-.26-.06-.37-.17-.39-.09-.69-.66-.69-1.36,0-.76.36-1.38.8-1.38.14,0,.26.06.37.17.39.09.69.66.69,1.36Zm-6.04,6.61c-.14,0-.26-.06-.37-.17-.39-.09-.69-.66-.69-1.36,0-.76.36-1.38.8-1.38.14,0,.26.06.37.17.39.09.69.66.69,1.36,0,.76-.36,1.38-.8,1.38Zm.54,4.8c0-.76.36-1.38.8-1.38.14,0,.26.06.37.17.39.09.69.66.69,1.36,0,.76-.36,1.38-.8,1.38-.14,0-.26-.06-.37-.17-.39-.09-.69-.66-.69-1.36Z"/>
  <path class="cls-8" d="m56.12,18.07s0-.03,0-.04c-.04-.08-.08-.17-.12-.25-.05,0-.1.02-.15.03.09.16.2.31.31.46,0-.06,0-.13-.04-.2Z"/>
  <path class="cls-8" d="m54.2,25.73c-.28-.12-.51-.28-.7-.46.25.42.6.79,1.13,1.01.86.36,1.42.81,1.79,1.21-.29-.47-.92-1.21-2.22-1.75Z"/>
  <path class="cls-8" d="m64.63,21.9c.16-.79-7.86-2.25-6.52.04,1.22,2.09-1,5.32-1.4,5.89.27.37.36.64.36.64,0,0,2.81-3.69,1.47-5.98-1.34-2.29,6.67-.84,6.52-.04-.09.47.13-.34.07-1.5-.14-.13-.28-.25-.42-.37.03,1.06-.17,1.77-.08,1.33Z"/>
  <path class="cls-8" d="m49.45,24.25c1.37-1.43,2.52-1.76,3.13-1.82,0-.33.04-.54.04-.54,0,0-1.54-.32-3.59,1.82-.38.39-.88.62-1.43.73-.1.2-.18.41-.27.62.83-.02,1.6-.24,2.13-.8Z"/>
  <path class="cls-15" d="m52.61,21.89s-.03.22-.04.54c-.02.73.09,2.04.93,2.84.19.19.42.35.7.46,1.3.54,1.93,1.28,2.22,1.75.16.26.22.44.22.44,0,0,.03-.04.07-.09.41-.57,2.62-3.8,1.4-5.89-1.34-2.29,6.67-.84,6.52-.04-.09.45.11-.26.08-1.33-.96-.85-2-1.53-3.1-2.03-1.28-.58-2.63-.87-4.03-.87-.52,0-1.01.03-1.48.09-.02.09-.01.17.02.27,0,.01,0,.03,0,.04.03.07.04.13.04.2-.12-.15-.22-.3-.31-.46-1.16.16-2.21.49-3.13.99-1.36.75-2.49,1.71-3.41,2.87-.67.85-1.24,1.77-1.72,2.77.56-.11,1.05-.33,1.43-.73,2.05-2.13,3.59-1.82,3.59-1.82Z"/>
  <path class="cls-11" d="m47.43,32.14c.25.23.42.68.42,1.21,0,.76-.36,1.38-.8,1.38-.04,0-.07-.01-.11-.02.11.1.24.17.37.17.44,0,.8-.62.8-1.38,0-.69-.3-1.26-.69-1.36Z"/>
  <path class="cls-4" d="m47.85,33.35c0-.53-.17-.98-.42-1.21-.11-.1-.24-.17-.37-.17-.44,0-.8.62-.8,1.38,0,.69.3,1.26.69,1.36.04,0,.07.02.11.02.44,0,.8-.62.8-1.38Z"/>
  <path class="cls-11" d="m51.39,33.93c.25.23.42.68.42,1.21,0,.76-.36,1.38-.8,1.38-.04,0-.07-.01-.11-.02.11.1.24.17.37.17.44,0,.8-.62.8-1.38,0-.69-.3-1.26-.69-1.36Z"/>
  <path class="cls-4" d="m51.82,35.13c0-.53-.17-.98-.42-1.21-.11-.1-.24-.17-.37-.17-.44,0-.8.62-.8,1.38,0,.69.3,1.26.69,1.36.04,0,.07.02.11.02.44,0,.8-.62.8-1.38Z"/>
  <path class="cls-11" d="m49.46,39.68c0,.76-.36,1.38-.8,1.38-.04,0-.07-.01-.11-.02.11.1.24.17.37.17.44,0,.8-.62.8-1.38,0-.69-.3-1.26-.69-1.36.25.23.42.68.42,1.21Z"/>
  <path class="cls-4" d="m48.66,41.05c.44,0,.8-.62.8-1.38,0-.53-.17-.98-.42-1.21-.11-.1-.24-.17-.37-.17-.44,0-.8.62-.8,1.38,0,.69.3,1.26.69,1.36.04,0,.07.02.11.02Z"/>
  <path class="cls-11" d="m47.32,28.05c0,.76-.36,1.38-.8,1.38-.04,0-.07-.01-.11-.02.11.1.24.17.37.17.44,0,.8-.62.8-1.38,0-.69-.3-1.26-.69-1.36.25.23.42.68.42,1.21Z"/>
  <path class="cls-4" d="m46.41,29.4s.07.02.11.02c.44,0,.8-.62.8-1.38,0-.53-.17-.98-.42-1.21-.06-.05-.12-.1-.19-.13-.27.8-.5,1.6-.69,2.4.11.15.24.26.39.29Z"/>
  <path class="cls-11" d="m53.09,28.12c0,.76-.36,1.38-.8,1.38-.04,0-.07-.01-.11-.02.11.1.24.17.37.17.44,0,.8-.62.8-1.38,0-.69-.3-1.26-.69-1.36.25.23.42.68.42,1.21Z"/>
  <path class="cls-4" d="m53.09,28.12c0-.53-.17-.98-.42-1.21-.11-.1-.24-.17-.37-.17-.44,0-.8.62-.8,1.38,0,.69.3,1.26.69,1.36.04,0,.07.02.11.02.44,0,.8-.62.8-1.38Z"/>
  <path class="cls-11" d="m54.06,43.15c0-.69-.3-1.26-.69-1.36.25.23.42.68.42,1.21,0,.76-.36,1.38-.8,1.38-.04,0-.07-.01-.11-.02.11.1.24.17.37.17.44,0,.8-.62.8-1.38Z"/>
  <path class="cls-4" d="m53.79,43c0-.53-.17-.98-.42-1.21-.11-.1-.24-.17-.37-.17-.44,0-.8.62-.8,1.38,0,.69.3,1.26.69,1.36.04,0,.07.02.11.02.44,0,.8-.62.8-1.38Z"/>
  <path class="cls-11" d="m61.02,31.74c-.11-.41-.34-.71-.61-.77.25.23.42.68.42,1.21,0,.76-.36,1.38-.8,1.38-.04,0-.07-.01-.11-.02.11.1.24.17.37.17s.26-.06.37-.16c.07-.63.18-1.24.35-1.8Z"/>
  <path class="cls-4" d="m60.84,32.17c0-.53-.17-.98-.42-1.21-.11-.1-.24-.17-.37-.17-.44,0-.8.62-.8,1.38,0,.69.3,1.26.69,1.36.04,0,.07.02.11.02.44,0,.8-.62.8-1.38Z"/>
  <path class="cls-11" d="m58.35,41.65c.25.23.42.68.42,1.21,0,.76-.36,1.38-.8,1.38-.04,0-.07-.01-.11-.02.11.1.24.17.37.17.44,0,.8-.62.8-1.38,0-.69-.3-1.26-.69-1.36Z"/>
  <path class="cls-4" d="m58.77,42.85c0-.53-.17-.98-.42-1.21-.11-.1-.24-.17-.37-.17-.44,0-.8.62-.8,1.38,0,.69.3,1.26.69,1.36.04,0,.07.02.11.02.44,0,.8-.62.8-1.38Z"/>
  <path class="cls-11" d="m56.45,32.47c0,.76-.36,1.38-.8,1.38-.04,0-.07-.01-.11-.02.11.1.24.17.37.17.44,0,.8-.62.8-1.38,0-.69-.3-1.26-.69-1.36.25.23.42.68.42,1.21Z"/>
  <path class="cls-4" d="m55.54,33.83s.07.02.11.02c.44,0,.8-.62.8-1.38,0-.53-.17-.98-.42-1.21-.11-.1-.24-.17-.37-.17-.44,0-.8.62-.8,1.38,0,.69.3,1.26.69,1.36Z"/>
  <path class="cls-11" d="m56.38,38.37c0,.76-.36,1.38-.8,1.38-.04,0-.07-.01-.11-.02.11.1.24.17.37.17.44,0,.8-.62.8-1.38,0-.69-.3-1.26-.69-1.36.25.23.42.68.42,1.21Z"/>
  <path class="cls-4" d="m55.47,39.73s.07.02.11.02c.44,0,.8-.62.8-1.38,0-.53-.17-.98-.42-1.21-.11-.1-.24-.17-.37-.17-.44,0-.8.62-.8,1.38,0,.69.3,1.26.69,1.36Z"/>
  <path class="cls-11" d="m69.09,29.35c0,.44-.12.82-.31,1.08.06.08.12.17.17.25.24-.24.4-.68.4-1.18,0-.69-.3-1.26-.69-1.36.25.23.42.68.42,1.21Z"/>
  <path class="cls-4" d="m68.79,30.42c.19-.25.31-.64.31-1.08,0-.53-.17-.98-.42-1.21-.11-.1-.24-.17-.37-.17-.44,0-.8.62-.8,1.38,0,.04,0,.08,0,.11.53.23.96.56,1.28.96Z"/>
  <path class="cls-11" d="m67.35,24.82s-.07-.01-.11-.02c.11.1.24.17.37.17.18,0,.35-.11.48-.29l-.03-.04c-.05-.08-.1-.15-.15-.23-.14.25-.35.41-.57.41Z"/>
  <path class="cls-4" d="m66.55,23.44c0,.69.3,1.26.69,1.36.04,0,.07.02.11.02.22,0,.42-.16.57-.41-.38-.62-.79-1.2-1.22-1.75-.09.22-.15.49-.15.79Z"/>
  <path class="cls-11" d="m63.74,27.31c0-.69-.3-1.26-.69-1.36.25.23.42.68.42,1.21,0,.76-.36,1.38-.8,1.38-.04,0-.07-.01-.11-.02.11.1.24.17.37.17.44,0,.8-.62.8-1.38Z"/>
  <path class="cls-4" d="m63.48,27.16c0-.53-.17-.98-.42-1.21-.11-.1-.24-.17-.37-.17-.44,0-.8.62-.8,1.38,0,.69.3,1.26.69,1.36.04,0,.07.02.11.02.44,0,.8-.62.8-1.38Z"/>
  <path class="cls-14" d="m81.3,44.38s0,.09.01.14c0-.07,0-.15,0-.22,0,.03-.01.05-.01.08Z"/>
  <path class="cls-10" d="m81.3,44.38s0,.09.01.14c0-.07,0-.15,0-.22,0,.03-.01.05-.01.08Z"/>
  <path class="cls-9" d="m81.33,44.78c.45-.27.94-.46,1.45-.55-.32-.88-.34-1.84-.07-2.72-.02-.04-.03-.08-.05-.12-.78.74-1.29,1.76-1.35,2.91,0,.07,0,.15,0,.22,0,.09.01.17.02.26Z"/>
  <path class="cls-10" d="m81.33,44.78c.45-.27.94-.46,1.45-.55-.32-.88-.34-1.84-.07-2.72-.02-.04-.03-.08-.05-.12-.78.74-1.29,1.76-1.35,2.91,0,.07,0,.15,0,.22,0,.09.01.17.02.26Z"/>
  <path class="cls-9" d="m78.89,57.04c-.07-.13-.13-.25-.18-.39.06.13.12.26.18.39Z"/>
  <path class="cls-14" d="m78.64,56.53s.04.08.06.12c-.03-.07-.05-.13-.08-.2,0,.03,0,.05.02.08Z"/>
  <path class="cls-10" d="m78.64,56.53s.04.08.06.12c-.03-.07-.05-.13-.08-.2,0,.03,0,.05.02.08Z"/>
  <path class="cls-14" d="m78.89,57.04c.17.33.37.65.61.92.02,0,.04,0,.06-.01-.27-.28-.5-.58-.68-.91Z"/>
  <path class="cls-10" d="m78.89,57.04c.17.33.37.65.61.92.02,0,.04,0,.06-.01-.27-.28-.5-.58-.68-.91Z"/>
  <path class="cls-9" d="m82,59.3c.19-.58.51-1.14.97-1.61.14-.14.29-.26.44-.38-.79.04-1.59-.12-2.33-.54-1.38-.78-2.16-2.21-2.18-3.69-.53,1.01-.66,2.22-.27,3.38.03.07.05.14.08.2.05.13.12.26.18.39.18.33.41.63.68.91-.02,0-.04,0-.06.01.65.72,1.54,1.19,2.5,1.34Z"/>
  <path class="cls-10" d="m82,59.3c.19-.58.51-1.14.97-1.61.14-.14.29-.26.44-.38-.79.04-1.59-.12-2.33-.54-1.38-.78-2.16-2.21-2.18-3.69-.53,1.01-.66,2.22-.27,3.38.03.07.05.14.08.2.05.13.12.26.18.39.18.33.41.63.68.91-.02,0-.04,0-.06.01.65.72,1.54,1.19,2.5,1.34Z"/>
  <path class="cls-9" d="m86.03,56.38v-.16c-.06.05-.11.11-.17.16.06,0,.11,0,.17,0Z"/>
  <path class="cls-10" d="m86.03,56.38v-.16c-.06.05-.11.11-.17.16.06,0,.11,0,.17,0Z"/>
  <path class="cls-9" d="m83.53,36.82c-1.18,1.23-1.47,2.98-.91,4.48-.85.81-1.29,1.9-1.31,3,.05-1.16.56-2.18,1.35-2.91.02.04.03.08.05.12-.27.88-.25,1.84.07,2.72-.51.09-.99.27-1.45.55,0-.09-.02-.17-.02-.26,0,.09,0,.18,0,.27-.31.19-.6.4-.87.68-1.3,1.35-1.53,3.34-.72,4.92,0-.04,0-.07,0-.11,0,0,0,0,0,0,.17.39.41.74.69,1.06-.61.37-1.14.88-1.51,1.54-.64,1.14-.69,2.45-.27,3.59-.39-1.16-.26-2.37.27-3.38.02,1.48.8,2.91,2.18,3.69.74.42,1.54.58,2.33.54-.15.12-.3.24-.44.38-.45.47-.77,1.03-.97,1.61-.96-.16-1.84-.62-2.5-1.34-.82.17-1.6.57-2.23,1.22-1.3,1.35-1.53,3.34-.72,4.92,0-.04,0-.07,0-.11,0,0,0,0,0,0,.64,1.42,2.03,2.44,3.69,2.53,1.61.08,3.05-.74,3.85-2.02.5.28,1.07.46,1.68.51.17-.56.27-1.16.27-1.78v-6.83c-.06,0-.11,0-.17,0,.06-.05.11-.11.17-.16v-20.66c-.92.13-1.81.54-2.5,1.26Z"/>
  <path class="cls-16" d="m129.81,25.7c-.21-.01-.41-.03-.62-.04,0,0-.45,3.1,1.35,4.31.36-.1.63-.37.77-.69v-1c-.17-.53-.3-1.06-.4-1.61-.1-.54-.55-.93-1.1-.97Z"/>
  <path class="cls-6" d="m128.65,50.56c-4.22-.21-7.01,1.52-8.48,4.12h3.57c.52-.25,1.2-.68,1.91-1.44,1.07-1.15,3.81-1.85,5.66-2.13v-.18c-.94-.2-1.83-.33-2.67-.37Z"/>
  <path class="cls-15" d="m125.65,53.24c-.71.76-1.39,1.19-1.91,1.44h6.31c.7,0,1.26-.57,1.26-1.26v-2.31c-1.86.28-4.59.99-5.66,2.13Z"/>
  <g>
    <path class="cls-14" d="m131.31,23.69v-3.03c0-.7-.57-1.26-1.26-1.26h-13.44c-.7,0-1.26.57-1.26,1.26v3.03h15.97Z"/>
    <path class="cls-5" d="m107.77,16.56c-.17-.06-.35-.1-.54-.13.18.06.35.1.54.13Z"/>
    <path class="cls-14" d="m130.54,29.96c-1.55.42-2.82,1.59-4.62,2.49-.83.41-.87.8-1.92,1.73-.65.59-1.6.7-2.36,1.16-1.61.98-3.07,2.18-4.45,3.45-2.83,2.6-5.33,5.54-8.27,8.02-2.41,2.03-4.57,4.02-6.51,6.03,4.42-.06,8.11-1.02,10.62-5.09.66-1.08,2.32-.61,2.32.66v5.01c0,.7.57,1.26,1.26,1.26h3.56c1.46-2.6,4.26-4.33,8.48-4.12.83.04,1.72.17,2.67.37v-21.66c-.14.32-.41.59-.77.69Z"/>
    <path class="cls-14" d="m101.87,28.5c2.75-1.23,8.35-1.27,8.14-6-.16-3.58-7.09-3.94-9.59-4.02-1.91-.06-3.88,0-5.63.76-3.25,1.4-4.41,5.96-4.41,9.24,0,2.31-.18,4.76-.2,7.18,3.57-2.86,7.49-5.28,11.69-7.16Z"/>
    <path class="cls-14" d="m120.85,23.88c.9.08,1.85.67,2.75.91,1,.28,2.02.46,3.05.6.84.11,1.69.19,2.54.25.21.01.41.03.62.04.55.04,1,.43,1.1.97.1.54.24,1.08.4,1.61v-4.63h-15.97v.82c1.79-.34,3.77-.73,5.51-.58Z"/>
    <path class="cls-7" d="m98.96,52.36c.11.08.23.15.35.21.5.24,1.07.25,1.62.27.5.01.99.01,1.47,0,1.95-2.02,4.11-4.01,6.51-6.03,2.94-2.48,5.44-5.43,8.27-8.02,1.38-1.27,2.84-2.48,4.45-3.45.76-.46,1.7-.57,2.36-1.16,1.05-.94,1.08-1.32,1.92-1.73,1.8-.9,3.07-2.07,4.62-2.49-1.8-1.2-1.35-4.31-1.35-4.31-.85-.06-1.69-.14-2.54-.25-1.03-.14-2.05-.32-3.05-.6-.9-.25-1.85-.84-2.75-.91-1.73-.15-3.71.23-5.51.58v6.58c1.2-.42,2.4-.72,3.59-.86l3.24,1.85s-2.93,2.37-6.84,5.65c-.18.99-.78,1.76-2.59,2.33-.08.03-.16.04-.25.06-4.74,4.04-10.14,8.79-13.54,12.29Z"/>
    <path class="cls-7" d="m101.87,28.5c-4.2,1.88-8.12,4.3-11.69,7.16-.02,2.84.19,5.65,1.19,8.16.31.79.71,1.69,1.53,1.9.49.13,1.02-.04,1.53-.02.65.02,1.23.35,1.7.81,2.99-3.54,6.44-7.14,10.08-10.07-.19-1.64.2-3.53.51-5.16.25-1.35,1.03-3.25,1.79-5.22,0,0-4.48,1.48-6.63,2.44Z"/>
    <path class="cls-3" d="m118.93,30.18c-1.19.14-2.39.44-3.59.86v3.89c0,1.05.12,1.97-.02,2.75,3.91-3.28,6.84-5.65,6.84-5.65l-3.24-1.85Z"/>
    <path class="cls-3" d="m96.13,46.51c.19.19.36.39.5.61.49.77.72,1.67.94,2.55.25,1,.59,2.11,1.39,2.7,3.39-3.49,8.79-8.25,13.54-12.29-1,.27-2.06.33-3.06.07-2.21-.57-3.03-2-3.23-3.71-3.64,2.93-7.08,6.52-10.08,10.07Z"/>
  </g>
  <path class="cls-14" d="m147.6,44.37c-1.69,1.27-4.39,3.04-5.62,4.74-.96,1.34-3.23-1.27.14,2.28.7.73,1.67,1.4,2.52,1.92,3.72,2.28,8.26,3.04,12.57,3.2,6.7.25,13.79-.84,19.06-5,.55-.43,1.09-.92,1.35-1.57.66-1.64-.68-4.7-2.5-5.02-.25,1.74-1.25,3.26-3.27,4.41-3.54,2-7.84-.92-11.57-3.57-.92.49-1.8,1.13-2.8,1.42-1.76.5-3.8-.25-4.81-1.78-.45-.69-.99-1.91-1.16-3.05-1.37.37-2.72,1.11-3.92,2.01Z"/>
  <path class="cls-14" d="m165.31,18.47c-2.15-.53-4.25-.8-6.28-.8-3.92,0-7.38.45-10.38,1.34-3,.9-5.52,2.18-7.55,3.85-1.49,1.22-2.71,2.62-3.67,4.19,5.27-3.74,10.71-3.74,16.58-3.74.11,0,.23.02.35.03.52-.74,1.11-1.37,1.76-1.88.87-.68,1.86-1.02,2.98-1.02s1.93.27,2.61.8c.68.53,1.21,1.22,1.6,2.07.39.85.65,1.81.8,2.9.1.72.13,1.45.15,2.19,3.52,2.75,6.95,6.27,9.01,9.75.57-.29,1.07-.62,1.51-.98.92-.75,1.58-1.62,2-2.61.41-.99.62-2.02.62-3.08,0-2.42-.58-4.49-1.74-6.21-1.16-1.72-2.64-3.14-4.43-4.28-1.79-1.14-3.76-1.97-5.91-2.5Z"/>
  <path class="cls-1" d="m171.86,49.34c2.02-1.14,3.01-2.67,3.27-4.41-.39-.07-.79-.05-1.18.11-2.15.85-3.1,2.53-5.82,1.92-.81-.18-1.59-.53-2.36-.88-1.14.06-2.34-.32-3.54-.92-.1,0-.19,0-.29.01-.59.09-1.13.32-1.65.6,3.73,2.65,8.04,5.57,11.57,3.57Z"/>
  <path class="cls-1" d="m153.33,25.2c.18-.38.35-.76.55-1.11.15-.27.32-.52.49-.76-.12,0-.24-.03-.35-.03-5.86,0-11.31,0-16.58,3.74-.35.57-.67,1.15-.94,1.77-.9,1.99-1.39,4.21-1.51,6.61.47-1.43,1.02-2.63,1.54-3.3,5.32-6.83,10.78-6.93,16.8-6.93Z"/>
  <path class="cls-1" d="m164.26,28.38c0,.37.02.74,0,1.11-.02.67-.07,1.28-.13,1.87,2.61,2.47,4.83,5.33,5.66,7.96.5-.1.99-.21,1.43-.35.75-.24,1.43-.52,2.04-.83-2.06-3.48-5.49-7-9.01-9.75Z"/>
  <path class="cls-1" d="m147.75,43.05c-.52.3-1.11.58-1.71.77-.83.74-1.66,1.46-2.56,2.04-1.41.92-3.11,1.75-4.73,1.97.61.74,1.28,1.44,2.03,2.09.11-.07.23-.14.33-.21,2.3-1.49,4.26-3.67,6.48-5.34,1.2-.9,2.54-1.64,3.92-2.01-.11-.79-.05-1.54.36-2.05-.44.16-.87.39-1.27.65-.98.65-1.84,1.51-2.85,2.09Z"/>
  <path class="cls-5" d="m146.05,43.82c-.98.31-1.99.38-2.79-.12-1.91-1.21-.54-6.24.58-7.52,2.37-2.7,4.78-3.29,7.36-3.42.05-.31.08-.62.14-.94.24-1.35.57-2.71.98-4.06.28-.92.63-1.76,1.01-2.56-6.02,0-11.47.09-16.8,6.93-.52.67-1.07,1.86-1.54,3.3-.02.37-.05.73-.05,1.11,0,2.81.52,5.37,1.56,7.69.59,1.31,1.35,2.5,2.25,3.61,1.62-.22,3.32-1.06,4.73-1.97.9-.58,1.74-1.31,2.56-2.04Z"/>
  <path class="cls-5" d="m165.77,46.08c-1.17-.52-2.32-1.01-3.54-.92,1.2.6,2.4.98,3.54.92Z"/>
  <path class="cls-5" d="m164.13,31.36c-.1.94-.25,1.77-.45,2.49-.34,1.16-.97,2.1-1.89,2.83-.26.21-.57.39-.89.57.73.8,1.31,1.62,1.61,2.41h3.41c1.44,0,2.73-.12,3.87-.34-.84-2.62-3.06-5.49-5.66-7.96Z"/>
  <path class="cls-12" d="m157.84,38.24c-1.28.24-2.88.4-4.8.48-1.18.05-2.16-.89-2.15-2.08,0-.3.01-.62.02-.95.04-.94.15-1.93.3-2.94-2.58.13-4.99.72-7.36,3.42-1.12,1.28-2.49,6.31-.58,7.52.8.5,1.81.44,2.79.12.6-.19,1.19-.47,1.71-.77,1.01-.58,1.88-1.44,2.85-2.09.4-.26.82-.49,1.27-.65.32-.4.84-.65,1.64-.65h9c-.31-.79-.88-1.61-1.61-2.41-.82.44-1.84.77-3.06.99Z"/>
  <path class="cls-14" d="m231.24,52.97c-.11.57-.2,1.14-.29,1.71h24.63c1.92,0,3.47-1.55,3.47-3.47v-9.09c0-2.29-2.17-3.95-4.38-3.34h-.05c-1.6.45-3.21.81-4.83,1.1-1.62.29-3.22.51-4.79.65-1.57.15-3.01.22-4.32.22-1.45,0-2.64-.08-3.56-.25-.72-.13-1.16-.31-1.35-.53-2.1,3.85-3.61,8.08-4.55,13.01Z"/>
  <path class="cls-14" d="m256.56,21.16c-1.14-.26-2.31-.38-3.48-.36-.99.99-2,1.96-3.07,2.86-3.07,2.59-5.76,5.12-8.09,7.72,1.64-.24,3.11-.37,4.36-.37,1.5,0,2.64.13,3.41.4.77.27,1.05.62.83,1.05-.22.44-.99.94-2.32,1.52-1.33.58-3.37,1.16-6.13,1.74-1.6.34-3.08.73-4.45,1.17-.46.7-.9,1.41-1.32,2.13.21-.13.45-.26.76-.4.97-.44,2.64-.92,5.01-1.45,2.32-.53,4.55-1.15,6.68-1.85,2.13-.7,3.99-1.51,5.59-2.43,1.6-.92,2.87-1.95,3.81-3.08.94-1.14,1.42-2.43,1.42-3.88,0-3.03.28-4.02-3-4.78Z"/>
  <path class="cls-7" d="m238.2,22.21c-.63-.33-1.26-.65-1.91-.92-2.05-.85-5.65-1.58-7.75-.48-1.6.83-1.28,1.03-1.35,2.75-.09,2.35,0,4.71,0,7.06,0,1.47.9,2.68,2.12,3.2,2.07-3.05,5.18-7.34,8.89-11.62Z"/>
  <path class="cls-7" d="m250.01,23.67c1.07-.9,2.08-1.88,3.07-2.86-1.81.03-3.61.41-5.27,1.13-4.57,4.05-8.77,8.03-10.4,10.3.17-.04.35-.09.52-.12,1.45-.31,2.76-.54,3.99-.72,2.33-2.6,5.01-5.14,8.09-7.72Z"/>
  <path class="cls-7" d="m234.38,38.1c-2.07,3.97-4.97,10.13-6.4,15.79.6.49,1.35.79,2.18.79h.79c.1-.57.19-1.14.29-1.71.94-4.93,2.44-9.16,4.55-13.01-.05-.06-.09-.13-.1-.2-.03-.21.19-.46.62-.72.42-.72.85-1.44,1.32-2.13-1.16.37-2.24.76-3.24,1.19Z"/>
  <path class="cls-3" d="m247.81,21.94s-.07.03-.11.04c-1.49.67-2.93,1.61-4.56,1.74-1.75.13-3.34-.69-4.94-1.51-3.72,4.27-6.82,8.57-8.89,11.62.76.33,1.65.39,2.51.07,1.92-.7,3.78-1.25,5.58-1.66,1.63-2.27,5.83-6.25,10.4-10.3Z"/>
  <path class="cls-3" d="m234.38,38.1c-1.33.57-2.51,1.2-3.56,1.89-2.76,1.81-4.14,4.17-4.14,7.08v4.15c0,1.09.51,2.05,1.29,2.68,1.43-5.66,4.33-11.82,6.4-15.79Z"/>
  <path class="cls-14" d="m268.63,23.69l-1.85-1.85c-.89,1.29-1.42,2.85-1.42,4.54v14.93c4.11,1.47,9.97,5.79,14.02,10.6,1.21-1.4,1.94-3.22,1.94-5.21v-20.32c0-.96-.18-1.87-.48-2.72l-.13.13c-3.31,3.31-8.71,3.26-12.08-.11Z"/>
  <path class="cls-1" d="m265.35,41.31v2.19c3.83,1.74,9,5.99,11.73,10.24.88-.47,1.65-1.09,2.3-1.84-4.05-4.81-9.92-9.13-14.02-10.6Z"/>
  <path class="cls-5" d="m265.35,43.51v3.19c0,4.41,3.57,7.98,7.98,7.98,1.35,0,2.63-.34,3.74-.93-2.72-4.25-7.9-8.5-11.73-10.24Z"/>
  <path class="cls-4" d="m279.91,22.89c-3.31,3.31-8.71,3.26-12.08-.11l-1.01-1.01s-.03.04-.04.06l1.85,1.85c3.36,3.36,8.77,3.41,12.08.11l.13-.13c-.15-.41-.32-.8-.53-1.17l-.4.4Z"/>
  <path class="cls-6" d="m267.83,22.78c3.36,3.36,8.77,3.41,12.08.11l.4-.4c-.97-1.74-2.57-3.07-4.49-3.7-.15.28-.36.46-.59.46-.14,0-.26-.06-.37-.17-.24-.06-.44-.29-.56-.62-.31-.04-.63-.06-.95-.06-1.58,0-3.06.47-4.3,1.26-.11.52-.4.89-.74.89-.1,0-.2-.04-.29-.1-.44.4-.84.84-1.18,1.33l1.01,1.01Zm9.52-1.96c.14,0,.26.06.37.17.39.09.69.66.69,1.36,0,.76-.36,1.38-.8,1.38-.14,0-.26-.06-.37-.17-.39-.09-.69-.66-.69-1.36,0-.76.36-1.38.8-1.38Zm-4.98.15c.14,0,.26.06.37.17.39.09.69.66.69,1.36,0,.76-.36,1.38-.8,1.38-.14,0-.26-.06-.37-.17-.39-.09-.69-.66-.69-1.36,0-.76.36-1.38.8-1.38Z"/>
  <path class="cls-11" d="m269.04,19.66c-.14.09-.28.19-.42.29-.14.26-.33.43-.55.44-.02.02-.04.04-.06.06.09.06.19.1.29.1.34,0,.63-.37.74-.89Z"/>
  <path class="cls-4" d="m268.62,19.95c-.19.14-.38.29-.55.44.22-.02.41-.18.55-.44Z"/>
  <path class="cls-11" d="m273.17,22.35c0,.76-.36,1.38-.8,1.38-.04,0-.07-.01-.11-.02.11.1.24.17.37.17.44,0,.8-.62.8-1.38,0-.69-.3-1.26-.69-1.36.25.23.42.68.42,1.21Z"/>
  <path class="cls-4" d="m271.57,22.35c0,.69.3,1.26.69,1.36.04,0,.07.02.11.02.44,0,.8-.62.8-1.38,0-.53-.17-.98-.42-1.21-.11-.1-.24-.17-.37-.17-.44,0-.8.62-.8,1.38Z"/>
  <path class="cls-11" d="m278.14,22.2c0,.76-.36,1.38-.8,1.38-.04,0-.07-.01-.11-.02.11.1.24.17.37.17.44,0,.8-.62.8-1.38,0-.69-.3-1.26-.69-1.36.25.23.42.68.42,1.21Z"/>
  <path class="cls-4" d="m277.23,23.56s.07.02.11.02c.44,0,.8-.62.8-1.38,0-.53-.17-.98-.42-1.21-.11-.1-.24-.17-.37-.17-.44,0-.8.62-.8,1.38,0,.69.3,1.26.69,1.36Z"/>
  <path class="cls-11" d="m274.96,19.1s-.07-.01-.11-.02c.11.1.24.17.37.17.23,0,.44-.18.59-.46-.1-.03-.2-.06-.29-.09-.14.24-.34.39-.56.39Z"/>
  <path class="cls-4" d="m274.85,19.08s.07.02.11.02c.22,0,.41-.15.56-.39-.4-.11-.81-.2-1.23-.25.12.33.33.56.56.62Z"/>
  <path class="cls-6" d="m277.92,1.83c1.34,2.29-1.47,5.98-1.47,5.98,0,0-.09-.27-.36-.64-.04.06-.07.09-.07.09,0,0-.06-.18-.22-.44-.37-.4-.93-.84-1.79-1.21-.53-.22-.89-.59-1.13-1.01-.84-.8-.94-2.1-.93-2.84-.38.04-.97.18-1.69.63,0,.23,0,.47.07.69.2.75.76,1.47.54,2.21-.16.55-.71.89-1.23,1.12-.55.24-1.12.43-1.7.57-.38.08-.71.16-1,.24.01.1.02.2.02.3,0,.76-.36,1.38-.8,1.38-.14,0-.26-.06-.37-.17-.11-.03-.21-.09-.3-.18-.05.22-.08.46-.08.77,0,.51.18,1.45.49,2.34.14-.22.32-.35.53-.35.14,0,.26.06.37.17.39.09.69.66.69,1.36,0,.3-.06.58-.16.81.29.1.6.06.94-.16.76-.5,1.6-.94,2.51-.92,2.21.04,3.92,2.73,6.09,2.27,1.36-.29,2.34-.97,3.05-1.87-.08.04-.16.07-.24.07-.14,0-.26-.06-.37-.17-.39-.09-.69-.66-.69-1.36,0-.76.36-1.38.8-1.38.14,0,.26.06.37.17.39.09.69.66.69,1.36,0,.22-.03.42-.09.61.64-1.15.93-2.56.93-4.04,0-2.42-.73-4.35-2.18-5.81-.33-.33-.81-.68-1.37-1.01,0,.12.05.26.14.42Zm-5.99,7.16c-.14,0-.26-.06-.37-.17-.39-.09-.69-.66-.69-1.36,0-.76.36-1.38.8-1.38.14,0,.26.06.37.17.39.09.69.66.69,1.36,0,.76-.36,1.38-.8,1.38Zm3.35,4.35c-.14,0-.26-.06-.37-.17-.39-.09-.69-.66-.69-1.36,0-.76.36-1.38.8-1.38.14,0,.26.06.37.17.39.09.69.66.69,1.36,0,.76-.36,1.38-.8,1.38Z"/>
  <path class="cls-8" d="m274,5.62c.86.36,1.42.81,1.79,1.21-.29-.47-.92-1.21-2.22-1.75-.28-.12-.51-.28-.7-.46.25.42.6.79,1.13,1.01Z"/>
  <path class="cls-8" d="m271.95,1.78c0-.33.04-.54.04-.54,0,0-.59-.12-1.51.29-.12.28-.21.58-.22.89.72-.45,1.31-.59,1.69-.63Z"/>
  <path class="cls-8" d="m276.09,7.17c.27.37.36.64.36.64,0,0,2.81-3.69,1.47-5.98-.09-.16-.13-.29-.14-.42-.1-.06-.2-.12-.31-.18,0,.02,0,.03.02.05,1.22,2.09-1,5.32-1.4,5.89Z"/>
  <path class="cls-15" d="m270.98.76c-.22.21-.38.48-.5.76.93-.4,1.51-.29,1.51-.29,0,0-.03.22-.04.54-.02.73.09,2.04.93,2.84.19.19.42.35.7.46,1.3.54,1.93,1.28,2.22,1.75.16.26.22.44.22.44,0,0,.03-.04.07-.09.41-.57,2.62-3.8,1.4-5.89-.01-.02,0-.03-.02-.05-2.07-1.13-5.05-1.88-6.5-.48Z"/>
  <path class="cls-11" d="m266.8,11.49c.25.23.42.68.42,1.21,0,.31-.06.59-.16.82.09.06.18.1.27.14.1-.23.16-.51.16-.81,0-.69-.3-1.26-.69-1.36Z"/>
  <path class="cls-4" d="m266.8,11.49c-.11-.1-.24-.17-.37-.17-.2,0-.39.14-.53.35.28.78.67,1.51,1.17,1.85.1-.23.16-.51.16-.82,0-.53-.17-.98-.42-1.21Z"/>
  <path class="cls-11" d="m265.89,8.77s-.07-.01-.11-.02c.11.1.24.17.37.17.44,0,.8-.62.8-1.38,0-.1,0-.2-.02-.3-.08.02-.17.05-.25.07,0,.03,0,.05,0,.08,0,.76-.36,1.38-.8,1.38Z"/>
  <path class="cls-4" d="m265.78,8.75s.07.02.11.02c.44,0,.8-.62.8-1.38,0-.03,0-.05,0-.08-.57.19-.95.45-1.14.98-.03.08-.04.18-.06.27.09.09.19.15.3.18Z"/>
  <path class="cls-11" d="m272.04,6.26c.25.23.42.68.42,1.21,0,.76-.36,1.38-.8,1.38-.04,0-.07-.01-.11-.02.11.1.24.17.37.17.44,0,.8-.62.8-1.38,0-.69-.3-1.26-.69-1.36Z"/>
  <path class="cls-4" d="m272.47,7.47c0-.53-.17-.98-.42-1.21-.11-.1-.24-.17-.37-.17-.44,0-.8.62-.8,1.38,0,.69.3,1.26.69,1.36.04,0,.07.02.11.02.44,0,.8-.62.8-1.38Z"/>
  <path class="cls-11" d="m279.79,10.31c.25.23.42.68.42,1.21,0,.76-.36,1.38-.8,1.38-.04,0-.07-.01-.11-.02.11.1.24.17.37.17.08,0,.16-.03.24-.07.17-.22.34-.45.47-.7.05-.18.09-.39.09-.61,0-.69-.3-1.26-.69-1.36Z"/>
  <path class="cls-4" d="m280.21,11.52c0-.53-.17-.98-.42-1.21-.11-.1-.24-.17-.37-.17-.44,0-.8.62-.8,1.38,0,.69.3,1.26.69,1.36.04,0,.07.02.11.02.44,0,.8-.62.8-1.38Z"/>
  <path class="cls-11" d="m275.4,10.61c.25.23.42.68.42,1.21,0,.76-.36,1.38-.8,1.38-.04,0-.07-.01-.11-.02.11.1.24.17.37.17.44,0,.8-.62.8-1.38,0-.69-.3-1.26-.69-1.36Z"/>
  <path class="cls-4" d="m275.82,11.82c0-.53-.17-.98-.42-1.21-.11-.1-.24-.17-.37-.17-.44,0-.8.62-.8,1.38,0,.69.3,1.26.69,1.36.04,0,.07.02.11.02.44,0,.8-.62.8-1.38Z"/>
  <path class="cls-14" d="m301.59,12.06c-1.25-.6-2.63-.66-3.93-.14-1.79.71-2.95,2.33-4.5,3.4-1.2.83-2.56,1.34-4.02,1.42-3.65.19-4.19,2.09-4.19,5.33,0,.36.27.69.63.69.33,0,.61.28.61.61l.17,16.56c.51-.37,1.08-.62,1.67-.74-.24-.27-.44-.58-.61-.92-.07-.13-.13-.25-.18-.39-.02-.04-.04-.08-.06-.12,0-.03-.01-.05-.02-.08-.42-1.14-.37-2.44.27-3.59.37-.66.91-1.17,1.51-1.54-.28-.32-.51-.67-.69-1.06,0,0,0,0,0,0,0,.04,0,.07,0,.11-.81-1.58-.58-3.57.72-4.92.26-.27.56-.49.87-.68,0-.09,0-.18,0-.27,0-.05-.01-.09-.01-.14,0-.03,0-.05.01-.08.02-1.11.46-2.19,1.31-3-.56-1.5-.28-3.25.91-4.48,1.55-1.61,4.05-1.75,5.77-.38.66.5,1.17,1.19,1.46,1.98.5-.29,1.04-.47,1.6-.54-.46-.22-.8-.31-.88-.18-.36.57.83-1.58,2.75-2.06.29-.07.63-.01,1,.12.16-1,.32-1.97.5-2.91,0-.04,0-.07-.03-.1-.78-.76-1.64-1.44-2.63-1.91Z"/>
  <path class="cls-14" d="m307.11,41.49c-.63,1.88-2.46,3.08-4.42,2.9-.14,0-.28-.03-.42-.05-.05,0-.09,0-.14-.02-.03,0-.05-.02-.08-.03-.26-.05-.5-.13-.74-.23-.06.11-.14.21-.21.32,0,0,.02,0,.03-.01.03-.02.06-.04.1-.06-.94,1.51-2.76,2.33-4.59,1.91-.21-.05-.4-.13-.6-.2-.49.16-1.02.25-1.57.22-.67-.04-1.29-.23-1.84-.53-.8,1.28-2.23,2.11-3.85,2.02-.78-.04-1.5-.3-2.11-.69.07.44.15.87.25,1.29.34,1.43.92,2.67,1.74,3.74.82,1.06,1.93,1.89,3.34,2.47,1.4.58,3.17.87,5.3.87s3.86-.45,5.48-1.34c1.62-.89,3-2.12,4.14-3.66,1.14-1.55,2.01-3.37,2.61-5.48.22-.77.93-3.96.7-5.88-.57,1.26-1.72,2.19-3.11,2.45Z"/>
  <path class="cls-14" d="m301.22,44.31s-.06.04-.1.06c0,0-.02,0-.03.01-.38.54-.86,1-1.48,1.33-1.09.58-2.32.63-3.41.26-.06.02-.11.04-.17.06.19.08.39.15.6.2,1.83.42,3.65-.41,4.59-1.91Z"/>
  <path class="cls-10" d="m301.22,44.31s-.06.04-.1.06c0,0-.02,0-.03.01-.38.54-.86,1-1.48,1.33-1.09.58-2.32.63-3.41.26-.06.02-.11.04-.17.06.19.08.39.15.6.2,1.83.42,3.65-.41,4.59-1.91Z"/>
  <path class="cls-9" d="m299.61,45.71c.62-.33,1.11-.8,1.48-1.33-1,.52-2.12.61-3.13.33-.47.56-1.07,1-1.76,1.26,1.09.37,2.31.33,3.41-.26Z"/>
  <path class="cls-10" d="m299.61,45.71c.62-.33,1.11-.8,1.48-1.33-1,.52-2.12.61-3.13.33-.47.56-1.07,1-1.76,1.26,1.09.37,2.31.33,3.41-.26Z"/>
  <path class="cls-9" d="m302.26,44.34c.14.02.28.04.42.05-.14-.01-.28-.02-.42-.05Z"/>
  <path class="cls-14" d="m302.26,44.34c-.07-.01-.14-.03-.21-.04.03,0,.05.02.08.03.05.01.09,0,.14.02Z"/>
  <path class="cls-10" d="m302.26,44.34c-.07-.01-.14-.03-.21-.04.03,0,.05.02.08.03.05.01.09,0,.14.02Z"/>
  <path class="cls-9" d="m299.34,42.26c.57.99,1.52,1.75,2.71,2.04.07.02.14.03.21.04.14.03.28.04.42.05.77.05,1.56-.1,2.29-.49.99-.53,1.67-1.4,2.01-2.38-.29.05-.59.07-.9.05-.05,0-.1-.01-.15-.02-.12.34-.26.67-.47.96-.18.24-.35.5-.61.64-.89.48-1.63.26-2.11-.4-1.17.32-2.4.14-3.4-.48Z"/>
  <path class="cls-10" d="m299.34,42.26c.57.99,1.52,1.75,2.71,2.04.07.02.14.03.21.04.14.03.28.04.42.05.77.05,1.56-.1,2.29-.49.99-.53,1.67-1.4,2.01-2.38-.29.05-.59.07-.9.05-.05,0-.1-.01-.15-.02-.12.34-.26.67-.47.96-.18.24-.35.5-.61.64-.89.48-1.63.26-2.11-.4-1.17.32-2.4.14-3.4-.48Z"/>
  <path class="cls-14" d="m289.83,25.61s0,.09.01.14c0-.07,0-.15,0-.22,0,.03-.01.05-.01.08Z"/>
  <path class="cls-10" d="m289.83,25.61s0,.09.01.14c0-.07,0-.15,0-.22,0,.03-.01.05-.01.08Z"/>
  <path class="cls-9" d="m291.31,25.46c-.32-.88-.34-1.84-.07-2.72-.02-.04-.03-.08-.05-.12-.78.74-1.29,1.76-1.35,2.91,0,.07,0,.15,0,.22,0,.09.01.17.02.26.45-.27.94-.46,1.45-.55Z"/>
  <path class="cls-10" d="m291.31,25.46c-.32-.88-.34-1.84-.07-2.72-.02-.04-.03-.08-.05-.12-.78.74-1.29,1.76-1.35,2.91,0,.07,0,.15,0,.22,0,.09.01.17.02.26.45-.27.94-.46,1.45-.55Z"/>
  <path class="cls-9" d="m287.42,38.27c-.06-.13-.13-.25-.18-.39.06.13.11.26.18.39Z"/>
  <path class="cls-14" d="m287.42,38.27c.17.33.37.65.61.92.02,0,.04,0,.06-.01-.27-.28-.5-.58-.68-.91Z"/>
  <path class="cls-10" d="m287.42,38.27c.17.33.37.65.61.92.02,0,.04,0,.06-.01-.27-.28-.5-.58-.68-.91Z"/>
  <path class="cls-14" d="m287.18,37.76s.04.08.06.12c-.03-.07-.05-.14-.08-.2,0,.03,0,.05.02.08Z"/>
  <path class="cls-10" d="m287.18,37.76s.04.08.06.12c-.03-.07-.05-.14-.08-.2,0,.03,0,.05.02.08Z"/>
  <path class="cls-9" d="m290.53,40.53c.19-.58.51-1.14.97-1.61.14-.14.29-.26.44-.38-.79.04-1.59-.12-2.33-.54-1.38-.78-2.16-2.21-2.18-3.69-.53,1.01-.66,2.22-.27,3.38.03.07.05.14.08.2.05.13.12.26.18.39.18.33.41.63.68.91-.02,0-.04,0-.06.01.65.72,1.54,1.19,2.5,1.34Z"/>
  <path class="cls-10" d="m290.53,40.53c.19-.58.51-1.14.97-1.61.14-.14.29-.26.44-.38-.79.04-1.59-.12-2.33-.54-1.38-.78-2.16-2.21-2.18-3.69-.53,1.01-.66,2.22-.27,3.38.03.07.05.14.08.2.05.13.12.26.18.39.18.33.41.63.68.91-.02,0-.04,0-.06.01.65.72,1.54,1.19,2.5,1.34Z"/>
  <path class="cls-9" d="m301.81,26.95c-.31.07-.49.16-.49.16,0,0,.44-3.83,2.56-4.43.21-.06.33-.16.4-.28-.98-1.26-3.76-2.93-4.01-2.54-.19.3.06-.18.64-.76,0,0-.01,0-.02-.01-.56.07-1.1.25-1.6.54-.28-.79-.79-1.48-1.46-1.98-1.71-1.37-4.22-1.23-5.77.38-1.18,1.23-1.47,2.98-.91,4.48-.85.81-1.29,1.9-1.31,3,.05-1.16.56-2.18,1.35-2.91.02.04.03.08.05.12-.27.88-.25,1.84.07,2.72-.51.09-.99.27-1.45.55,0-.09-.02-.17-.02-.26,0,.09,0,.18,0,.27-.31.19-.6.4-.87.68-1.3,1.35-1.53,3.34-.72,4.92,0-.04,0-.07,0-.11,0,0,0,0,0,0,.17.39.41.74.69,1.06-.61.37-1.14.88-1.51,1.54-.64,1.14-.69,2.45-.27,3.59-.39-1.16-.26-2.37.27-3.38.02,1.48.8,2.91,2.18,3.69.74.42,1.54.58,2.33.54-.15.12-.3.24-.44.38-.45.47-.77,1.03-.97,1.61-.96-.16-1.84-.62-2.5-1.34-.59.12-1.17.36-1.67.74l.04,3.73c0,1.2.09,2.32.26,3.39.61.4,1.33.65,2.11.69,1.61.08,3.05-.74,3.85-2.02.55.3,1.17.5,1.84.53.55.03,1.08-.06,1.57-.22.06-.02.11-.03.17-.06.69-.26,1.29-.7,1.76-1.26,1.01.28,2.13.2,3.13-.33.07-.1.15-.21.21-.32.24.1.49.18.74.23-1.19-.29-2.14-1.05-2.71-2.04,1,.62,2.23.8,3.4.48-.34-.47-.56-1.15-.59-1.99-.05-1.35-.05-2.98,0-4.86.05-1.89.15-3.94.29-6.17.04-.62.09-1.25.14-1.87-.63.03-.99.22-.99.22,0,0,.06-.47.22-1.11Z"/>
  <path class="cls-2" d="m300.27,19.87c.25-.39,3.03,1.28,4.01,2.54.46-.78-1.97-2.63-3.37-3.3-.57.58-.83,1.06-.64.76Z"/>
  <path class="cls-2" d="m301.81,26.95c-.16.64-.22,1.11-.22,1.11,0,0,.36-.19.99-.22.02-.32.04-.63.07-.95-.34-.02-.63.01-.84.06Z"/>
  <path class="cls-15" d="m302.75,16.85c-1.92.48-3.11,2.63-2.75,2.06.08-.13.43-.03.88.18,0,0,.01,0,.02.01,1.4.67,3.84,2.52,3.37,3.3-.07.12-.19.22-.4.28-2.12.6-2.56,4.43-2.56,4.43,0,0,.17-.09.49-.16.21-.05.5-.07.84-.06.09-1.07.19-2.16.3-3.26.04-.41.41-.71.82-.65,1.03.15,2.09.37,3.18.66.92.25,1.74.53,2.48.85.03.01.06,0,.09.01.26-.2.57-.45.91-.73v-4.59c-.68,1-1.59,1.93-2.73,2.28-.17.05-.34.1-.53.12.04-.04.08-.07.14-.09.15-.06.22-.18.24-.33.09-.6-.69-1.79-1.72-2.78h-1.45c-.44,0-.78-.39-.72-.83.03-.2.06-.39.09-.59-.36-.14-.71-.19-1-.12Z"/>
  <path class="cls-14" d="m215.1,54.26c1.59-.43,3.14-.98,4.52-1.87,1.49-.96,3.38-2.78,3.52-4.68s-1.52-4.14-3.57-3.33c-2.15.85-3.1,2.53-5.82,1.92-1.23-.28-2.39-.94-3.58-1.39l-3.41,3.41c-3.31,3.31-8.71,3.26-12.08-.11l-7.75-7.75c-.26-.26-.5-.54-.72-.83l-.08-.08c-.72-.72-1.31-1.54-1.73-2.46-3.13-6.83-.5-15.07,8.43-14.62.98.05,2.03.21,3.16.48.5-.06.91-.09,1.14-.08-.19-1.17-.43-3.17-.27-5.16-.9.18-1.77.38-2.6.63-3,.9-5.52,2.18-7.55,3.85-2.03,1.67-3.57,3.65-4.61,5.95-1.04,2.3-1.56,4.88-1.56,7.73,0,9.4,5.61,16.61,14.71,19.08,5.96,1.62,12.31,1.05,18.33-.33.5-.11.99-.23,1.49-.37Z"/>
  <path class="cls-14" d="m201.28,21.19c.16-.14.31-.29.48-.41.87-.68,1.86-1.02,2.98-1.02s1.93.27,2.61.8c.03.03.06.06.1.09.9.19,1.64.52,1.96,1.03.04.06.07.13.11.19.13.11.24.22.32.35.11.17.19.34.27.52,2.46.55,4.54,1.76,5.88,3.5,2.78,2.69,3.48,7.03.2,12.23.23-.06.46-.11.67-.18,1.45-.46,2.64-1.06,3.56-1.81.92-.75,1.58-1.62,2-2.61.41-.99.62-2.02.62-3.08,0-2.42-.58-4.49-1.74-6.21-1.16-1.72-2.64-3.14-4.43-4.28-1.79-1.14-3.76-1.97-5.91-2.5-2.15-.53-4.25-.8-6.28-.8-1.15,0-2.24.05-3.31.13-.3,1.3-.45,2.76-.07,4.06Z"/>
  <path class="cls-4" d="m205.98,47.41c-3.31,3.31-8.71,3.26-12.08-.11l-7.68-7.68c.23.29.46.57.72.83l7.75,7.75c3.36,3.36,8.77,3.41,12.08.11l3.41-3.41c-.44-.17-.88-.3-1.33-.37l-2.88,2.88Z"/>
  <path class="cls-4" d="m215.98,26.25c2.18,2.84,2.37,7.06-1.04,12.01-.13.19-.27.37-.42.55.59-.08,1.14-.19,1.66-.33,3.28-5.2,2.57-9.55-.2-12.23Z"/>
  <path class="cls-6" d="m215.98,26.25c-1.33-1.74-3.41-2.96-5.88-3.5.87,1.95.26,4.3.4,3.57.03-.16-.27-.34-.74-.52.12,1,.17,2.01.12,3.03-.05,1.74-.24,3.19-.58,4.35-.34,1.16-.97,2.1-1.89,2.83-.27.21-.58.4-.91.58-.1.56-.4.97-.76.97-.14,0-.26-.06-.37-.17-.12-.03-.24-.1-.33-.22-.49.15-1,.29-1.57.39-1.28.24-2.88.4-4.8.48-1.18.05-2.16-.89-2.15-2.08,0-.3.01-.62.02-.95.05-1.23.19-2.53.44-3.88.24-1.35.57-2.71.98-4.06.02-.08.06-.15.08-.23-.01-.21-.02-.4-.01-.56-.61.06-1.75.39-3.13,1.82-2.05,2.13-7.48-.66-7.48-.66,0,0,.18-.02.49-.13-.56-.23-.91-.42-.91-.42,0,0,1.37-.17,2.87-1.77,1.18-1.25,4.34-1.98,6.16-2.2-1.13-.27-2.19-.43-3.16-.48-8.94-.45-11.56,7.79-8.43,14.62.42.92,1.02,1.75,1.73,2.46l.08.08,7.68,7.68c3.36,3.36,8.77,3.41,12.08.11l2.88-2.88c-.42-.07-.85-.1-1.29-.03-1.19.18-2.19.95-3.26,1.52.11.24.18.53.18.85,0,.76-.36,1.38-.8,1.38-.14,0-.26-.06-.37-.17-.39-.09-.69-.66-.69-1.36,0-.04,0-.07,0-.11-1.64.25-3.41-.49-4.32-1.87-.66-1-1.5-3.13-1.1-4.5-.13.17-.3.28-.48.28-.14,0-.26-.06-.37-.17-.39-.09-.69-.66-.69-1.36,0-.76.36-1.38.8-1.38.14,0,.26.06.37.17.39.09.69.66.69,1.36,0,.2-.03.38-.07.55.31-.44.84-.71,1.69-.71h12.41c1.08,0,2.06-.06,2.97-.19.15-.18.29-.36.42-.55,3.41-4.95,3.22-9.17,1.04-12.01Zm-30.06,5.82c0-.76.36-1.38.8-1.38.14,0,.26.06.37.17.39.09.69.66.69,1.36,0,.76-.36,1.38-.8,1.38-.14,0-.26-.06-.37-.17-.39-.09-.69-.66-.69-1.36Zm1.73,7.1c-.14,0-.26-.06-.37-.17-.39-.09-.69-.66-.69-1.36,0-.76.36-1.38.8-1.38.14,0,.26.06.37.17.39.09.69.66.69,1.36,0,.76-.36,1.38-.8,1.38Zm10.78,6.33c.14,0,.26.06.37.17.39.09.69.66.69,1.36,0,.76-.36,1.38-.8,1.38-.14,0-.26-.06-.37-.17-.39-.09-.69-.66-.69-1.36,0-.76.36-1.38.8-1.38Zm-7.27-13.58c0-.76.36-1.38.8-1.38.14,0,.26.06.37.17.39.09.69.66.69,1.36,0,.76-.36,1.38-.8,1.38-.14,0-.26-.06-.37-.17-.39-.09-.69-.66-.69-1.36Zm1.6,6.83c-.14,0-.26-.06-.37-.17-.39-.09-.69-.66-.69-1.36,0-.76.36-1.38.8-1.38.14,0,.26.06.37.17.39.09.69.66.69,1.36,0,.76-.36,1.38-.8,1.38Zm1.6,6.32c-.14,0-.26-.06-.37-.17-.39-.09-.69-.66-.69-1.36,0-.76.36-1.38.8-1.38.14,0,.26.06.37.17.39.09.69.66.69,1.36,0,.76-.36,1.38-.8,1.38Zm17.63-17.76c0-.76.36-1.38.8-1.38.14,0,.26.06.37.17.39.09.69.66.69,1.36,0,.76-.36,1.38-.8,1.38-.14,0-.26-.06-.37-.17-.39-.09-.69-.66-.69-1.36Zm-.54,11.36c-.14,0-.26-.06-.37-.17-.39-.09-.69-.66-.69-1.36,0-.76.36-1.38.8-1.38.14,0,.26.06.37.17.39.09.69.66.69,1.36,0,.76-.36,1.38-.8,1.38Zm2.28-6.83c.14,0,.26.06.37.17.39.09.69.66.69,1.36,0,.76-.36,1.38-.8,1.38-.14,0-.26-.06-.37-.17-.39-.09-.69-.66-.69-1.36,0-.76.36-1.38.8-1.38Z"/>
  <path class="cls-8" d="m210.08,25.77c.02-.11-.12-.23-.36-.35,0,.04.02.07.02.11.01.09.01.18.02.27.47.18.77.36.74.52-.14.73.47-1.62-.4-3.57-.08-.18-.17-.35-.27-.52-.08-.13-.19-.25-.32-.35,1.11,2,.41,4.67.56,3.9Z"/>
  <path class="cls-8" d="m201.12,21.34c.05-.05.11-.09.16-.14-.38-1.3-.23-2.76.07-4.06-.19.01-.37.04-.55.05-.25,1.38-.27,2.89.32,4.15Z"/>
  <path class="cls-8" d="m194.89,28.12c1.37-1.43,2.52-1.76,3.13-1.82,0-.33.04-.54.04-.54,0,0-1.54-.32-3.59,1.82-1.53,1.59-4.93.44-6.57-.24-.3.1-.49.13-.49.13,0,0,5.43,2.79,7.48.66Z"/>
  <path class="cls-15" d="m208.95,22.63c.37.82.63,1.75.78,2.79.24.12.38.24.36.35-.15.77.54-1.9-.56-3.9-.04-.06-.07-.13-.11-.19-.32-.51-1.06-.85-1.96-1.03.63.52,1.13,1.18,1.5,1.98Z"/>
  <path class="cls-15" d="m197.15,22.87c-.23-.01-.63.01-1.14.08-1.82.23-4.99.95-6.16,2.2-1.5,1.6-2.87,1.77-2.87,1.77,0,0,.35.18.91.42,1.64.69,5.04,1.83,6.57.24,2.05-2.13,3.59-1.82,3.59-1.82,0,0-.03.22-.04.54,0,.16,0,.35.01.56.4-1.26.89-2.41,1.48-3.44.47-.81,1.01-1.51,1.61-2.09-.59-1.26-.58-2.77-.32-4.15-1.37.12-2.68.29-3.92.53-.16,1.99.08,3.99.27,5.16Z"/>
  <path class="cls-11" d="m187.52,32.07c0,.76-.36,1.38-.8,1.38-.04,0-.07-.01-.11-.02.11.1.24.17.37.17.44,0,.8-.62.8-1.38,0-.69-.3-1.26-.69-1.36.25.23.42.68.42,1.21Z"/>
  <path class="cls-4" d="m186.73,33.45c.44,0,.8-.62.8-1.38,0-.53-.17-.98-.42-1.21-.11-.1-.24-.17-.37-.17-.44,0-.8.62-.8,1.38,0,.69.3,1.26.69,1.36.04,0,.07.02.11.02Z"/>
  <path class="cls-11" d="m187.77,36.44c.25.23.42.68.42,1.21,0,.76-.36,1.38-.8,1.38-.04,0-.07-.01-.11-.02.11.1.24.17.37.17.44,0,.8-.62.8-1.38,0-.69-.3-1.26-.69-1.36Z"/>
  <path class="cls-4" d="m188.19,37.65c0-.53-.17-.98-.42-1.21-.11-.1-.24-.17-.37-.17-.44,0-.8.62-.8,1.38,0,.69.3,1.26.69,1.36.04,0,.07.02.11.02.44,0,.8-.62.8-1.38Z"/>
  <path class="cls-11" d="m193.56,37.37c0-.69-.3-1.26-.69-1.36.25.23.42.68.42,1.21,0,.76-.36,1.38-.8,1.38-.04,0-.07-.01-.11-.02.11.1.24.17.37.17.44,0,.8-.62.8-1.38Z"/>
  <path class="cls-4" d="m193.3,37.23c0-.53-.17-.98-.42-1.21-.11-.1-.24-.17-.37-.17-.44,0-.8.62-.8,1.38,0,.69.3,1.26.69,1.36.04,0,.07.02.11.02.44,0,.8-.62.8-1.38Z"/>
  <path class="cls-11" d="m196.84,37.8c.25.23.42.68.42,1.21,0,.76-.36,1.38-.8,1.38-.04,0-.07-.01-.11-.02.11.1.24.17.37.17.18,0,.35-.11.48-.28.06-.2.14-.38.25-.54.04-.17.07-.36.07-.55,0-.69-.3-1.26-.69-1.36Z"/>
  <path class="cls-4" d="m196.46,40.38c.44,0,.8-.62.8-1.38,0-.53-.17-.98-.42-1.21-.11-.1-.24-.17-.37-.17-.44,0-.8.62-.8,1.38,0,.69.3,1.26.69,1.36.04,0,.07.02.11.02Z"/>
  <path class="cls-11" d="m194.48,42.34c.25.23.42.68.42,1.21,0,.76-.36,1.38-.8,1.38-.04,0-.07-.01-.11-.02.11.1.24.17.37.17.44,0,.8-.62.8-1.38,0-.69-.3-1.26-.69-1.36Z"/>
  <path class="cls-4" d="m194.9,43.55c0-.53-.17-.98-.42-1.21-.11-.1-.24-.17-.37-.17-.44,0-.8.62-.8,1.38,0,.69.3,1.26.69,1.36.04,0,.07.02.11.02.44,0,.8-.62.8-1.38Z"/>
  <path class="cls-11" d="m192.76,31.92c0,.76-.36,1.38-.8,1.38-.04,0-.07-.01-.11-.02.11.1.24.17.37.17.44,0,.8-.62.8-1.38,0-.69-.3-1.26-.69-1.36.25.23.42.68.42,1.21Z"/>
  <path class="cls-4" d="m191.97,33.3c.44,0,.8-.62.8-1.38,0-.53-.17-.98-.42-1.21-.11-.1-.24-.17-.37-.17-.44,0-.8.62-.8,1.38,0,.69.3,1.26.69,1.36.04,0,.07.02.11.02Z"/>
  <path class="cls-11" d="m199.24,46.88c0,.76-.36,1.38-.8,1.38-.04,0-.07-.01-.11-.02.11.1.24.17.37.17.44,0,.8-.62.8-1.38,0-.69-.3-1.26-.69-1.36.25.23.42.68.42,1.21Z"/>
  <path class="cls-4" d="m198.33,48.23s.07.02.11.02c.44,0,.8-.62.8-1.38,0-.53-.17-.98-.42-1.21-.11-.1-.24-.17-.37-.17-.44,0-.8.62-.8,1.38,0,.69.3,1.26.69,1.36Z"/>
  <path class="cls-11" d="m211.57,35.94c.25.23.42.68.42,1.21,0,.76-.36,1.38-.8,1.38-.04,0-.07-.01-.11-.02.11.1.24.17.37.17.44,0,.8-.62.8-1.38,0-.69-.3-1.26-.69-1.36Z"/>
  <path class="cls-4" d="m211.99,37.15c0-.53-.17-.98-.42-1.21-.11-.1-.24-.17-.37-.17-.44,0-.8.62-.8,1.38,0,.69.3,1.26.69,1.36.04,0,.07.02.11.02.44,0,.8-.62.8-1.38Z"/>
  <path class="cls-11" d="m205.49,37.42s-.07-.01-.11-.02c.11.1.24.17.37.17.36,0,.66-.41.76-.97-.11.06-.23.11-.34.16-.14.4-.39.67-.68.67Z"/>
  <path class="cls-4" d="m206.17,36.76c-.34.16-.72.3-1.13.43.1.11.21.19.33.22.04,0,.07.02.11.02.29,0,.54-.27.68-.67Z"/>
  <path class="cls-11" d="m203.42,48.1s-.07-.01-.11-.02c.11.1.24.17.37.17.44,0,.8-.62.8-1.38,0-.32-.07-.62-.18-.85-.06.03-.12.06-.17.09.05.19.09.39.09.62,0,.76-.36,1.38-.8,1.38Z"/>
  <path class="cls-4" d="m203.31,48.08s.07.02.11.02c.44,0,.8-.62.8-1.38,0-.22-.03-.43-.09-.62-.33.17-.66.31-1.02.42-.16.05-.32.07-.49.09,0,.04,0,.07,0,.11,0,.69.3,1.26.69,1.36Z"/>
  <path class="cls-11" d="m214.54,33.22c0,.76-.36,1.38-.8,1.38-.04,0-.07-.01-.11-.02.11.1.24.17.37.17.44,0,.8-.62.8-1.38,0-.69-.3-1.26-.69-1.36.25.23.42.68.42,1.21Z"/>
  <path class="cls-4" d="m213.63,34.58s.07.02.11.02c.44,0,.8-.62.8-1.38,0-.53-.17-.98-.42-1.21-.11-.1-.24-.17-.37-.17-.44,0-.8.62-.8,1.38,0,.69.3,1.26.69,1.36Z"/>
  <path class="cls-11" d="m213.59,27.32c0,.76-.36,1.38-.8,1.38-.04,0-.07-.01-.11-.02.11.1.24.17.37.17.44,0,.8-.62.8-1.38,0-.69-.3-1.26-.69-1.36.25.23.42.68.42,1.21Z"/>
  <path class="cls-4" d="m212.79,28.69c.44,0,.8-.62.8-1.38,0-.53-.17-.98-.42-1.21-.11-.1-.24-.17-.37-.17-.44,0-.8.62-.8,1.38,0,.69.3,1.26.69,1.36.04,0,.07.02.11.02Z"/>
</svg>