<svg xmlns="http://www.w3.org/2000/svg" width="34.885" height="31.816" viewBox="0 0 34.885 31.816">
  <path id="Instagram_Icon" data-name="Instagram Icon" d="M17.443,9.987c-4.95,0-8.942,3.641-8.942,8.155s3.99,8.155,8.942,8.155,8.942-3.641,8.942-8.155S22.391,9.987,17.443,9.987Zm0,13.451a5.586,5.586,0,0,1-5.814-5.3,5.581,5.581,0,0,1,5.814-5.3,5.581,5.581,0,0,1,5.814,5.3A5.586,5.586,0,0,1,17.443,23.438ZM28.832,9.653a2.094,2.094,0,0,1-4.172,0,2.094,2.094,0,0,1,4.172,0Zm5.922,1.931a8.97,8.97,0,0,0-2.818-6.669C29.9,3.056,27.422,2.473,24.629,2.35c-2.877-.151-11.507-.151-14.387,0A10.954,10.954,0,0,0,2.935,4.915,9,9,0,0,0,.117,11.584c-.163,2.626-.163,10.5,0,13.123a8.97,8.97,0,0,0,2.818,6.669c2.047,1.859,4.515,2.442,7.307,2.565,2.879.149,11.51.149,14.39,0,2.794-.121,5.269-.7,7.307-2.565a9.029,9.029,0,0,0,2.818-6.669c.163-2.626.163-10.49,0-13.116ZM31.038,27.517a5.652,5.652,0,0,1-3.315,3.024c-2.3.83-7.744.639-10.281.639s-7.993.185-10.281-.639a5.653,5.653,0,0,1-3.315-3.024c-.91-2.094-.7-7.062-.7-9.376s-.205-7.285.7-9.376A5.652,5.652,0,0,1,7.161,5.742c2.3-.83,7.744-.639,10.281-.639s7.993-.185,10.281.639a5.653,5.653,0,0,1,3.315,3.024c.91,2.094.7,7.062.7,9.376S31.948,25.431,31.038,27.517Z" transform="translate(0.005 -2.237)" fill="#a787be"/>
</svg>
