<svg xmlns="http://www.w3.org/2000/svg" width="36" height="36" viewBox="0 0 36 36">
  <path id="Shopping_Icon" data-name="Shopping Icon" d="M33.008,21.186,35.962,6.561A1.648,1.648,0,0,0,34.5,4.5H9.951L9.378,1.349A1.555,1.555,0,0,0,7.908,0H1.5A1.6,1.6,0,0,0,0,1.688V2.813A1.6,1.6,0,0,0,1.5,4.5H5.868l4.391,24.148A4.044,4.044,0,0,0,8.5,32.063,3.738,3.738,0,0,0,12,36a3.738,3.738,0,0,0,3.5-3.937,4.179,4.179,0,0,0-1.052-2.812h13.1A4.179,4.179,0,0,0,26.5,32.063,3.738,3.738,0,0,0,30,36a3.738,3.738,0,0,0,3.5-3.937,4,4,0,0,0-1.974-3.544l.345-1.707a1.648,1.648,0,0,0-1.463-2.061H13.632l-.409-2.25H31.545A1.55,1.55,0,0,0,33.008,21.186Z" fill="#f7931e"/>
</svg>
