<?xml version="1.0" encoding="UTF-8"?>
<svg id="logo" xmlns="http://www.w3.org/2000/svg" viewBox="0 0 1042.04 977.57">
  <defs>
    <style>
      .cls-1, .cls-2, .cls-3 {
        fill: #fff;
      }

      .cls-4 {
        fill: #c62261;
      }

      .cls-5 {
        opacity: .33;
      }

      .cls-6 {
        fill: #3faf3f;
      }

      .cls-7 {
        fill: #309930;
      }

      .cls-8 {
        fill: #ed8cb3;
        opacity: .25;
      }

      .cls-9 {
        fill: #f9d2e4;
      }

      .cls-9, .cls-2 {
        opacity: .13;
      }

      .cls-10 {
        opacity: .4;
      }

      .cls-11 {
        fill: #bf1b6d;
      }

      .cls-12 {
        fill: #ea1f72;
      }

      .cls-13 {
        fill: #f4607c;
      }

      .cls-14 {
        fill: #8c224d;
      }

      .cls-15 {
        fill: #e874b7;
      }

      .cls-16 {
        fill: #163816;
      }

      .cls-3 {
        opacity: .28;
      }

      .cls-17 {
        fill: #f772b2;
      }

      .cls-18 {
        fill: #911947;
      }
    </style>
  </defs>
  <g id="silly_strawberry.svg">
    <g>
      <g>
        <path class="cls-7" d="m669.04,15.44c-.08-.25-.15-.38-.15-.38,0,0,.05.14.15.38Z"/>
        <path class="cls-7" d="m664.84,17.07l-.14-.36,8.16-3.76c.12.22.29.6.46,1.12l-7.76,2.75,1.3-.69-2.11.67c.04.12.08.21.11.27h-.01Z"/>
      </g>
      <g>
        <path class="cls-7" d="m669.04,15.44c.92,2.88,2.98,21.46-90.26,32.52-78.45,9.3-126.19,91.81-143.74,128.54C341.95,3.96,279.53,39.73,259.88,16.85c-19.58-22.8-72.11,30.15-76.37,34.52,2.24-2.02,18.3-11.59,66.93,68.74,52.82,87.25,195.59,77.45,195.59,77.45-.74-1.47-1.48-2.93-2.22-4.38,203.06-12.1,195.77-85.4,225.08-93.94,28.85-8.4,2.37-78.12.15-83.81Z"/>
        <path class="cls-7" d="m432.85,202.41c-14.31,0-38.55-1.01-65.69-6.44-56.61-11.32-98.3-36.75-120.57-73.53-35.14-58.05-51.96-66.79-57.56-67.85-1.84-.35-2.52.14-2.53.15l-6.21-6.5c6.91-7.08,42.64-42.33,67.5-41.54,6.34.2,11.56,2.63,15.51,7.23,4.13,4.81,11.27,6.62,21.16,9.13,15.51,3.94,36.75,9.33,63,30.22,29.52,23.5,58.16,60.67,87.38,113.47,20.07-39.37,67.78-114.29,143.41-123.25,67.39-7.99,82.3-19.69,85.58-24.35,1.08-1.54.91-2.35.91-2.36l8.49-2.97c3.59,9.21,20.92,56.31,9.91,78.64-2.81,5.69-7.18,9.44-13,11.13-6.09,1.77-10.69,7.53-17.07,15.49-10.19,12.73-24.15,30.18-55.06,45.62-35.19,17.58-83.37,28.25-147.11,32.56l2.19,4.35-6.76.46c-.53.04-5.44.36-13.49.36ZM194.56,46.89c14.71,5.86,34.76,29.65,59.72,70.89,26.44,43.67,76.93,61.83,114.63,69.36,30.46,6.09,57.63,6.43,69.9,6.19l-2.16-4.23,6.87-.41c149.43-8.91,182.66-50.44,202.52-75.25,7.13-8.91,12.76-15.94,21.58-18.51,3.34-.97,5.77-3.09,7.44-6.47,6.52-13.22.11-41.17-6.53-61.1-11.42,10.97-41.37,19.39-89.24,25.06-76.56,9.08-123.56,91.15-140.21,126.01l-3.82,7.99-4.2-7.79C362.89,52.24,312.4,39.43,282.24,31.78c-11.06-2.81-19.79-5.02-25.78-11.99-2.27-2.64-5.2-3.98-8.97-4.1-14.72-.47-37.53,16.93-52.94,31.21Z"/>
      </g>
      <g>
        <path class="cls-7" d="m183.22,51.67s.1-.11.28-.29c-.19.17-.28.29-.28.29Z"/>
        <path class="cls-7" d="m186.46,54.79l-6.8-5.87c.15-.2.42-.51.83-.88l5.71,5.93-1.15-.89,1.48,1.64c.09-.08.15-.15.19-.2h0s-.26.28-.26.28Z"/>
      </g>
    </g>
    <g>
      <g>
        <path class="cls-6" d="m771.64,8.76c-.08-.25-.15-.38-.15-.38,0,0,.05.14.15.38Z"/>
        <path class="cls-6" d="m767.45,10.4l-.14-.36,8.16-3.76c.12.22.29.6.46,1.12l-7.77,2.75,1.3-.69-2.11.67c.04.12.08.21.11.27h-.01Z"/>
      </g>
      <g>
        <path class="cls-6" d="m771.64,8.76c.92,2.88,2.98,21.46-90.26,32.52-78.45,9.3-126.19,91.81-143.74,128.54C444.56-2.72,382.13,33.06,362.48,10.18c-19.58-22.8-72.11,30.15-76.37,34.52,2.24-2.02,18.3-11.59,66.93,68.74,52.82,87.25,195.59,77.45,195.59,77.45-.74-1.47-1.48-2.93-2.22-4.38,203.06-12.1,195.77-85.4,225.08-93.94,28.85-8.4,2.37-78.12.15-83.81Z"/>
        <path class="cls-6" d="m535.45,195.73c-14.31,0-38.55-1.01-65.69-6.44-56.61-11.32-98.3-36.75-120.57-73.53-35.14-58.05-51.96-66.79-57.56-67.85-1.84-.35-2.52.14-2.53.15l-6.21-6.5C289.79,34.48,325.51-.78,350.39.01c6.34.2,11.56,2.63,15.51,7.23,4.13,4.81,11.27,6.62,21.16,9.13,15.51,3.94,36.75,9.33,63,30.22,29.52,23.5,58.16,60.67,87.38,113.47,20.07-39.37,67.78-114.29,143.41-123.25,67.39-7.99,82.3-19.69,85.58-24.35,1.08-1.54.91-2.35.91-2.36l8.49-2.97c3.59,9.21,20.92,56.31,9.91,78.64-2.81,5.69-7.18,9.44-13,11.13-6.09,1.77-10.69,7.53-17.07,15.49-10.19,12.73-24.15,30.18-55.06,45.62-35.19,17.58-83.37,28.25-147.11,32.56l2.19,4.35-6.76.46c-.53.04-5.44.36-13.49.36ZM297.17,40.22c14.71,5.86,34.76,29.65,59.72,70.89,26.4,43.61,76.8,61.77,114.43,69.32,30.5,6.12,57.81,6.47,70.11,6.22l-2.16-4.22,6.87-.41c149.43-8.91,182.66-50.44,202.52-75.25,7.13-8.91,12.76-15.94,21.58-18.51,3.34-.97,5.77-3.09,7.44-6.47,6.52-13.22.11-41.17-6.53-61.1-11.42,10.97-41.37,19.39-89.24,25.06-76.56,9.08-123.56,91.15-140.21,126.01l-3.82,7.99-4.2-7.79C465.5,45.57,415.01,32.76,384.85,25.1c-11.06-2.81-19.79-5.02-25.78-11.99-2.27-2.64-5.2-3.98-8.96-4.1-14.74-.47-37.53,16.93-52.94,31.21Z"/>
      </g>
      <g>
        <path class="cls-6" d="m285.82,44.99s.1-.11.28-.29c-.19.17-.28.29-.28.29Z"/>
        <path class="cls-6" d="m289.07,48.11l-6.81-5.86c.16-.2.43-.52.84-.89l5.66,5.89-1.14-.88,1.51,1.67c.09-.08.16-.15.2-.21h0s-.26.28-.26.28Z"/>
      </g>
    </g>
    <g class="cls-5">
      <path class="cls-6" d="m761.11,31.35s-138.27,140.56-158.85,132.69"/>
      <path class="cls-16" d="m761.11,31.35c-28.97,32.59-60.19,63.14-93.11,91.71-16.74,13.97-33.53,28.4-53.07,38.35-3.9,1.66-8.37,3.98-12.67,2.63,4.34.8,8.35-1.89,12.02-3.85,18.34-11.55,34.32-26.46,50.61-40.69,32.21-28.71,64.13-59.29,96.23-88.15h0Z"/>
    </g>
    <g class="cls-5">
      <path class="cls-6" d="m358.2,46.03s138.27,140.56,158.85,132.69"/>
      <path class="cls-16" d="m358.2,46.03c32.1,28.85,64.02,59.44,96.23,88.15,16.28,14.23,32.27,29.14,50.6,40.69,3.67,1.97,7.68,4.65,12.02,3.85-4.3,1.35-8.77-.97-12.67-2.63-19.54-9.96-36.34-24.39-53.07-38.35-32.92-28.57-64.15-59.12-93.11-91.71h0Z"/>
    </g>
    <g>
      <path class="cls-12" d="m515.92,188.52S-45.3,45.16,6.36,556.55c0,0,63.73,263.2,379.49,385.59,315.76,122.39,566.84-249.52,566.84-249.52,0,0,273.08-393.32-152-526.95,0,0-164.18-46.62-284.77,22.85Z"/>
      <path class="cls-11" d="m515.39,969.81c-44.17,0-87.85-8.3-130.63-24.88-72.33-28.03-137.38-65.84-193.34-112.37-44.79-37.24-83.88-80.11-116.21-127.42C20.14,624.52,3.6,557.92,3.44,557.25l-.07-.4c-14.29-141.44,17-246.31,92.98-311.71,34.19-29.43,77.62-50.86,129.06-63.7,41.04-10.24,87.26-15.07,137.37-14.35,79.04,1.14,143.24,15.95,152.69,18.23,62.71-35.7,136.9-39.99,188.21-37.28,55.81,2.95,97.41,14.62,97.82,14.74,121.17,38.09,197.47,100.95,226.86,186.87,12.54,36.64,16.47,77.6,11.69,121.73-3.82,35.21-13.16,72.51-27.77,110.86-24.85,65.24-56.82,111.63-57.14,112.09-.61.9-64.2,94.25-165.66,171.33-59.68,45.34-120.61,76.3-181.11,92.02-31.13,8.09-62.18,12.13-92.99,12.13ZM9.32,556.03c1.01,3.98,17.92,68.33,71.01,145.95,50.31,73.56,144.33,174.46,306.6,237.35,161.77,62.7,306.16-8.01,398.81-78.36,100.71-76.48,163.84-169.11,164.47-170.04.34-.49,31.96-46.39,56.54-110.98,22.61-59.4,43.72-147.25,15.95-228.4-28.75-83.99-103.74-145.58-222.9-183.04-.33-.09-41.4-11.6-96.57-14.5-50.76-2.67-124.19,1.59-185.81,37.09l-1.06.61-1.18-.3c-.67-.17-68.07-17.14-152.62-18.34-77.77-1.1-186.42,11.29-262.31,76.62C25.89,313.72-4.7,416.77,9.32,556.03Z"/>
    </g>
    <g>
      <circle class="cls-17" cx="232.32" cy="668.99" r="35.33"/>
      <path class="cls-13" d="m232.32,705.82c-9.84,0-19.09-3.83-26.05-10.79-6.96-6.96-10.79-16.21-10.79-26.05s3.83-19.09,10.79-26.05c6.96-6.96,16.21-10.79,26.05-10.79s19.09,3.83,26.05,10.79c14.36,14.36,14.36,37.73,0,52.09h0c-6.96,6.96-16.21,10.79-26.05,10.79Zm0-70.67c-9.04,0-17.53,3.52-23.92,9.91s-9.91,14.89-9.91,23.92,3.52,17.53,9.91,23.92,14.89,9.91,23.92,9.91,17.53-3.52,23.92-9.91c13.19-13.19,13.19-34.66,0-47.85-6.39-6.39-14.89-9.91-23.92-9.91Z"/>
    </g>
    <g>
      <circle class="cls-17" cx="642.33" cy="684.07" r="35.33"/>
      <path class="cls-13" d="m642.33,720.9c-9.84,0-19.09-3.83-26.05-10.79-6.96-6.96-10.79-16.21-10.79-26.05s3.83-19.09,10.79-26.05c6.96-6.96,16.21-10.79,26.05-10.79s19.09,3.83,26.05,10.79c14.36,14.36,14.36,37.73,0,52.09h0c-6.96,6.96-16.21,10.79-26.05,10.79Zm0-70.67c-9.04,0-17.53,3.52-23.92,9.91s-9.91,14.89-9.91,23.92,3.52,17.53,9.91,23.92,14.89,9.91,23.92,9.91,17.53-3.52,23.92-9.91h0c13.19-13.19,13.19-34.66,0-47.85-6.39-6.39-14.89-9.91-23.92-9.91Z"/>
    </g>
    <path class="cls-2" d="m632.41,650.12c-12.73,19.91-19.69,34.32-12.69,58.11-2.12-1.88-4-4.08-5.49-6.55-11.41-18.14-.33-43.19,18.18-51.56h0Z"/>
    <path class="cls-8" d="m985.16,379.03l-198.73-161.59c-13.9-11.3-.38-33.23,15.94-25.83,68.29,30.94,158.9,85.06,205.81,168.08,8.3,14.69-9.93,29.98-23.02,19.34Z"/>
    <path class="cls-8" d="m861.93,742.42c-47.33,58.15-122.77,131.96-215.01,156.14"/>
    <path class="cls-9" d="m507.37,197.7c-11.23,178.74-39.91,358.79-19.59,536.92,6.78,54.38,18.89,107.78,42.44,157.8,14.32,30.79,33.25,58.59,55.43,85.15-33.68-13.3-63.78-35.92-88.02-63.12-155.74-176.29-102.34-528.51,9.73-716.75h0Z"/>
    <g>
      <path class="cls-1" d="m560.73,375.48c2.66,28.83,11.45,54.94,24.25,75.83,0,0,14.26-9.71,41.92-10.32-8.6-43.64,27.61-74.14,27.61-74.14-63.08-41.9-12.37-134.32-12.37-134.32-51.79,4.77-88.24,68.77-81.41,142.95Z"/>
      <path d="m584.53,453.42l-.82-1.34c-13.41-21.88-21.87-48.33-24.47-76.47h0c-6.9-74.89,30.23-139.75,82.76-144.59l2.81-.26-1.36,2.47c-.13.23-12.64,23.27-17.32,51.05-6.23,36.94,3.6,64.29,29.21,81.3l1.67,1.11-1.53,1.29c-.35.3-35.43,30.47-27.1,72.7l.34,1.75-1.78.04c-26.82.59-40.97,9.97-41.11,10.06l-1.3.88Zm-22.3-78.09c2.5,27.14,10.54,52.66,23.26,73.9,4.09-2.35,17.35-8.9,39.63-9.71-6.53-38.04,20.36-66.23,26.99-72.52-25.16-17.59-35.16-46.35-28.91-83.29,3.87-22.88,12.95-42.59,16.33-49.39-49.42,6.68-83.92,69.1-77.3,141.01h0Z"/>
    </g>
    <g>
      <path d="m626.91,440.98c38.25-4.18,72.49,6.09,99.66,19.73,16.71-26.33,25.37-62.97,21.72-102.51-6.83-74.18-54.36-130.45-106.15-125.68,0,0-50.71,92.42,12.37,134.32,0,0-36.21,30.5-27.61,74.14Z"/>
      <path d="m726.75,461.36l-.4-.2c-33.15-16.65-66.58-23.27-99.38-19.68l-.46.05-.09-.45c-8.01-40.62,22.95-70.27,27.28-74.18-32.29-21.82-33.89-57.15-29.52-83.01,4.75-28.1,17.4-51.37,17.53-51.6l.13-.23.26-.02c51.99-4.79,99.85,51.8,106.69,126.13,3.5,38.01-4.44,75.49-21.8,102.83l-.24.38Zm-82.43-21.83c27.21,0,54.74,6.88,82.07,20.53,17.07-27.12,24.87-64.2,21.41-101.82-6.79-73.66-54.01-129.77-105.34-125.25-1.33,2.5-12.83,24.64-17.3,51.08-4.34,25.7-2.73,60.86,29.63,82.35l.56.37-.51.43c-.36.3-35.64,30.61-27.53,73.21,5.65-.6,11.33-.9,17.01-.9Z"/>
    </g>
    <path class="cls-3" d="m313.42,486.05c-31.41-2.05-55.57.91-83.42,16.32,17.74-25.71,57.11-31.7,83.42-16.32h0Z"/>
    <path class="cls-3" d="m575.67,373.64c-.52,18.83.19,37.2,6.63,54.88,2.03,5.8,4.71,11.41,7.57,17.47-23-14.74-28.4-49.83-14.2-72.35h0Z"/>
    <g>
      <path class="cls-1" d="m198.03,401.56c2.56,27.76,11.02,52.9,23.35,73.01,0,0,13.73-9.35,40.36-9.94-8.28-42.02,26.58-71.39,26.58-71.39-60.74-40.34-11.91-129.33-11.91-129.33-49.87,4.59-84.96,66.22-78.38,137.64Z"/>
      <path d="m220.92,476.69l-.82-1.34c-12.92-21.08-21.07-46.55-23.57-73.66h0c-6.64-72.13,29.13-134.61,79.74-139.27l2.81-.26-1.36,2.47c-.12.22-12.16,22.4-16.67,49.13-5.99,35.54,3.46,61.86,28.1,78.22l1.67,1.11-1.53,1.29c-.34.29-34.08,29.32-26.08,69.95l.34,1.75-1.78.04c-25.81.57-39.42,9.59-39.55,9.68l-1.3.88Zm-21.4-75.27c2.4,26.1,10.13,50.65,22.36,71.08,3.99-2.29,16.74-8.54,38.07-9.32-6.23-36.52,19.49-63.61,25.96-69.77-24.2-16.96-33.82-44.65-27.8-80.21,3.71-21.93,12.39-40.84,15.69-47.47-47.5,6.5-80.64,66.54-74.27,135.7h0Z"/>
    </g>
    <g>
      <path d="m261.74,464.63c36.83-4.03,69.8,5.86,95.96,19,16.09-25.35,24.42-60.63,20.92-98.7-6.58-71.42-52.34-125.6-102.21-121.01,0,0-48.83,88.98,11.91,129.33,0,0-34.86,29.37-26.58,71.39Z"/>
      <path d="m357.88,484.28l-.4-.2c-31.91-16.03-64.11-22.4-95.68-18.95l-.46.05-.09-.45c-7.7-39.07,22.02-67.6,26.26-71.43-31.08-21.02-32.62-55.03-28.41-79.93,4.58-27.06,16.75-49.47,16.88-49.69l.13-.23.26-.02c24.28-2.24,48.35,9.19,67.76,32.17,19.37,22.93,31.79,54.64,34.98,89.29,3.37,36.6-4.28,72.69-20.99,99.02l-.24.38Zm-79.37-21.06c26.2,0,52.7,6.62,79.01,19.77,16.43-26.11,23.93-61.8,20.6-98.01-3.17-34.44-15.51-65.96-34.75-88.73-19.12-22.64-42.78-33.94-66.64-31.85-1.3,2.45-12.35,23.75-16.65,49.17-4.18,24.74-2.62,58.58,28.52,79.27l.56.37-.51.43c-.35.29-34.29,29.46-26.5,70.46,5.44-.58,10.9-.87,16.37-.87Z"/>
    </g>
    <path class="cls-3" d="m685.63,469.77c-17.19-7.63-36.51-11.31-54.88-6.62-11.34,2.68-21.14,7.74-31.73,13.34,4.67-6.63,10.87-12.14,17.99-16.39,14.37-8.71,32.98-10.37,48.56-4.19,7.64,3.02,14.84,7.49,20.06,13.87h0Z"/>
    <path class="cls-1" d="m345.28,677.39c74.69,20.89,157.32,46.94,278.74-44.85,0,0,85.03-44.8,76.69,40.34-11.36,115.89-302.37,164-384.21,75.71-.89-.96-2.17-1.44-3.23-2.15-36.2-24.38-10.03-80.8,32.01-69.05Z"/>
    <rect class="cls-15" x="275.95" y="703.44" width="82.95" height="8" transform="translate(-457.41 736.64) rotate(-67.99)"/>
    <rect class="cls-15" x="346.11" y="733.52" width="104.47" height="8" transform="translate(-429.21 870.8) rotate(-70.78)"/>
    <rect class="cls-15" x="603.03" y="649.69" width="8" height="115.51" transform="translate(-198.54 238.38) rotate(-19.16)"/>
    <rect class="cls-15" x="664.73" y="607.72" width="8" height="106.54" transform="translate(-269.17 594.13) rotate(-40.59)"/>
    <rect class="cls-15" x="407.64" y="738.76" width="104.94" height="8" transform="translate(-314.61 1146.73) rotate(-85.76)"/>
    <rect class="cls-15" x="525.46" y="680.2" width="8" height="108.74" transform="translate(-214.34 218.15) rotate(-19.44)"/>
    <path class="cls-12" d="m457.94,801.58c-9.44,0-18.76-.32-27.9-.97-59.49-4.22-106.65-22.04-132.81-50.19-.16-.11-.51-.3-.77-.45-.48-.27-1.07-.6-1.68-1.01-23.4-15.76-25.25-41.48-16.7-59.99,8.57-18.56,29.41-33.87,56.66-26.25l5.42,1.52c77.03,21.61,164.34,46.11,290-48.89l.42-.32.47-.25c1.94-1.02,47.73-24.78,74.75-6.62,14.4,9.68,20.32,28.72,17.59,56.58-2.46,25.1-15.99,48.26-40.2,68.84-21.3,18.1-50.95,33.86-85.74,45.58-43.21,14.55-92.72,22.41-139.5,22.41Zm-136.96-127.79c-14.81,0-25.97,9.52-31.1,20.64-5.78,12.51-6.06,31.48,12.16,43.75.24.16.5.3.76.44,1.07.6,2.53,1.41,3.86,2.85,53.19,57.39,190.19,57.85,286.63,25.37,70.33-23.69,113.03-61.36,117.15-103.36,2.23-22.73-1.77-37.7-11.89-44.51-16.85-11.35-49.29,1.05-61,7.08-130.57,98.5-221.06,73.11-300.91,50.71l-5.41-1.52c-3.57-1-7-1.46-10.25-1.46Zm-23.85,76.53s0,0,0,0c0,0,0,0,0,0Z"/>
    <path class="cls-4" d="m368.62,265.75c-2.34,0-4.62-1.17-5.95-3.3-41.74-66.92-160.9-3.1-162.1-2.45-3.39,1.85-7.65.6-9.49-2.8-1.85-3.39-.6-7.64,2.79-9.49,1.32-.72,32.73-17.7,70.41-25.77,51.72-11.08,89.85.37,110.26,33.1,2.05,3.28,1.05,7.6-2.23,9.64-1.15.72-2.43,1.06-3.7,1.06Z"/>
    <path class="cls-4" d="m747.3,260.35c-2.68,0-5.24-1.55-6.4-4.15-11.09-24.88-27.91-40.85-49.99-47.47-54.54-16.35-124.71,27.94-125.41,28.39-3.26,2.08-7.58,1.13-9.67-2.12-2.08-3.25-1.14-7.58,2.12-9.67,3.08-1.98,76.21-48.19,136.94-30.02,26.18,7.83,45.97,26.4,58.8,55.19,1.57,3.53-.01,7.67-3.54,9.24-.93.41-1.89.61-2.85.61Z"/>
    <path class="cls-2" d="m220.64,639.93c-12.73,19.91-19.69,34.32-12.69,58.11-2.12-1.88-4-4.08-5.49-6.55-11.41-18.14-.33-43.19,18.18-51.56h0Z"/>
    <g>
      <circle class="cls-17" cx="744.46" cy="603.7" r="35.33"/>
      <path class="cls-13" d="m744.47,640.52c-9.43,0-18.86-3.59-26.05-10.77-6.96-6.96-10.79-16.21-10.79-26.05s3.83-19.09,10.79-26.05c14.36-14.36,37.73-14.36,52.09,0,6.96,6.96,10.79,16.21,10.79,26.05s-3.83,19.09-10.79,26.05h0c-7.18,7.18-16.61,10.77-26.05,10.77Zm0-70.63c-8.66,0-17.33,3.3-23.92,9.89-6.39,6.39-9.91,14.89-9.91,23.92s3.52,17.53,9.91,23.92c13.19,13.19,34.66,13.19,47.85,0h0c6.39-6.39,9.91-14.89,9.91-23.92s-3.52-17.53-9.91-23.92c-6.6-6.6-15.26-9.89-23.92-9.89Z"/>
    </g>
    <path class="cls-2" d="m732.78,574.65c-12.73,19.91-19.69,34.32-12.69,58.11-2.12-1.88-4-4.08-5.49-6.55-11.41-18.14-.33-43.2,18.18-51.56h0Z"/>
    <g class="cls-10">
      <ellipse class="cls-14" cx="800.83" cy="525.57" rx="12.96" ry="25.91"/>
      <path class="cls-18" d="m800.83,551.98c-7.42,0-13.46-11.85-13.46-26.41s6.04-26.41,13.46-26.41,13.46,11.85,13.46,26.41-6.04,26.41-13.46,26.41Zm0-51.82c-6.87,0-12.46,11.4-12.46,25.41s5.59,25.41,12.46,25.41,12.46-11.4,12.46-25.41-5.59-25.41-12.46-25.41Z"/>
    </g>
    <g class="cls-10">
      <ellipse class="cls-14" cx="561.73" cy="551.48" rx="12.96" ry="25.91"/>
      <path class="cls-18" d="m561.73,577.89c-7.42,0-13.46-11.85-13.46-26.41s6.04-26.41,13.46-26.41,13.46,11.85,13.46,26.41-6.04,26.41-13.46,26.41Zm0-51.82c-6.87,0-12.46,11.4-12.46,25.41s5.59,25.41,12.46,25.41,12.46-11.4,12.46-25.41-5.59-25.41-12.46-25.41Z"/>
    </g>
    <g class="cls-10">
      <ellipse class="cls-14" cx="589.87" cy="898.56" rx="12.96" ry="25.91"/>
      <path class="cls-18" d="m589.87,924.97c-7.42,0-13.46-11.85-13.46-26.41s6.04-26.41,13.46-26.41,13.46,11.85,13.46,26.41-6.04,26.41-13.46,26.41Zm0-51.82c-6.87,0-12.46,11.4-12.46,25.41s5.59,25.41,12.46,25.41,12.46-11.4,12.46-25.41-5.59-25.41-12.46-25.41Z"/>
    </g>
    <g class="cls-10">
      <ellipse class="cls-14" cx="668.73" cy="801.14" rx="12.96" ry="25.91"/>
      <path class="cls-18" d="m668.73,827.55c-7.42,0-13.46-11.85-13.46-26.41s6.04-26.41,13.46-26.41,13.46,11.85,13.46,26.41-6.04,26.41-13.46,26.41Zm0-51.82c-6.87,0-12.46,11.4-12.46,25.41s5.59,25.41,12.46,25.41,12.46-11.4,12.46-25.41-5.59-25.41-12.46-25.41Z"/>
    </g>
    <g class="cls-10">
      <ellipse class="cls-14" cx="317.43" cy="570.11" rx="12.96" ry="25.91"/>
      <path class="cls-18" d="m317.43,596.52c-7.42,0-13.46-11.85-13.46-26.41s6.04-26.41,13.46-26.41,13.46,11.85,13.46,26.41-6.04,26.41-13.46,26.41Zm0-51.82c-6.87,0-12.46,11.4-12.46,25.41s5.59,25.41,12.46,25.41,12.46-11.4,12.46-25.41-5.59-25.41-12.46-25.41Z"/>
    </g>
    <g class="cls-10">
      <ellipse class="cls-14" cx="64.58" cy="446" rx="12.96" ry="25.91"/>
      <path class="cls-18" d="m64.58,472.41c-7.42,0-13.46-11.85-13.46-26.41s6.04-26.41,13.46-26.41,13.46,11.85,13.46,26.41-6.04,26.41-13.46,26.41Zm0-51.82c-6.87,0-12.46,11.4-12.46,25.41s5.59,25.41,12.46,25.41,12.46-11.4,12.46-25.41-5.59-25.41-12.46-25.41Z"/>
    </g>
    <g class="cls-10">
      <ellipse class="cls-14" cx="129.98" cy="286.35" rx="12.96" ry="25.91"/>
      <path class="cls-18" d="m129.98,312.76c-7.42,0-13.46-11.85-13.46-26.41s6.04-26.41,13.46-26.41,13.46,11.85,13.46,26.41-6.04,26.41-13.46,26.41Zm0-51.82c-6.87,0-12.46,11.4-12.46,25.41s5.59,25.41,12.46,25.41,12.46-11.4,12.46-25.41-5.59-25.41-12.46-25.41Z"/>
    </g>
    <g class="cls-10">
      <ellipse class="cls-14" cx="77.54" cy="592.29" rx="12.96" ry="25.91"/>
      <path class="cls-18" d="m77.54,618.7c-7.42,0-13.46-11.85-13.46-26.41s6.04-26.41,13.46-26.41,13.46,11.85,13.46,26.41-6.04,26.41-13.46,26.41Zm0-51.82c-6.87,0-12.46,11.4-12.46,25.41s5.59,25.41,12.46,25.41,12.46-11.4,12.46-25.41-5.59-25.41-12.46-25.41Z"/>
    </g>
    <g class="cls-10">
      <ellipse class="cls-14" cx="155.89" cy="518.29" rx="12.96" ry="25.91"/>
      <path class="cls-18" d="m155.89,544.7c-7.42,0-13.46-11.85-13.46-26.41s6.04-26.41,13.46-26.41,13.46,11.85,13.46,26.41-6.04,26.41-13.46,26.41Zm0-51.82c-6.87,0-12.46,11.4-12.46,25.41s5.59,25.41,12.46,25.41,12.46-11.4,12.46-25.41-5.59-25.41-12.46-25.41Z"/>
    </g>
    <g class="cls-10">
      <ellipse class="cls-14" cx="242.78" cy="775.23" rx="12.96" ry="25.91"/>
      <path class="cls-18" d="m242.78,801.64c-7.42,0-13.46-11.85-13.46-26.41s6.04-26.41,13.46-26.41,13.46,11.85,13.46,26.41-6.04,26.41-13.46,26.41Zm0-51.82c-6.87,0-12.46,11.4-12.46,25.41s5.59,25.41,12.46,25.41,12.46-11.4,12.46-25.41-5.59-25.41-12.46-25.41Z"/>
    </g>
    <g class="cls-10">
      <ellipse class="cls-14" cx="851.83" cy="381.56" rx="12.96" ry="25.91"/>
      <path class="cls-18" d="m851.83,407.97c-7.42,0-13.46-11.85-13.46-26.41s6.04-26.41,13.46-26.41,13.46,11.85,13.46,26.41-6.04,26.41-13.46,26.41Zm0-51.82c-6.87,0-12.46,11.4-12.46,25.41s5.59,25.41,12.46,25.41,12.46-11.4,12.46-25.41-5.59-25.41-12.46-25.41Z"/>
    </g>
    <g class="cls-10">
      <ellipse class="cls-14" cx="916.33" cy="553.54" rx="12.96" ry="25.91"/>
      <path class="cls-18" d="m916.33,579.95c-7.42,0-13.46-11.85-13.46-26.41s6.04-26.41,13.46-26.41,13.46,11.85,13.46,26.41-6.04,26.41-13.46,26.41Zm0-51.82c-6.87,0-12.46,11.4-12.46,25.41s5.59,25.41,12.46,25.41,12.46-11.4,12.46-25.41-5.59-25.41-12.46-25.41Z"/>
    </g>
    <g class="cls-10">
      <ellipse class="cls-14" cx="813.24" cy="705.69" rx="12.96" ry="25.91"/>
      <path class="cls-18" d="m813.24,732.1c-7.42,0-13.46-11.85-13.46-26.41s6.04-26.41,13.46-26.41,13.46,11.85,13.46,26.41-6.04,26.41-13.46,26.41Zm0-51.82c-6.87,0-12.46,11.4-12.46,25.41s5.59,25.41,12.46,25.41,12.46-11.4,12.46-25.41-5.59-25.41-12.46-25.41Z"/>
    </g>
  </g>
</svg>