<?xml version="1.0" encoding="UTF-8"?>
<svg id="Layer_1" data-name="Layer 1" xmlns="http://www.w3.org/2000/svg" viewBox="0 0 115.88 130.87">
  <defs>
    <style>
      .cls-1, .cls-2, .cls-3, .cls-4, .cls-5 {
        fill: #fff;
      }

      .cls-2, .cls-6 {
        opacity: .12;
      }

      .cls-3 {
        opacity: .38;
      }

      .cls-7 {
        fill: #e62448;
      }

      .cls-8 {
        fill: #1f5a2d;
      }

      .cls-9 {
        fill: #1f4922;
      }

      .cls-10 {
        fill: #1c542a;
      }

      .cls-11 {
        fill: #b42126;
      }

      .cls-12 {
        fill: #1c381c;
      }

      .cls-13 {
        fill: #d05727;
      }

      .cls-4 {
        opacity: .43;
      }

      .cls-14 {
        fill: #40ae49;
      }

      .cls-15 {
        fill: #f9d2e3;
        opacity: .13;
      }

      .cls-16 {
        fill: #ec6323;
      }

      .cls-17 {
        fill: #f16722;
      }

      .cls-18 {
        fill: #319846;
      }

      .cls-5 {
        opacity: .36;
      }

      .cls-19 {
        opacity: .17;
      }

      .cls-20 {
        opacity: .25;
      }

      .cls-21 {
        fill: #f69344;
      }

      .cls-22 {
        opacity: .27;
      }
    </style>
  </defs>
  <g id="smarty_arty_orange.svg">
    <g>
      <g>
        <path class="cls-18" d="m79.83,2.45s-.02-.04-.02-.04c0,0,0,.02.02.04Z"/>
        <path class="cls-18" d="m78.75,2.88l-.02-.04h0s.01.03.02.04h0Zm.19-.14l1.9-.87s.06.13.1.23l-1.65.59.29-.15-.63.2Z"/>
      </g>
      <g>
        <path class="cls-18" d="m79.83,2.45c.11.34.35,2.53-10.65,3.84-9.26,1.1-14.89,10.83-16.96,15.17C41.24,1.1,33.87,5.32,31.55,2.62c-2.31-2.69-8.51,3.56-9.01,4.07.26-.24,2.16-1.37,7.9,8.11,6.23,10.3,23.08,9.14,23.08,9.14-.09-.17-.18-.35-.26-.52,23.96-1.43,23.1-10.08,26.56-11.08,3.4-.99.28-9.22.02-9.89Z"/>
        <path class="cls-18" d="m51.87,25.15c-4.6,0-17.04-.86-22.42-9.74-4.59-7.58-6.38-7.72-6.4-7.72,0,0,.12,0,.27-.13l-1.61-1.67c1.19-1.22,5.31-5.2,8.44-5.09.92.03,1.71.4,2.29,1.07.36.42,1.12.61,2.17.88,3.67.93,9.7,2.46,17.57,16.25,2.68-4.92,8.28-12.83,16.86-13.85,8.8-1.04,9.66-2.62,9.67-2.63,0,0-.05.11,0,.3l2.19-.77c.62,1.59,2.53,6.99,1.15,9.79-.41.82-1.07,1.39-1.92,1.64-.53.15-1.02.77-1.7,1.62-2.44,3.04-6.46,8.07-23.36,9.39l.26.52-1.74.12c-.13,0-.75.05-1.73.05ZM24.93,6.04c1.76,1.17,3.9,3.86,6.5,8.16,4.64,7.66,15.82,8.56,20.2,8.61l-.44-.81c-7.91-14.67-13.7-16.14-17.16-17.02-1.36-.34-2.53-.64-3.36-1.62-.11-.12-.26-.25-.6-.26-1.29-.04-3.42,1.43-5.14,2.93Zm54.51-1.14c-1.79,1.12-5.13,1.95-10.12,2.55-8.72,1.03-14.13,10.49-16.05,14.51l-.15.31h.07c17.35-1.04,21.16-5.8,23.44-8.65.87-1.09,1.63-2.04,2.86-2.4.16-.05.34-.13.49-.44.57-1.15.11-3.7-.54-5.89Z"/>
      </g>
      <g>
        <path class="cls-18" d="m22.51,6.73s.01-.01.03-.03c-.02.02-.03.03-.03.03Z"/>
        <path class="cls-18" d="m23.34,7.53h0s.02-.02.03-.03h0s-.03.03-.03.03Zm-.2-.17l-1.56-1.34s.09-.11.17-.18l1.2,1.25-.24-.18.42.46Z"/>
      </g>
    </g>
    <g>
      <g>
        <path class="cls-14" d="m91.94,1.66s-.02-.04-.02-.04c0,0,0,.02.02.04Z"/>
        <path class="cls-14" d="m90.86,2.09l-.02-.04h0s.01.03.02.04h0Zm.21-.15l1.87-.87c.04.07.07.15.1.24l-1.63.58.27-.15-.61.2Z"/>
      </g>
      <g>
        <path class="cls-14" d="m91.94,1.66c.11.34.35,2.53-10.65,3.84-9.26,1.1-14.89,10.83-16.96,15.17C53.34.31,45.98,4.53,43.66,1.83c-2.31-2.69-8.51,3.56-9.01,4.07.26-.24,2.16-1.37,7.9,8.11,6.23,10.3,23.08,9.14,23.08,9.14-.09-.17-.18-.35-.26-.52,23.96-1.43,23.1-10.08,26.56-11.08,3.4-.99.28-9.22.02-9.89Z"/>
        <path class="cls-14" d="m63.97,24.36c-4.6,0-17.04-.86-22.42-9.74-4.59-7.58-6.38-7.72-6.4-7.72,0,0,.12,0,.27-.13l-1.61-1.67C35.01,3.87,39.13-.1,42.25,0c.92.03,1.71.4,2.29,1.07.36.42,1.12.61,2.17.88,3.67.93,9.7,2.46,17.57,16.25,2.68-4.92,8.28-12.83,16.86-13.85,8.8-1.04,9.66-2.62,9.67-2.63,0,0-.05.11,0,.3l2.19-.77c.62,1.59,2.53,6.99,1.15,9.79-.41.82-1.07,1.39-1.92,1.64-.53.15-1.02.77-1.7,1.62-2.44,3.04-6.46,8.07-23.36,9.39l.26.52-1.75.12c-.13,0-.75.05-1.73.05ZM37.04,5.25c1.76,1.17,3.9,3.86,6.5,8.16,4.63,7.64,15.82,8.56,20.2,8.61l-.43-.81c-7.91-14.67-13.7-16.14-17.16-17.02-1.36-.34-2.53-.64-3.36-1.62-.11-.12-.26-.25-.6-.26-1.28-.05-3.42,1.43-5.14,2.93Zm54.51-1.14c-1.79,1.12-5.13,1.95-10.12,2.55-8.72,1.03-14.13,10.49-16.05,14.51l-.15.31h.07c17.35-1.04,21.16-5.8,23.44-8.65.87-1.09,1.63-2.04,2.86-2.4.16-.05.34-.13.49-.44.57-1.15.11-3.7-.54-5.89Z"/>
      </g>
      <g>
        <path class="cls-14" d="m34.61,5.94s.01-.01.03-.03c-.02.02-.03.03-.03.03Z"/>
        <path class="cls-14" d="m35.45,6.74h0s.02-.02.03-.03h0s-.03.03-.03.03Zm-.21-.18l-1.55-1.33c.05-.06.11-.13.18-.19l1.19,1.24-.24-.18.42.46Z"/>
      </g>
    </g>
    <g class="cls-6">
      <path class="cls-14" d="m90.69,4.33s-16.31,16.59-18.74,15.66"/>
      <path class="cls-12" d="m90.69,4.33c-3.42,4.5-12.71,14.03-17.96,15.68-.26.05-.55.09-.79-.02.26.04.5-.05.72-.16,1.56-.85,2.84-2.13,4.18-3.28,0,0,4.53-4.13,4.53-4.13,3.04-2.76,6.07-5.53,9.31-8.08h0Z"/>
    </g>
    <g class="cls-19">
      <path class="cls-14" d="m43.15,6.06s16.31,16.59,18.74,15.66"/>
      <path class="cls-12" d="m43.15,6.06c3.24,2.55,6.27,5.32,9.31,8.08,0,0,4.53,4.13,4.53,4.13,1.35,1.15,2.62,2.43,4.18,3.28.22.11.46.2.72.16-.24.12-.53.08-.78.02-5.24-1.65-14.52-11.16-17.96-15.68h0Z"/>
    </g>
    <g>
      <path class="cls-21" d="m2.52,77.66s8.64,40.39,47.79,40.35c39.42-.04,48.9-11.28,48.9-11.28,17.55-11.17,34.29-85.51-30.71-89.18,0,0-77.37,1.79-65.98,60.11Z"/>
      <path class="cls-16" d="m50.25,118.53c-9,0-17.14-2.14-24.19-6.36-5.65-3.38-10.61-8.1-14.75-14.02-7.03-10.06-9.27-20.28-9.29-20.38h0c-2.88-14.78-.34-27.25,7.57-37.09,9.45-11.75,24.97-17.55,36.33-20.35,12.28-3.03,22.47-3.29,22.58-3.3h.02s.02,0,.02,0c12.97.73,23.52,4.33,31.35,10.68,6.79,5.51,11.46,12.98,13.86,22.21,2.74,10.5,2.38,22.84-1,34.74-2.99,10.55-8.05,19.14-13.2,22.46-.41.45-2.99,3.08-9.82,5.71-6.7,2.58-18.97,5.67-39.42,5.69h-.06ZM3.03,77.56c.06.26,2.28,10.21,9.15,20.03,6.36,9.09,18.13,19.91,38.08,19.91h.06c20.19-.02,32.3-3.04,38.92-5.57,7.15-2.74,9.57-5.5,9.59-5.53l.05-.06.07-.04c9.6-6.1,19.85-32.95,13.81-56.12-3.57-13.71-14.15-30.4-44.25-32.11-.51.01-10.44.33-22.36,3.27-11.2,2.76-26.49,8.48-35.75,19.99C2.68,50.92.2,63.11,3.03,77.56Z"/>
    </g>
    <path class="cls-15" d="m62.39,23.57c.11,19.94-4.76,39.62-6.16,59.15-.63,9.11-.4,18.15,2.69,26.98.68,1.97,1.5,3.97,2.41,6.17-7.05-1.2-13.37-6.09-17.44-12.01-11.92-17.49-8.48-42.24,1.19-59.96,4.28-7.73,9.95-15.25,17.3-20.34h0Z"/>
    <path class="cls-2" d="m107.45,51.21l-26.59-26.83c-1.86-1.88.07-5.37,2.28-4.12,9.23,5.25,21.43,14.32,27.54,27.91,1.08,2.4-1.47,4.81-3.22,3.04Z"/>
    <g class="cls-20">
      <circle class="cls-13" cx="97.86" cy="72.25" r="3.84"/>
      <path class="cls-17" d="m97.86,76.23c-2.19,0-3.97-1.78-3.97-3.97s1.78-3.97,3.97-3.97,3.97,1.78,3.97,3.97-1.78,3.97-3.97,3.97Zm0-7.69c-2.05,0-3.72,1.67-3.72,3.72s1.67,3.72,3.72,3.72,3.72-1.67,3.72-3.72-1.67-3.72-3.72-3.72Z"/>
    </g>
    <g class="cls-20">
      <circle class="cls-13" cx="8.66" cy="82.23" r="4.45"/>
      <path class="cls-17" d="m8.66,86.81c-2.53,0-4.58-2.06-4.58-4.58s2.06-4.58,4.58-4.58,4.58,2.06,4.58,4.58-2.06,4.58-4.58,4.58Zm0-8.91c-2.38,0-4.33,1.94-4.33,4.33s1.94,4.33,4.33,4.33,4.33-1.94,4.33-4.33-1.94-4.33-4.33-4.33Z"/>
    </g>
    <g class="cls-20">
      <circle class="cls-13" cx="95.33" cy="88.1" r="4.45"/>
      <path class="cls-17" d="m95.33,92.68c-2.53,0-4.58-2.06-4.58-4.58s2.06-4.58,4.58-4.58,4.58,2.06,4.58,4.58-2.06,4.58-4.58,4.58Zm0-8.91c-2.38,0-4.33,1.94-4.33,4.33s1.94,4.33,4.33,4.33,4.33-1.94,4.33-4.33-1.94-4.33-4.33-4.33Z"/>
    </g>
    <g class="cls-20">
      <circle class="cls-13" cx="33.07" cy="76.89" r="4.45"/>
      <path class="cls-17" d="m33.07,81.47c-2.53,0-4.58-2.06-4.58-4.58s2.06-4.58,4.58-4.58,4.58,2.06,4.58,4.58-2.06,4.58-4.58,4.58Zm0-8.91c-2.38,0-4.33,1.94-4.33,4.33s1.94,4.33,4.33,4.33,4.33-1.94,4.33-4.33-1.94-4.33-4.33-4.33Z"/>
    </g>
    <g class="cls-20">
      <circle class="cls-13" cx="40.05" cy="90.57" r="4.45"/>
      <path class="cls-17" d="m40.05,95.15c-2.53,0-4.58-2.06-4.58-4.58s2.06-4.58,4.58-4.58,4.58,2.06,4.58,4.58-2.06,4.58-4.58,4.58Zm0-8.91c-2.38,0-4.33,1.94-4.33,4.33s1.94,4.33,4.33,4.33,4.33-1.94,4.33-4.33-1.94-4.33-4.33-4.33Z"/>
    </g>
    <g class="cls-20">
      <circle class="cls-13" cx="69.08" cy="95.02" r="4.45"/>
      <path class="cls-17" d="m69.08,99.61c-2.53,0-4.58-2.06-4.58-4.58s2.06-4.58,4.58-4.58,4.58,2.06,4.58,4.58-2.06,4.58-4.58,4.58Zm0-8.91c-2.38,0-4.33,1.94-4.33,4.33s1.94,4.33,4.33,4.33,4.33-1.94,4.33-4.33-1.94-4.33-4.33-4.33Z"/>
    </g>
    <g class="cls-20">
      <circle class="cls-13" cx="50.85" cy="31.46" r="4.45"/>
      <path class="cls-17" d="m50.85,36.04c-2.53,0-4.58-2.06-4.58-4.58s2.06-4.58,4.58-4.58,4.58,2.06,4.58,4.58-2.06,4.58-4.58,4.58Zm0-8.91c-2.38,0-4.33,1.94-4.33,4.33s1.94,4.33,4.33,4.33,4.33-1.94,4.33-4.33-1.94-4.33-4.33-4.33Z"/>
    </g>
    <g class="cls-20">
      <circle class="cls-13" cx="73.54" cy="25.54" r="4.45"/>
      <path class="cls-17" d="m73.54,30.12c-2.53,0-4.58-2.06-4.58-4.58s2.06-4.58,4.58-4.58,4.58,2.06,4.58,4.58-2.06,4.58-4.58,4.58Zm0-8.91c-2.38,0-4.33,1.94-4.33,4.33s1.94,4.33,4.33,4.33,4.33-1.94,4.33-4.33-1.94-4.33-4.33-4.33Z"/>
    </g>
    <g class="cls-20">
      <circle class="cls-13" cx="58" cy="72.44" r="4.45"/>
      <path class="cls-17" d="m58,77.02c-2.53,0-4.58-2.06-4.58-4.58s2.06-4.58,4.58-4.58,4.58,2.06,4.58,4.58-2.06,4.58-4.58,4.58Zm0-8.91c-2.38,0-4.33,1.94-4.33,4.33s1.94,4.33,4.33,4.33,4.33-1.94,4.33-4.33-1.94-4.33-4.33-4.33Z"/>
    </g>
    <g id="glasses">
      <g>
        <path class="cls-1" d="m70.19,53.2c.43,4.71,1.87,8.97,3.96,12.38,0,0,2.33-1.59,6.84-1.69-1.4-7.12,4.51-12.1,4.51-12.1-10.3-6.84-2.02-21.93-2.02-21.93-8.46.78-14.41,11.23-13.29,23.34Z"/>
        <path d="m74.03,66.13l-.21-.34c-2.2-3.59-3.59-7.93-4.01-12.55h0c-1.13-12.3,4.99-22.96,13.64-23.76l.72-.07-.35.64c-.08.15-7.99,14.86,1.89,21.42l.43.29-.39.33c-.06.05-5.72,4.92-4.38,11.73l.09.45h-.46c-4.33.11-6.61,1.61-6.64,1.63l-.34.23Zm-3.46-12.96c.4,4.36,1.68,8.46,3.71,11.89.79-.43,2.88-1.38,6.25-1.53-.94-5.98,3.09-10.45,4.35-11.69-4.05-2.91-5.66-7.62-4.64-13.64.6-3.55,1.93-6.57,2.56-7.86-7.85,1.27-13.29,11.3-12.23,22.83h0Z"/>
      </g>
      <g>
        <path d="m80.99,63.9c6.24-.68,11.84.99,16.27,3.22,2.73-4.3,4.14-10.28,3.55-16.74-1.12-12.11-8.87-21.3-17.33-20.52,0,0-8.28,15.09,2.02,21.93,0,0-5.91,4.98-4.51,12.1Z"/>
        <path d="m97.31,67.29l-.1-.05c-5.4-2.71-10.85-3.79-16.2-3.21h-.12s-.02-.1-.02-.1c-1.29-6.53,3.57-11.33,4.42-12.11-4.16-2.84-5.81-7.52-4.79-13.57.78-4.6,2.85-8.4,2.87-8.44l.03-.06h.07c4.13-.39,8.23,1.56,11.53,5.46,3.29,3.9,5.4,9.28,5.94,15.16.57,6.22-.73,12.35-3.57,16.82l-.06.1Zm-13.47-3.67c4.44,0,8.93,1.12,13.38,3.34,2.77-4.42,4.03-10.44,3.46-16.56-.54-5.83-2.63-11.17-5.88-15.02-3.23-3.82-7.21-5.73-11.24-5.39-.27.5-2.09,4.07-2.81,8.3-.71,4.18-.44,9.9,4.82,13.39l.14.1-.13.11c-.06.05-5.77,4.96-4.49,11.86.91-.1,1.82-.14,2.74-.14Z"/>
      </g>
      <g>
        <path class="cls-1" d="m10.97,57.46c.42,4.53,1.8,8.64,3.81,11.92,0,0,2.24-1.53,6.59-1.62-1.35-6.86,4.34-11.65,4.34-11.65-9.92-6.59-1.94-21.11-1.94-21.11-8.14.75-13.87,10.81-12.8,22.47Z"/>
        <path d="m14.66,69.93l-.21-.34c-2.12-3.46-3.46-7.64-3.87-12.09h0c-1.09-11.85,4.81-22.12,13.15-22.89l.72-.07-.35.64c-.08.14-7.68,14.29,1.82,20.61l.43.29-.39.33c-.06.05-5.5,4.74-4.21,11.28l.09.45h-.46c-4.16.1-6.36,1.55-6.38,1.57l-.34.23Zm-3.31-12.5c.39,4.19,1.62,8.13,3.56,11.43.77-.42,2.78-1.32,6-1.47-.89-5.74,2.95-10.03,4.18-11.24-3.9-2.81-5.44-7.34-4.46-13.14.58-3.4,1.84-6.29,2.45-7.55-7.54,1.24-12.75,10.88-11.73,21.96h0Z"/>
      </g>
      <g>
        <path d="m21.37,67.76c6.01-.66,11.4.96,15.67,3.1,2.63-4.14,3.99-9.9,3.41-16.11-1.07-11.66-8.54-20.51-16.69-19.76,0,0-7.97,14.53,1.94,21.11,0,0-5.69,4.79-4.34,11.65Z"/>
        <path d="m37.08,71.03l-.1-.05c-5.2-2.61-10.45-3.65-15.59-3.09h-.12s-.02-.1-.02-.1c-1.24-6.28,3.42-10.9,4.26-11.67-4-2.73-5.59-7.25-4.61-13.06.75-4.43,2.74-8.09,2.76-8.13l.03-.06h.07c8.2-.76,15.75,8.15,16.83,19.87.55,5.99-.7,11.89-3.43,16.2l-.06.1Zm-12.97-3.55c4.27,0,8.59,1.08,12.88,3.21,2.66-4.25,3.88-10.05,3.33-15.93-1.06-11.54-8.45-20.33-16.48-19.65-.54,1.03-7.45,14.65,1.94,20.88l.14.1-.13.11c-.06.05-5.55,4.77-4.32,11.42.88-.09,1.75-.14,2.63-.14Z"/>
      </g>
      <circle class="cls-5" cx="29.51" cy="50.34" r="25.33"/>
      <circle class="cls-5" cx="90.32" cy="50.34" r="25.33"/>
      <rect class="cls-8" x="54.84" y="48.53" width="10.15" height="3.61"/>
      <path class="cls-8" d="m55.07,50.34c.06,18.7-18.6,32.23-36.41,26.19C7.57,72.85-.07,62.03,0,50.34.05,29.84,21.42,16.53,39.74,25.63c9.26,4.54,15.43,14.41,15.33,24.71h0Zm-.46,0c.08-9.93-6.31-19.43-15.53-23.11-16.38-6.74-34.5,5.38-34.44,23.11-.06,17.73,18.06,29.85,34.44,23.11,9.21-3.68,15.61-13.18,15.53-23.11h0Z"/>
      <path class="cls-8" d="m115.88,50.34c.06,18.7-18.6,32.23-36.41,26.19-11.09-3.68-18.73-14.5-18.66-26.19.05-20.5,21.42-33.81,39.74-24.71,9.26,4.54,15.43,14.41,15.33,24.71h0Zm-.46,0c.08-9.93-6.31-19.43-15.53-23.11-16.38-6.74-34.5,5.38-34.44,23.11-.06,17.73,18.06,29.85,34.44,23.11,9.21-3.68,15.61-13.18,15.53-23.11h0Z"/>
      <path class="cls-4" d="m30.3,35.2c5.01,5.95,7.72,16.15,5.43,23.71-.83,2.73-2.66,5.59-5.43,6.58,2.56-4.79,1.89-9.52,1.5-14.62-.51-5.16-1.41-10.4-1.5-15.67h0Z"/>
      <path class="cls-4" d="m34.99,35.2c4.07,3.69,6.3,10.13,5.89,15.56-.18,1.95-.7,4.16-2.22,5.54-.17-1.02-.41-1.86-.66-2.72-1.82-5.95-3.73-12.06-3.01-18.39h0Z"/>
      <path class="cls-4" d="m90.64,36.76c5.01,5.95,7.72,16.15,5.43,23.71-.83,2.73-2.66,5.59-5.43,6.58,2.56-4.79,1.89-9.52,1.5-14.62-.51-5.16-1.41-10.4-1.5-15.67h0Z"/>
      <path class="cls-4" d="m95.33,36.76c4.07,3.69,6.3,10.13,5.89,15.56-.18,1.95-.7,4.16-2.22,5.54-.17-1.02-.41-1.86-.66-2.72-1.82-5.95-3.73-12.06-3.01-18.39h0Z"/>
      <path class="cls-3" d="m24.31,72.01c6.34.77,12.8.82,17.85-3.64-3.33,6.2-12.18,6.72-17.85,3.64h0Z"/>
      <path class="cls-3" d="m83.71,72.01c6.34.77,12.8.82,17.85-3.64-3.33,6.2-12.18,6.72-17.85,3.64h0Z"/>
    </g>
    <g>
      <path class="cls-1" d="m47.11,81.02c7.67,3.45,16.1,7.59,30.61-.28,0,0,9.84-3.42,7.56,5.57-3.1,12.24-35.07,12.67-42.41,1.87-.08-.12-.21-.19-.31-.28-3.48-3.2.24-8.82,4.55-6.88Z"/>
      <g>
        <line class="cls-7" x1="45.93" y1="79.92" x2="41.35" y2="87.65"/>
        <rect class="cls-11" x="39.14" y="83.01" width="8.99" height="1.55" transform="translate(-50.69 78.65) rotate(-59.37)"/>
      </g>
      <g>
        <line class="cls-7" x1="54.47" y1="83.32" x2="49.18" y2="93.33"/>
        <rect class="cls-11" x="46.16" y="87.55" width="11.33" height="1.55" transform="translate(-50.48 92.9) rotate(-62.16)"/>
      </g>
      <g>
        <line class="cls-7" x1="73.53" y1="82.33" x2="75.82" y2="94.64"/>
        <rect class="cls-11" x="73.9" y="82.23" width="1.55" height="12.52" transform="translate(-14.93 15.15) rotate(-10.54)"/>
      </g>
      <g>
        <line class="cls-7" x1="78.99" y1="79.61" x2="85.1" y2="89.41"/>
        <rect class="cls-11" x="81.27" y="78.74" width="1.55" height="11.55" transform="translate(-32.3 56.27) rotate(-31.97)"/>
      </g>
      <g>
        <line class="cls-7" x1="59.62" y1="84.34" x2="57.09" y2="95.43"/>
        <rect class="cls-11" x="52.67" y="89.11" width="11.38" height="1.55" transform="translate(-42.26 126.78) rotate(-77.14)"/>
      </g>
      <g>
        <line class="cls-7" x1="64.82" y1="84.35" x2="67.03" y2="95.93"/>
        <rect class="cls-11" x="65.15" y="84.24" width="1.55" height="11.79" transform="translate(-15.76 13.99) rotate(-10.83)"/>
      </g>
      <path class="cls-21" d="m64.42,97.67c-9.88,0-20.12-2.87-24.37-8.94-.06-.05-.12-.1-.18-.15-2.28-2.09-2.68-5.36-.97-7.95,1.71-2.6,4.88-3.52,7.71-2.24l.56.25c8.08,3.64,16.43,7.41,31.01-.5l.12-.07.13-.04c.62-.21,6.12-2.02,9.1.71,1.67,1.53,2.09,3.99,1.25,7.31-1.36,5.38-7.24,9.37-16.13,10.94-2.62.46-5.41.7-8.23.7Zm-22.29-11.57l.03.02c.13.1.37.29.58.59,2,2.95,6.26,5.28,11.98,6.57,5.48,1.23,11.8,1.38,17.36.4,7.53-1.33,12.44-4.41,13.46-8.46.29-1.14.64-3.18-.27-4.01-1.15-1.05-4.24-.5-5.61-.05-15.97,8.61-25.48,4.32-33.87.54l-.55-.25c-1.62-.73-2.92.1-3.53,1.03-.64.97-.86,2.43.42,3.62Z"/>
    </g>
    <g id="bow_tie" data-name="bow tie">
      <g>
        <path class="cls-18" d="m66.72,106.55s21.99-17.23,26.59-13.28,7.94,22.21,4.21,28.46-24.22,3.09-29.75-.55c0,0-9.96,3.6-14.35.55,0,0-20.01,12.48-28.96,6.95-8.95-5.53-7.02-34.19-1.32-33.97,5.71.22,26.11,5.92,30.28,10.27,0,0,8.29-2.98,13.3,1.56Z"/>
        <path class="cls-9" d="m30.24,130.87c-2.31,0-4.44-.44-6.19-1.53-7.39-4.56-7.52-22.51-5.13-30.37,1.29-4.24,3.02-5.08,4.24-5.03,5.25.2,25.33,5.59,30.45,10.16,1.82-.56,8.48-2.23,13.12,1.45,1.5-1.15,6.15-4.65,11.14-7.78,8.5-5.34,13.71-7,15.94-5.09,4.87,4.18,8.35,22.78,4.37,29.45-.95,1.59-2.83,2.71-5.59,3.34-7.37,1.69-20.03-.49-24.93-3.44-1.83.61-9.91,3.1-14.26.61-2.41,1.45-14.14,8.23-23.17,8.23Zm-7.16-35.38c-.92,0-1.92,1.47-2.67,3.94-1.27,4.16-1.67,10.43-1.03,15.97.74,6.42,2.69,10.9,5.49,12.63,8.45,5.22,27.95-6.83,28.15-6.95l.43-.27.42.29c4.01,2.79,13.55-.61,13.64-.64l.36-.13.32.21c3.88,2.56,16.47,5.17,24.06,3.43,2.33-.53,3.88-1.42,4.6-2.63,3.53-5.91.26-23.79-4.05-27.48-.74-.63-3.58-1.38-14.1,5.22-5.97,3.75-11.46,8.04-11.51,8.08l-.51.4-.48-.44c-4.59-4.17-12.44-1.43-12.52-1.41l-.47.17-.35-.36c-3.93-4.1-24.01-9.81-29.75-10.03-.01,0-.02,0-.03,0Z"/>
      </g>
      <path class="cls-10" d="m58.03,123.95c-2.13,0-4.02-.45-5.17-1.69-2.49-2.67-1.76-9.66-.71-15.05.36-1.85,1.85-3.28,3.71-3.57,4.82-.74,9.86.33,11.47,2.44.98,1.29,1.41,5.47,1.29,12.45-.04,1.99-1.35,3.69-3.27,4.23-2.29.64-4.96,1.19-7.32,1.19Zm-1.93-18.78h0c-1.22.19-2.19,1.12-2.43,2.33-1.35,6.92-1.23,12.04.32,13.7,1.46,1.57,5.45,1.59,10.95.06,1.26-.35,2.12-1.46,2.14-2.77.13-7.35-.42-10.75-.97-11.48-1.11-1.46-5.4-2.56-10-1.85Z"/>
      <path class="cls-10" d="m52.26,111.39c-4.17.18-9.59-.97-13.32-2.85,4.17-.19,9.59.98,13.32,2.85h0Z"/>
      <path class="cls-10" d="m51.96,116.18c-3.39,1.32-8.15,1.7-11.71.92,3.38-1.32,8.15-1.69,11.71-.92h0Z"/>
      <path class="cls-10" d="m67.87,112.1c2.42-1.37,5-2.3,7.63-3.11,2.64-.78,5.3-1.43,8.07-1.63-2.42,1.37-4.99,2.3-7.63,3.11-2.64.78-5.3,1.43-8.07,1.63h0Z"/>
      <path class="cls-10" d="m67.87,116.64c4.08-.91,9.59-.73,13.59.46-4.07.92-9.59.72-13.59-.46h0Z"/>
      <g class="cls-22">
        <path class="cls-8" d="m23.62,97.31s20.71,4.28,24.75,8.56"/>
        <path class="cls-1" d="m23.62,97.31c7.01-.15,18.38,2.5,23.66,7.23.42.38.8.85,1.09,1.33-1.93-1.09-4.01-1.6-6.09-2.26-6.3-1.88-12.65-3.51-18.66-6.3h0Z"/>
      </g>
      <g class="cls-22">
        <path class="cls-8" d="m80.24,121.73s8.86,1.86,14.75-.86"/>
        <path class="cls-1" d="m80.24,121.73c2.53-.53,4.92-.6,7.41-.68,2.51-.06,4.74-.13,7.33-.18-3.46,3.6-10.74,3.48-14.75.86h0Z"/>
      </g>
      <g class="cls-22">
        <path class="cls-8" d="m23.1,124.3s4.13,5.13,10.01,3.29"/>
        <path class="cls-1" d="m23.1,124.3c2.59.92,4.68,2.01,7.28,2.67.81.22,1.68.37,2.73.62-3.1,3.19-9.14.85-10.01-3.29h0Z"/>
      </g>
    </g>
  </g>
</svg>