<?xml version="1.0" encoding="UTF-8"?>
<svg id="logo" xmlns="http://www.w3.org/2000/svg" viewBox="0 0 968.77 1097.31">
  <defs>
    <style>
      .cls-1 {
        fill: #ef6100;
      }

      .cls-2, .cls-3, .cls-4, .cls-5, .cls-6 {
        fill: #fff;
      }

      .cls-3, .cls-7 {
        opacity: .12;
      }

      .cls-4 {
        opacity: .38;
      }

      .cls-8 {
        fill: #ff6700;
      }

      .cls-9 {
        fill: #d35500;
      }

      .cls-10 {
        fill: #0d490d;
      }

      .cls-11 {
        fill: #3faf3f;
      }

      .cls-12 {
        fill: #f79443;
      }

      .cls-13 {
        fill: #309930;
      }

      .cls-14 {
        fill: #17541f;
      }

      .cls-15 {
        fill: #f9d2e4;
        opacity: .13;
      }

      .cls-16 {
        fill: #b52025;
      }

      .cls-5 {
        opacity: .43;
      }

      .cls-17 {
        fill: #1a591e;
      }

      .cls-18 {
        fill: #163816;
      }

      .cls-6 {
        opacity: .36;
      }

      .cls-19 {
        opacity: .17;
      }

      .cls-20 {
        opacity: .25;
      }

      .cls-21 {
        fill: #e82147;
      }

      .cls-22 {
        opacity: .27;
      }
    </style>
  </defs>
  <g id="smarty_arty_orange.svg">
    <g>
      <g>
        <path class="cls-13" d="m665.11,15.41c-.08-.25-.15-.38-.15-.38,0,0,.05.14.15.38Z"/>
        <path class="cls-13" d="m660.92,17.04l-.14-.35,8.16-3.77c.12.23.3.6.46,1.13l-7.71,2.72,1.28-.68-2.15.68c.04.12.08.21.11.27h-.01Z"/>
      </g>
      <g>
        <path class="cls-13" d="m665.11,15.41c.91,2.87,2.97,21.4-90.02,32.43-78.24,9.28-125.85,91.56-143.35,128.19C338.91,3.96,276.65,39.64,257.06,16.82c-19.53-22.74-71.92,30.07-76.17,34.43,2.24-2.02,18.25-11.56,66.75,68.55,52.67,87.02,195.06,77.25,195.06,77.25-.74-1.47-1.48-2.92-2.22-4.37,202.51-12.07,195.24-85.17,224.48-93.68,28.77-8.38,2.36-77.91.15-83.59Z"/>
        <path class="cls-13" d="m429.56,201.89c-14.28,0-38.45-1.01-65.52-6.42-56.46-11.29-98.04-36.65-120.25-73.34-35.04-57.88-51.81-66.6-57.39-67.66-1.84-.35-2.51.14-2.52.14l-6.21-6.5c6.89-7.06,42.53-42.22,67.33-41.43,6.33.2,11.54,2.63,15.47,7.22,4.12,4.79,11.24,6.6,21.1,9.1,15.47,3.93,36.66,9.3,62.83,30.14,29.44,23.44,57.99,60.5,87.14,113.14,20.02-39.27,67.6-113.96,143.02-122.91,67.18-7.97,82.06-19.63,85.34-24.28,1.08-1.53.91-2.34.91-2.35l8.49-2.97c3.58,9.19,20.87,56.16,9.88,78.43-2.8,5.68-7.16,9.42-12.97,11.11-6.07,1.77-10.66,7.5-17.01,15.45-10.16,12.7-24.08,30.1-54.91,45.5-35.1,17.53-83.13,28.17-146.7,32.48l2.19,4.33-6.77.46c-.53.04-5.43.36-13.45.36ZM191.94,46.77c14.67,5.86,34.67,29.59,59.55,70.69,26.33,43.49,76.58,61.6,114.11,69.13,30.4,6.1,57.62,6.45,69.9,6.21l-2.15-4.21,6.87-.41c149.02-8.88,182.16-50.3,201.96-75.05,7.11-8.89,12.73-15.9,21.53-18.47,3.33-.97,5.75-3.08,7.41-6.44,6.5-13.17.11-41.04-6.5-60.91-11.4,10.93-41.27,19.33-88.99,24.99-76.35,9.05-123.21,90.9-139.82,125.66l-3.82,7.99-4.2-7.79C359.79,52.13,309.44,39.35,279.36,31.71c-11.03-2.8-19.74-5.01-25.71-11.96-2.26-2.63-5.18-3.96-8.93-4.08-14.67-.47-37.41,16.87-52.77,31.11Z"/>
      </g>
      <g>
        <path class="cls-13" d="m180.61,51.54s.1-.11.28-.29c-.19.17-.28.29-.28.29Z"/>
        <path class="cls-13" d="m183.85,54.66l-6.82-5.86c.16-.2.43-.52.84-.9l5.63,5.86-1.13-.87,1.53,1.69c.09-.08.15-.15.2-.21h0s-.26.27-.26.27Z"/>
      </g>
    </g>
    <g>
      <g>
        <path class="cls-11" d="m767.44,8.75c-.08-.25-.15-.38-.15-.38,0,0,.05.14.15.38Z"/>
        <path class="cls-11" d="m763.25,10.38l-.14-.35,8.16-3.76c.12.22.29.59.46,1.11l-7.78,2.75,1.29-.68-2.09.67c.04.11.08.2.11.26h-.01Z"/>
      </g>
      <g>
        <path class="cls-11" d="m767.44,8.75c.91,2.87,2.97,21.4-90.02,32.43-78.24,9.28-125.85,91.56-143.35,128.19C441.24-2.7,378.98,32.98,359.39,10.16c-19.53-22.74-71.92,30.07-76.17,34.43,2.24-2.02,18.25-11.56,66.75,68.55,52.67,87.02,195.06,77.25,195.06,77.25-.74-1.47-1.48-2.92-2.22-4.37,202.51-12.07,195.24-85.17,224.48-93.68,28.77-8.38,2.36-77.91.15-83.59Z"/>
        <path class="cls-11" d="m531.89,195.23c-14.28,0-38.45-1.01-65.52-6.42-56.46-11.29-98.04-36.65-120.25-73.34-35.03-57.88-51.81-66.6-57.39-67.66-1.84-.35-2.51.14-2.52.14l-6.21-6.5C286.89,34.39,322.5-.78,347.33.01c6.33.2,11.53,2.63,15.47,7.22,4.12,4.79,11.24,6.6,21.1,9.1,15.47,3.93,36.66,9.3,62.83,30.14,29.44,23.44,57.99,60.5,87.14,113.14,20.02-39.27,67.6-113.96,143.02-122.91,67.18-7.97,82.06-19.63,85.34-24.28,1.08-1.53.91-2.34.91-2.35l8.49-2.97c3.58,9.19,20.87,56.16,9.88,78.43-2.8,5.68-7.16,9.41-12.97,11.1-6.07,1.77-10.66,7.5-17.01,15.45-10.16,12.7-24.08,30.1-54.91,45.5-35.1,17.53-83.13,28.17-146.7,32.48l2.19,4.33-6.76.46c-.53.04-5.43.36-13.45.36ZM294.27,40.12c14.67,5.86,34.67,29.59,59.55,70.69,26.36,43.55,76.72,61.65,114.32,69.17,30.36,6.07,57.45,6.41,69.69,6.17l-2.15-4.21,6.87-.41c149.02-8.88,182.16-50.3,201.96-75.05,7.11-8.89,12.73-15.9,21.53-18.47,3.33-.97,5.75-3.08,7.41-6.44,6.5-13.17.11-41.04-6.5-60.91-11.4,10.93-41.28,19.33-88.99,24.99-76.35,9.05-123.21,90.9-139.82,125.66l-3.82,7.99-4.2-7.79C462.12,45.47,411.77,32.69,381.69,25.06c-11.03-2.8-19.74-5.01-25.71-11.96-2.26-2.63-5.18-3.96-8.93-4.08-14.69-.47-37.41,16.87-52.77,31.11Z"/>
      </g>
      <g>
        <path class="cls-11" d="m282.94,44.88s.1-.11.28-.29c-.19.17-.28.29-.28.29Z"/>
        <path class="cls-11" d="m286.17,48.01l-6.8-5.87c.15-.2.42-.52.83-.88l5.71,5.92-1.17-.9,1.49,1.65c.09-.08.16-.16.2-.21h0s-.27.29-.27.29Z"/>
      </g>
    </g>
    <g class="cls-7">
      <path class="cls-11" d="m756.94,31.28s-137.89,140.18-158.43,132.34"/>
      <path class="cls-18" d="m756.94,31.28c-28.88,32.5-60.02,62.98-92.86,91.47-16.69,13.93-33.45,28.32-52.93,38.25-3.89,1.65-8.35,3.97-12.63,2.62,4.33.8,8.33-1.89,11.99-3.85,18.29-11.52,34.23-26.4,50.47-40.59,32.12-28.63,63.95-59.13,95.97-87.9h0Z"/>
    </g>
    <g class="cls-19">
      <path class="cls-11" d="m355.12,45.92s137.89,140.18,158.43,132.34"/>
      <path class="cls-18" d="m355.12,45.92c32.02,28.77,63.85,59.27,95.97,87.9,16.24,14.19,32.18,29.06,50.46,40.59,3.66,1.96,7.66,4.64,11.99,3.85-4.28,1.35-8.75-.97-12.63-2.62-19.49-9.93-36.24-24.32-52.93-38.25-32.84-28.49-63.97-58.96-92.86-91.47h0Z"/>
    </g>
    <g>
      <path class="cls-12" d="m11.67,651.12s73.01,341.4,403.93,341.06c333.18-.34,413.3-95.35,413.3-95.35,148.37-94.37,289.81-722.71-259.53-753.78,0,0-653.95,15.11-557.7,508.07Z"/>
      <path class="cls-1" d="m415.12,994.19c-75.66,0-144.04-17.97-203.27-53.43-47.47-28.42-89.18-68.06-123.95-117.83-59.17-84.66-78-170.53-78.19-171.39v-.04c-24.25-124.13-2.87-228.92,63.52-311.45,35.1-43.64,83.06-81.26,142.52-111.81,47.51-24.41,102.44-44.39,163.27-59.39,103.52-25.52,189.44-27.78,190.3-27.8h.08s.08,0,.08,0c109.12,6.17,197.81,36.35,263.6,89.71,57.01,46.24,96.17,108.98,116.37,186.48,12,46.03,16.96,96.18,14.75,149.06-1.99,47.45-9.99,97.02-23.15,143.36-25.21,88.81-67.66,161.07-110.83,188.7-2.39,2.71-23.44,25.17-82.31,47.88-56.43,21.77-159.89,47.76-332.31,47.94-.16,0-.33,0-.49,0ZM13.63,650.72c.35,1.61,19.16,86.41,77.63,170.03,54.07,77.32,154.15,169.44,323.87,169.44.17,0,.31,0,.48,0,171.43-.17,274.27-25.91,330.37-47.47,60.73-23.34,81.21-46.93,81.41-47.17l.2-.23.26-.16c42.46-27.01,84.37-98.5,109.38-186.57,28.26-99.54,31.23-202.64,8.38-290.32-30.4-116.63-120.37-258.7-376.24-273.2-3.03.08-87.69,2.6-189.44,27.7-95.02,23.44-224.82,71.93-303.55,169.81C10.73,424.14-10.36,527.81,13.63,650.72Z"/>
    </g>
    <path class="cls-15" d="m517.71,193.93c-26.13,105.84-55.74,209.04-76.02,315.85-7.78,40.95-14.17,82.51-17.79,124.03-4.21,48.68-4.65,98.18,2,146.66,1.24,7.87,2.45,16.08,4.05,23.92.98,5.87,2.62,12,3.81,17.83,1.14,4.63,2.68,10.11,3.82,14.74,5.21,18.65,12.11,36.98,20.14,54.88,1.33,2.65,4.17,8.56,5.49,11.26,12.7,25.39,28.13,48.02,45.63,71.06-31.2-14.05-59.41-35.96-82.28-61.6-83.51-95.41-94.25-232.59-74.11-352.97,16.56-98.01,52.5-192.44,102.92-277.93,18.47-30.76,38.45-60.83,62.35-87.71h0Z"/>
    <path class="cls-3" d="m898.56,427.56l-224.76-226.79c-15.72-15.86.61-45.38,19.25-34.78,78.01,44.36,181.11,121.06,232.75,235.88,9.13,20.31-12.44,40.63-27.24,25.7Z"/>
    <g class="cls-20">
      <circle class="cls-9" cx="817.49" cy="605.38" r="32.49"/>
      <path class="cls-8" d="m817.49,638.37c-18.19,0-32.99-14.8-32.99-32.99s14.8-32.99,32.99-32.99,32.99,14.8,32.99,32.99-14.8,32.99-32.99,32.99Zm0-64.98c-17.64,0-31.99,14.35-31.99,31.99s14.35,31.99,31.99,31.99,31.99-14.35,31.99-31.99-14.35-31.99-31.99-31.99Z"/>
    </g>
    <g class="cls-20">
      <circle class="cls-9" cx="63.6" cy="689.68" r="37.65"/>
      <path class="cls-8" d="m63.6,727.83c-21.03,0-38.15-17.11-38.15-38.15s17.11-38.15,38.15-38.15,38.15,17.11,38.15,38.15-17.11,38.15-38.15,38.15Zm0-75.3c-20.48,0-37.15,16.66-37.15,37.15s16.66,37.15,37.15,37.15,37.15-16.66,37.15-37.15-16.66-37.15-37.15-37.15Z"/>
    </g>
    <g class="cls-20">
      <circle class="cls-9" cx="796.12" cy="739.29" r="37.65"/>
      <path class="cls-8" d="m796.12,777.44c-21.03,0-38.15-17.11-38.15-38.15s17.11-38.15,38.15-38.15,38.15,17.11,38.15,38.15-17.11,38.15-38.15,38.15Zm0-75.3c-20.48,0-37.15,16.66-37.15,37.15s16.66,37.15,37.15,37.15,37.15-16.66,37.15-37.15-16.66-37.15-37.15-37.15Z"/>
    </g>
    <g class="cls-20">
      <circle class="cls-9" cx="269.92" cy="644.57" r="37.65"/>
      <path class="cls-8" d="m269.92,682.72c-21.03,0-38.15-17.11-38.15-38.15s17.11-38.15,38.15-38.15,38.15,17.11,38.15,38.15-17.11,38.15-38.15,38.15Zm0-75.3c-20.48,0-37.15,16.66-37.15,37.15s16.66,37.15,37.15,37.15,37.15-16.66,37.15-37.15-16.66-37.15-37.15-37.15Z"/>
    </g>
    <g class="cls-20">
      <circle class="cls-9" cx="328.89" cy="760.2" r="37.65"/>
      <path class="cls-8" d="m328.89,798.35c-21.03,0-38.15-17.11-38.15-38.15s17.11-38.15,38.15-38.15,38.15,17.11,38.15,38.15-17.11,38.15-38.15,38.15Zm0-75.3c-20.48,0-37.15,16.66-37.15,37.15s16.66,37.15,37.15,37.15,37.15-16.66,37.15-37.15-16.66-37.15-37.15-37.15Z"/>
    </g>
    <g class="cls-20">
      <circle class="cls-9" cx="574.28" cy="797.85" r="37.65"/>
      <path class="cls-8" d="m574.28,836c-21.03,0-38.15-17.11-38.15-38.15s17.11-38.15,38.15-38.15,38.15,17.11,38.15,38.15-17.11,38.15-38.15,38.15Zm0-75.3c-20.48,0-37.15,16.66-37.15,37.15s16.66,37.15,37.15,37.15,37.15-16.66,37.15-37.15-16.66-37.15-37.15-37.15Z"/>
    </g>
    <g class="cls-20">
      <circle class="cls-9" cx="420.18" cy="260.57" r="37.65"/>
      <path class="cls-8" d="m420.18,298.72c-21.03,0-38.15-17.11-38.15-38.15s17.11-38.15,38.15-38.15,38.15,17.11,38.15,38.15-17.11,38.15-38.15,38.15Zm0-75.3c-20.48,0-37.15,16.66-37.15,37.15s16.66,37.15,37.15,37.15,37.15-16.66,37.15-37.15-16.66-37.15-37.15-37.15Z"/>
    </g>
    <g class="cls-20">
      <circle class="cls-9" cx="611.93" cy="210.51" r="37.65"/>
      <path class="cls-8" d="m611.93,248.66c-21.03,0-38.15-17.11-38.15-38.15s17.11-38.15,38.15-38.15,38.15,17.11,38.15,38.15-17.11,38.15-38.15,38.15Zm0-75.3c-20.48,0-37.15,16.66-37.15,37.15s16.66,37.15,37.15,37.15,37.15-16.66,37.15-37.15-16.66-37.15-37.15-37.15Z"/>
    </g>
    <g class="cls-20">
      <circle class="cls-9" cx="480.62" cy="606.93" r="37.65"/>
      <path class="cls-8" d="m480.62,645.07c-21.03,0-38.15-17.11-38.15-38.15s17.11-38.15,38.15-38.15,38.15,17.11,38.15,38.15-17.11,38.15-38.15,38.15Zm0-75.3c-20.48,0-37.15,16.66-37.15,37.15s16.66,37.15,37.15,37.15,37.15-16.66,37.15-37.15-16.66-37.15-37.15-37.15Z"/>
    </g>
    <g id="glasses">
      <g>
        <path class="cls-2" d="m583.59,444.37c3.66,39.78,15.8,75.81,33.46,104.63,0,0,19.68-13.4,57.85-14.25-11.87-60.22,38.1-102.31,38.1-102.31-87.05-57.82-17.07-185.35-17.07-185.35-71.47,6.58-121.76,94.9-112.34,197.27Z"/>
        <path d="m616.6,551.13l-.82-1.34c-18.46-30.12-30.11-66.53-33.68-105.28-4.59-49.81,4.65-97.91,26.02-135.43,21.47-37.7,52.6-60.24,87.67-63.47l2.81-.26-1.36,2.47c-.17.32-17.47,32.17-23.96,70.59-8.64,51.23,5,89.17,40.54,112.78l1.67,1.11-1.53,1.29c-.49.42-49.15,42.24-37.59,100.87l.34,1.75-1.78.04c-37.21.82-56.84,13.86-57.04,13.99l-1.3.88Zm76.71-302.23c-32.94,4.04-62.18,25.84-82.58,61.67-21.07,36.99-30.17,84.47-25.64,133.67h0c3.48,37.74,14.69,73.22,32.46,102.7,4.98-2.95,23.56-12.58,55.56-13.62-5.5-30.81,5.12-56.68,15.12-73.07,8.92-14.63,18.69-24.27,22.34-27.63-19.27-13.29-32.19-31.14-38.4-53.11-5.09-17.99-5.7-38.73-1.82-61.66,5.52-32.67,18.76-60.63,22.97-68.95Z"/>
      </g>
      <g>
        <path d="m674.91,534.76c52.78-5.77,100.04,8.4,137.53,27.23,23.06-36.33,35-86.9,29.98-141.46-9.43-102.36-75.01-180.01-146.48-173.43,0,0-69.98,127.53,17.07,185.35,0,0-49.96,42.09-38.1,102.31Z"/>
        <path d="m812.61,562.64l-.4-.2c-45.78-22.99-91.95-32.13-137.25-27.18l-.46.05-.09-.45c-6.16-31.27,4.57-57.55,14.66-74.09,9.69-15.89,20.66-26.08,23.1-28.26-19.66-13.22-32.79-31.14-39.05-53.27-5.05-17.84-5.65-38.44-1.8-61.22,6.55-38.74,23.99-70.83,24.16-71.15l.13-.23.26-.02c71.62-6.6,137.58,71.4,147.02,173.88,4.83,52.41-6.13,104.09-30.05,141.77l-.24.38Zm-113.67-29.69c37.57,0,75.58,9.51,113.31,28.39,23.64-37.47,34.45-88.75,29.66-140.76-9.38-101.8-74.69-179.32-145.67-173-1.59,2.98-17.71,33.78-23.93,70.62-6,35.53-3.77,84.12,40.97,113.83l.56.37-.51.43c-.5.42-49.35,42.39-38.02,101.38,7.85-.84,15.74-1.26,23.63-1.26Z"/>
      </g>
      <g>
        <path class="cls-2" d="m83.09,480.36c3.53,38.3,15.21,72.99,32.22,100.75,0,0,18.94-12.9,55.7-13.72-11.43-57.98,36.68-98.51,36.68-98.51-83.82-55.67-16.44-178.46-16.44-178.46-68.81,6.34-117.24,91.38-108.16,189.93Z"/>
        <path d="m114.85,583.23l-.82-1.34c-17.78-29.01-29-64.07-32.44-101.39h0c-4.42-47.97,4.48-94.29,25.06-130.43,20.68-36.31,50.67-58.02,84.46-61.14l2.81-.26-1.36,2.47c-.17.31-16.82,30.97-23.06,67.95-8.32,49.3,4.81,85.82,39.01,108.54l1.67,1.11-1.53,1.29c-.47.4-47.29,40.65-36.17,97.07l.34,1.75-1.78.04c-35.81.79-54.7,13.33-54.89,13.46l-1.3.88Zm73.78-291.01c-31.65,3.92-59.75,24.9-79.37,59.34-20.28,35.61-29.04,81.31-24.68,128.67,3.34,36.31,14.13,70.44,31.22,98.81,4.87-2.88,22.73-12.08,53.41-13.09-5.27-29.66,4.95-54.55,14.57-70.33,8.55-14.03,17.91-23.29,21.47-26.57-18.53-12.8-30.96-29.99-36.94-51.12-4.9-17.33-5.49-37.31-1.76-59.39,5.3-31.34,17.97-58.19,22.07-66.31Z"/>
      </g>
      <g>
        <path d="m171.01,567.39c50.82-5.55,96.32,8.09,132.42,26.22,22.21-34.98,33.7-83.67,28.86-136.2-9.08-98.56-72.22-173.32-141.03-166.98,0,0-67.38,122.79,16.44,178.46,0,0-48.11,40.52-36.68,98.51Z"/>
        <path d="m303.6,594.26l-.4-.2c-44.07-22.13-88.53-30.94-132.14-26.17l-.46.05-.09-.45c-10.72-54.42,31.26-93.99,36.35-98.55-18.92-12.73-31.56-29.98-37.59-51.29-4.86-17.18-5.44-37.02-1.73-58.95,6.31-37.31,23.1-68.2,23.27-68.51l.13-.23.26-.02c68.99-6.35,132.49,68.76,141.58,167.43,4.65,50.47-5.9,100.23-28.94,136.52l-.24.38Zm-109.45-28.63c36.17,0,72.77,9.16,109.09,27.33,22.75-36.07,33.16-85.43,28.55-135.51-9.03-98-71.9-172.64-140.22-166.55-1.56,2.92-17.05,32.55-23.04,67.99-5.78,34.2-3.63,80.98,39.44,109.58l.56.37-.51.43c-.48.4-47.5,40.8-36.6,97.58,7.56-.81,15.14-1.21,22.74-1.21Z"/>
      </g>
      <circle class="cls-6" cx="239.79" cy="420.17" r="214.1"/>
      <circle class="cls-6" cx="753.76" cy="420.17" r="214.1"/>
      <rect class="cls-17" x="453.89" y="413.17" width="85.77" height="14"/>
      <path class="cls-17" d="m454.79,420.17c.64,118.93-96.06,219-215,222.69-125.44,4.89-230.7-97.1-230.29-222.69.54-162.12,166.58-269.28,314.33-202.88,78.51,34.79,131.8,117,130.96,202.88h0Zm-1.8,0c.83-84.39-53.43-165.3-131.73-196.68C181.7,165.81,27.16,269.09,27.48,420.17c-.3,151.08,154.21,254.36,293.77,196.68,78.29-31.39,132.58-112.29,131.73-196.68h0Z"/>
      <path class="cls-17" d="m968.76,420.17c.64,118.93-96.06,219-215,222.69-125.44,4.89-230.7-97.1-230.29-222.69.54-162.12,166.58-269.28,314.33-202.88,78.51,34.79,131.8,117,130.96,202.88h0Zm-1.8,0c.83-84.39-53.43-165.3-131.73-196.68-139.55-57.68-294.1,45.61-293.77,196.68-.3,151.08,154.21,254.36,293.77,196.68,78.29-31.39,132.58-112.29,131.73-196.68h0Z"/>
      <path class="cls-5" d="m246.48,292.17c34.37,59.37,62.3,169.19,24.37,231.47-6.24,9.98-14.51,18.76-24.37,24.52,7.14-8.59,12.62-18.15,16.45-28.47,22.77-62.87-3.99-161.91-16.45-227.52h0Z"/>
      <path class="cls-5" d="m286.14,292.17c27.48,40.06,55.12,127.07,34.04,173.23-.9,1.79-1.97,3.49-3.01,5.14.77-7.85.41-15.28-.36-22.71-2.51-22.28-7.8-44.06-12.69-65.92-6.65-29.67-14.16-59.39-17.97-89.75h0Z"/>
      <path class="cls-5" d="m756.44,305.4c34.37,59.37,62.3,169.19,24.37,231.47-6.24,9.98-14.51,18.76-24.37,24.52,7.14-8.59,12.62-18.15,16.45-28.47,22.77-62.87-3.99-161.91-16.45-227.52h0Z"/>
      <path class="cls-5" d="m796.1,305.4c27.48,40.06,55.12,127.07,34.04,173.23-.9,1.79-1.97,3.49-3.01,5.14.77-7.85.41-15.28-.36-22.71-2.51-22.28-7.8-44.06-12.69-65.92-6.65-29.67-14.16-59.39-17.97-89.75h0Z"/>
      <path class="cls-4" d="m195.84,603.3c27.94,6.18,57.08,8.86,85.39,3.94,25.3-4.41,47.62-15.97,65.5-34.74-7.61,11.38-17.95,21.22-30.11,28.12-35.65,20.56-83.62,17.98-120.78,2.67h0Z"/>
      <path class="cls-4" d="m697.92,603.3c27.94,6.18,57.08,8.86,85.39,3.94,25.3-4.41,47.62-15.97,65.5-34.74-7.61,11.38-17.95,21.22-30.11,28.12-35.65,20.56-83.62,17.98-120.78,2.67h0Z"/>
    </g>
    <g>
      <path class="cls-2" d="m388.55,679.45c64.8,29.18,136.08,64.13,258.69-2.37,0,0,83.19-28.92,63.94,47.08-26.2,103.43-296.45,107.07-358.47,15.84-.67-.99-1.77-1.6-2.63-2.39-29.45-27.06,2.01-74.58,38.47-58.16Z"/>
      <g>
        <line class="cls-21" x1="378.56" y1="670.15" x2="339.84" y2="735.56"/>
        <rect class="cls-16" x="321.19" y="699.85" width="76.01" height="6" transform="translate(-428.6 653.93) rotate(-59.38)"/>
      </g>
      <g>
        <line class="cls-21" x1="450.72" y1="698.88" x2="406.02" y2="783.52"/>
        <rect class="cls-16" x="380.51" y="738.2" width="95.72" height="6" transform="translate(-427.09 773.85) rotate(-62.16)"/>
      </g>
      <g>
        <line class="cls-21" x1="611.88" y1="690.58" x2="631.24" y2="794.64"/>
        <rect class="cls-16" x="618.56" y="689.68" width="6" height="105.84" transform="translate(-125.36 126.23) rotate(-10.54)"/>
      </g>
      <g>
        <line class="cls-21" x1="657.99" y1="667.59" x2="709.68" y2="750.41"/>
        <rect class="cls-16" x="680.83" y="660.18" width="6" height="97.63" transform="translate(-271.69 469.65) rotate(-31.97)"/>
      </g>
      <g>
        <line class="cls-21" x1="494.3" y1="707.56" x2="472.91" y2="801.3"/>
        <rect class="cls-16" x="435.53" y="751.43" width="96.15" height="6" transform="translate(-359.5 1058.09) rotate(-77.15)"/>
      </g>
      <g>
        <line class="cls-21" x1="538.21" y1="707.61" x2="556.92" y2="805.47"/>
        <rect class="cls-16" x="544.56" y="706.72" width="6" height="99.64" transform="translate(-132.38 116.34) rotate(-10.83)"/>
      </g>
      <path class="cls-12" d="m535.22,812.53c-29.65,0-59.47-3.11-86.92-9.29-53.42-12.01-93.8-34.69-113.73-63.87-.13-.11-.37-.3-.56-.45-.4-.31-.9-.7-1.42-1.17-19.27-17.7-17.39-41.56-6.98-57.34,10.44-15.83,31.68-26.98,55.61-16.2l4.71,2.12c69.96,31.57,142.31,64.22,268.96-4.46l.46-.25.5-.17c1.91-.66,46.95-16,69.17,4.38,11.88,10.89,14.68,29.13,8.33,54.21-10.75,42.45-58.22,74.07-130.23,86.77-21.71,3.83-44.75,5.73-67.9,5.73Zm-173.01-139.58c-11.62,0-20.71,7-25.74,14.62-6.84,10.36-9.65,27.22,4.93,40.61.18.17.39.32.59.48.86.67,2.17,1.68,3.23,3.24,40.19,59.11,163.99,78.26,255.65,62.1,66.75-11.77,110.45-39.89,119.89-77.16,5.08-20.07,3.57-34.01-4.5-41.42-13.5-12.4-44.26-5.68-55.65-1.86-132.02,71.41-210.64,35.93-280.02,4.62l-4.7-2.12c-4.85-2.18-9.43-3.12-13.68-3.12Zm-27.57,66.48h0s0,0,0,0Z"/>
    </g>
    <g id="bow_tie" data-name="bow tie">
      <g>
        <path class="cls-13" d="m554.29,895.27s185.83-145.62,224.78-112.23c38.95,33.38,67.14,187.73,35.61,240.57-31.53,52.83-204.75,26.13-251.49-4.66,0,0-84.2,30.46-121.29,4.66,0,0-169.14,105.5-244.81,58.77-75.67-46.74-59.35-288.95-11.13-287.09,48.22,1.85,220.7,50.07,255.94,86.8,0,0,70.1-25.16,112.39,13.2Z"/>
        <path class="cls-10" d="m246,1097.3c-20.22,0-37.14-4.14-50.48-12.38-35.31-21.81-47.02-80.65-50.86-113.79-5.56-48.02-2-102.51,9.07-138.83,8.14-26.69,19.34-40.54,32.35-40.03,24.79.95,79.74,13.48,133.62,30.46,29.34,9.25,99.16,32.94,123,55.9,5.11-1.65,20.34-6.1,39.33-7.34,29.61-1.94,54.56,5,72.37,20.09,9.4-7.26,51.11-39.05,96.07-67.29,29.96-18.81,55.51-32.41,75.94-40.4,26.81-10.49,44.67-11.45,54.6-2.94,18.82,16.14,36.58,61.19,45.24,114.79,9.11,56.42,5.75,104.87-9.01,129.59-7.49,12.55-22.62,21.51-44.97,26.63-29.34,6.72-71.6,6.49-115.95-.64-39.63-6.37-75.21-17.37-93.52-28.87-11.45,3.97-84.65,27.91-120.97,4.9-8.34,5.05-47.15,28.01-92.86,46.14-30.28,12.02-57.65,19.61-81.34,22.58-7.58.95-14.8,1.42-21.64,1.42Zm-60.55-299.04c-9.58,0-19.03,13-25.98,35.79-10.85,35.59-14.32,89.12-8.85,136.39,6.41,55.35,23.47,94.19,48.05,109.37,38.01,23.48,101.48,6.4,148.02-12.06,50.91-20.19,93.2-46.43,93.63-46.7l1.68-1.05,1.62,1.13c35.39,24.62,117.73-4.72,118.56-5.02l1.41-.51,1.26.83c33.32,21.95,141.17,44.36,206.1,29.49,20.69-4.74,34.54-12.77,41.16-23.86,13.85-23.2,17-71.31,8.24-125.56-8.45-52.28-25.41-95.92-43.22-111.19-30.42-26.07-169.83,72.24-220.98,112.32l-1.99,1.56-1.87-1.7c-40.44-36.68-108.68-12.84-109.36-12.59l-1.83.66-1.35-1.4c-33.69-35.11-204.93-83.99-253.89-85.88-.14,0-.27,0-.41,0Z"/>
      </g>
      <path class="cls-14" d="m480.71,1038.83c-17.04,0-32-3.52-41.01-13.18-21.04-22.57-12.21-87.46-5.07-124.14,2.76-14.16,14.19-25.15,28.45-27.34h0c39.62-6.08,80.73,2.39,93.6,19.28,9.7,12.74,10.89,63.04,10.17,102.99-.27,15.28-10.35,28.29-25.07,32.4-19.18,5.35-41.5,10-61.07,10Zm-16.72-158.73c-11.76,1.81-21.19,10.87-23.47,22.55-5.57,28.62-16.37,97.51,3.57,118.9,18.21,19.53,68.01,9.32,96.07,1.5,12.15-3.38,20.46-14.12,20.68-26.72.97-54.33-2.29-90.5-8.95-99.24-10.04-13.18-47.76-23.15-87.91-16.98h0Z"/>
      <path class="cls-14" d="m432.11,936.19c-19.22-1.68-38.1-5.16-56.93-9.1-18.8-4.09-37.46-8.63-55.68-14.97,19.22,1.66,38.1,5.15,56.93,9.1,18.8,4.1,37.46,8.64,55.68,14.97h0Z"/>
      <path class="cls-14" d="m429.56,976.66c-16.25,3.66-32.7,5.5-49.23,6.88-16.55,1.24-33.08,1.99-49.7.9,16.24-3.68,32.7-5.52,49.23-6.88,16.55-1.23,33.08-1.98,49.7-.9h0Z"/>
      <path class="cls-14" d="m564.01,942.16c21.39-8.94,43.36-16.14,65.49-22.9,22.17-6.62,44.45-12.79,67.22-17.16-21.39,8.96-43.35,16.15-65.49,22.9-22.18,6.61-44.45,12.77-67.22,17.16h0Z"/>
      <path class="cls-14" d="m564.01,980.55c19.18-1.73,38.36-1.62,57.55-1.05,19.2.72,38.33,1.91,57.35,4.94-19.18,1.74-38.36,1.64-57.55,1.05-19.19-.73-38.33-1.92-57.35-4.94h0Z"/>
      <g class="cls-22">
        <path class="cls-17" d="m190.04,817.16s175.08,36.16,209.2,72.33"/>
        <path class="cls-2" d="m190.04,817.16c56.9,6.03,153.44,28.47,199.13,62.45,3.72,2.9,7.24,6.15,10.08,9.88-14.76-11.32-32.57-17.03-49.79-23.4-52.56-18.13-106.52-31.55-159.41-48.93h0Z"/>
      </g>
      <g class="cls-22">
        <path class="cls-17" d="m668.53,1023.6s74.93,15.74,124.63-7.26"/>
        <path class="cls-2" d="m668.53,1023.6c41.83.09,83.68,2.72,124.63-7.26-32.3,22.82-88.89,21.24-124.63,7.26h0Z"/>
      </g>
      <g class="cls-22">
        <path class="cls-17" d="m185.59,1045.28s34.87,43.4,84.57,27.82"/>
        <path class="cls-2" d="m185.59,1045.28c27.39,19.04,50.47,30.09,84.57,27.82-29.08,17.87-69.8,1.27-84.57-27.82h0Z"/>
      </g>
    </g>
  </g>
</svg>