<?xml version="1.0" encoding="UTF-8"?>
<svg id="Layer_1" data-name="Layer 1" xmlns="http://www.w3.org/2000/svg" viewBox="0 0 447.46 147.31">
  <defs>
    <style>
      .cls-1, .cls-2, .cls-3, .cls-4, .cls-5, .cls-6, .cls-7, .cls-8, .cls-9, .cls-10, .cls-11, .cls-12, .cls-13 {
        fill: #fff;
      }

      .cls-2, .cls-14 {
        opacity: .12;
      }

      .cls-3 {
        opacity: .38;
      }

      .cls-15 {
        fill: #e62448;
      }

      .cls-16, .cls-17, .cls-18, .cls-19, .cls-20 {
        fill: #392947;
      }

      .cls-21 {
        fill: #c62161;
      }

      .cls-22 {
        opacity: .41;
      }

      .cls-22, .cls-23 {
        fill: #f9d2e3;
      }

      .cls-24 {
        opacity: .33;
      }

      .cls-4 {
        opacity: .26;
      }

      .cls-17 {
        opacity: .29;
      }

      .cls-25 {
        fill: #3faf3f;
      }

      .cls-5 {
        opacity: .1;
      }

      .cls-26 {
        fill: #f072ab;
      }

      .cls-27 {
        fill: #1f5a2d;
      }

      .cls-28 {
        fill: #9d5dba;
      }

      .cls-29 {
        fill: #1f4922;
      }

      .cls-30 {
        fill: #309930;
      }

      .cls-31 {
        fill: #1c542a;
      }

      .cls-6 {
        opacity: .24;
      }

      .cls-32 {
        fill: #c284ff;
      }

      .cls-33 {
        fill: #b42126;
      }

      .cls-34 {
        fill: #ed2e72;
      }

      .cls-7, .cls-20 {
        opacity: .19;
      }

      .cls-35 {
        fill: #1c381c;
      }

      .cls-18, .cls-36, .cls-37 {
        opacity: .25;
      }

      .cls-38 {
        opacity: .4;
      }

      .cls-39 {
        fill: #e82172;
      }

      .cls-40 {
        fill: #d05727;
      }

      .cls-19 {
        opacity: .3;
      }

      .cls-8 {
        opacity: .43;
      }

      .cls-41 {
        fill: #be1e6d;
      }

      .cls-42 {
        fill: #40ae49;
      }

      .cls-23, .cls-11 {
        opacity: .13;
      }

      .cls-43 {
        fill: #ec6323;
      }

      .cls-9 {
        opacity: .08;
      }

      .cls-10 {
        opacity: .2;
      }

      .cls-44 {
        fill: #163816;
      }

      .cls-45 {
        fill: #f16722;
      }

      .cls-46 {
        fill: #901a47;
      }

      .cls-36 {
        fill: #ec8cb2;
      }

      .cls-12 {
        opacity: .28;
      }

      .cls-47 {
        fill: #e175ad;
      }

      .cls-48 {
        fill: #319846;
      }

      .cls-49 {
        fill: #f0607c;
      }

      .cls-13 {
        opacity: .36;
      }

      .cls-50 {
        fill: #8b224d;
      }

      .cls-51 {
        opacity: .17;
      }

      .cls-52 {
        fill: #f69344;
      }

      .cls-53 {
        fill: #9d75cc;
      }

      .cls-54 {
        opacity: .27;
      }
    </style>
  </defs>
  <g id="silly_strawberry.svg">
    <g>
      <g>
        <path class="cls-48" d="m79.57,24.61s-.02-.05-.02-.05c0,0,0,.02.02.05Z"/>
        <path class="cls-48" d="m78.49,25.03v-.04s-.01,0-.01,0c0,.01,0,.03.01.04h0Zm.22-.15l1.87-.86s.06.13.1.23l-1.64.58.27-.14-.6.19Z"/>
      </g>
      <g>
        <path class="cls-48" d="m79.57,24.61c.11.34.35,2.54-10.68,3.85-9.28,1.1-14.93,10.86-17.01,15.21-11.01-20.41-18.4-16.18-20.72-18.89-2.32-2.7-8.53,3.57-9.04,4.08.27-.24,2.17-1.37,7.92,8.13,6.25,10.32,23.14,9.16,23.14,9.16-.09-.17-.18-.35-.26-.52,24.02-1.43,23.16-10.1,26.63-11.11,3.41-.99.28-9.24.02-9.92Z"/>
        <path class="cls-48" d="m51.53,47.36c-4.61,0-17.09-.86-22.48-9.77-4.6-7.6-6.4-7.74-6.42-7.74,0,0,.12,0,.27-.13l-1.61-1.67c1.19-1.22,5.33-5.2,8.46-5.1.92.03,1.71.4,2.29,1.07.36.42,1.12.61,2.18.88,3.68.93,9.72,2.47,17.62,16.3,2.69-4.93,8.3-12.87,16.91-13.89,8.83-1.05,9.69-2.63,9.7-2.64,0,0-.05.11,0,.3l2.19-.77c.62,1.59,2.53,7,1.15,9.81-.41.83-1.07,1.39-1.93,1.64-.53.15-1.02.77-1.7,1.62-2.44,3.05-6.48,8.1-23.42,9.42l.26.52-1.75.12c-.13,0-.75.05-1.73.05Zm-27.01-19.16c1.76,1.17,3.91,3.87,6.52,8.18,4.65,7.68,15.87,8.59,20.26,8.64l-.44-.81c-7.94-14.71-13.74-16.18-17.21-17.06-1.36-.35-2.53-.64-3.37-1.62-.11-.13-.26-.26-.6-.27-1.29-.05-3.43,1.44-5.16,2.94Zm54.66-1.15c-1.79,1.12-5.14,1.96-10.15,2.55-8.75,1.04-14.17,10.52-16.1,14.56l-.15.32h.07c17.4-1.04,21.22-5.82,23.51-8.67.88-1.1,1.63-2.04,2.87-2.4.16-.05.34-.13.49-.44.57-1.16.11-3.72-.54-5.92Z"/>
      </g>
      <g>
        <path class="cls-48" d="m22.1,28.89s.01-.01.03-.03c-.02.02-.03.03-.03.03Z"/>
        <path class="cls-48" d="m22.94,29.69h0s.02-.02.02-.02h0s-.02.02-.02.02Zm-.23-.2l-1.53-1.3c.05-.07.11-.13.18-.2l1.18,1.23-.23-.17.4.45Z"/>
      </g>
    </g>
    <g>
      <g>
        <path class="cls-42" d="m91.71,23.82s-.02-.05-.02-.05c0,0,0,.02.02.05Z"/>
        <path class="cls-42" d="m90.63,24.24v-.04s-.01,0-.01,0c0,.01,0,.03.01.04h0Zm.23-.15l1.86-.86c.04.07.07.15.1.24l-1.63.58.27-.14-.6.19Z"/>
      </g>
      <g>
        <path class="cls-42" d="m91.71,23.82c.11.34.35,2.54-10.68,3.85-9.28,1.1-14.93,10.86-17.01,15.21-11.01-20.41-18.4-16.18-20.72-18.89-2.32-2.7-8.53,3.57-9.04,4.08.27-.24,2.17-1.37,7.92,8.13,6.25,10.32,23.14,9.16,23.14,9.16-.09-.17-.18-.35-.26-.52,24.02-1.43,23.16-10.1,26.63-11.11,3.41-.99.28-9.24.02-9.92Z"/>
        <path class="cls-42" d="m63.67,46.57c-4.61,0-17.09-.86-22.48-9.77-4.6-7.6-6.4-7.74-6.42-7.74,0,0,.12,0,.27-.13l-1.61-1.67c1.19-1.22,5.33-5.21,8.46-5.1.92.03,1.71.4,2.29,1.07.36.42,1.12.61,2.18.88,3.68.93,9.72,2.47,17.62,16.3,2.69-4.93,8.3-12.87,16.91-13.89,8.83-1.05,9.69-2.63,9.7-2.64,0,0-.05.11,0,.3l2.19-.77c.62,1.59,2.53,7.01,1.15,9.81-.41.83-1.07,1.39-1.93,1.64-.53.15-1.02.77-1.7,1.62-2.44,3.05-6.48,8.1-23.42,9.42l.26.52-1.75.12c-.13,0-.75.05-1.73.05Zm-27.01-19.16c1.76,1.17,3.91,3.87,6.52,8.18,4.64,7.67,15.87,8.58,20.26,8.64l-.44-.81c-7.94-14.71-13.74-16.18-17.21-17.06-1.36-.35-2.53-.64-3.37-1.62-.11-.13-.26-.26-.6-.27-1.29-.04-3.43,1.44-5.16,2.94Zm54.66-1.15c-1.79,1.12-5.15,1.96-10.15,2.55-8.75,1.04-14.17,10.52-16.1,14.56l-.15.32h.07c17.4-1.04,21.22-5.82,23.51-8.67.88-1.1,1.63-2.04,2.87-2.4.16-.05.34-.13.49-.44.57-1.16.11-3.72-.54-5.92Z"/>
      </g>
      <g>
        <path class="cls-42" d="m34.23,28.1s.01-.01.03-.03c-.02.02-.03.03-.03.03Z"/>
        <path class="cls-42" d="m35.07,28.91h0s.02-.02.03-.03h0s-.03.03-.03.03Zm-.18-.16l-1.57-1.36c.05-.06.11-.13.17-.19l1.21,1.25-.25-.19.44.48Z"/>
      </g>
    </g>
    <g class="cls-24">
      <path class="cls-42" d="m90.47,26.49s-16.36,16.63-18.79,15.7"/>
      <path class="cls-35" d="m90.47,26.49c-3.43,4.51-12.74,14.07-18.01,15.72-.26.05-.55.09-.79-.02.26.04.5-.05.72-.16,1.56-.85,2.84-2.14,4.19-3.29,0,0,4.54-4.14,4.54-4.14,3.05-2.77,6.08-5.55,9.33-8.1h0Z"/>
    </g>
    <g class="cls-24">
      <path class="cls-42" d="m42.8,28.23s16.36,16.63,18.79,15.7"/>
      <path class="cls-35" d="m42.8,28.23c3.25,2.55,6.28,5.33,9.33,8.1,0,0,4.54,4.14,4.54,4.14,1.35,1.15,2.63,2.44,4.19,3.29.23.11.47.2.72.16-.24.12-.53.08-.79.02-5.26-1.65-14.56-11.19-18.01-15.72h0Z"/>
    </g>
    <g>
      <path class="cls-39" d="m61.46,45.08S-4.94,28.12,1.17,88.63c0,0,7.54,31.14,44.9,45.62,37.36,14.48,67.06-29.52,67.06-29.52,0,0,32.31-46.53-17.98-62.35,0,0-19.42-5.52-33.69,2.7Z"/>
      <path class="cls-41" d="m61.39,137.94c-5.28,0-10.49-.99-15.61-2.97-19.48-7.55-30.78-19.68-36.82-28.53C2.41,96.84.5,89.13.42,88.81l-.02-.1c-1.7-16.88,2.04-29.41,11.14-37.24,9.25-7.96,22.4-9.47,31.8-9.34,9.02.13,16.42,1.76,18,2.13,7.48-4.2,16.26-4.71,22.35-4.38,6.65.35,11.46,1.7,11.67,1.76,14.48,4.55,23.6,12.08,27.12,22.38,3.4,9.93.84,20.6-1.91,27.8-2.96,7.77-6.65,13.13-6.81,13.35-.07.1-7.63,11.2-19.69,20.37-7.11,5.4-14.36,9.09-21.58,10.96-3.72.97-7.43,1.45-11.11,1.45ZM1.93,88.49c.17.67,2.2,8.15,8.36,17.14,5.92,8.64,16.98,20.5,36.06,27.9,15.23,5.9,30.97,2.8,46.79-9.23,11.86-9.01,19.28-19.9,19.35-20.01.04-.06,3.76-5.47,6.65-13.06,2.65-6.96,5.12-17.24,1.87-26.72-3.36-9.8-12.14-17-26.1-21.39-.17-.05-19.26-5.32-33.07,2.64l-.27.16-.31-.08c-.08-.02-8.02-2.02-17.98-2.16-9.13-.13-21.86,1.33-30.74,8.97C3.87,60.12.3,72.18,1.93,88.49Z"/>
    </g>
    <g>
      <circle class="cls-26" cx="27.9" cy="101.93" r="4.18"/>
      <path class="cls-49" d="m27.9,106.49c-1.17,0-2.34-.45-3.23-1.34-1.78-1.78-1.78-4.68,0-6.46,1.78-1.78,4.68-1.78,6.46,0,1.78,1.78,1.78,4.68,0,6.46-.89.89-2.06,1.34-3.23,1.34Zm0-8.36c-.97,0-1.94.37-2.68,1.11-1.48,1.48-1.48,3.89,0,5.36,1.48,1.48,3.89,1.48,5.36,0s1.48-3.89,0-5.36c-.74-.74-1.71-1.11-2.68-1.11Z"/>
    </g>
    <g>
      <circle class="cls-26" cx="76.41" cy="103.71" r="4.18"/>
      <path class="cls-49" d="m76.41,108.28c-1.22,0-2.37-.48-3.23-1.34-.86-.86-1.34-2.01-1.34-3.23s.48-2.37,1.34-3.23c1.78-1.78,4.68-1.78,6.46,0,1.78,1.78,1.78,4.68,0,6.46h0s0,0,0,0c-.86.86-2.01,1.34-3.23,1.34Zm0-8.36c-.97,0-1.94.37-2.68,1.11s-1.11,1.67-1.11,2.68.39,1.97,1.11,2.68,1.67,1.11,2.68,1.11,1.97-.39,2.68-1.11h0c1.48-1.48,1.48-3.89,0-5.36-.74-.74-1.71-1.11-2.68-1.11Z"/>
    </g>
    <path class="cls-11" d="m75.24,99.7c-.35,1.28-.79,2.28-1.1,3.45-.33,1.17-.36,2.08-.4,3.43-3.09-1.58-1.69-6.42,1.5-6.88h0Z"/>
    <path class="cls-36" d="m116.97,67.62l-23.51-19.12c-1.64-1.34-.05-3.93,1.89-3.06,8.08,3.66,18.8,10.06,24.35,19.89.98,1.74-1.18,3.55-2.72,2.29Z"/>
    <path class="cls-36" d="m102.4,110.62c-5.6,6.88-14.53,15.61-25.44,18.47"/>
    <path class="cls-23" d="m60.45,46.17c4.3,23.2,1.15,46.79,3.21,69.94.53,5.44,1.51,11.01,3.5,16.32.7,1.92,1.57,3.88,2.56,6.01-9.63-1.24-17.2-8.94-21.5-17.26-11.72-22.56-5.43-57.17,12.23-75h0Z"/>
    <g>
      <path class="cls-1" d="m66.76,67.2c.31,3.41,1.35,6.5,2.87,8.97,0,0,1.69-1.15,4.96-1.22-1.02-5.16,3.27-8.77,3.27-8.77-7.46-4.96-1.46-15.89-1.46-15.89-6.13.56-10.44,8.14-9.63,16.91Z"/>
      <path d="m69.51,76.72l-.21-.34c-1.6-2.62-2.61-5.78-2.92-9.14h0c-.83-8.98,3.65-16.75,9.98-17.33l.72-.07-.35.64c-.06.11-5.74,10.68,1.34,15.38l.43.29-.39.33s-4.1,3.53-3.14,8.4l.09.45h-.46c-3.1.08-4.74,1.15-4.75,1.17l-.33.23Zm6.21-25.95c-5.53,1.04-9.33,8.19-8.58,16.39h0c.29,3.11,1.19,6.03,2.62,8.48.63-.33,2.1-.95,4.37-1.07-.62-4.24,2.09-7.36,3.11-8.36-6.04-4.46-2.66-13-1.52-15.45Z"/>
    </g>
    <g>
      <path d="m74.59,74.95c4.53-.49,8.58.72,11.79,2.33,1.98-3.12,3-7.45,2.57-12.13-.81-8.78-6.43-15.43-12.56-14.87,0,0-6,10.93,1.46,15.89,0,0-4.28,3.61-3.27,8.77Z"/>
      <path d="m86.43,77.46l-.1-.05c-3.91-1.96-7.85-2.75-11.72-2.32h-.12s-.02-.1-.02-.1c-.92-4.67,2.48-8.12,3.18-8.78-7.27-5.01-1.43-15.86-1.37-15.97l.03-.06h.07c3.01-.28,5.98,1.13,8.38,3.97,2.39,2.83,3.92,6.74,4.31,11.01.42,4.51-.53,8.96-2.59,12.21l-.06.1Zm-9.78-2.74c3.21,0,6.46.81,9.68,2.41,1.99-3.19,2.89-7.54,2.49-11.95-.39-4.22-1.9-8.08-4.25-10.87-2.33-2.75-5.2-4.13-8.09-3.89-.46.88-5.54,11.02,1.45,15.66l.14.1-.13.11s-4.15,3.57-3.24,8.53c.65-.07,1.3-.1,1.96-.1Z"/>
    </g>
    <path class="cls-12" d="m37.5,80.29c-1.78.36-3.32.5-5,.81-1.72.28-3.07.71-4.87,1.12,1.44-3.75,7.08-4.68,9.87-1.93h0Z"/>
    <path class="cls-12" d="m68.53,66.99c.39,1.42.6,2.93.86,4.31.24,1.51.56,2.64.82,4.25-3.43-1.08-4.28-6.23-1.68-8.56h0Z"/>
    <g>
      <path class="cls-1" d="m23.85,70.29c.3,3.28,1.3,6.26,2.76,8.64,0,0,1.62-1.11,4.78-1.18-.98-4.97,3.14-8.45,3.14-8.45-7.19-4.77-1.41-15.3-1.41-15.3-5.9.54-10.05,7.83-9.27,16.28Z"/>
      <path d="m26.49,79.47l-.21-.34c-1.55-2.52-2.52-5.57-2.82-8.8h0c-.38-4.17.39-8.19,2.18-11.33,1.82-3.19,4.46-5.1,7.44-5.37l.72-.07-.35.64c-.06.1-5.52,10.27,1.28,14.79l.43.29-.39.33s-3.94,3.39-3.01,8.08l.09.45h-.46c-2.98.08-4.55,1.11-4.57,1.12l-.33.22Zm-2.26-9.22c.27,2.98,1.14,5.79,2.51,8.15.61-.32,2.02-.9,4.18-1.02-.58-4.07,2-7.06,2.99-8.03-5.78-4.29-2.58-12.47-1.47-14.86-2.44.47-4.59,2.18-6.13,4.88-1.71,3.01-2.45,6.87-2.08,10.88h0Z"/>
    </g>
    <g>
      <path d="m31.38,77.75c4.36-.48,8.26.69,11.35,2.25,1.9-3,2.89-7.17,2.47-11.68-.78-8.45-6.19-14.86-12.09-14.32,0,0-5.78,10.53,1.41,15.3,0,0-4.12,3.47-3.14,8.45Z"/>
      <path d="m42.78,80.17l-.1-.05c-3.76-1.89-7.56-2.64-11.28-2.24h-.12s-.02-.1-.02-.1c-.88-4.49,2.37-7.81,3.06-8.46-6.99-4.83-1.37-15.27-1.31-15.38l.03-.06h.07c2.9-.27,5.77,1.09,8.08,3.82,2.3,2.72,3.78,6.49,4.16,10.6.4,4.35-.51,8.63-2.49,11.76l-.06.1Zm-9.42-2.65c3.09,0,6.22.78,9.32,2.32,1.91-3.07,2.78-7.25,2.39-11.5-.37-4.06-1.83-7.78-4.1-10.46-2.24-2.65-5-3.98-7.79-3.75-.45.86-5.33,10.6,1.4,15.07l.14.1-.13.11s-3.99,3.43-3.12,8.21c.62-.06,1.25-.1,1.88-.1Z"/>
    </g>
    <path class="cls-12" d="m81.54,78.36c-2.24-.38-4.17-.62-6.33-.21-1.37.24-2.44.64-3.92,1,.79-1.98,2.77-3.29,4.89-3.48,2.1-.18,4.39.76,5.36,2.68h0Z"/>
    <path class="cls-1" d="m41.27,102.92c8.84,2.47,18.61,5.55,32.98-5.31,0,0,10.06-5.3,9.07,4.77-1.34,13.71-35.77,19.4-45.46,8.96-.11-.11-.26-.17-.38-.25-4.28-2.88-1.19-9.56,3.79-8.17Z"/>
    <rect class="cls-47" x="33.07" y="105.45" width="9.81" height="2.06" transform="translate(-74.98 101.78) rotate(-67.99)"/>
    <rect class="cls-47" x="41.37" y="109" width="12.36" height="2.06" transform="translate(-72.01 118.7) rotate(-70.78)"/>
    <rect class="cls-47" x="71.21" y="99.65" width="2.06" height="13.67" transform="translate(-30.94 29.6) rotate(-19.16)"/>
    <rect class="cls-47" x="78.5" y="94.68" width="2.06" height="12.61" transform="translate(-46.57 76.05) rotate(-40.59)"/>
    <rect class="cls-47" x="48.65" y="109.63" width="12.42" height="2.06" transform="translate(-59.55 157.19) rotate(-85.76)"/>
    <rect class="cls-47" x="62.03" y="103.26" width="2.06" height="12.87" transform="translate(-32.92 27.25) rotate(-19.44)"/>
    <path class="cls-39" d="m54.57,118.54c-7.95,0-15.42-1.89-19.56-6.25-.08-.04-.15-.09-.23-.14-2.74-1.84-3.68-5.23-2.29-8.23,1.39-3.01,4.59-4.49,7.77-3.6l.64.18c4.14,1.16,8.34,2.34,13,2.34,5.86,0,12.44-1.86,20.52-7.97l.11-.08.12-.06c.62-.33,6.19-3.14,9.77-.73,2,1.35,2.84,3.88,2.48,7.54-.58,5.97-6.24,11.18-15.51,14.31-5.15,1.74-11.11,2.71-16.82,2.71Zm-16.18-15.13c-1.43,0-2.41.96-2.85,1.92-.53,1.16-.56,2.91,1.12,4.04h.03c.15.1.42.25.68.53,2.67,2.88,7.68,4.72,14.1,5.17,6.13.44,13-.45,18.85-2.41,7.97-2.68,12.8-6.86,13.25-11.46.16-1.6.11-3.67-1.01-4.42-1.47-.99-4.75.12-6.23.86-15.77,11.87-26.69,8.8-36.33,6.1l-.64-.18c-.35-.1-.67-.14-.98-.14Z"/>
    <path class="cls-21" d="m44.03,55.2c-.6,0-1.19-.3-1.53-.85-4.46-7.15-17.75-.02-17.88.05-.88.48-1.97.15-2.45-.72-.48-.88-.15-1.97.72-2.45.16-.09,4-2.16,8.59-3.15,8.29-1.77,12.23,1.39,14.08,4.35.53.85.27,1.96-.58,2.49-.3.19-.63.27-.95.27Z"/>
    <path class="cls-21" d="m88.83,54.56c-.69,0-1.35-.4-1.65-1.07-1.21-2.71-2.94-4.37-5.3-5.08-6.01-1.81-13.96,3.19-14.04,3.24-.84.54-1.96.29-2.49-.55s-.29-1.96.55-2.49c.38-.24,9.4-5.94,17.01-3.67,3.38,1.01,5.93,3.39,7.57,7.07.41.91,0,1.98-.91,2.39-.24.11-.49.16-.73.16Z"/>
    <path class="cls-11" d="m26.52,98.49c-.35,1.28-.79,2.28-1.1,3.45-.33,1.17-.36,2.08-.4,3.43-3.09-1.58-1.69-6.42,1.5-6.88h0Z"/>
    <g>
      <circle class="cls-26" cx="88.5" cy="94.21" r="4.18"/>
      <path class="cls-49" d="m88.5,98.77c-1.17,0-2.34-.45-3.23-1.34-1.78-1.78-1.78-4.68,0-6.46,1.78-1.78,4.68-1.78,6.46,0,1.78,1.78,1.78,4.68,0,6.46-.89.89-2.06,1.34-3.23,1.34Zm0-8.36c-.97,0-1.94.37-2.68,1.11-1.48,1.48-1.48,3.89,0,5.36,1.48,1.48,3.89,1.48,5.36,0,1.48-1.48,1.48-3.89,0-5.36-.74-.74-1.71-1.11-2.68-1.11Z"/>
    </g>
    <path class="cls-11" d="m87.12,90.77c-.35,1.28-.79,2.28-1.1,3.45-.33,1.17-.36,2.08-.4,3.43-3.09-1.58-1.69-6.42,1.5-6.88h0Z"/>
    <g class="cls-38">
      <ellipse class="cls-50" cx="95.17" cy="84.96" rx="1.53" ry="3.07"/>
      <path class="cls-46" d="m95.17,88.16c-.93,0-1.66-1.4-1.66-3.19s.73-3.19,1.66-3.19,1.66,1.4,1.66,3.19-.73,3.19-1.66,3.19Zm0-6.13c-.76,0-1.4,1.34-1.4,2.94s.64,2.94,1.4,2.94,1.4-1.34,1.4-2.94-.64-2.94-1.4-2.94Z"/>
    </g>
    <g class="cls-38">
      <ellipse class="cls-50" cx="66.88" cy="88.03" rx="1.53" ry="3.07"/>
      <path class="cls-46" d="m66.88,91.22c-.93,0-1.66-1.4-1.66-3.19s.73-3.19,1.66-3.19,1.66,1.4,1.66,3.19-.73,3.19-1.66,3.19Zm0-6.13c-.76,0-1.4,1.34-1.4,2.94s.64,2.94,1.4,2.94,1.4-1.34,1.4-2.94-.64-2.94-1.4-2.94Z"/>
    </g>
    <g class="cls-38">
      <ellipse class="cls-50" cx="70.21" cy="129.09" rx="1.53" ry="3.07"/>
      <path class="cls-46" d="m70.21,132.29c-.93,0-1.66-1.4-1.66-3.19s.73-3.19,1.66-3.19,1.66,1.4,1.66,3.19-.73,3.19-1.66,3.19Zm0-6.13c-.76,0-1.4,1.34-1.4,2.94s.64,2.94,1.4,2.94,1.4-1.34,1.4-2.94-.64-2.94-1.4-2.94Z"/>
    </g>
    <g class="cls-38">
      <ellipse class="cls-50" cx="79.54" cy="117.56" rx="1.53" ry="3.07"/>
      <path class="cls-46" d="m79.54,120.76c-.93,0-1.66-1.4-1.66-3.19s.73-3.19,1.66-3.19,1.66,1.4,1.66,3.19-.73,3.19-1.66,3.19Zm0-6.13c-.76,0-1.4,1.34-1.4,2.94s.64,2.94,1.4,2.94,1.4-1.34,1.4-2.94-.64-2.94-1.4-2.94Z"/>
    </g>
    <g class="cls-38">
      <ellipse class="cls-50" cx="37.97" cy="90.23" rx="1.53" ry="3.07"/>
      <path class="cls-46" d="m37.97,93.43c-.93,0-1.66-1.4-1.66-3.19s.73-3.19,1.66-3.19,1.66,1.4,1.66,3.19-.73,3.19-1.66,3.19Zm0-6.13c-.76,0-1.4,1.34-1.4,2.94s.64,2.94,1.4,2.94,1.4-1.34,1.4-2.94-.64-2.94-1.4-2.94Z"/>
    </g>
    <g class="cls-38">
      <ellipse class="cls-50" cx="8.06" cy="75.55" rx="1.53" ry="3.07"/>
      <path class="cls-46" d="m8.06,78.74c-.93,0-1.66-1.4-1.66-3.19s.73-3.19,1.66-3.19,1.66,1.4,1.66,3.19-.73,3.19-1.66,3.19Zm0-6.13c-.76,0-1.4,1.34-1.4,2.94s.64,2.94,1.4,2.94,1.4-1.34,1.4-2.94-.64-2.94-1.4-2.94Z"/>
    </g>
    <g class="cls-38">
      <ellipse class="cls-50" cx="15.8" cy="56.66" rx="1.53" ry="3.07"/>
      <path class="cls-46" d="m15.8,59.85c-.93,0-1.66-1.4-1.66-3.19s.73-3.19,1.66-3.19,1.66,1.4,1.66,3.19-.73,3.19-1.66,3.19Zm0-6.13c-.76,0-1.4,1.34-1.4,2.94s.64,2.94,1.4,2.94,1.4-1.34,1.4-2.94-.64-2.94-1.4-2.94Z"/>
    </g>
    <g class="cls-38">
      <ellipse class="cls-50" cx="9.59" cy="92.85" rx="1.53" ry="3.07"/>
      <path class="cls-46" d="m9.59,96.05c-.93,0-1.66-1.4-1.66-3.19s.73-3.19,1.66-3.19,1.66,1.4,1.66,3.19-.73,3.19-1.66,3.19Zm0-6.13c-.76,0-1.4,1.34-1.4,2.94s.64,2.94,1.4,2.94,1.4-1.34,1.4-2.94-.64-2.94-1.4-2.94Z"/>
    </g>
    <g class="cls-38">
      <ellipse class="cls-50" cx="18.86" cy="84.1" rx="1.53" ry="3.07"/>
      <path class="cls-46" d="m18.86,87.29c-.93,0-1.66-1.4-1.66-3.19s.73-3.19,1.66-3.19,1.66,1.4,1.66,3.19-.73,3.19-1.66,3.19Zm0-6.13c-.76,0-1.4,1.34-1.4,2.94s.64,2.94,1.4,2.94,1.4-1.34,1.4-2.94-.64-2.94-1.4-2.94Z"/>
    </g>
    <g class="cls-38">
      <ellipse class="cls-50" cx="29.14" cy="114.5" rx="1.53" ry="3.07"/>
      <path class="cls-46" d="m29.14,117.69c-.93,0-1.66-1.4-1.66-3.19s.73-3.19,1.66-3.19,1.66,1.4,1.66,3.19-.73,3.19-1.66,3.19Zm0-6.13c-.76,0-1.4,1.34-1.4,2.94s.64,2.94,1.4,2.94,1.4-1.34,1.4-2.94-.64-2.94-1.4-2.94Z"/>
    </g>
    <g class="cls-38">
      <ellipse class="cls-50" cx="101.2" cy="67.92" rx="1.53" ry="3.07"/>
      <path class="cls-46" d="m101.2,71.12c-.93,0-1.66-1.4-1.66-3.19s.73-3.19,1.66-3.19,1.66,1.4,1.66,3.19-.73,3.19-1.66,3.19Zm0-6.13c-.76,0-1.4,1.34-1.4,2.94s.64,2.94,1.4,2.94,1.4-1.34,1.4-2.94-.64-2.94-1.4-2.94Z"/>
    </g>
    <g class="cls-38">
      <ellipse class="cls-50" cx="108.83" cy="88.27" rx="1.53" ry="3.07"/>
      <path class="cls-46" d="m108.83,91.47c-.93,0-1.66-1.4-1.66-3.19s.73-3.19,1.66-3.19,1.66,1.4,1.66,3.19-.73,3.19-1.66,3.19Zm0-6.13c-.76,0-1.4,1.34-1.4,2.94s.64,2.94,1.4,2.94,1.4-1.34,1.4-2.94-.64-2.94-1.4-2.94Z"/>
    </g>
    <g class="cls-38">
      <ellipse class="cls-50" cx="96.64" cy="106.27" rx="1.53" ry="3.07"/>
      <path class="cls-46" d="m96.63,109.47c-.93,0-1.66-1.4-1.66-3.19s.73-3.19,1.66-3.19,1.66,1.4,1.66,3.19-.73,3.19-1.66,3.19Zm0-6.13c-.76,0-1.4,1.34-1.4,2.94s.64,2.94,1.4,2.94,1.4-1.34,1.4-2.94-.64-2.94-1.4-2.94Z"/>
    </g>
  </g>
  <g id="smarty_arty_orange.svg">
    <g>
      <g>
        <path class="cls-48" d="m183.44,6.78s-.02-.04-.02-.04c0,0,0,.02.02.04Z"/>
        <path class="cls-48" d="m182.36,7.2l-.02-.04h0s.01.03.02.04h0Zm.19-.14l1.9-.87s.06.13.1.23l-1.65.59.29-.15-.63.2Z"/>
      </g>
      <g>
        <path class="cls-48" d="m183.44,6.78c.11.34.35,2.53-10.65,3.84-9.26,1.1-14.89,10.83-16.96,15.17-10.98-20.36-18.35-16.14-20.67-18.84-2.31-2.69-8.51,3.56-9.01,4.07.26-.24,2.16-1.37,7.9,8.11,6.23,10.3,23.08,9.14,23.08,9.14-.09-.17-.18-.35-.26-.52,23.96-1.43,23.1-10.08,26.56-11.08,3.4-.99.28-9.22.02-9.89Z"/>
        <path class="cls-48" d="m155.48,29.47c-4.6,0-17.04-.86-22.42-9.74-4.59-7.58-6.38-7.72-6.4-7.72,0,0,.12,0,.27-.13l-1.61-1.67c1.19-1.22,5.31-5.2,8.44-5.09.92.03,1.71.4,2.29,1.07.36.42,1.12.61,2.17.88,3.67.93,9.7,2.46,17.57,16.25,2.68-4.92,8.28-12.83,16.86-13.85,8.8-1.04,9.66-2.62,9.67-2.63,0,0-.05.11,0,.3l2.19-.77c.62,1.59,2.53,6.99,1.15,9.79-.41.82-1.07,1.39-1.92,1.64-.53.15-1.02.77-1.7,1.62-2.44,3.04-6.46,8.07-23.36,9.39l.26.52-1.74.12c-.13,0-.75.05-1.73.05Zm-26.94-19.11c1.76,1.17,3.9,3.86,6.5,8.16,4.64,7.66,15.82,8.56,20.2,8.61l-.44-.81c-7.91-14.67-13.7-16.14-17.16-17.02-1.36-.34-2.53-.64-3.36-1.62-.11-.12-.26-.25-.6-.26-1.29-.04-3.42,1.43-5.14,2.93Zm54.51-1.14c-1.79,1.12-5.13,1.95-10.12,2.55-8.72,1.03-14.13,10.49-16.05,14.51l-.15.31h.07c17.35-1.04,21.16-5.8,23.44-8.65.87-1.09,1.63-2.04,2.86-2.4.16-.05.34-.13.49-.44.57-1.15.11-3.7-.54-5.89Z"/>
      </g>
      <g>
        <path class="cls-48" d="m126.12,11.05s.01-.01.03-.03c-.02.02-.03.03-.03.03Z"/>
        <path class="cls-48" d="m126.95,11.86h0s.02-.02.03-.03h0s-.03.03-.03.03Zm-.2-.17l-1.56-1.34s.09-.11.17-.18l1.2,1.25-.24-.18.42.46Z"/>
      </g>
    </g>
    <g>
      <g>
        <path class="cls-42" d="m195.55,5.99s-.02-.04-.02-.04c0,0,0,.02.02.04Z"/>
        <path class="cls-42" d="m194.47,6.41l-.02-.04h0s.01.03.02.04h0Zm.21-.15l1.87-.87c.04.07.07.15.1.24l-1.63.58.27-.15-.61.2Z"/>
      </g>
      <g>
        <path class="cls-42" d="m195.55,5.99c.11.34.35,2.53-10.65,3.84-9.26,1.1-14.89,10.83-16.96,15.17-10.98-20.36-18.35-16.14-20.67-18.84-2.31-2.69-8.51,3.56-9.01,4.07.26-.24,2.16-1.37,7.9,8.11,6.23,10.3,23.08,9.14,23.08,9.14-.09-.17-.18-.35-.26-.52,23.96-1.43,23.1-10.08,26.56-11.08,3.4-.99.28-9.22.02-9.89Z"/>
        <path class="cls-42" d="m167.58,28.69c-4.6,0-17.04-.86-22.42-9.74-4.59-7.58-6.38-7.72-6.4-7.72,0,0,.12,0,.27-.13l-1.61-1.67c1.19-1.22,5.32-5.19,8.44-5.09.92.03,1.71.4,2.29,1.07.36.42,1.12.61,2.17.88,3.67.93,9.7,2.46,17.57,16.25,2.68-4.92,8.28-12.83,16.86-13.85,8.8-1.04,9.66-2.62,9.67-2.63,0,0-.05.11,0,.3l2.19-.77c.62,1.59,2.53,6.99,1.15,9.79-.41.82-1.07,1.39-1.92,1.64-.53.15-1.02.77-1.7,1.62-2.44,3.04-6.46,8.07-23.36,9.39l.26.52-1.75.12c-.13,0-.75.05-1.73.05Zm-26.94-19.11c1.76,1.17,3.9,3.86,6.5,8.16,4.63,7.64,15.82,8.56,20.2,8.61l-.43-.81c-7.91-14.67-13.7-16.14-17.16-17.02-1.36-.34-2.53-.64-3.36-1.62-.11-.12-.26-.25-.6-.26-1.28-.05-3.42,1.43-5.14,2.93Zm54.51-1.14c-1.79,1.12-5.13,1.95-10.12,2.55-8.72,1.03-14.13,10.49-16.05,14.51l-.15.31h.07c17.35-1.04,21.16-5.8,23.44-8.65.87-1.09,1.63-2.04,2.86-2.4.16-.05.34-.13.49-.44.57-1.15.11-3.7-.54-5.89Z"/>
      </g>
      <g>
        <path class="cls-42" d="m138.22,10.27s.01-.01.03-.03c-.02.02-.03.03-.03.03Z"/>
        <path class="cls-42" d="m139.06,11.07h0s.02-.02.03-.03h0s-.03.03-.03.03Zm-.21-.18l-1.55-1.33c.05-.06.11-.13.18-.19l1.19,1.24-.24-.18.42.46Z"/>
      </g>
    </g>
    <g class="cls-14">
      <path class="cls-42" d="m194.3,8.66s-16.31,16.59-18.74,15.66"/>
      <path class="cls-35" d="m194.3,8.66c-3.42,4.5-12.71,14.03-17.96,15.68-.26.05-.55.09-.79-.02.26.04.5-.05.72-.16,1.56-.85,2.84-2.13,4.18-3.28,0,0,4.53-4.13,4.53-4.13,3.04-2.76,6.07-5.53,9.31-8.08h0Z"/>
    </g>
    <g class="cls-51">
      <path class="cls-42" d="m146.76,10.39s16.31,16.59,18.74,15.66"/>
      <path class="cls-35" d="m146.76,10.39c3.24,2.55,6.27,5.32,9.31,8.08,0,0,4.53,4.13,4.53,4.13,1.35,1.15,2.62,2.43,4.18,3.28.22.11.46.2.72.16-.24.12-.53.08-.78.02-5.24-1.65-14.52-11.16-17.96-15.68h0Z"/>
    </g>
    <g>
      <path class="cls-52" d="m106.13,81.99s8.64,40.39,47.79,40.35c39.42-.04,48.9-11.28,48.9-11.28,17.55-11.17,34.29-85.51-30.71-89.18,0,0-77.37,1.79-65.98,60.11Z"/>
      <path class="cls-43" d="m153.86,122.86c-9,0-17.14-2.14-24.19-6.36-5.65-3.38-10.61-8.1-14.75-14.02-7.03-10.06-9.27-20.28-9.29-20.38h0c-2.88-14.78-.34-27.25,7.57-37.09,9.45-11.75,24.97-17.55,36.33-20.35,12.28-3.03,22.47-3.29,22.58-3.3h.02s.02,0,.02,0c12.97.73,23.52,4.33,31.35,10.68,6.79,5.51,11.46,12.98,13.86,22.21,2.74,10.5,2.38,22.84-1,34.74-2.99,10.55-8.05,19.14-13.2,22.46-.41.45-2.99,3.08-9.82,5.71-6.7,2.58-18.97,5.67-39.42,5.69h-.06Zm-47.23-40.97c.06.26,2.28,10.21,9.15,20.03,6.36,9.09,18.13,19.91,38.08,19.91h.06c20.19-.02,32.3-3.04,38.92-5.57,7.15-2.74,9.57-5.5,9.59-5.53l.05-.06.07-.04c9.6-6.1,19.85-32.95,13.81-56.12-3.57-13.71-14.15-30.4-44.25-32.11-.51.01-10.44.33-22.36,3.27-11.2,2.76-26.49,8.48-35.75,19.99-7.71,9.58-10.18,21.77-7.36,36.23Z"/>
    </g>
    <path class="cls-23" d="m166,27.9c.11,19.94-4.76,39.62-6.16,59.15-.63,9.11-.4,18.15,2.69,26.98.68,1.97,1.5,3.97,2.41,6.17-7.05-1.2-13.37-6.09-17.44-12.01-11.92-17.49-8.48-42.24,1.19-59.96,4.28-7.73,9.95-15.25,17.3-20.34h0Z"/>
    <path class="cls-2" d="m211.06,55.54l-26.59-26.83c-1.86-1.88.07-5.37,2.28-4.12,9.23,5.25,21.43,14.32,27.54,27.91,1.08,2.4-1.47,4.81-3.22,3.04Z"/>
    <g class="cls-37">
      <circle class="cls-40" cx="201.47" cy="76.58" r="3.84"/>
      <path class="cls-45" d="m201.47,80.55c-2.19,0-3.97-1.78-3.97-3.97s1.78-3.97,3.97-3.97,3.97,1.78,3.97,3.97-1.78,3.97-3.97,3.97Zm0-7.69c-2.05,0-3.72,1.67-3.72,3.72s1.67,3.72,3.72,3.72,3.72-1.67,3.72-3.72-1.67-3.72-3.72-3.72Z"/>
    </g>
    <g class="cls-37">
      <circle class="cls-40" cx="112.27" cy="86.55" r="4.45"/>
      <path class="cls-45" d="m112.27,91.14c-2.53,0-4.58-2.06-4.58-4.58s2.06-4.58,4.58-4.58,4.58,2.06,4.58,4.58-2.06,4.58-4.58,4.58Zm0-8.91c-2.38,0-4.33,1.94-4.33,4.33s1.94,4.33,4.33,4.33,4.33-1.94,4.33-4.33-1.94-4.33-4.33-4.33Z"/>
    </g>
    <g class="cls-37">
      <circle class="cls-40" cx="198.94" cy="92.42" r="4.45"/>
      <path class="cls-45" d="m198.94,97.01c-2.53,0-4.58-2.06-4.58-4.58s2.06-4.58,4.58-4.58,4.58,2.06,4.58,4.58-2.06,4.58-4.58,4.58Zm0-8.91c-2.38,0-4.33,1.94-4.33,4.33s1.94,4.33,4.33,4.33,4.33-1.94,4.33-4.33-1.94-4.33-4.33-4.33Z"/>
    </g>
    <g class="cls-37">
      <circle class="cls-40" cx="136.68" cy="81.22" r="4.45"/>
      <path class="cls-45" d="m136.68,85.8c-2.53,0-4.58-2.06-4.58-4.58s2.06-4.58,4.58-4.58,4.58,2.06,4.58,4.58-2.06,4.58-4.58,4.58Zm0-8.91c-2.38,0-4.33,1.94-4.33,4.33s1.94,4.33,4.33,4.33,4.33-1.94,4.33-4.33-1.94-4.33-4.33-4.33Z"/>
    </g>
    <g class="cls-37">
      <circle class="cls-40" cx="143.66" cy="94.9" r="4.45"/>
      <path class="cls-45" d="m143.66,99.48c-2.53,0-4.58-2.06-4.58-4.58s2.06-4.58,4.58-4.58,4.58,2.06,4.58,4.58-2.06,4.58-4.58,4.58Zm0-8.91c-2.38,0-4.33,1.94-4.33,4.33s1.94,4.33,4.33,4.33,4.33-1.94,4.33-4.33-1.94-4.33-4.33-4.33Z"/>
    </g>
    <g class="cls-37">
      <circle class="cls-40" cx="172.69" cy="99.35" r="4.45"/>
      <path class="cls-45" d="m172.69,103.93c-2.53,0-4.58-2.06-4.58-4.58s2.06-4.58,4.58-4.58,4.58,2.06,4.58,4.58-2.06,4.58-4.58,4.58Zm0-8.91c-2.38,0-4.33,1.94-4.33,4.33s1.94,4.33,4.33,4.33,4.33-1.94,4.33-4.33-1.94-4.33-4.33-4.33Z"/>
    </g>
    <g class="cls-37">
      <circle class="cls-40" cx="154.46" cy="35.78" r="4.45"/>
      <path class="cls-45" d="m154.46,40.37c-2.53,0-4.58-2.06-4.58-4.58s2.06-4.58,4.58-4.58,4.58,2.06,4.58,4.58-2.06,4.58-4.58,4.58Zm0-8.91c-2.38,0-4.33,1.94-4.33,4.33s1.94,4.33,4.33,4.33,4.33-1.94,4.33-4.33-1.94-4.33-4.33-4.33Z"/>
    </g>
    <g class="cls-37">
      <circle class="cls-40" cx="177.15" cy="29.86" r="4.45"/>
      <path class="cls-45" d="m177.15,34.44c-2.53,0-4.58-2.06-4.58-4.58s2.06-4.58,4.58-4.58,4.58,2.06,4.58,4.58-2.06,4.58-4.58,4.58Zm0-8.91c-2.38,0-4.33,1.94-4.33,4.33s1.94,4.33,4.33,4.33,4.33-1.94,4.33-4.33-1.94-4.33-4.33-4.33Z"/>
    </g>
    <g class="cls-37">
      <circle class="cls-40" cx="161.61" cy="76.76" r="4.45"/>
      <path class="cls-45" d="m161.61,81.35c-2.53,0-4.58-2.06-4.58-4.58s2.06-4.58,4.58-4.58,4.58,2.06,4.58,4.58-2.06,4.58-4.58,4.58Zm0-8.91c-2.38,0-4.33,1.94-4.33,4.33s1.94,4.33,4.33,4.33,4.33-1.94,4.33-4.33-1.94-4.33-4.33-4.33Z"/>
    </g>
    <g id="glasses">
      <g>
        <path class="cls-1" d="m173.8,57.53c.43,4.71,1.87,8.97,3.96,12.38,0,0,2.33-1.59,6.84-1.69-1.4-7.12,4.51-12.1,4.51-12.1-10.3-6.84-2.02-21.93-2.02-21.93-8.46.78-14.41,11.23-13.29,23.34Z"/>
        <path d="m177.64,70.46l-.21-.34c-2.2-3.59-3.59-7.93-4.01-12.55h0c-1.13-12.3,4.99-22.96,13.64-23.76l.72-.07-.35.64c-.08.15-7.99,14.86,1.89,21.42l.43.29-.39.33c-.06.05-5.72,4.92-4.38,11.73l.09.45h-.46c-4.33.11-6.61,1.61-6.64,1.63l-.34.23Zm-3.46-12.96c.4,4.36,1.68,8.46,3.71,11.89.79-.43,2.88-1.38,6.25-1.53-.94-5.98,3.09-10.45,4.35-11.69-4.05-2.91-5.66-7.62-4.64-13.64.6-3.55,1.93-6.57,2.56-7.86-7.85,1.27-13.29,11.3-12.23,22.83h0Z"/>
      </g>
      <g>
        <path d="m184.6,68.22c6.24-.68,11.84.99,16.27,3.22,2.73-4.3,4.14-10.28,3.55-16.74-1.12-12.11-8.87-21.3-17.33-20.52,0,0-8.28,15.09,2.02,21.93,0,0-5.91,4.98-4.51,12.1Z"/>
        <path d="m200.92,71.61l-.1-.05c-5.4-2.71-10.85-3.79-16.2-3.21h-.12s-.02-.1-.02-.1c-1.29-6.53,3.57-11.33,4.42-12.11-4.16-2.84-5.81-7.52-4.79-13.57.78-4.6,2.85-8.4,2.87-8.44l.03-.06h.07c4.13-.39,8.23,1.56,11.53,5.46,3.29,3.9,5.4,9.28,5.94,15.16.57,6.22-.73,12.35-3.57,16.82l-.06.1Zm-13.47-3.67c4.44,0,8.93,1.12,13.38,3.34,2.77-4.42,4.03-10.44,3.46-16.56-.54-5.83-2.63-11.17-5.88-15.02-3.23-3.82-7.21-5.73-11.24-5.39-.27.5-2.09,4.07-2.81,8.3-.71,4.18-.44,9.9,4.82,13.39l.14.1-.13.11c-.06.05-5.77,4.96-4.49,11.86.91-.1,1.82-.14,2.74-.14Z"/>
      </g>
      <g>
        <path class="cls-1" d="m114.58,61.79c.42,4.53,1.8,8.64,3.81,11.92,0,0,2.24-1.53,6.59-1.62-1.35-6.86,4.34-11.65,4.34-11.65-9.92-6.59-1.94-21.11-1.94-21.11-8.14.75-13.87,10.81-12.8,22.47Z"/>
        <path d="m118.27,74.25l-.21-.34c-2.12-3.46-3.46-7.64-3.87-12.09h0c-1.09-11.85,4.81-22.12,13.15-22.89l.72-.07-.35.64c-.08.14-7.68,14.29,1.82,20.61l.43.29-.39.33c-.06.05-5.5,4.74-4.21,11.28l.09.45h-.46c-4.16.1-6.36,1.55-6.38,1.57l-.34.23Zm-3.31-12.5c.39,4.19,1.62,8.13,3.56,11.43.77-.42,2.78-1.32,6-1.47-.89-5.74,2.95-10.03,4.18-11.24-3.9-2.81-5.44-7.34-4.46-13.14.58-3.4,1.84-6.29,2.45-7.55-7.54,1.24-12.75,10.88-11.73,21.96h0Z"/>
      </g>
      <g>
        <path d="m124.98,72.09c6.01-.66,11.4.96,15.67,3.1,2.63-4.14,3.99-9.9,3.41-16.11-1.07-11.66-8.54-20.51-16.69-19.76,0,0-7.97,14.53,1.94,21.11,0,0-5.69,4.79-4.34,11.65Z"/>
        <path d="m140.69,75.35l-.1-.05c-5.2-2.61-10.45-3.65-15.59-3.09h-.12s-.02-.1-.02-.1c-1.24-6.28,3.42-10.9,4.26-11.67-4-2.73-5.59-7.25-4.61-13.06.75-4.43,2.74-8.09,2.76-8.13l.03-.06h.07c8.2-.76,15.75,8.15,16.83,19.87.55,5.99-.7,11.89-3.43,16.2l-.06.1Zm-12.97-3.55c4.27,0,8.59,1.08,12.88,3.21,2.66-4.25,3.88-10.05,3.33-15.93-1.06-11.54-8.45-20.33-16.48-19.65-.54,1.03-7.45,14.65,1.94,20.88l.14.1-.13.11c-.06.05-5.55,4.77-4.32,11.42.88-.09,1.75-.14,2.63-.14Z"/>
      </g>
      <circle class="cls-13" cx="133.12" cy="54.67" r="25.33"/>
      <circle class="cls-13" cx="193.93" cy="54.67" r="25.33"/>
      <rect class="cls-27" x="158.45" y="52.86" width="10.15" height="3.61"/>
      <path class="cls-27" d="m158.68,54.67c.06,18.7-18.6,32.23-36.41,26.19-11.09-3.68-18.73-14.5-18.66-26.19.05-20.5,21.42-33.81,39.74-24.71,9.26,4.54,15.43,14.41,15.33,24.71h0Zm-.46,0c.08-9.93-6.31-19.43-15.53-23.11-16.38-6.74-34.5,5.38-34.44,23.11-.06,17.73,18.06,29.85,34.44,23.11,9.21-3.68,15.61-13.18,15.53-23.11h0Z"/>
      <path class="cls-27" d="m219.49,54.67c.06,18.7-18.6,32.23-36.41,26.19-11.09-3.68-18.73-14.5-18.66-26.19.05-20.5,21.42-33.81,39.74-24.71,9.26,4.54,15.43,14.41,15.33,24.71h0Zm-.46,0c.08-9.93-6.31-19.43-15.53-23.11-16.38-6.74-34.5,5.38-34.44,23.11-.06,17.73,18.06,29.85,34.44,23.11,9.21-3.68,15.61-13.18,15.53-23.11h0Z"/>
      <path class="cls-8" d="m133.91,39.52c5.01,5.95,7.72,16.15,5.43,23.71-.83,2.73-2.66,5.59-5.43,6.58,2.56-4.79,1.89-9.52,1.5-14.62-.51-5.16-1.41-10.4-1.5-15.67h0Z"/>
      <path class="cls-8" d="m138.6,39.52c4.07,3.69,6.3,10.13,5.89,15.56-.18,1.95-.7,4.16-2.22,5.54-.17-1.02-.41-1.86-.66-2.72-1.82-5.95-3.73-12.06-3.01-18.39h0Z"/>
      <path class="cls-8" d="m194.24,41.09c5.01,5.95,7.72,16.15,5.43,23.71-.83,2.73-2.66,5.59-5.43,6.58,2.56-4.79,1.89-9.52,1.5-14.62-.51-5.16-1.41-10.4-1.5-15.67h0Z"/>
      <path class="cls-8" d="m198.94,41.09c4.07,3.69,6.3,10.13,5.89,15.56-.18,1.95-.7,4.16-2.22,5.54-.17-1.02-.41-1.86-.66-2.72-1.82-5.95-3.73-12.06-3.01-18.39h0Z"/>
      <path class="cls-3" d="m127.92,76.33c6.34.77,12.8.82,17.85-3.64-3.33,6.2-12.18,6.72-17.85,3.64h0Z"/>
      <path class="cls-3" d="m187.32,76.33c6.34.77,12.8.82,17.85-3.64-3.33,6.2-12.18,6.72-17.85,3.64h0Z"/>
    </g>
    <g>
      <path class="cls-1" d="m150.72,85.34c7.67,3.45,16.1,7.59,30.61-.28,0,0,9.84-3.42,7.56,5.57-3.1,12.24-35.07,12.67-42.41,1.87-.08-.12-.21-.19-.31-.28-3.48-3.2.24-8.82,4.55-6.88Z"/>
      <g>
        <line class="cls-15" x1="149.54" y1="84.24" x2="144.96" y2="91.98"/>
        <rect class="cls-33" x="142.75" y="87.34" width="8.99" height="1.55" transform="translate(-3.59 169.93) rotate(-59.37)"/>
      </g>
      <g>
        <line class="cls-15" x1="158.07" y1="87.64" x2="152.79" y2="97.66"/>
        <rect class="cls-33" x="149.77" y="91.88" width="11.33" height="1.55" transform="translate(.92 186.83) rotate(-62.16)"/>
      </g>
      <g>
        <line class="cls-15" x1="177.14" y1="86.66" x2="179.43" y2="98.97"/>
        <rect class="cls-33" x="177.51" y="86.55" width="1.55" height="12.52" transform="translate(-13.97 34.18) rotate(-10.54)"/>
      </g>
      <g>
        <line class="cls-15" x1="182.6" y1="83.94" x2="188.71" y2="93.74"/>
        <rect class="cls-33" x="184.88" y="83.06" width="1.55" height="11.55" transform="translate(-18.88 111.78) rotate(-31.97)"/>
      </g>
      <g>
        <line class="cls-15" x1="163.23" y1="88.67" x2="160.7" y2="99.76"/>
        <rect class="cls-33" x="156.28" y="93.44" width="11.38" height="1.55" transform="translate(34.08 231.16) rotate(-77.14)"/>
      </g>
      <g>
        <line class="cls-15" x1="168.43" y1="88.67" x2="170.64" y2="100.25"/>
        <rect class="cls-33" x="168.76" y="88.57" width="1.55" height="11.79" transform="translate(-14.73 33.53) rotate(-10.83)"/>
      </g>
      <path class="cls-52" d="m168.03,102c-9.88,0-20.12-2.87-24.37-8.94-.06-.05-.12-.1-.18-.15-2.28-2.09-2.68-5.36-.97-7.95,1.71-2.6,4.88-3.52,7.71-2.24l.56.25c8.08,3.64,16.43,7.41,31.01-.5l.12-.07.13-.04c.62-.21,6.12-2.02,9.1.71,1.67,1.53,2.09,3.99,1.25,7.31-1.36,5.38-7.24,9.37-16.13,10.94-2.62.46-5.41.7-8.23.7Zm-22.29-11.57l.03.02c.13.1.37.29.58.59,2,2.95,6.26,5.28,11.98,6.57,5.48,1.23,11.8,1.38,17.36.4,7.53-1.33,12.44-4.41,13.46-8.46.29-1.14.64-3.18-.27-4.01-1.15-1.05-4.24-.5-5.61-.05-15.97,8.61-25.48,4.32-33.87.54l-.55-.25c-1.62-.73-2.92.1-3.53,1.03-.64.97-.86,2.43.42,3.62Z"/>
    </g>
    <g id="bow_tie" data-name="bow tie">
      <g>
        <path class="cls-48" d="m170.33,110.88s21.99-17.23,26.59-13.28,7.94,22.21,4.21,28.46-24.22,3.09-29.75-.55c0,0-9.96,3.6-14.35.55,0,0-20.01,12.48-28.96,6.95-8.95-5.53-7.02-34.19-1.32-33.97,5.71.22,26.11,5.92,30.28,10.27,0,0,8.29-2.98,13.3,1.56Z"/>
        <path class="cls-29" d="m133.85,135.2c-2.31,0-4.44-.44-6.19-1.53-7.39-4.56-7.52-22.51-5.13-30.37,1.29-4.24,3.02-5.08,4.24-5.03,5.25.2,25.33,5.59,30.45,10.16,1.82-.56,8.48-2.23,13.12,1.45,1.5-1.15,6.15-4.65,11.14-7.78,8.5-5.34,13.71-7,15.94-5.09,4.87,4.18,8.35,22.78,4.37,29.45-.95,1.59-2.83,2.71-5.59,3.34-7.37,1.69-20.03-.49-24.93-3.44-1.83.61-9.91,3.1-14.26.61-2.41,1.45-14.14,8.23-23.17,8.23Zm-7.16-35.38c-.92,0-1.92,1.47-2.67,3.94-1.27,4.16-1.67,10.43-1.03,15.97.74,6.42,2.69,10.9,5.49,12.63,8.45,5.22,27.95-6.83,28.15-6.95l.43-.27.42.29c4.01,2.79,13.55-.61,13.64-.64l.36-.13.32.21c3.88,2.56,16.47,5.17,24.06,3.43,2.33-.53,3.88-1.42,4.6-2.63,3.53-5.91.26-23.79-4.05-27.48-.74-.63-3.58-1.38-14.1,5.22-5.97,3.75-11.46,8.04-11.51,8.08l-.51.4-.48-.44c-4.59-4.17-12.44-1.43-12.52-1.41l-.47.17-.35-.36c-3.93-4.1-24.01-9.81-29.75-10.03-.01,0-.02,0-.03,0Z"/>
      </g>
      <path class="cls-31" d="m161.64,128.27c-2.13,0-4.02-.45-5.17-1.69-2.49-2.67-1.76-9.66-.71-15.05.36-1.85,1.85-3.28,3.71-3.57,4.82-.74,9.86.33,11.47,2.44.98,1.29,1.41,5.47,1.29,12.45-.04,1.99-1.35,3.69-3.27,4.23-2.29.64-4.96,1.19-7.32,1.19Zm-1.93-18.78h0c-1.22.19-2.19,1.12-2.43,2.33-1.35,6.92-1.23,12.04.32,13.7,1.46,1.57,5.45,1.59,10.95.06,1.26-.35,2.12-1.46,2.14-2.77.13-7.35-.42-10.75-.97-11.48-1.11-1.46-5.4-2.56-10-1.85Z"/>
      <path class="cls-31" d="m155.87,115.72c-4.17.18-9.59-.97-13.32-2.85,4.17-.19,9.59.98,13.32,2.85h0Z"/>
      <path class="cls-31" d="m155.57,120.51c-3.39,1.32-8.15,1.7-11.71.92,3.38-1.32,8.15-1.69,11.71-.92h0Z"/>
      <path class="cls-31" d="m171.48,116.42c2.42-1.37,5-2.3,7.63-3.11,2.64-.78,5.3-1.43,8.07-1.63-2.42,1.37-4.99,2.3-7.63,3.11-2.64.78-5.3,1.43-8.07,1.63h0Z"/>
      <path class="cls-31" d="m171.48,120.97c4.08-.91,9.59-.73,13.59.46-4.07.92-9.59.72-13.59-.46h0Z"/>
      <g class="cls-54">
        <path class="cls-27" d="m127.23,101.64s20.71,4.28,24.75,8.56"/>
        <path class="cls-1" d="m127.23,101.64c7.01-.15,18.38,2.5,23.66,7.23.42.38.8.85,1.09,1.33-1.93-1.09-4.01-1.6-6.09-2.26-6.3-1.88-12.65-3.51-18.66-6.3h0Z"/>
      </g>
      <g class="cls-54">
        <path class="cls-27" d="m183.84,126.06s8.86,1.86,14.75-.86"/>
        <path class="cls-1" d="m183.84,126.06c2.53-.53,4.92-.6,7.41-.68,2.51-.06,4.74-.13,7.33-.18-3.46,3.6-10.74,3.48-14.75.86h0Z"/>
      </g>
      <g class="cls-54">
        <path class="cls-27" d="m126.71,128.62s4.13,5.13,10.01,3.29"/>
        <path class="cls-1" d="m126.71,128.62c2.59.92,4.68,2.01,7.28,2.67.81.22,1.68.37,2.73.62-3.1,3.19-9.14.85-10.01-3.29h0Z"/>
      </g>
    </g>
  </g>
  <g>
    <g>
      <g>
        <path class="cls-30" d="m298.12,2.22s-.02-.06-.02-.06c0,0,0,.02.02.06Z"/>
        <path class="cls-30" d="m297.55,2.44l-.02-.05,1.11-.51s.04.08.06.16l-1.08.38.18-.09-.26.08s.01.03.01.04h0Z"/>
      </g>
      <g>
        <path class="cls-30" d="m298.12,2.22c.13.42.44,3.15-13.26,4.78-11.53,1.37-18.54,13.49-21.12,18.89-13.68-25.35-22.85-20.1-25.74-23.46-2.88-3.35-10.6,4.43-11.22,5.07.33-.3,2.69-1.7,9.84,10.1,7.76,12.82,28.74,11.38,28.74,11.38-.11-.22-.22-.43-.33-.64,29.84-1.78,28.77-12.55,33.08-13.8,4.24-1.23.35-11.48.02-12.32Z"/>
        <path class="cls-30" d="m263.41,29.64c-2.1,0-5.66-.15-9.64-.95-3.67-.73-6.93-1.87-9.69-3.37-3.48-1.9-6.17-4.39-8-7.41-5.21-8.61-7.69-9.86-8.52-10-.28-.05-.38.03-.39.04l-.84-.88c1.01-1.04,6.24-6.21,9.88-6.09.92.03,1.67.38,2.24,1.04.62.72,1.67.99,3.14,1.36,2.27.58,5.39,1.37,9.24,4.43,4.35,3.46,8.57,8.95,12.87,16.74,2.92-5.75,9.93-16.85,21.08-18.17,9.99-1.19,12.16-2.93,12.63-3.62.16-.24.13-.36.13-.37l1.15-.4c.53,1.35,3.07,8.25,1.46,11.51-.41.82-1.04,1.36-1.88,1.61-.91.26-1.59,1.12-2.53,2.29-1.49,1.87-3.54,4.43-8.07,6.69-5.18,2.59-12.28,4.15-21.68,4.79l.32.64-.92.06c-.08,0-.8.05-1.98.05Zm-35.11-22.78c2.15.8,5.12,4.3,8.83,10.43,3.89,6.43,11.31,9.1,16.85,10.21,4.55.91,8.62.95,10.39.91l-.32-.62.93-.06c21.98-1.31,26.87-7.42,29.8-11.08,1.04-1.3,1.86-2.33,3.15-2.7.51-.15.87-.47,1.12-.98.97-1.97,0-6.15-.98-9.1-1.62,1.63-6.03,2.88-13.14,3.73-11.28,1.34-18.19,13.42-20.64,18.55l-.52,1.08-.57-1.06c-10.03-18.59-17.46-20.48-21.9-21.61-1.62-.41-2.89-.73-3.76-1.75-.34-.4-.79-.6-1.35-.62-2.2-.07-5.6,2.54-7.88,4.66Z"/>
      </g>
      <g>
        <path class="cls-30" d="m226.72,7.54s.02-.02.04-.04c-.03.03-.04.04-.04.04Z"/>
        <path class="cls-30" d="m227.16,7.96l-.92-.79s.06-.07.12-.12l.79.82-.16-.12.19.21s.02-.02.03-.03h0s-.04.04-.04.04Z"/>
      </g>
    </g>
    <g>
      <g>
        <path class="cls-25" d="m313.19,1.24s-.02-.06-.02-.06c0,0,0,.02.02.06Z"/>
        <path class="cls-25" d="m312.63,1.46l-.02-.05,1.11-.51s.04.08.06.16l-1.08.38.18-.09-.26.08s.01.03.01.04h0Z"/>
      </g>
      <g>
        <path class="cls-25" d="m313.19,1.24c.13.42.44,3.15-13.26,4.78-11.53,1.37-18.54,13.49-21.12,18.89C265.13-.45,255.96,4.81,253.07,1.44c-2.88-3.35-10.6,4.43-11.22,5.07.33-.3,2.69-1.7,9.84,10.1,7.76,12.82,28.74,11.38,28.74,11.38-.11-.22-.22-.43-.33-.64,29.84-1.78,28.77-12.55,33.08-13.8,4.24-1.23.35-11.48.02-12.32Z"/>
        <path class="cls-25" d="m278.49,28.66c-2.1,0-5.66-.15-9.64-.95-3.67-.73-6.93-1.87-9.69-3.37-3.48-1.9-6.17-4.39-7.99-7.41-5.21-8.61-7.69-9.86-8.52-10-.28-.05-.38.03-.39.04l-.84-.88c1.01-1.04,6.24-6.2,9.88-6.09.92.03,1.67.38,2.24,1.04.62.72,1.67.99,3.14,1.36,2.27.58,5.39,1.37,9.24,4.43,4.35,3.46,8.57,8.95,12.87,16.74,2.92-5.75,9.93-16.85,21.08-18.17,9.99-1.19,12.16-2.93,12.63-3.62.16-.24.13-.36.13-.37l1.15-.4c.53,1.35,3.07,8.25,1.46,11.51-.41.82-1.04,1.36-1.88,1.61-.91.26-1.59,1.12-2.53,2.29-1.49,1.87-3.54,4.43-8.07,6.69-5.18,2.59-12.28,4.15-21.68,4.79l.32.64-.92.06c-.08,0-.8.05-1.98.05Zm-35.11-22.78c2.15.8,5.12,4.3,8.83,10.43,3.89,6.43,11.33,9.11,16.88,10.22,4.55.91,8.6.95,10.37.91l-.32-.62.93-.06c21.98-1.31,26.87-7.42,29.8-11.08,1.04-1.3,1.86-2.33,3.15-2.7.51-.15.87-.47,1.12-.98.97-1.97,0-6.15-.98-9.1-1.62,1.63-6.03,2.88-13.14,3.73-11.28,1.34-18.19,13.42-20.64,18.55l-.52,1.08-.57-1.06c-10.03-18.59-17.46-20.48-21.9-21.61-1.62-.41-2.89-.73-3.76-1.75-.34-.4-.79-.6-1.35-.62-2.19-.07-5.6,2.54-7.88,4.66Z"/>
      </g>
      <g>
        <path class="cls-25" d="m241.8,6.56s.02-.02.04-.04c-.03.03-.04.04-.04.04Z"/>
        <path class="cls-25" d="m242.24,6.98l-.92-.79s.06-.07.12-.12l.79.82-.16-.12.19.2s.02-.02.03-.03h0s-.04.04-.04.04Z"/>
      </g>
    </g>
    <g class="cls-51">
      <path class="cls-25" d="m252.49,9.5s20.32,20.66,23.34,19.5"/>
      <path class="cls-44" d="m252.49,9.5c4.7,4.26,9.39,8.76,14.12,12.97,1.43,1.28,2.87,2.53,4.36,3.73.99.8,2,1.58,3.09,2.23.27.16.55.31.85.43.29.11.61.22.92.13-.63.2-1.29-.15-1.86-.39-2.86-1.47-5.33-3.6-7.79-5.65-4.84-4.2-9.42-8.69-13.7-13.46h0Z"/>
    </g>
    <g>
      <path class="cls-32" d="m300.26,116c17.51-16.28,7.15-31.81,7.15-31.81,0,0,13.07-4.44,9.12-19.98,0,0,16.93-11.84,8.88-22.2-8.06-10.36-14.8-5.67-14.8-5.67,0,0,.16-8.8-10.36-10.36-10.52-1.56-13.56,2.96-13.56,2.96,0,0-10.28-5.26-16.03-1.73,0,0-11.1-6.49-14.8,0l-1.09.35c-4.01,1.3-8.39.45-11.68-2.19-4.49-3.6-11.76-6.56-18.55,3.31,0,0-6.66-.66-8.63,3.45,0,0-16.52,14.71,0,23.18,0,0-14.47,13.15.49,25.4,0,0-4.27,27.87,15.78,33.54,0,0,9.37,17.59,27.87,21.7,18.5,4.11,22.69-3.7,22.69-3.7,0,0,16.91,3.95,17.51-16.28.16-5.51-7.15-8.38-7.15-8.38"/>
      <path class="cls-53" d="m269.82,137.56c-2.71,0-5.96-.33-9.85-1.2-9.65-2.15-16.79-7.99-21.08-12.51-4.16-4.39-6.51-8.42-6.98-9.24-4.59-1.33-8.29-3.94-10.99-7.74-2.18-3.07-3.71-6.91-4.55-11.42-1.29-6.88-.57-13.27-.4-14.55-4.36-3.63-6.63-7.7-6.75-12.1-.17-6.63,4.55-11.9,6-13.37-4.19-2.27-6.54-5.18-6.99-8.65-.91-7.15,6.53-14.14,7.34-14.88,1.91-3.84,7.51-3.71,8.76-3.63,2.72-3.89,5.77-6.1,9.06-6.59,3.2-.47,6.55.67,9.94,3.38,3.21,2.58,7.44,3.37,11.3,2.12l.94-.3c.82-1.37,2.03-2.27,3.58-2.69,4.41-1.18,10.29,1.89,11.48,2.56,5.41-3.09,14.17.84,15.92,1.69.88-1.01,4.5-4.22,13.74-2.85,5.6.83,8.22,3.71,9.42,5.98.89,1.68,1.16,3.25,1.25,4.11.75-.36,2.15-.87,4.02-.78,2.54.12,6.47,1.4,10.72,6.88,1.85,2.38,2.57,5.02,2.14,7.87-1.1,7.32-9.35,13.63-10.88,14.74,1.96,8.04-.67,13.09-3.24,15.92-2.22,2.44-4.72,3.66-5.74,4.09.68,1.18,2.46,4.67,2.8,9.57.24,3.5-.32,6.98-1.67,10.35-1.65,4.16-4.51,8.15-8.48,11.87-.23,6.54-2.17,11.27-5.79,14.05-4.68,3.6-10.56,2.76-11.93,2.5-.42.61-1.68,2.13-4.44,3.31-1.86.8-4.67,1.53-8.68,1.53Zm-46.26-108.5c-1.85,0-5.89.35-7.28,3.26l-.04.07-.06.05c-.08.07-8.03,7.25-7.14,14.22.42,3.32,2.8,6.11,7.05,8.29l.52.27-.43.4c-.06.06-6.34,5.86-6.15,13.15.11,4.21,2.34,8.13,6.63,11.64l.18.15-.04.23c-.01.07-1.04,7,.37,14.53,1.88,10.01,6.97,16.26,15.12,18.56l.17.05.08.15s2.38,4.42,6.95,9.24c4.21,4.43,11.2,10.16,20.65,12.26,9.39,2.09,14.94,1.01,17.95-.25,3.23-1.36,4.28-3.23,4.29-3.24l.15-.27.3.07c.07.02,6.63,1.48,11.54-2.3,3.44-2.65,5.28-7.23,5.47-13.6.15-5.15-6.82-7.97-6.89-7.99l.3-.76c.29.11,6.8,2.73,7.37,7.85,8.34-8.07,9.71-15.86,9.37-21.03-.38-5.75-2.9-9.61-2.93-9.65l-.29-.44.5-.17s3.23-1.12,5.9-4.08c3.57-3.94,4.56-9.13,2.97-15.41l-.07-.27.23-.16c.1-.07,9.63-6.81,10.77-14.36.39-2.62-.27-5.06-1.98-7.25-3.22-4.14-6.72-6.41-10.12-6.56-2.53-.12-4.11.96-4.13.98l-.65.45v-.8s.03-2.15-1.19-4.43c-1.63-3.04-4.59-4.9-8.81-5.52-5.29-.79-8.59.02-10.43.83-1.98.87-2.73,1.94-2.73,1.95l-.2.29-.32-.16c-.1-.05-10.14-5.12-15.63-1.74l-.21.13-.21-.12c-.07-.04-6.57-3.8-11.07-2.59-1.39.37-2.45,1.19-3.16,2.44l-.08.14-1.24.4c-4.13,1.33-8.64.49-12.06-2.26-3.21-2.57-6.34-3.65-9.31-3.21-3.11.46-6.02,2.63-8.64,6.44l-.14.2-.24-.02s-.38-.03-.94-.03Z"/>
    </g>
    <g>
      <ellipse class="cls-32" cx="225.2" cy="80.57" rx="14.78" ry="14.21"/>
      <path class="cls-53" d="m239.98,80.57c.08,5.79-3.84,11.18-9.17,13.29-9.53,3.92-20.77-2.71-20.8-13.29.03-10.58,11.27-17.21,20.8-13.29,5.34,2.11,9.25,7.5,9.17,13.29h0Zm0,0c.07-5.76-3.9-11.12-9.27-13.05-9.2-3.53-19.88,2.96-19.89,13.05-.07,7.75,6.76,14,14.38,14.01,7.81.18,14.82-6.05,14.78-14.01h0Z"/>
    </g>
    <g>
      <ellipse class="cls-32" cx="237.71" cy="114.69" rx="14.78" ry="14.21"/>
      <path class="cls-53" d="m252.49,114.69c.08,5.79-3.84,11.18-9.17,13.29-9.53,3.92-20.77-2.71-20.8-13.29.03-10.58,11.27-17.21,20.8-13.29,5.34,2.11,9.25,7.5,9.17,13.29h0Zm0,0c.07-5.76-3.9-11.12-9.27-13.05-9.2-3.53-19.88,2.96-19.89,13.05-.07,7.75,6.76,14,14.38,14.01,7.81.18,14.82-6.05,14.78-14.01h0Z"/>
    </g>
    <g>
      <ellipse class="cls-32" cx="224.06" cy="98.77" rx="14.78" ry="14.21"/>
      <path class="cls-53" d="m238.84,98.77c.08,5.79-3.84,11.18-9.17,13.29-9.53,3.92-20.77-2.71-20.8-13.29.03-10.58,11.27-17.21,20.8-13.29,5.34,2.11,9.25,7.5,9.17,13.29h0Zm0,0c.07-5.76-3.9-11.12-9.27-13.05-9.2-3.53-19.88,2.96-19.89,13.05-.07,7.75,6.76,14,14.38,14.01,7.81.18,14.82-6.05,14.78-14.01h0Z"/>
    </g>
    <g>
      <ellipse class="cls-32" cx="234.86" cy="64.5" rx="10.8" ry="10.39"/>
      <path class="cls-53" d="m245.67,64.5c.06,4.23-2.8,8.18-6.69,9.74-7.01,2.92-15.3-1.95-15.32-9.74.02-7.8,8.31-12.66,15.32-9.74,3.89,1.56,6.75,5.51,6.69,9.74h0Zm0,0c.05-4.21-2.86-8.12-6.78-9.5-6.68-2.53-14.41,2.19-14.42,9.5,0,7.31,7.73,12.04,14.42,9.51,3.93-1.39,6.83-5.3,6.78-9.51h0Z"/>
    </g>
    <g>
      <ellipse class="cls-32" cx="258.17" cy="112.98" rx="14.21" ry="14.78" transform="translate(15.25 255.83) rotate(-54.09)"/>
      <path class="cls-53" d="m246.2,104.31c3.33-4.74,9.66-6.81,15.22-5.38,10.02,2.41,15.23,14.37,9.05,22.96-6.23,8.55-19.22,7.33-24.64-1.44-3.09-4.84-3.09-11.5.36-16.14h0Zm0,0c-3.43,4.63-3.36,11.29-.15,16,5.38,8.26,17.84,9.27,23.77,1.1,4.61-6.24,2.74-15.3-3.43-19.78-6.22-4.73-15.55-3.79-20.19,2.68h0Z"/>
    </g>
    <g>
      <ellipse class="cls-32" cx="255.9" cy="132.88" rx="14.78" ry="14.21"/>
      <path class="cls-53" d="m270.68,132.88c.08,5.79-3.84,11.18-9.17,13.29-9.53,3.92-20.77-2.71-20.8-13.29.03-10.58,11.27-17.21,20.8-13.29,5.34,2.11,9.25,7.5,9.17,13.29h0Zm0,0c.07-5.76-3.9-11.12-9.27-13.05-9.2-3.53-19.88,2.96-19.89,13.05-.07,7.75,6.76,14,14.38,14.01,7.81.18,14.82-6.05,14.78-14.01h0Z"/>
    </g>
    <g>
      <ellipse class="cls-32" cx="217.24" cy="62.38" rx="14.78" ry="14.21"/>
      <path class="cls-53" d="m232.02,62.38c.08,5.79-3.84,11.18-9.17,13.29-9.53,3.92-20.77-2.71-20.8-13.29.03-10.58,11.27-17.21,20.8-13.29,5.34,2.11,9.25,7.5,9.17,13.29h0Zm0,0c.07-5.76-3.9-11.12-9.27-13.05-9.2-3.53-19.88,2.96-19.89,13.05-.07,7.75,6.76,14,14.38,14.01,7.81.18,14.82-6.05,14.78-14.01h0Z"/>
    </g>
    <g>
      <ellipse class="cls-32" cx="219.15" cy="40.75" rx="14.78" ry="14.21"/>
      <path class="cls-53" d="m233.93,40.75c.08,5.79-3.84,11.18-9.17,13.29-9.53,3.92-20.77-2.71-20.8-13.29.03-10.58,11.27-17.21,20.8-13.29,5.34,2.11,9.25,7.5,9.17,13.29h0Zm0,0c.07-5.76-3.9-11.12-9.27-13.05-9.2-3.53-19.88,2.96-19.89,13.05-.07,7.75,6.76,14,14.38,14.01,7.81.18,14.82-6.05,14.78-14.01h0Z"/>
    </g>
    <g>
      <ellipse class="cls-32" cx="293.43" cy="113.55" rx="14.21" ry="14.78" transform="translate(-17.46 161.93) rotate(-30)"/>
      <path class="cls-53" d="m286.03,100.75c4.97-2.96,11.6-2.27,16.09,1.3,8.16,6.29,8.04,19.34-1.11,24.66-9.18,5.27-20.54-1.15-21.91-11.37-.84-5.67,1.87-11.76,6.92-14.59h0Zm0,0c-5.02,2.82-7.68,8.93-6.67,14.55,1.54,9.73,12.5,15.74,21.25,10.7,6.75-3.81,8.75-12.85,4.95-19.46-3.75-6.85-12.65-9.81-19.53-5.8h0Z"/>
    </g>
    <g>
      <ellipse class="cls-32" cx="305.94" cy="89.67" rx="14.21" ry="14.78" transform="translate(84.24 318.77) rotate(-62.28)"/>
      <path class="cls-53" d="m292.85,82.79c2.62-5.16,8.6-8.11,14.3-7.5,10.26.96,17.12,12.06,12.23,21.44-4.95,9.35-17.98,9.99-24.59,2.09-3.74-4.35-4.7-10.94-1.94-16.03h0Zm0,0c-2.74,5.07-1.72,11.65,2.13,15.86,6.5,7.41,18.97,6.63,23.68-2.3,3.67-6.83.53-15.54-6.21-19.09-6.83-3.79-15.94-1.54-19.6,5.53h0Z"/>
    </g>
    <g>
      <ellipse class="cls-32" cx="307.07" cy="64.76" rx="14.78" ry="14.21"/>
      <path class="cls-53" d="m321.86,64.76c.08,5.79-3.84,11.18-9.17,13.29-9.53,3.92-20.77-2.71-20.8-13.29.03-10.58,11.27-17.21,20.8-13.29,5.34,2.11,9.25,7.5,9.17,13.29h0Zm0,0c.07-5.76-3.9-11.12-9.27-13.05-9.2-3.53-19.88,2.96-19.89,13.05-.07,7.75,6.76,14,14.38,14.01,7.81.18,14.82-6.05,14.78-14.01h0Z"/>
    </g>
    <g>
      <ellipse class="cls-32" cx="316.17" cy="45.32" rx="14.78" ry="14.21"/>
      <path class="cls-53" d="m330.95,45.32c.08,5.79-3.84,11.18-9.17,13.29-9.53,3.92-20.77-2.71-20.8-13.29.03-10.58,11.27-17.21,20.8-13.29,5.34,2.11,9.25,7.5,9.17,13.29h0Zm0,0c.07-5.76-3.9-11.12-9.27-13.05-9.2-3.53-19.88,2.96-19.89,13.05-.07,7.75,6.76,14,14.38,14.01,7.81.18,14.82-6.05,14.78-14.01h0Z"/>
    </g>
    <g>
      <ellipse class="cls-28" cx="292.29" cy="92.51" rx="7.69" ry="7.39"/>
      <path class="cls-28" d="m292.29,100.31c-4.46,0-8.09-3.5-8.09-7.8s3.63-7.8,8.09-7.8,8.09,3.5,8.09,7.8-3.63,7.8-8.09,7.8Zm0-14.78c-4.01,0-7.28,3.13-7.28,6.99s3.27,6.99,7.28,6.99,7.28-3.13,7.28-6.99-3.27-6.99-7.28-6.99Z"/>
    </g>
    <g>
      <ellipse class="cls-32" cx="267.27" cy="71.47" rx="14.78" ry="14.21"/>
      <path class="cls-53" d="m282.05,71.47c.08,5.79-3.84,11.18-9.17,13.29-9.53,3.92-20.77-2.71-20.8-13.29.03-10.58,11.27-17.21,20.8-13.29,5.34,2.11,9.25,7.5,9.17,13.29h0Zm0,0c.07-5.76-3.9-11.12-9.27-13.05-9.2-3.53-19.88,2.96-19.89,13.05-.07,7.75,6.76,14,14.38,14.01,7.81.18,14.82-6.05,14.78-14.01h0Z"/>
    </g>
    <g>
      <ellipse class="cls-28" cx="243.66" cy="92.93" rx="7.69" ry="7.39"/>
      <path class="cls-28" d="m243.66,100.72c-4.46,0-8.09-3.5-8.09-7.8s3.63-7.8,8.09-7.8,8.09,3.5,8.09,7.8-3.63,7.8-8.09,7.8Zm0-14.78c-4.01,0-7.28,3.13-7.28,6.99s3.27,6.99,7.28,6.99,7.28-3.13,7.28-6.99-3.27-6.99-7.28-6.99Z"/>
    </g>
    <g>
      <ellipse class="cls-32" cx="278.64" cy="128.33" rx="14.78" ry="14.21"/>
      <path class="cls-53" d="m263.86,128.34c-.08-5.79,3.83-11.18,9.17-13.29,9.53-3.93,20.77,2.7,20.81,13.28-.02,10.58-11.26,17.22-20.79,13.3-5.34-2.1-9.26-7.49-9.18-13.28h0Zm0,0c-.06,5.76,3.9,11.12,9.27,13.04,9.2,3.53,19.88-2.97,19.89-13.06.07-7.75-6.76-14-14.38-14-7.81-.18-14.82,6.06-14.78,14.02h0Z"/>
    </g>
    <g>
      <ellipse class="cls-32" cx="239.98" cy="27.12" rx="14.78" ry="14.21"/>
      <path class="cls-53" d="m254.76,27.12c.08,5.79-3.84,11.18-9.17,13.29-9.53,3.92-20.77-2.71-20.8-13.29.03-10.58,11.27-17.21,20.8-13.29,5.34,2.11,9.25,7.5,9.17,13.29h0Zm0,0c.07-5.76-3.9-11.12-9.27-13.05-9.2-3.53-19.88,2.96-19.89,13.05-.07,7.75,6.76,14,14.38,14.01,7.81.18,14.82-6.05,14.78-14.01h0Z"/>
    </g>
    <g>
      <ellipse class="cls-32" cx="261.47" cy="35.01" rx="14.78" ry="14.21"/>
      <path class="cls-53" d="m276.25,35.01c.08,5.79-3.84,11.18-9.17,13.29-9.53,3.92-20.77-2.71-20.8-13.29.03-10.58,11.27-17.21,20.8-13.29,5.34,2.11,9.25,7.5,9.17,13.29h0Zm0,0c.07-5.76-3.9-11.12-9.27-13.05-9.2-3.53-19.88,2.96-19.89,13.05-.07,7.75,6.76,14,14.38,14.01,7.81.18,14.82-6.05,14.78-14.01h0Z"/>
    </g>
    <g>
      <ellipse class="cls-32" cx="297.98" cy="33.95" rx="14.78" ry="14.21"/>
      <path class="cls-53" d="m312.76,33.95c.08,5.79-3.84,11.18-9.17,13.29-9.53,3.92-20.77-2.71-20.8-13.29.03-10.58,11.27-17.21,20.8-13.29,5.34,2.11,9.25,7.5,9.17,13.29h0Zm0,0c.07-5.76-3.9-11.12-9.27-13.05-9.2-3.53-19.88,2.96-19.89,13.05-.07,7.75,6.76,14,14.38,14.01,7.81.18,14.82-6.05,14.78-14.01h0Z"/>
    </g>
    <g>
      <ellipse class="cls-32" cx="275.23" cy="39.63" rx="14.78" ry="14.21" transform="translate(26.75 164.45) rotate(-34.86)"/>
      <path class="cls-53" d="m263.1,48.08c-3.37-4.71-3.24-11.37-.07-16.15,5.58-8.67,18.59-9.65,24.66-.99,6.02,8.7.59,20.57-9.47,22.79-5.58,1.32-11.88-.87-15.12-5.66h0Zm0,0c3.24,4.76,9.55,6.89,15.06,5.41,9.57-2.36,14.62-13.79,8.86-22.08-4.37-6.4-13.55-7.63-19.81-3.28-6.51,4.31-8.7,13.44-4.12,19.95h0Z"/>
    </g>
    <path class="cls-6" d="m305.94,112.98c.27,4.86-2.67,11.71-7.95,12.62-.78.11-1.56.08-2.29-.12,1.39-.4,2.61-.98,3.67-1.91.49-.41.99-.93,1.4-1.42,2.25-2.75,3.55-6,5.17-9.18h0Z"/>
    <path class="cls-6" d="m292.28,126.63c.27,4.86-2.66,11.71-7.94,12.63-.78.11-1.56.08-2.29-.11,1.39-.4,2.61-.98,3.67-1.91.49-.41.99-.93,1.39-1.42,2.25-2.75,3.55-6,5.16-9.18h0Z"/>
    <path class="cls-9" d="m267.16,138.93c-2.39,4.24-8.55,8.43-13.49,6.36-.72-.32-1.36-.77-1.86-1.33,1.39.41,2.73.58,4.12.37.64-.08,1.33-.25,1.94-.45,3.38-1.11,6.22-3.14,9.3-4.95h0Z"/>
    <path class="cls-2" d="m272.96,118.67c2.81-1.82,6.71-2.58,9.99-1.64,2.4.73,4.29,2.53,4.71,5.04.05.17.06.4.07.57.03.67.08.69-.27.09-.17-.31-.4-.62-.59-.91,0,0-.33-.41-.33-.41-3.1-3.94-9.1-2.95-13.58-2.74h0Z"/>
    <path class="cls-5" d="m308.21,76.65c-4.82.67-11.89-1.68-13.24-6.87-.18-.77-.21-1.55-.07-2.29.51,1.35,1.2,2.52,2.2,3.5.45.46,1.01.91,1.54,1.27,2.93,2.02,6.27,3.04,9.58,4.39h0Z"/>
    <path class="cls-10" d="m247.94,89.1c2.31,1.21,3.17,4.1,1.68,6.3-.44.68-1.02,1.24-1.68,1.66.42-.66.82-1.3,1.12-1.97,1.03-2.19.34-4.18-1.12-5.99h0Z"/>
    <path class="cls-10" d="m297.09,89.1c2.31,1.21,3.17,4.1,1.68,6.3-.44.68-1.02,1.24-1.68,1.66.42-.66.82-1.3,1.12-1.97,1.03-2.19.34-4.18-1.12-5.99h0Z"/>
    <g>
      <path class="cls-1" d="m277.83,71.36c.33,3.62,1.18,6.93,2.35,9.59,0,0,1.18-1.16,3.55-1.14-.9-5.5,2.09-9.19,2.09-9.19-5.55-5.48-1.55-16.88-1.55-16.88-4.41.41-7.29,8.29-6.43,17.61Z"/>
      <path d="m280.11,81.3l-.12-.27c-1.23-2.79-2.05-6.13-2.37-9.65-.42-4.54.03-8.88,1.25-12.24,1.24-3.4,3.15-5.39,5.37-5.6l.32-.03-.1.3c-.04.11-3.89,11.34,1.51,16.66l.13.13-.12.14s-2.92,3.69-2.04,9.03l.04.24h-.24c-2.24-.03-3.39,1.07-3.4,1.08l-.21.2Zm-2.08-9.96c.31,3.38,1.08,6.58,2.23,9.28.44-.33,1.51-.97,3.23-1.01-.69-4.79,1.53-8.23,2.06-8.97-2.23-2.29-3.19-5.93-2.79-10.53.25-2.85.95-5.28,1.21-6.12-1.92.34-3.58,2.21-4.71,5.29-1.21,3.3-1.64,7.58-1.23,12.06Z"/>
    </g>
    <g>
      <path d="m283.73,79.81c3.26-.38,6.22,1.03,8.6,2.84,1.33-3.24,1.94-7.8,1.48-12.77-.86-9.32-5.13-16.55-9.54-16.14,0,0-4,11.39,1.55,16.88,0,0-2.98,3.69-2.09,9.19Z"/>
      <path d="m292.36,82.76l-.07-.05c-2.89-2.2-5.77-3.15-8.55-2.83h-.06s-.01-.06-.01-.06c-.84-5.13,1.72-8.74,2.06-9.19-2.85-2.85-3.11-7.28-2.84-10.51.3-3.5,1.3-6.37,1.31-6.4v-.04s.06,0,.06,0c4.44-.41,8.76,6.86,9.62,16.2.44,4.77-.1,9.44-1.48,12.8l-.03.08Zm-7.54-3.08c2.45,0,4.97.96,7.49,2.86,1.35-3.33,1.88-7.94,1.44-12.65-.85-9.24-5.07-16.43-9.43-16.08-.12.36-1.01,3.07-1.29,6.33-.28,3.21,0,7.62,2.84,10.44l.04.04-.04.05s-2.93,3.7-2.08,9.07c.34-.04.68-.06,1.03-.06Z"/>
    </g>
    <g>
      <path class="cls-1" d="m247.25,74.45c.33,3.62,1.18,6.93,2.35,9.59,0,0,1.18-1.16,3.55-1.14-.9-5.5,2.09-9.19,2.09-9.19-5.55-5.48-1.55-16.88-1.55-16.88-4.41.41-7.29,8.29-6.43,17.61Z"/>
      <path d="m249.53,84.39l-.12-.27c-1.23-2.79-2.05-6.13-2.37-9.65-.42-4.54.03-8.88,1.25-12.24,1.24-3.4,3.15-5.39,5.37-5.6l.32-.03-.1.3c-.04.11-3.89,11.34,1.51,16.66l.13.13-.12.14s-2.92,3.69-2.04,9.03l.04.24h-.24c-2.25-.03-3.39,1.07-3.4,1.08l-.21.2Zm-2.08-9.96c.31,3.38,1.08,6.58,2.23,9.28.44-.33,1.51-.97,3.23-1.01-.69-4.79,1.53-8.23,2.06-8.97-2.23-2.29-3.19-5.93-2.79-10.53.25-2.85.95-5.28,1.21-6.12-1.92.34-3.58,2.21-4.71,5.29-1.21,3.3-1.64,7.58-1.23,12.06Z"/>
    </g>
    <g>
      <path d="m253.15,82.9c3.26-.38,6.22,1.03,8.6,2.84,1.33-3.24,1.94-7.8,1.48-12.77-.86-9.32-5.13-16.55-9.54-16.14,0,0-4,11.39,1.55,16.88,0,0-2.98,3.69-2.09,9.19Z"/>
      <path d="m261.78,85.85l-.07-.05c-2.89-2.2-5.77-3.15-8.55-2.83h-.06s-.01-.06-.01-.06c-.84-5.13,1.72-8.74,2.06-9.19-2.85-2.85-3.11-7.28-2.84-10.51.3-3.5,1.3-6.37,1.31-6.4v-.04s.06,0,.06,0c4.44-.41,8.76,6.86,9.62,16.2.44,4.77-.1,9.44-1.48,12.8l-.03.08Zm-7.54-3.08c2.45,0,4.97.96,7.49,2.86,1.35-3.33,1.88-7.94,1.44-12.65-.85-9.24-5.07-16.43-9.43-16.08-.12.36-1.01,3.07-1.29,6.33-.28,3.21,0,7.62,2.84,10.44l.04.04-.04.05s-2.93,3.7-2.08,9.07c.34-.04.68-.06,1.03-.06Z"/>
    </g>
    <g>
      <path id="eyelid" class="cls-28" d="m262.14,60.68c-6.39,6.05-12.08,1.87-15.17-1.61-1.06-1.2-.08-3.07,1.51-2.89l12.58,1.37c1.55.17,2.2,2.06,1.08,3.13Z"/>
      <path class="cls-28" d="m255.46,64.15c-.12,0-.23,0-.35,0-3.59-.16-6.57-2.7-8.45-4.8-.6-.68-.72-1.6-.3-2.41.41-.8,1.26-1.26,2.16-1.16l12.58,1.37c.88.1,1.6.68,1.89,1.52.28.83.06,1.71-.57,2.31-2.23,2.11-4.57,3.18-6.96,3.18Zm-7.19-7.58c-.59,0-1,.37-1.19.73-.2.39-.26.99.19,1.5,1.77,1.99,4.57,4.39,7.87,4.53,2.28.1,4.54-.89,6.71-2.95l.28.3-.28-.3c.41-.38.54-.93.36-1.46-.18-.54-.64-.91-1.2-.97l-12.58-1.37c-.06,0-.11,0-.16,0Z"/>
    </g>
    <g>
      <path id="eyelid-2" data-name="eyelid" class="cls-28" d="m291.93,53.84c-3.5,9.22-11.27,7.75-16.08,5.73-1.65-.69-1.58-3.07.11-3.66l13.36-4.72c1.64-.58,3.23,1.02,2.61,2.65Z"/>
      <path class="cls-28" d="m282.5,61.49c-2.49,0-4.93-.75-6.81-1.54-.92-.39-1.48-1.25-1.45-2.25.03-1,.64-1.84,1.58-2.17l13.36-4.72c.92-.32,1.91-.09,2.59.6.67.69.88,1.67.54,2.57-1.28,3.36-3.23,5.63-5.8,6.73-1.29.56-2.66.78-4.01.78Zm7.51-10.01c-.19,0-.37.03-.56.1l-13.36,4.72c-.74.26-1.03.91-1.04,1.43-.01.52.23,1.17.95,1.48,2.76,1.16,6.76,2.23,10.18.77,2.36-1.01,4.16-3.12,5.36-6.27h0c.23-.61.1-1.25-.36-1.71-.32-.33-.74-.5-1.18-.5Z"/>
    </g>
    <g id="mouth">
      <path class="cls-16" d="m262.6,98.34l-.91-.28c.12-.38,2.89-9.2,8.32-10.05,3.05-.48,6.27,1.67,9.55,6.39l-.78.54c-3.06-4.39-5.96-6.41-8.63-5.99-4.85.76-7.54,9.31-7.56,9.39Z"/>
      <path class="cls-16" d="m265.81,98.81h-6.82c-.34,0-.61-.27-.61-.61s.27-.61.61-.61h6.82c.34,0,.61.27.61.61s-.27.61-.61.61Z"/>
      <path class="cls-16" d="m276.39,96.51c-.23,0-.45-.13-.55-.36-.14-.31,0-.67.3-.81l5.67-2.6c.31-.14.67,0,.81.3.14.31,0,.67-.3.81l-5.67,2.6c-.08.04-.17.06-.25.06Z"/>
    </g>
    <path class="cls-17" d="m281.87,83.88c1.5-1.92,4.56-2.82,6.65-1.3.68.49,1.19,1.15,1.5,1.88-1.11-.89-2.23-1.62-3.64-1.7-1.57-.1-3.05.48-4.51,1.11h0Z"/>
    <path class="cls-19" d="m270.68,78.86c2.56,1.19,4.91,4.37,3.23,7.16-.52.85-1.26,1.49-2.09,1.94.62-.71,1.17-1.44,1.52-2.23,1.16-2.61-.91-5.06-2.66-6.87h0Z"/>
    <path class="cls-7" d="m259.31,67.49c2.62,3.33,3.15,8.76,1.14,12.51.09-1.09.18-2.14.2-3.19.07-3.17-.47-6.26-1.34-9.32h0Z"/>
    <path class="cls-7" d="m289.67,65.22c2.62,3.33,3.15,8.76,1.14,12.51.09-1.09.18-2.14.2-3.19.07-3.17-.47-6.26-1.34-9.32h0Z"/>
    <path class="cls-20" d="m207,54.98c.14,4.5-.58,10.48,1.99,14.31.39.57.87,1.09,1.42,1.61-.74-.15-1.45-.49-2.09-.96-4.16-3.24-3.64-10.76-1.32-14.96h0Z"/>
    <path class="cls-20" d="m212.69,92.51c.14,4.5-.58,10.48,1.99,14.31.39.57.87,1.09,1.42,1.61-.74-.15-1.45-.49-2.09-.96-4.16-3.24-3.64-10.76-1.32-14.96h0Z"/>
    <path class="cls-20" d="m209.43,32.14c-.58,4.47-2.25,10.26-.32,14.44.29.62.68,1.21,1.15,1.82-.71-.27-1.36-.72-1.91-1.28-3.58-3.87-1.87-11.2,1.09-14.98h0Z"/>
    <path class="cls-18" d="m213.83,77.73c.44,2.41.06,4.71.27,7.09.09.78.26,1.41.87,2.01-.98.15-1.9-.71-2.29-1.55-1.09-2.29-.45-5.64,1.15-7.55h0Z"/>
    <path class="cls-20" d="m212.69,73.18c2.7,1.54,5.77,1.22,8.71.62,1.01-.2,2.04-.45,3.17-.6-2.3,2.51-6.21,3.79-9.44,2.39-1.05-.49-2.05-1.29-2.44-2.41h0Z"/>
    <path class="cls-20" d="m220.65,111.27c1.95.04,3.82-.26,5.7-.71,1.16-.29,2.3-.63,3.44-.98.75-.2,1.43-.45,2.23-.59-1.9,2.58-5.27,4.02-8.45,3.58-1.06-.17-2.15-.53-2.92-1.31h0Z"/>
    <path class="cls-20" d="m216.1,53.28c1.95.04,3.82-.26,5.7-.71,1.16-.29,2.3-.63,3.44-.98.75-.2,1.43-.45,2.23-.59-1.9,2.58-5.27,4.02-8.45,3.58-1.06-.17-2.15-.53-2.92-1.31h0Z"/>
    <path class="cls-20" d="m235.61,15.43c-2.53,3.73-6.62,8.15-6.78,12.76-.02.69.06,1.39.21,2.14-.51-.56-.89-1.25-1.13-2-1.46-5.06,3.36-10.85,7.7-12.89h0Z"/>
    <path class="cls-20" d="m225.69,119.62c3.54,2.78,7.67,7.17,12.25,7.65.69.06,1.39.03,2.15-.06-.59.47-1.31.8-2.08.99-5.15,1.11-10.59-4.11-12.33-8.58h0Z"/>
    <g class="cls-14">
      <path class="cls-25" d="m313.82,8.9s-20.32,20.66-23.34,19.5"/>
      <path class="cls-44" d="m313.82,8.9c-4.28,4.77-8.87,9.26-13.7,13.46-2.46,2.05-4.92,4.18-7.79,5.65-.57.24-1.23.59-1.86.39.31.09.63-.02.92-.13.29-.12.57-.27.85-.43,1.09-.65,2.1-1.44,3.09-2.23,1.49-1.2,2.93-2.46,4.36-3.73,4.74-4.22,9.42-8.71,14.12-12.97h0Z"/>
    </g>
  </g>
  <g id="chucklin_cherry.svg">
    <g>
      <path class="cls-15" d="m368.41,40.74s-76.41-12.17-63.26,55.22c0,0,11.71,34.23,55.22,46.62,43.51,12.4,72.33-40.16,72.33-40.16,0,0,31.49-55.68-26.7-68.23,0,0-22.41-4.18-37.6,6.54Z"/>
      <path class="cls-33" d="m373.63,145.24c-4.48,0-8.98-.64-13.47-1.92-10-2.85-19.16-7.1-27.21-12.62-6.44-4.42-12.2-9.67-17.1-15.59-8.36-10.1-11.31-18.55-11.43-18.9l-.03-.1c-3.66-18.76-.76-33.2,8.63-42.93,9.55-9.89,24.15-12.94,34.71-13.77,10.23-.8,18.77.29,20.47.53,7.95-5.5,17.78-6.99,24.65-7.26,7.5-.29,13.04.72,13.27.76,16.72,3.61,27.72,11.1,32.74,22.28,4.84,10.78,3.07,23.01.74,31.38-2.51,9.03-6.22,15.63-6.26,15.69-.07.12-7.41,13.37-20,24.92-7.42,6.8-15.18,11.69-23.08,14.54-5.5,1.98-11.07,2.98-16.66,2.98Zm-67.74-49.48c.25.69,3.3,8.92,11.19,18.43,7.56,9.12,21.25,21.32,43.5,27.66,22.12,6.3,40.34-4.8,51.73-15.23,12.42-11.37,19.66-24.43,19.73-24.56.04-.07,3.67-6.54,6.13-15.4,2.26-8.12,3.97-19.97-.67-30.32-4.81-10.71-15.45-17.91-31.64-21.4-.2-.04-22.26-3.99-37,6.42l-.25.18-.31-.05c-.09-.01-9.24-1.44-20.46-.56-10.29.81-24.49,3.77-33.7,13.31-9.01,9.33-11.78,23.3-8.24,41.51Z"/>
    </g>
    <path class="cls-36" d="m429.86,56.43l-30.75-16.55c-2.15-1.16-.9-4.44,1.47-3.87,9.94,2.4,23.46,7.32,31.86,17.24,1.49,1.75-.56,4.27-2.59,3.18Z"/>
    <path class="cls-36" d="m416.92,114.71c-6.15,8.16-16.05,18.6-28.5,22.37"/>
    <g>
      <line class="cls-34" x1="370.71" y1="42.64" x2="373.05" y2="46.71"/>
      <rect x="371.37" y="42.33" width="1.02" height="4.7" transform="translate(27.09 191) rotate(-29.85)"/>
    </g>
    <g>
      <line class="cls-34" x1="329.62" y1="49.89" x2="327.25" y2="54.05"/>
      <rect x="326.04" y="51.46" width="4.79" height="1.02" transform="translate(120.45 311.42) rotate(-60.27)"/>
    </g>
    <path class="cls-23" d="m368.41,40.74c-.75,9.76-2.38,19.57-3.76,29.21-1.86,12.96-3.8,25.99-2.83,38.97.35,4.13,1.01,8.22,2.15,12.22,1.31,4.49,3.2,8.71,5.63,12.79,1.88,3.09,4.04,6.1,6.28,8.96.24.3.94,1.23,1.19,1.59-.34-.01-.66-.05-1-.07-.93-.09-2.05-.21-2.97-.41-13.09-2.48-23.37-12.46-28.14-24.67-7.75-19.98-2.71-43.23,8.19-61.03,4.14-6.6,8.99-12.81,15.26-17.55h0Z"/>
    <g>
      <path class="cls-1" d="m335.47,100.86c10.18,2.85,21.45,6.4,38-6.11,0,0,11.59-6.11,10.46,5.5-1.55,15.8-41.22,22.36-52.38,10.32-.12-.13-.3-.2-.44-.29-4.94-3.32-1.37-11.02,4.36-9.41Z"/>
      <g>
        <line class="cls-15" x1="333.8" y1="99.72" x2="329.56" y2="110.2"/>
        <rect class="cls-33" x="326.02" y="104.19" width="11.31" height="1.53" transform="translate(110.09 373.14) rotate(-67.99)"/>
      </g>
      <g>
        <line class="cls-15" x1="345.05" y1="102.33" x2="340.36" y2="115.78"/>
        <rect class="cls-33" x="335.59" y="108.29" width="14.24" height="1.53" transform="translate(126.88 396.74) rotate(-70.77)"/>
      </g>
      <g>
        <line class="cls-15" x1="368.58" y1="97.52" x2="373.74" y2="112.4"/>
        <rect class="cls-33" x="370.39" y="97.08" width="1.53" height="15.75" transform="translate(-13.89 127.61) rotate(-19.16)"/>
      </g>
      <g>
        <line class="cls-15" x1="374.85" y1="93.11" x2="384.3" y2="104.14"/>
        <rect class="cls-33" x="378.81" y="91.36" width="1.53" height="14.53" transform="translate(27.16 270.69) rotate(-40.59)"/>
      </g>
      <g>
        <line class="cls-15" x1="351.66" y1="102.64" x2="350.6" y2="116.91"/>
        <rect class="cls-33" x="343.98" y="109.01" width="14.31" height="1.53" transform="translate(215.71 451.83) rotate(-85.76)"/>
      </g>
      <g>
        <line class="cls-15" x1="358.12" y1="101.67" x2="363.05" y2="115.65"/>
        <rect class="cls-33" x="359.82" y="101.25" width="1.53" height="14.83" transform="translate(-15.61 126.23) rotate(-19.44)"/>
      </g>
      <path class="cls-15" d="m350.78,118.58c-9.1,0-17.63-2.16-22.35-7.16-.1-.05-.19-.11-.28-.17-3.57-2.4-3.85-6.32-2.55-9.14,1.54-3.34,5.09-4.99,8.63-4l.74.21c10.83,3.04,22.04,6.18,38.86-6.54l.11-.08.12-.06c.7-.37,6.99-3.54,10.98-.86,2.22,1.49,3.14,4.33,2.74,8.43-.66,6.77-7.11,12.69-17.69,16.25-5.92,1.99-12.77,3.12-19.31,3.12Zm-18.64-17.45c-1.77,0-2.98,1.18-3.52,2.37-.66,1.43-.69,3.6,1.39,5,0,0,.03.02.05.03.17.09.45.25.72.54,3.12,3.37,8.96,5.52,16.44,6.05,7.1.5,15.06-.52,21.83-2.8,9.29-3.13,14.92-8.03,15.45-13.44.19-1.92.12-4.41-1.28-5.35-1.95-1.31-6.03.25-7.48.98-10.04,7.56-18.36,9.84-25.67,9.84-5.85,0-11.06-1.46-15.97-2.84l-.74-.21c-.43-.12-.83-.17-1.21-.17Z"/>
    </g>
    <g>
      <path class="cls-1" d="m385.63,62.31c0,3.46-.68,6.66-1.83,9.29,0,0-1.61-1-4.55-.77.49-5.29-3.66-8.52-3.66-8.52,6.29-5.68,0-16.12,0-16.12,5.54,0,10.04,7.22,10.04,16.12Z"/>
      <path d="m383.97,72.16l-.37-.23s-1.56-.93-4.32-.71l-.45.04.04-.45c.46-5.01-3.47-8.16-3.51-8.19l-.36-.28.34-.3c5.98-5.4-.01-15.54-.07-15.64l-.35-.58h.68c5.75,0,10.42,7.4,10.42,16.51,0,3.4-.65,6.67-1.87,9.45l-.18.4Zm-3.85-1.74c1.73,0,2.91.41,3.49.66,1.08-2.6,1.64-5.62,1.64-8.77,0-8.31-3.98-15.14-8.99-15.7,1.21,2.32,4.99,10.64-.1,15.69.98.89,3.7,3.78,3.5,8.13.16,0,.31,0,.46,0Z"/>
    </g>
    <g>
      <path d="m379.25,70.84c-4.1-.08-7.64,1.52-10.39,3.44-2.03-2.95-3.31-7.22-3.31-11.96,0-8.9,4.5-16.12,10.04-16.12,0,0,6.29,10.44,0,16.12,0,0,4.14,3.23,3.66,8.52Z"/>
      <path d="m368.83,74.46l-.07-.11c-2.12-3.07-3.33-7.46-3.33-12.04,0-8.96,4.56-16.25,10.17-16.25h.07l.04.06c.06.1,6.2,10.48.08,16.19.67.58,4.03,3.74,3.59,8.54v.12s-.13,0-.13,0c-3.5-.07-6.97,1.08-10.31,3.42l-.11.07Zm6.69-28.14c-5.43.06-9.84,7.21-9.84,16,0,4.47,1.17,8.76,3.21,11.79,3.32-2.29,6.76-3.43,10.24-3.39.4-5.09-3.58-8.26-3.62-8.29l-.12-.09.11-.1c5.89-5.32.51-15.03.01-15.9Z"/>
    </g>
    <g>
      <path class="cls-1" d="m334.64,69.6c0,3.46-.68,6.66-1.83,9.29,0,0-1.61-1-4.55-.77.49-5.29-3.66-8.52-3.66-8.52,6.29-5.68,0-16.12,0-16.12,5.54,0,10.04,7.22,10.04,16.12Z"/>
      <path d="m332.98,79.45l-.37-.23s-1.56-.93-4.32-.71l-.45.04.04-.45c.46-5.01-3.47-8.16-3.51-8.19l-.36-.28.34-.3c5.98-5.4-.01-15.54-.07-15.64l-.35-.58h.68c5.75,0,10.42,7.4,10.42,16.51,0,3.4-.65,6.67-1.87,9.45l-.18.4Zm-3.85-1.74c1.73,0,2.91.41,3.49.66,1.08-2.6,1.64-5.62,1.64-8.77,0-8.31-3.98-15.14-8.99-15.7,1.21,2.32,4.99,10.64-.1,15.69.98.89,3.7,3.78,3.5,8.13.16,0,.31,0,.46,0Z"/>
    </g>
    <g>
      <path d="m328.26,78.13c-4.1-.08-7.64,1.52-10.39,3.44-2.03-2.95-3.31-7.22-3.31-11.96,0-8.9,4.5-16.12,10.04-16.12,0,0,6.29,10.44,0,16.12,0,0,4.14,3.23,3.66,8.52Z"/>
      <path d="m317.84,81.75l-.07-.11c-2.12-3.07-3.33-7.46-3.33-12.04,0-8.96,4.56-16.25,10.17-16.25h.07l.04.06c.06.1,6.2,10.48.08,16.19.67.58,4.03,3.74,3.59,8.54v.12s-.13,0-.13,0c-3.5-.07-6.97,1.08-10.31,3.42l-.11.07Zm6.69-28.14c-5.43.06-9.84,7.21-9.84,16,0,4.47,1.17,8.76,3.21,11.79,3.32-2.29,6.77-3.43,10.24-3.39.4-5.09-3.58-8.26-3.62-8.29l-.12-.09.11-.1c5.89-5.32.51-15.03.01-15.9Z"/>
    </g>
    <g>
      <circle class="cls-26" cx="317.24" cy="91.84" r="4.82"/>
      <path class="cls-49" d="m317.24,97.04c-1.39,0-2.69-.54-3.68-1.52s-1.52-2.29-1.52-3.68.54-2.69,1.52-3.68c.98-.98,2.29-1.52,3.68-1.52s2.69.54,3.68,1.52c.98.98,1.52,2.29,1.52,3.68s-.54,2.69-1.52,3.68h0c-.98.98-2.29,1.52-3.68,1.52Zm0-9.63c-1.18,0-2.3.46-3.14,1.3-.84.84-1.3,1.95-1.3,3.14s.46,2.3,1.3,3.14c.84.84,1.95,1.3,3.14,1.3s2.3-.46,3.14-1.3h0c.84-.84,1.3-1.95,1.3-3.14s-.46-2.3-1.3-3.14-1.95-1.3-3.14-1.3Z"/>
    </g>
    <g>
      <circle class="cls-26" cx="390.91" cy="87.42" r="4.82"/>
      <path class="cls-49" d="m390.91,92.62c-.62,0-1.23-.11-1.83-.33-1.3-.49-2.33-1.45-2.91-2.72s-.62-2.68-.13-3.98,1.45-2.33,2.72-2.91c1.26-.57,2.68-.62,3.98-.13,1.3.49,2.33,1.45,2.91,2.72.57,1.26.62,2.68.13,3.98s-1.45,2.33-2.72,2.91c-.69.31-1.42.47-2.15.47Zm0-9.64c-.62,0-1.25.13-1.83.4-1.08.49-1.9,1.37-2.32,2.48-.42,1.11-.38,2.31.11,3.39.49,1.08,1.37,1.9,2.48,2.32,1.11.42,2.31.38,3.39-.11h0c1.08-.49,1.9-1.37,2.32-2.48.42-1.11.38-2.31-.11-3.39s-1.37-1.9-2.48-2.32c-.51-.19-1.03-.29-1.56-.29Z"/>
    </g>
    <rect x="378.87" y="44.98" width="6.42" height="1.02" transform="translate(166.92 364.49) rotate(-62.79)"/>
    <rect x="376.56" y="41.6" width="1.02" height="4.7"/>
    <path class="cls-11" d="m315.86,87.07c-.71,2.01-1.6,3.64-1.74,5.73-.05.64-.01,1.34.01,2.19-3.31-1.96-1.76-7.18,1.73-7.92h0Z"/>
    <path class="cls-11" d="m389.33,83.11c-.71,2.01-1.6,3.64-1.74,5.73-.05.64-.01,1.34.01,2.19-3.31-1.96-1.76-7.18,1.73-7.92h0Z"/>
    <path class="cls-22" d="m390.91,37.7c7.53-1.7,16.1-.64,23.23,2.26,10.36,4.19,18.16,13.06,19.21,24.42.17,1.96.16,3.95-.07,5.9-.08.65-.19,1.29-.31,1.93-.21-.62-.37-1.24-.57-1.85-.37-1.19-.76-2.42-1.19-3.59-6.36-18.61-22.71-24.56-40.29-29.07h0Z"/>
    <g>
      <path class="cls-25" d="m445.23,25.66c-3.41-5.72-15.44,0-15.44,0-5.51-5.41-19.15-12.9-30.87-10.2-13.59,3.13-23.63-.83-32.63,22.32-.33.84.41,1.7,1.29,1.51.29-.06.55-.24.71-.5,1.56-2.46,10.05-15.56,13.79-15.93,4.13-.41,15.79-8.08,37.26,1.42,0,0,4.14,1.66,6.01,3.22.55.46.54,1.29-.01,1.74l-1.58,1.28c-.2.16-1.66.75-1.85.92-2.26,1.95-1.61,7.43,4.93,9.53.54.17,1.12-.17,1.31-.7.42-1.13.74-3.35-1.24-6.32-.24-.36-.26-.83-.03-1.21.33-.55.86-1.38,1.54-2.28,13.74,15.06,18.44,4.18,18.44,4.18,0,0,1.79-3.28-1.62-9Zm-5.75,8.96c-1.79-.54-5.05-1.22-7.5-6.19-.14-.3-.34-.61-.58-.95,1.68-1.19,3.65-1.73,5.65-.47,5.41,3.41,4.23,8.15,2.43,7.61Z"/>
      <path class="cls-25" d="m427.12,41.15c-.11,0-.22-.02-.33-.05-4.75-1.53-5.84-4.54-6.09-5.77-.32-1.59.11-3.11,1.12-3.98.11-.09.44-.25.99-.5.35-.16.79-.36.87-.43l1.58-1.28c.23-.19.37-.47.37-.77,0-.3-.13-.58-.36-.78-1.83-1.53-5.93-3.18-5.98-3.2-17.31-7.66-28.13-4.16-33.94-2.28-1.37.44-2.45.79-3.25.87-3.67.36-12.05,13.28-13.69,15.87-.18.29-.46.48-.79.55-.46.1-.92-.05-1.22-.41-.31-.36-.39-.83-.22-1.27,7.28-18.7,15.17-19.77,25.17-21.12,2.41-.33,4.91-.66,7.55-1.27,11.46-2.64,24.95,4.34,30.93,10.17,1.15-.53,12.2-5.48,15.52.09h0c3.41,5.72,1.7,8.99,1.63,9.12,0,.02-1.42,3.2-4.84,3.77-3.76.63-8.37-2-13.71-7.82-.64.84-1.14,1.63-1.44,2.14-.2.33-.18.75.03,1.07,2.04,3.05,1.66,5.34,1.26,6.43-.19.5-.66.83-1.14.83Zm-28.07-21.74c5.45,0,12.17,1.14,20.33,4.75.17.07,4.17,1.68,6.04,3.24.29.24.45.6.45.97,0,.38-.17.73-.46.97l-1.58,1.28c-.1.08-.42.23-.93.46-.37.17-.84.38-.93.46-.94.81-1.34,2.24-1.04,3.74.24,1.18,1.29,4.08,5.92,5.57.46.15.97-.13,1.15-.62.39-1.05.74-3.25-1.23-6.2-.27-.4-.28-.93-.04-1.34.33-.55.86-1.39,1.55-2.29l.09-.12.1.11c5.32,5.83,9.89,8.47,13.58,7.85,3.28-.55,4.64-3.6,4.65-3.64.02-.04,1.72-3.3-1.61-8.88h0c-3.32-5.56-15.15,0-15.27.05l-.08.04-.06-.06c-5.91-5.8-19.36-12.79-30.76-10.17-2.66.61-5.16.95-7.58,1.28-9.91,1.34-17.74,2.4-24.97,20.96-.14.35-.07.73.17,1.01.24.29.61.41.98.33.26-.06.49-.21.63-.44,1.65-2.6,10.1-15.62,13.88-15.99.78-.08,1.85-.42,3.2-.86,3.1-1,7.63-2.46,13.79-2.46Zm40.71,15.38c-.1,0-.21-.02-.32-.05h0c-.11-.03-.22-.07-.34-.1-1.84-.54-4.91-1.43-7.23-6.15-.14-.29-.33-.6-.57-.93l-.08-.1.11-.07c2.05-1.45,4-1.61,5.79-.47,3.94,2.49,4.39,5.64,3.75,7.04-.25.54-.66.85-1.11.85Zm-8.18-7.28c.21.3.39.59.52.86,2.27,4.62,5.28,5.49,7.08,6.02.12.03.23.07.34.1h0c.45.14.87-.11,1.12-.66.6-1.32.14-4.31-3.66-6.72-1.67-1.05-3.48-.92-5.4.39Z"/>
    </g>
    <path class="cls-4" d="m367.28,37.9c-.35-.91-.17-1.95,0-2.88.2-.94.5-1.83.84-2.7,1.44-3.44,3.57-6.51,6.31-9.04,1.32-1.14,2.82-2.38,4.6-2.68.12-.01.25,0,.37,0-.39.27-.65.63-.93.98-.79,1.06-1.49,2.18-2.22,3.28-1.92,2.94-3.94,5.81-6.03,8.63-.9,1.25-1.89,2.45-2.66,3.79-.09.15-.22.45-.28.63h0Z"/>
    <path class="cls-12" d="m317.53,66.33c.33,2.5.48,4.74,1.01,7.13.33,1.48.77,2.66,1.22,4.24-4.11-1.87-5.11-8.05-2.23-11.37h0Z"/>
    <path class="cls-12" d="m367.24,60.23c.33,2.5.48,4.74,1.01,7.13.33,1.48.77,2.66,1.22,4.24-4.11-1.87-5.11-8.05-2.23-11.37h0Z"/>
    <g>
      <line class="cls-34" x1="318.03" y1="51.02" x2="320.37" y2="55.09"/>
      <rect x="318.69" y="50.71" width="1.02" height="4.7" transform="translate(15.93 165.89) rotate(-29.85)"/>
    </g>
    <rect x="323.83" y="48.91" width="1.02" height="4.7"/>
  </g>
</svg>