<svg id="Twitter_Icon" data-name="Twitter Icon" xmlns="http://www.w3.org/2000/svg" width="34" height="31" viewBox="0 0 34 31">
  <path id="Twitter_Icon-2" data-name="Twitter Icon" d="M30.505,11.107c.022.339.022.678.022,1.017,0,10.341-7.011,22.257-19.826,22.257A18.165,18.165,0,0,1,0,30.869a12.857,12.857,0,0,0,1.683.1,13.021,13.021,0,0,0,8.651-3.342A7.134,7.134,0,0,1,3.819,22.2a7.851,7.851,0,0,0,1.316.121,6.614,6.614,0,0,0,1.834-.266,7.655,7.655,0,0,1-5.588-7.677v-.1a6.451,6.451,0,0,0,3.15.993A8.106,8.106,0,0,1,1.424,8.757,8.5,8.5,0,0,1,2.373,4.81,19.188,19.188,0,0,0,16.741,13a9.873,9.873,0,0,1-.173-1.792c0-4.311,3.107-7.823,6.968-7.823a6.623,6.623,0,0,1,5.091,2.47,12.847,12.847,0,0,0,4.423-1.889,7.706,7.706,0,0,1-3.063,4.311A12.789,12.789,0,0,0,34,7.062a16.111,16.111,0,0,1-3.495,4.044Z" transform="translate(0 -3.381)" fill="#f4a8d1"/>
</svg>
